<svg id="Layer_1" data-name="Layer 1" xmlns="http://www.w3.org/2000/svg" viewBox="0 0 1890.57 737.09"><defs><style>.cls-1,.cls-5{fill:#fff;}.cls-1,.cls-8{stroke:#c5c2d5;stroke-width:7.09px;}.cls-1,.cls-7,.cls-8{stroke-miterlimit:10;}.cls-2{fill:#877da8;}.cls-3{font-size:40.74px;fill:#f8f7fa;}.cls-10,.cls-11,.cls-3{font-family:Poppins-SemiBold, Poppins;}.cls-10,.cls-12,.cls-3{font-weight:700;}.cls-4{fill:#f8f8f8;}.cls-6{font-size:30.96px;fill:#2b283c;font-family:Poppins-Medium, Poppins;}.cls-7,.cls-8{fill:none;}.cls-7{stroke:#fff;}.cls-9{font-size:29.33px;}.cls-13,.cls-14,.cls-15,.cls-9{font-family:Poppins-Regular, Poppins;}.cls-14{font-size:22.81px;}.cls-15{font-size:32.59px;}</style></defs><title>aisvgtable</title><rect class="cls-1" x="3.54" y="3.54" width="1883.48" height="730"/><rect class="cls-2" x="6.86" y="6.8" width="1875.51" height="105.92"/><text class="cls-3" transform="translate(44.34 71.56)">Materials</text><text class="cls-3" transform="translate(767.82 71.56)">Details</text><text class="cls-3" transform="translate(1235.48 71.56)">Uses</text><rect class="cls-4" x="6.86" y="316.13" width="1875.51" height="204.23"/><rect class="cls-5" x="8.49" y="112.45" width="1873.88" height="204.23"/><text class="cls-6" transform="translate(44.34 215.47)">PLA (Polylactic acid)</text><rect class="cls-5" x="8.49" y="521.44" width="1873.88" height="204.23"/><line class="cls-7" x1="1200.45" y1="6.8" x2="1200.45" y2="112.72"/><line class="cls-7" x1="744.2" y1="6.8" x2="744.2" y2="112.72"/><text class="cls-6" transform="translate(44.34 420.78)">ABS (Acrylonitrile Butadiene Styrene)</text><text class="cls-6" transform="translate(44.34 629.35)">PETG (Polyethylene Terephthalate Glycol)</text><rect class="cls-8" x="3.54" y="3.54" width="1883.48" height="730"/><text class="cls-9" transform="translate(1235.48 200.89)">The best use of PLA is for printing <tspan class="cls-10" x="484.71" y="0">concept </tspan><tspan class="cls-11"><tspan class="cls-12" x="0" y="38.58">models, prototypes</tspan><tspan class="cls-13" x="289.63" y="38.58">, or </tspan><tspan class="cls-12" x="340.82" y="38.58">low-wear toys</tspan><tspan class="cls-13" x="554.93" y="38.58">.</tspan></tspan></text><text class="cls-9" transform="translate(1235.48 385.43)">The best use of ABS is for <tspan class="cls-10" x="369.18" y="0">architectural </tspan><tspan class="cls-10"><tspan x="0" y="38.58">models, concept models, spare parts </tspan></tspan><tspan class="cls-11"><tspan class="cls-12" x="0" y="77.16">(car interior, gears, phone cases)</tspan><tspan class="cls-13" x="497.03" y="77.16">, etc.</tspan></tspan></text><text class="cls-9" transform="translate(1235.48 595.65)">PETG is used universally but is especially <tspan x="0" y="38.58">suitable for </tspan><tspan class="cls-10" x="172.05" y="38.58">mechanical parts</tspan><tspan x="437.02" y="38.58" xml:space="preserve"> for both </tspan><tspan x="0" y="77.16">indoor and outdoor use.</tspan></text><text class="cls-14" transform="translate(767.82 170.33)">STRENGTH:<tspan x="0" y="47.25">FLEXIBILITY:</tspan><tspan x="0" y="94.51">DURABILITY:</tspan></text><text class="cls-15" transform="translate(920.99 172.68)">High<tspan x="0" y="47.25">Low</tspan><tspan x="0" y="94.51">Medium</tspan></text><text class="cls-14" transform="translate(767.82 375.65)">STRENGTH:<tspan x="0" y="47.25">FLEXIBILITY:</tspan><tspan x="0" y="94.51">DURABILITY:</tspan></text><text class="cls-15" transform="translate(920.99 377.99)">High<tspan x="0" y="47.25">Medium</tspan><tspan x="0" y="94.51">High</tspan></text><text class="cls-14" transform="translate(767.82 582.59)">STRENGTH:<tspan x="0" y="47.25">FLEXIBILITY:</tspan><tspan x="0" y="94.51">DURABILITY:</tspan></text><text class="cls-15" transform="translate(920.99 584.94)">High<tspan x="0" y="47.25">Medium</tspan><tspan x="0" y="94.51">High</tspan></text></svg>