<svg width="124" height="126" viewBox="0 0 124 126" fill="none" xmlns="http://www.w3.org/2000/svg">
<path d="M23.5156 46.1597L28.8624 37.1113H34.2092L28.8624 46.1597H23.5156Z" fill="#42A8C1"/>
<path d="M15.365 16.2483C15.365 13.287 17.7879 10.8641 20.7492 10.8641H31.5176V0.0957031H20.7492C11.8115 0.0957031 4.59668 7.31051 4.59668 16.2483V27.0166H15.365V16.2483Z" fill="#42A8C1"/>
<path d="M15.3641 102.398V91.6299H4.5957V102.398C4.5957 111.336 11.8105 118.551 20.7483 118.551H31.5166V107.782H20.7483C17.787 107.782 15.3641 105.36 15.3641 102.398Z" fill="#42A8C1"/>
<path d="M106.895 0.0957031H96.127V10.8641H106.895C109.857 10.8641 112.279 13.287 112.279 16.2483V27.0166H123.048V16.2483C123.048 7.31051 115.833 0.0957031 106.895 0.0957031Z" fill="#42A8C1"/>
<path d="M112.279 102.398C112.279 105.36 109.857 107.782 106.895 107.782H96.127V118.551H106.895C115.833 118.551 123.048 111.336 123.048 102.398V91.6299H112.279V102.398Z" fill="#42A8C1"/>
<path d="M101.511 74.7718V43.8666C101.511 39.99 99.4654 36.4364 96.1272 34.552L69.2063 19.0455C67.5372 18.0764 65.7066 17.5918 63.8221 17.5918C61.9376 17.5918 60.107 18.0764 58.4379 19.0455L31.517 34.4981C28.1788 36.4364 26.1328 39.99 26.1328 43.8666V74.7718C26.1328 78.6484 28.1788 82.202 31.517 84.0865L58.4379 99.5929C60.107 100.562 61.9376 101.047 63.8221 101.047C65.7066 101.047 67.5372 100.562 69.2063 99.5929L96.1272 84.0865C99.4654 82.202 101.511 78.6484 101.511 74.7718ZM58.4379 87.1554L36.9012 74.7718V49.8431L58.4379 62.3882V87.1554ZM63.8221 53.0736L42.5007 40.6361L63.8221 28.3602L85.1435 40.6361L63.8221 53.0736ZM90.743 74.7718L69.2063 87.1554V62.3882L90.743 49.8431V74.7718Z" fill="#42A8C1"/>
<path d="M92.2002 114.024L95.9018 107.854L99.1921 110.734L95.9018 115.258L92.2002 114.024Z" fill="#42A8C1"/>
<path d="M0.485352 98.394L4.59825 91.8134L7.47728 94.6924L4.59825 99.6279L0.485352 98.394Z" fill="#42A8C1"/>
<path d="M27.6305 125.128L31.3321 118.547V115.668L27.6305 116.902L25.1628 118.547L27.6305 125.128Z" fill="#42A8C1"/>
<path d="M11.1789 32.9989L15.2918 26.8296L9.53373 23.9505L7.47728 27.6521L11.1789 32.9989Z" fill="#42A8C1"/>
<path d="M27.6305 16.9586L31.3321 10.7892L26.3966 9.96666L22.695 12.4344L27.6305 16.9586Z" fill="#42A8C1"/>
<path d="M118.526 32.9989L123.05 26.8296L120.171 23.9505L117.292 27.6521L118.526 32.9989Z" fill="#42A8C1"/>
<path d="M91.7917 7.49892L96.3159 0.0957031L99.6062 4.2086L97.5498 7.49892H91.7917Z" fill="#42A8C1"/>
<path d="M108.652 98.3941L112.354 91.8135H115.644L116.878 102.096L108.652 98.3941Z" fill="#42A8C1"/>
<path d="M11.2537 22.8283C11.2537 19.867 13.6766 17.4441 16.6379 17.4441H27.4063V6.67578H16.6379C7.70016 6.67578 0.485352 13.8906 0.485352 22.8283V33.5967H11.2537V22.8283Z" fill="white"/>
<path d="M11.2547 108.978V98.21H0.486328V108.978C0.486328 117.916 7.70113 125.131 16.6389 125.131H27.4072V114.363H16.6389C13.6776 114.363 11.2547 111.94 11.2547 108.978Z" fill="white"/>
<path d="M102.784 6.67578H92.0156V17.4441H102.784C105.745 17.4441 108.168 19.867 108.168 22.8283V33.5967H118.937V22.8283C118.937 13.8906 111.722 6.67578 102.784 6.67578Z" fill="white"/>
<path d="M108.168 108.978C108.168 111.94 105.745 114.363 102.784 114.363H92.0156V125.131H102.784C111.722 125.131 118.937 117.916 118.937 108.978V98.21H108.168V108.978Z" fill="white"/>
<path d="M97.4001 81.3529V50.4477C97.4001 46.5711 95.3541 43.0175 92.0159 41.133L65.095 25.6266C63.4259 24.6574 61.5952 24.1729 59.7108 24.1729C57.8263 24.1729 55.9957 24.6574 54.3266 25.6266L27.4057 41.0792C24.0675 43.0175 22.0215 46.5711 22.0215 50.4477V81.3529C22.0215 85.2295 24.0675 88.7831 27.4057 90.6675L54.3266 106.174C55.9957 107.143 57.8263 107.628 59.7108 107.628C61.5952 107.628 63.4259 107.143 65.095 106.174L92.0159 90.6675C95.3541 88.7831 97.4001 85.2295 97.4001 81.3529ZM54.3266 93.7365L32.7899 81.3529V56.4241L54.3266 68.9693V93.7365ZM59.7108 59.6546L38.3894 47.2172L59.7108 34.9412L81.0321 47.2172L59.7108 59.6546ZM86.6317 81.3529L65.095 93.7365V68.9693L86.6317 56.4241V81.3529Z" fill="white"/>
</svg>
