<svg width="20" height="20" viewBox="0 0 20 20" fill="none" xmlns="http://www.w3.org/2000/svg">
<path d="M1.81614 2.72421C1.81614 2.22477 2.22477 1.81614 2.72421 1.81614H4.54035V0H2.72421C1.21681 0 0 1.21681 0 2.72421V4.54035H1.81614V2.72421Z" fill="#262626"/>
<path d="M1.81614 17.2539V15.4377H0V17.2539C0 18.7613 1.21681 19.9781 2.72421 19.9781H4.54035V18.162H2.72421C2.22477 18.162 1.81614 17.7533 1.81614 17.2539Z" fill="#262626"/>
<path d="M17.2536 0H15.4375V1.81614H17.2536C17.7531 1.81614 18.1617 2.22477 18.1617 2.72421V4.54035H19.9778V2.72421C19.9778 1.21681 18.761 0 17.2536 0Z" fill="#262626"/>
<path d="M18.1617 17.2539C18.1617 17.7533 17.7531 18.162 17.2536 18.162H15.4375V19.9781H17.2536C18.761 19.9781 19.9778 18.7613 19.9778 17.2539V15.4377H18.1617V17.2539Z" fill="#262626"/>
<path d="M16.3458 12.5949V7.38255C16.3458 6.72874 16.0007 6.12942 15.4377 5.81159L10.8974 3.19635C10.6159 3.0329 10.3071 2.95117 9.9893 2.95117C9.67148 2.95117 9.36273 3.0329 9.08123 3.19635L4.54088 5.80251C3.97788 6.12942 3.63281 6.72874 3.63281 7.38255V12.5949C3.63281 13.2487 3.97788 13.848 4.54088 14.1658L9.08123 16.7811C9.36273 16.9445 9.67148 17.0263 9.9893 17.0263C10.3071 17.0263 10.6159 16.9445 10.8974 16.7811L15.4377 14.1658C16.0007 13.848 16.3458 13.2487 16.3458 12.5949ZM9.08123 14.6834L5.44895 12.5949V8.39051L9.08123 10.5063V14.6834ZM9.9893 8.93535L6.39334 6.83771L9.9893 4.76731L13.5853 6.83771L9.9893 8.93535ZM14.5296 12.5949L10.8974 14.6834V10.5063L14.5296 8.39051V12.5949Z" fill="#262626"/>
</svg>
