<svg width="19" height="20" viewBox="0 0 19 20" fill="none" xmlns="http://www.w3.org/2000/svg">
<path d="M16.7341 2.28634H14.6423V0.19458H4.18352V2.28634H2.09176C0.941291 2.28634 0 3.22763 0 4.3781V5.42397C0 8.09097 2.00809 10.2664 4.59141 10.5906C5.25031 12.1594 6.66225 13.3413 8.36703 13.6864V16.9286H4.18352V19.0204H14.6423V16.9286H10.4588V13.6864C12.1636 13.3413 13.5755 12.1594 14.2344 10.5906C16.8177 10.2664 18.8258 8.09097 18.8258 5.42397V4.3781C18.8258 3.22763 17.8845 2.28634 16.7341 2.28634ZM2.09176 5.42397V4.3781H4.18352V8.37335C2.9703 7.93408 2.09176 6.78362 2.09176 5.42397ZM9.41291 11.6992C7.68721 11.6992 6.27527 10.2873 6.27527 8.56161V2.28634H12.5505V8.56161C12.5505 10.2873 11.1386 11.6992 9.41291 11.6992ZM16.7341 5.42397C16.7341 6.78362 15.8555 7.93408 14.6423 8.37335V4.3781H16.7341V5.42397Z" fill="#262626"/>
</svg>
