<svg width="263" height="252" viewBox="0 0 263 252" fill="none" xmlns="http://www.w3.org/2000/svg">
<path d="M12.1505 63.043C35.0754 30.9573 137.601 28.8777 185.998 31.8486C201.917 32.5607 226.753 54.7669 245.221 101.877C263.688 148.987 205.739 166.812 148.427 215.195C91.1145 263.578 1.96168 205.646 12.1505 160.446C22.3394 115.246 -16.5056 103.15 12.1505 63.043Z" fill="#F3F3F3"/>
<g clip-path="url(#clip0)">
<path d="M40.577 111.669L36.5543 105.046C36.5543 105.046 40.6531 101.364 35.5546 97.4511C30.4561 93.5385 23.5576 89.0104 23.5576 89.0104C23.5576 89.0104 22.2088 87.4705 21.5843 89.2723C20.9598 91.0741 24.6885 95.4424 24.6885 95.4424C24.6885 95.4424 20.8706 99.0879 8.51406 100.994C-3.84246 102.901 -0.761859 111.08 5.29963 111.428C11.3611 111.776 25.9376 109.296 25.9376 109.296L29.1441 120.602L37.9949 116.011L40.577 111.669Z" fill="#F9E4D7"/>
<path d="M178.136 109.961L181.022 103.414C181.022 103.414 176.824 100.533 181.022 96.343C185.221 92.1528 190.993 87.1769 190.993 87.1769C190.993 87.1769 192.043 85.6056 192.83 87.1769C193.617 88.7482 190.731 93.2003 190.731 93.2003C190.731 93.2003 194.667 96.0811 206.213 96.343C217.758 96.6049 215.922 104.462 210.411 105.509C204.901 106.557 191.256 106.033 191.256 106.033L189.681 116.77L181.022 113.628L178.136 109.961Z" fill="#F9E4D7"/>
<path d="M104.135 84.0347L103.075 100.01L110.916 119.128L125.534 113.366V102.367L127.229 85.0822L104.135 84.0347Z" fill="#F9E4D7"/>
<path d="M93.7675 67.8865L89.1807 49.8162C89.1807 49.8162 89.6399 30.8189 104.313 31.505C104.313 31.505 112.338 28.2995 120.821 36.3107C120.821 36.3107 122.658 37.2246 129.305 35.394C135.951 33.5634 142.831 36.9968 140.541 43.8609C138.25 50.725 133.432 73.8367 133.432 73.8367L94.9142 71.0921L93.7675 67.8865Z" fill="#5B393D"/>
<path d="M95.7422 71.4639L98.891 79.3205L103.089 80.63L98.891 71.4639H95.7422Z" fill="#5B393D"/>
<path d="M97.78 70.2908C97.78 70.2908 99.155 65.2573 93.6525 65.9435C88.1499 66.6296 91.3591 77.3854 97.78 76.6966C97.78 76.6966 100.761 87.2246 107.41 91.3441C114.059 95.4636 119.79 97.522 125.516 93.6303C131.242 89.7387 133.884 78.6425 133.65 76.584C133.417 74.5256 135.372 51.9848 135.372 51.9848L106.723 42.3735L97.78 70.2908Z" fill="#F9E4D7"/>
<path d="M97.6641 73.3788C97.6641 73.3788 98.3804 74.2587 100.645 73.3788C104.773 71.7786 106.418 60.5096 104.319 57.82C104.319 57.82 123.12 47.9808 133.445 56.6755L135.282 62.1752L135.741 47.3025L106.148 39.0557L97.895 54.6171L97.6641 73.3788Z" fill="#5B393D"/>
<path d="M104.663 96.0815C104.663 96.0815 82.8836 98.9623 78.4228 103.414C73.962 107.867 63.4659 122.27 59.2674 128.818C55.069 135.365 55.8562 134.317 55.8562 134.317L40.8993 106.819C40.8993 106.819 28.5664 115.199 28.5664 119.39C28.5664 123.58 51.6578 164.173 59.2674 162.863C66.8771 161.554 80.2596 141.388 80.2596 141.388L84.1956 193.504L105.713 204.503L147.959 185.386C147.959 185.386 149.271 150.816 147.172 140.603L156.094 153.959C156.094 153.959 164.753 167.053 174.724 157.102C184.696 147.15 192.83 114.676 192.83 114.676L178.136 106.033L166.852 133.793C166.852 133.793 159.505 117.818 150.846 108.128C142.187 98.4385 126.07 96.917 126.07 96.917C126.07 96.917 124.343 106.819 116.471 106.819C108.599 106.819 104.663 96.0815 104.663 96.0815Z" fill="#6CD8D0"/>
<path d="M262.628 198.624V206.337L256.168 205.92L249.508 196.123L262.628 198.624Z" fill="#B2D8D1"/>
<path d="M26.7861 200.083V208.958L30.6513 211.837L34.1911 204.061L26.7861 200.083Z" fill="#B2D8D1"/>
<path d="M218.282 170.18L29.0905 204.975C29.0905 204.975 24.8921 206.727 27.5161 209.731C30.1401 212.734 60.3164 247.78 60.3164 247.78C60.3164 247.78 64.5148 253.039 75.0109 251.284C85.507 249.53 261.054 208.73 261.054 208.73C261.054 208.73 264.728 206.478 261.054 202.969C257.38 199.459 223.006 170.175 223.006 170.175C223.006 170.175 222.218 169.429 218.282 170.18Z" fill="#B2D8D1"/>
<path d="M208.574 166.529L29.0905 197.694C29.0905 197.694 24.8921 199.527 27.5161 202.67C30.1401 205.813 60.3164 242.477 60.3164 242.477C60.3164 242.477 64.5148 247.977 75.0109 246.143C85.507 244.31 261.054 201.622 261.054 201.622C261.054 201.622 264.728 199.265 261.054 195.599C257.38 191.933 213.297 166.529 213.297 166.529C213.297 166.529 212.51 165.744 208.574 166.529Z" fill="#CCFFF8"/>
<path d="M83.6709 201.361L84.1957 232.787C84.1957 232.787 109.124 225.454 118.57 225.978L111.223 195.075C111.223 195.075 90.4934 197.432 83.6709 201.361Z" fill="white"/>
<path d="M118.571 226.24C129.067 213.931 156.094 216.55 156.094 216.55L135.102 189.837C123.294 189.314 110.961 195.075 110.961 195.075L118.571 226.24Z" fill="white"/>
<path d="M209.333 177.791L167.204 185.315C167.186 185.318 167.168 185.327 167.155 185.34C167.142 185.353 167.133 185.371 167.13 185.389C167.127 185.408 167.13 185.427 167.139 185.444C167.147 185.461 167.161 185.474 167.178 185.483L196.216 201.345C196.234 201.351 196.255 201.351 196.273 201.345L239.543 193.541C239.562 193.538 239.579 193.529 239.592 193.515C239.605 193.502 239.613 193.484 239.616 193.466C239.619 193.447 239.615 193.428 239.607 193.412C239.598 193.395 239.584 193.382 239.567 193.373L209.396 177.804C209.377 177.794 209.355 177.789 209.333 177.791Z" fill="#0D2B3F"/>
<path d="M196.241 200.691V165.453C196.242 165.317 196.292 165.185 196.383 165.082C196.474 164.98 196.599 164.913 196.735 164.896L239.168 159.54C239.247 159.53 239.327 159.536 239.403 159.559C239.48 159.582 239.55 159.622 239.61 159.674C239.67 159.727 239.718 159.792 239.751 159.864C239.783 159.937 239.8 160.016 239.8 160.095V193.036C239.8 193.167 239.754 193.295 239.67 193.396C239.585 193.497 239.468 193.565 239.338 193.588L196.905 201.241C196.824 201.255 196.741 201.253 196.661 201.232C196.582 201.211 196.507 201.173 196.444 201.121C196.381 201.068 196.33 201.002 196.295 200.928C196.26 200.854 196.241 200.773 196.241 200.691Z" fill="#2C4250"/>
<path d="M195.98 201.623L167.244 186.171C167.236 186.167 167.229 186.16 167.223 186.153C167.218 186.145 167.214 186.136 167.213 186.127L167.131 185.514C167.13 185.503 167.132 185.492 167.136 185.482C167.141 185.472 167.148 185.463 167.157 185.457C167.167 185.45 167.177 185.447 167.189 185.446C167.2 185.446 167.211 185.448 167.221 185.454L196.242 201.361C196.253 201.448 196.253 201.536 196.242 201.623H195.98Z" fill="#061F33"/>
<path d="M77.5032 207.711V222.77L76.5192 224.407L75.5352 222.77V207.711L76.5192 207.384L77.5032 207.711Z" fill="#F9FC7C"/>
<path d="M75.5352 222.77C75.8301 222.585 76.1711 222.487 76.5192 222.487C76.8672 222.487 77.2083 222.585 77.5032 222.77L76.5192 224.406L75.5352 222.77Z" fill="#FAFCDB"/>
<path d="M76.849 223.883C76.8227 223.816 76.7792 223.758 76.7227 223.713C76.6663 223.668 76.599 223.64 76.5278 223.63C76.4566 223.619 76.3839 223.628 76.3173 223.655C76.2506 223.682 76.1924 223.727 76.1484 223.783L76.521 224.407L76.849 223.883Z" fill="#444444"/>
<path d="M64.5162 207.384L59.793 210.789V212.884L62.1546 214.979L67.665 210.527V208.693L65.8282 207.122L64.5162 207.384Z" fill="#D87C75"/>
<path d="M62.7842 208.633L65.3032 210.527V212.428L67.6649 210.527V208.693L65.828 207.122L64.516 207.384L62.7842 208.633Z" fill="#3594B4"/>
<path d="M59.793 210.788L62.1546 212.621L65.3034 210.526L62.8342 208.596L59.793 210.788Z" fill="#ED897D"/>
<path d="M110.961 195.075L118.571 225.978" stroke="#E0E0E0" stroke-width="0.698646" stroke-miterlimit="10"/>
<path d="M148.352 213.8C148.352 213.8 131.543 211.705 121.456 219.038" stroke="#E0E0E0" stroke-width="4.3316" stroke-miterlimit="10" stroke-linecap="round"/>
<path d="M145.729 210.396C145.729 210.396 129.985 208.301 120.538 215.633" stroke="#E0E0E0" stroke-width="4.19187" stroke-miterlimit="10" stroke-linecap="round"/>
<path d="M142.188 203.964C142.188 203.964 127.183 201.968 118.178 208.958" stroke="#E0E0E0" stroke-width="3.99625" stroke-miterlimit="10" stroke-linecap="round"/>
<path d="M144.417 207.253C144.417 207.253 128.673 205.158 119.227 212.491" stroke="#E0E0E0" stroke-width="4.19187" stroke-miterlimit="10" stroke-linecap="round"/>
<path d="M113.717 223.228C113.717 223.228 102.958 221.657 88.5264 227.68" stroke="#E0E0E0" stroke-width="4.3316" stroke-miterlimit="10" stroke-linecap="round"/>
<path d="M113.454 219.562C113.454 219.562 102.696 217.99 88.2637 224.014" stroke="#E0E0E0" stroke-width="4.3316" stroke-miterlimit="10" stroke-linecap="round"/>
<path d="M113.454 214.848C113.454 214.848 102.696 213.276 88.2637 219.3" stroke="#E0E0E0" stroke-width="4.3316" stroke-miterlimit="10" stroke-linecap="round"/>
<path d="M196.241 201.622L239.8 193.766V193.08L196.241 201.083V201.622Z" fill="#22333D"/>
</g>
<path d="M169.531 20.288C172.987 20.7539 175.635 22.0751 177.473 24.2517C179.349 26.3995 180.066 29.1185 179.622 32.4087C179.183 35.6657 177.8 38.0172 175.474 39.4632C173.151 40.8759 170.262 41.3494 166.806 40.8835L166.089 44.6952L159.957 43.8688L160.85 35.3604L163.093 35.6627C165.985 36.0524 168.263 35.9704 169.928 35.4165C171.593 34.8626 172.562 33.5721 172.835 31.5448C173.033 30.0824 172.757 28.861 172.01 27.8804C171.295 26.9044 170.207 26.3178 168.745 26.1207C167.216 25.9146 165.963 26.1688 164.987 26.8832C164.044 27.6021 163.474 28.6927 163.277 30.155L156.697 29.2681C156.937 27.2363 157.613 25.4832 158.725 24.0089C159.838 22.5346 161.319 21.4653 163.168 20.8009C165.05 20.1409 167.171 19.97 169.531 20.288ZM161.392 56.1932C160.129 56.023 159.134 55.4997 158.406 54.6233C157.716 53.7182 157.449 52.684 157.606 51.5208C157.763 50.3576 158.292 49.4475 159.192 48.7907C160.131 48.105 161.231 47.8473 162.494 48.0175C163.724 48.1833 164.684 48.7187 165.374 49.6238C166.068 50.4957 166.337 51.5133 166.181 52.6765C166.024 53.8397 165.493 54.7663 164.588 55.4565C163.687 56.1134 162.622 56.3589 161.392 56.1932Z" fill="#262626"/>
<path d="M170.254 21.8163C173.711 22.2822 176.358 23.6034 178.197 25.78C180.073 27.9278 180.789 30.6468 180.346 33.937C179.907 37.194 178.524 39.5455 176.197 40.9915C173.875 42.4042 170.986 42.8777 167.529 42.4118L166.812 46.2235L160.681 45.3971L161.574 36.8887L163.817 37.1911C166.708 37.5808 168.987 37.4987 170.652 36.9448C172.317 36.391 173.286 35.1004 173.559 33.0731C173.756 31.6108 173.481 30.3893 172.733 29.4088C172.019 28.4327 170.931 27.8461 169.468 27.649C167.939 27.4429 166.687 27.6971 165.711 28.4115C164.768 29.1304 164.198 30.221 164.001 31.6833L157.421 30.7964C157.661 28.7646 158.337 27.0116 159.449 25.5373C160.561 24.0629 162.042 22.9936 163.891 22.3292C165.774 21.6693 167.895 21.4983 170.254 21.8163ZM162.116 57.7215C160.853 57.5513 159.858 57.028 159.13 56.1516C158.44 55.2465 158.173 54.2123 158.33 53.0491C158.486 51.8859 159.015 50.9759 159.916 50.319C160.854 49.6333 161.955 49.3756 163.218 49.5458C164.447 49.7116 165.407 50.247 166.097 51.1521C166.792 52.024 167.061 53.0416 166.904 54.2048C166.747 55.368 166.216 56.2947 165.311 56.9848C164.411 57.6417 163.345 57.8873 162.116 57.7215Z" fill="#585858"/>
<path d="M194.286 56.1616C196.291 57.3375 197.58 58.8312 198.15 60.6429C198.751 62.4466 198.492 64.3031 197.373 66.2125C196.265 68.1026 194.809 69.193 193.006 69.4836C191.215 69.7549 189.316 69.3026 187.31 68.1267L185.888 70.2865L182.33 68.2004L185.069 63.1975L186.37 63.9607C188.048 64.9444 189.471 65.4801 190.637 65.5679C191.804 65.6557 192.732 65.1114 193.421 63.9349C193.919 63.0863 194.064 62.2643 193.857 61.4688C193.668 60.6847 193.15 60.0439 192.301 59.5464C191.414 59.0263 190.578 58.8604 189.794 59.0486C189.029 59.2481 188.398 59.7721 187.901 60.6207L184.082 58.382C184.752 57.1942 185.619 56.2901 186.683 55.6696C187.746 55.0491 188.932 54.7725 190.24 54.8397C191.568 54.9182 192.916 55.3588 194.286 56.1616ZM180.041 76.1493C179.308 75.7197 178.831 75.1417 178.609 74.4154C178.417 73.6812 178.519 72.9766 178.915 72.3015C179.311 71.6265 179.87 71.2029 180.593 71.0306C181.347 70.8504 182.09 70.9751 182.823 71.4048C183.536 71.8231 183.989 72.3994 184.18 73.1336C184.383 73.8486 184.287 74.5436 183.891 75.2186C183.495 75.8937 182.93 76.327 182.196 76.5185C181.473 76.6907 180.755 76.5677 180.041 76.1493Z" fill="#262626"/>
<path d="M194.286 57.559C196.291 58.7349 197.58 60.2287 198.15 62.0404C198.751 63.844 198.492 65.7006 197.373 67.61C196.265 69.5001 194.809 70.5904 193.006 70.881C191.215 71.1524 189.316 70.7001 187.31 69.5242L185.888 71.684L182.33 69.5979L185.069 64.595L186.37 65.3582C188.048 66.3418 189.471 66.8776 190.637 66.9654C191.804 67.0532 192.732 66.5089 193.421 65.3324C193.919 64.4837 194.064 63.6617 193.857 62.8663C193.668 62.0822 193.15 61.4414 192.301 60.9439C191.414 60.4238 190.578 60.2578 189.794 60.446C189.029 60.6455 188.398 61.1696 187.901 62.0182L184.082 59.7795C184.752 58.5917 185.619 57.6876 186.683 57.0671C187.746 56.4466 188.932 56.1699 190.24 56.2371C191.568 56.3156 192.916 56.7563 194.286 57.559ZM180.041 77.5468C179.308 77.1171 178.831 76.5392 178.609 75.8129C178.417 75.0787 178.519 74.374 178.915 73.699C179.311 73.024 179.87 72.6003 180.593 72.4281C181.347 72.2479 182.09 72.3726 182.823 72.8022C183.536 73.2206 183.989 73.7969 184.18 74.5311C184.383 75.2461 184.287 75.9411 183.891 76.6161C183.495 77.2911 182.93 77.7244 182.196 77.9159C181.473 78.0882 180.755 77.9651 180.041 77.5468Z" fill="#585858"/>
<path d="M58.8985 26.607C62.2175 25.5355 65.1758 25.5847 67.7736 26.7547C70.393 27.8825 72.2127 30.0261 73.2327 33.1855C74.2423 36.313 74.0098 39.031 72.535 41.3395C71.0499 43.6162 68.6478 45.2902 65.3289 46.3617L66.3274 50.1095L60.4394 52.0103L57.5728 43.9498L59.727 43.2543C62.5034 42.358 64.5231 41.3007 65.7861 40.0825C67.049 38.8643 67.3663 37.2818 66.7378 35.3351C66.2845 33.9309 65.509 32.9479 64.4114 32.386C63.3457 31.8138 62.1108 31.7544 60.7066 32.2077C59.2386 32.6816 58.2185 33.4515 57.6463 34.5172C57.1061 35.5725 57.0626 36.8023 57.5159 38.2065L51.1971 40.2464C50.5367 38.31 50.3901 36.4368 50.7572 34.6268C51.1244 32.8168 51.9986 31.2131 53.3799 29.8157C54.7931 28.408 56.6327 27.3384 58.8985 26.607ZM67.0529 62.5085C65.8402 62.9 64.7165 62.8576 63.6817 62.3811C62.6685 61.8625 61.9816 61.0447 61.621 59.9277C61.2604 58.8107 61.3446 57.7616 61.8736 56.7804C62.4241 55.7569 63.3058 55.0494 64.5185 54.6579C65.6993 54.2767 66.7963 54.3454 67.8094 54.8641C68.8123 55.3508 69.494 56.1526 69.8546 57.2696C70.2152 58.3866 70.1362 59.4516 69.6176 60.4648C69.0886 61.4461 68.2337 62.1273 67.0529 62.5085Z" fill="#262626"/>
<path d="M60.296 28.0039C63.6149 26.9324 66.5733 26.9817 69.1711 28.1517C71.7905 29.2795 73.6102 31.423 74.6301 34.5824C75.6398 37.7099 75.4072 40.428 73.9324 42.7365C72.4473 45.0131 70.0453 46.6872 66.7263 47.7587L67.7248 51.5065L61.8368 53.4073L58.9703 45.3467L61.1244 44.6513C63.9009 43.755 65.9206 42.6977 67.1835 41.4795C68.4465 40.2612 68.7638 38.6788 68.1353 36.7321C67.682 35.3279 66.9065 34.3448 65.8089 33.783C64.7432 33.2108 63.5083 33.1514 62.1041 33.6047C60.6361 34.0786 59.616 34.8484 59.0438 35.9141C58.5035 36.9695 58.4601 38.1993 58.9134 39.6035L52.5946 41.6434C51.9342 39.707 51.7876 37.8338 52.1547 36.0238C52.5218 34.2138 53.3961 32.6101 54.7774 31.2127C56.1906 29.805 58.0301 28.7354 60.296 28.0039ZM68.4504 63.9055C67.2377 64.297 66.114 64.2545 65.0792 63.7781C64.066 63.2594 63.3791 62.4416 63.0185 61.3247C62.6579 60.2077 62.7421 59.1586 63.271 58.1773C63.8216 57.1538 64.7032 56.4464 65.9159 56.0549C67.0967 55.6737 68.1937 55.7424 69.2069 56.261C70.2098 56.7478 70.8915 57.5496 71.2521 58.6666C71.6127 59.7835 71.5337 60.8486 71.015 61.8618C70.4861 62.8431 69.6312 63.5243 68.4504 63.9055Z" fill="#585858"/>
<path d="M34.9041 63.3388C36.9373 62.2109 38.8788 61.8625 40.7286 62.2937C42.5872 62.6944 44.0533 63.8624 45.1269 65.7979C46.1898 67.7138 46.3873 69.5217 45.7196 71.2215C45.0411 72.9018 43.6852 74.3059 41.652 75.4338L42.7873 77.7569L39.1803 79.7578L36.2682 74.8539L37.5878 74.1219C39.2887 73.1783 40.4738 72.2269 41.1432 71.2675C41.8126 70.3081 41.8166 69.2322 41.155 68.0396C40.6778 67.1794 40.0441 66.6362 39.2538 66.4098C38.4831 66.1727 37.6676 66.2927 36.8074 66.7699C35.9081 67.2687 35.3399 67.9035 35.1027 68.6743C34.8851 69.4342 35.0149 70.2442 35.4921 71.1044L31.6212 73.2517C30.9401 72.07 30.6031 70.8636 30.6104 69.6323C30.6177 68.4011 30.9832 67.2396 31.707 66.1478C32.4504 65.0452 33.516 64.1088 34.9041 63.3388ZM44.8572 85.7742C44.1143 86.1863 43.3737 86.3031 42.6355 86.1246C41.9061 85.9156 41.3515 85.4691 40.9719 84.7848C40.5924 84.1006 40.5124 83.4035 40.7322 82.6935C40.9607 81.9532 41.4464 81.377 42.1893 80.9649C42.9126 80.5636 43.639 80.4674 44.3685 80.6763C45.0871 80.8657 45.6363 81.3025 46.0158 81.9868C46.3954 82.671 46.4807 83.3779 46.2718 84.1074C46.0521 84.8173 45.5805 85.3729 44.8572 85.7742Z" fill="#262626"/>
<path d="M35.6902 64.0244C37.7234 62.8965 39.6649 62.5481 41.5148 62.9792C43.3733 63.3799 44.8394 64.548 45.9131 66.4834C46.9759 68.3993 47.1735 70.2072 46.5058 71.9071C45.8272 73.5873 44.4713 74.9914 42.4381 76.1193L43.5735 78.4424L39.9665 80.4434L37.0543 75.5395L38.374 74.8074C40.0748 73.8639 41.2599 72.9124 41.9294 71.9531C42.5988 70.9937 42.6027 69.9177 41.9411 68.7252C41.4639 67.865 40.8302 67.3217 40.0399 67.0954C39.2692 66.8582 38.4538 66.9782 37.5936 67.4554C36.6943 67.9543 36.126 68.5891 35.8888 69.3598C35.6712 70.1197 35.801 70.9297 36.2782 71.7899L32.4073 73.9373C31.7262 72.7556 31.3893 71.5491 31.3966 70.3179C31.4038 69.0867 31.7694 67.9252 32.4932 66.8334C33.2365 65.7307 34.3022 64.7944 35.6902 64.0244ZM45.6433 86.4597C44.9004 86.8718 44.1599 86.9886 43.4217 86.8101C42.6922 86.6012 42.1377 86.1546 41.7581 85.4704C41.3785 84.7861 41.2986 84.089 41.5183 83.3791C41.7468 82.6388 42.2325 82.0625 42.9754 81.6504C43.6987 81.2491 44.4252 81.153 45.1546 81.3619C45.8733 81.5512 46.4224 81.9881 46.802 82.6723C47.1815 83.3566 47.2669 84.0634 47.058 84.7929C46.8382 85.5028 46.3667 86.0584 45.6433 86.4597Z" fill="#585858"/>
<defs>
<clipPath id="clip0">
<rect width="262.691" height="220.772" fill="white" transform="translate(0 30.8716)"/>
</clipPath>
</defs>
</svg>
