<svg width="538" height="343" viewBox="0 0 538 343" fill="none" xmlns="http://www.w3.org/2000/svg">
<path d="M415.09 55.7387C349.171 13.0855 272.105 73.5108 241.812 109.055L74.5918 225.382L96.4031 339.285H464.771C591.761 323.775 524.954 231.037 475.677 186.606C482.947 160.756 481.009 98.3918 415.09 55.7387Z" fill="#F3F3F3"/>
<path d="M40.0745 318.659C-39.1641 302.184 19.2022 226.993 58.2903 191.458C76.506 -13.2764 167.584 -14.4878 215.4 36.3928C253.654 77.0974 271.566 131.693 275.74 153.903L238.17 338.042H112.118C111.399 338.086 110.51 338.083 109.521 338.042H112.118C118.579 337.651 111.375 333.484 40.0745 318.659Z" fill="#F3F3F3"/>
<path d="M90.4644 59.9675C90.4644 59.9675 79.6469 55.4059 73.4072 62.8839L80.4796 90.3451C80.4796 90.3451 92.5443 84.1044 97.5368 86.6061L90.4644 59.9675Z" fill="#CC6969"/>
<path d="M73.4713 63.027C73.4713 63.027 62.6538 58.4655 56.4141 65.9435L63.4864 93.4047C63.4864 93.4047 75.5512 87.164 80.5436 89.6657L73.4713 63.027Z" fill="#CC6969"/>
<path d="M82.2436 96.5355C82.2436 96.5355 73.3157 91.804 72.5578 90.8149C70.811 88.5443 76.9759 89.1153 76.9759 89.1153C76.9759 89.1153 70.9435 78.6937 73.5774 76.1988C76.2112 73.7038 82.8146 75.3626 84.1128 79.258C85.1324 82.3171 89.4281 98.5478 89.4281 98.5478L84.1774 100.699L82.2436 96.5355Z" fill="#FEC182"/>
<path d="M152.082 315.835L151.062 325.353L158.879 327.732L163.297 324.673V314.815L152.082 315.835Z" fill="#BCBCBC"/>
<path d="M121.835 315.835L120.815 325.353L128.632 327.732L133.05 324.673V314.815L121.835 315.835Z" fill="#BCBCBC"/>
<path d="M114.975 178.249L117.418 317.533H135.09L142.907 195.506L146.306 317.533H166.357L170.435 175.791L116.738 173.412L114.975 178.249Z" fill="#232349"/>
<path d="M89.889 96.5924L87.8498 93.1934L79.3535 97.2723L81.7325 101.351L89.889 96.5924Z" fill="#FFFBF8"/>
<path d="M187.407 170.935C187.407 170.935 190.867 178.243 190.483 181.319C190.099 184.395 183.564 189.779 181.256 187.471C178.948 185.163 178.948 180.935 178.948 180.935C178.948 180.935 176.257 179.779 176.257 178.243C176.257 176.706 180.872 165.935 180.872 165.935H187.278L187.407 170.935Z" fill="#FEC182"/>
<path d="M177.698 169.731L177.572 173.412L189.127 171.712L187.768 164.574L177.698 169.731Z" fill="#FFFBF8"/>
<path d="M133.729 59.8827V73.4791C133.729 87.983 155.14 87.983 155.14 73.4791V55.124L133.729 59.8827Z" fill="#FEC182"/>
<path d="M155.141 63.6221L158.879 65.6615C158.879 65.6615 183.348 67.0212 185.388 86.0561C187.427 105.091 190.485 167.294 190.485 167.294L176.212 170.014L170.434 125.486L172.813 176.812C172.813 176.812 171.114 180.891 166.016 180.551C160.918 180.211 118.097 180.551 118.097 180.551C116.564 179.779 115.221 178.678 114.164 177.326C113.106 175.975 112.36 174.406 111.979 172.733C110.62 166.954 112.319 132.284 112.319 132.284C112.319 132.284 89.8889 135.683 82.752 106.791L80.0332 100.672L89.8889 95.9134L103.823 110.19L109.261 82.657C109.261 82.657 112.319 74.8391 117.757 72.7996C123.195 70.7602 133.73 65.3216 133.73 65.3216L142.906 82.9969L155.141 63.6221Z" fill="#415147"/>
<path d="M155.292 63.1504L144.267 73.8201L133.731 64.4726C133.731 64.4726 129.653 76.1995 141.548 93.1949C141.548 93.1949 156.723 87.6918 157.103 64.1361L155.292 63.1504Z" fill="#FFFBF8"/>
<path d="M144.265 73.8193L140.401 78.1736L144.265 83.3368L148.344 77.8982L144.265 73.8193Z" fill="#3366CC"/>
<path d="M139.131 89.4587C139.851 90.671 140.657 91.9174 141.547 93.1977C141.547 93.1977 145.286 91.8381 149.106 87.5858L145.078 79.5605L142.393 80.8386L139.131 89.4587Z" fill="#3366CC"/>
<path d="M125.914 17.0542V49.0057L139.168 57.5034L154.832 55.124L161.259 50.3653V14.335L125.914 17.0542Z" fill="#FEC182"/>
<path d="M161.257 53.2547C164.316 48.7679 162.956 33.71 162.956 33.71H161.356L160.238 43.2274C160.238 43.2274 157.859 50.7054 155.48 51.7251C155.48 51.7251 155.48 45.2669 151.401 45.2669H137.128C133.049 45.2669 133.049 51.7251 133.049 51.7251C130.67 50.7054 128.291 43.2274 128.291 43.2274L127.173 33.71H124.213C124.213 33.71 122.854 48.7679 125.912 53.2547C128.971 57.7415 133.389 61.5825 143.585 61.5825C153.78 61.5825 158.198 57.7381 161.257 53.2547ZM144.264 53.4247C139.167 54.1045 135.768 51.7251 135.768 51.7251C135.768 47.3063 137.807 47.6462 137.807 47.6462H150.722C150.722 47.6462 152.761 47.3063 152.761 51.7251C152.761 51.7251 149.362 54.1045 144.264 53.4247Z" fill="#C57037"/>
<path d="M127.274 33.7098V19.7735C127.274 19.7735 146.305 23.5125 157.181 15.3547L161.259 33.7098H162.958L164.317 11.6157C164.317 11.6157 159.56 -0.960906 148.344 0.0588205C137.129 1.07855 126.934 4.13773 123.195 11.9556L124.215 33.7098H127.274Z" fill="#C57037"/>
<path d="M147.326 338.948C147.326 338.948 145.626 333.509 147.326 330.45C149.025 327.391 151.064 319.233 158.201 320.593C165.338 321.953 170.436 331.13 170.436 331.13V338.948H147.326Z" fill="#1C1C1C"/>
<path d="M133.051 320.592L136.449 337.587L134.41 339.287H95.3272C95.3272 339.287 89.5497 335.208 100.425 330.109C111.3 325.011 120.136 319.912 120.136 319.912C120.136 319.912 122.855 324.671 133.051 320.592Z" fill="#1C1C1C"/>
<path d="M75.9733 66.4258L76.5748 69.4306C76.6191 69.6545 76.7134 69.8656 76.8506 70.048C76.9879 70.2304 77.1646 70.3795 77.3675 70.4841C77.5704 70.5887 77.7943 70.646 78.0225 70.652C78.2507 70.6579 78.4772 70.6122 78.6853 70.5183C81.6711 69.1643 84.9485 68.58 88.2182 68.8187C88.4515 68.8358 88.6857 68.7987 88.9023 68.7104C89.119 68.622 89.3123 68.4848 89.4673 68.3095C89.6222 68.1341 89.7346 67.9253 89.7955 67.6994C89.8565 67.4735 89.8645 67.2365 89.8189 67.007L89.0406 63.1762C88.9833 62.8919 88.8461 62.6299 88.645 62.421C88.4439 62.212 88.1874 62.0648 87.9055 61.9968C85.9344 61.5277 81.2682 60.8275 77.2579 63.3564C76.7592 63.6787 76.3696 64.1443 76.1404 64.6921C75.9111 65.2399 75.8529 65.8442 75.9733 66.4258Z" fill="#FFFBF8"/>
<path d="M408.912 316.162L407.936 326.801L415.431 329.462L419.669 326.042V315.02L408.912 316.162Z" fill="#1E1E1E"/>
<path d="M370.663 316.269L369.59 327.936L377.807 330.852L382.452 327.101V315.02L370.663 316.269Z" fill="#1E1E1E"/>
<path d="M386.276 342.548C386.276 342.548 387.898 337.354 386.276 334.435C384.654 331.515 382.704 323.737 375.888 325.021C369.072 326.304 364.199 335.083 364.199 335.083V342.548H386.276Z" fill="white"/>
<path d="M408.105 326.405L405.089 341.492L406.901 343H441.598C441.598 343 446.726 339.38 437.07 334.853C427.414 330.325 419.573 325.805 419.573 325.805C419.573 325.805 417.157 330.029 408.105 326.405Z" fill="white"/>
<path d="M372.554 218.898L367.588 318.18C367.588 318.18 372.554 320.886 382.935 318.18C393.316 315.475 397.374 231.536 397.374 231.536C397.374 231.536 399.179 310.509 403.693 315.023C408.207 319.537 422.65 319.533 422.65 319.533L422.198 216.189L372.554 218.898Z" fill="#EBCFA8"/>
<path d="M358.562 205.485L359.463 235.418C359.463 235.418 360.82 242.244 364.881 238.569C368.943 234.894 367.587 228.592 367.587 228.592L365.782 225.442L366.904 198.18L358.562 205.485Z" fill="#EA997C"/>
<path d="M417.907 136.982C417.907 136.982 426.259 133.597 432.126 139.915C437.993 146.234 438.894 153.453 437.541 161.124C436.188 168.796 432.264 195.961 432.264 195.961L414.073 172.871L417.907 136.982Z" fill="#26283D"/>
<path d="M415.43 135.412C415.43 135.412 415.882 132.251 420.848 131.803C425.814 131.354 429.42 132.703 429.873 134.056C430.325 135.409 429.873 144.436 429.873 144.436L427.163 142.632V134.056C427.163 134.056 421.297 131.986 419.04 135.05L416.786 138.118L415.43 135.412Z" fill="#26283D"/>
<path d="M393.314 124.579L392.865 131.349L382.937 136.764L397.828 146.692L414.076 135.411L406.404 131.349L405.952 117.359L393.314 124.579Z" fill="#EA997C"/>
<path d="M414.266 106.528V88.9281L398.909 85.7705L383.555 88.9281V106.528C383.555 106.528 377.039 100.661 377.971 106.528C378.903 112.394 383.555 113.75 383.555 113.75C383.555 113.75 391.931 128.189 397.515 127.74H400.307C405.89 128.189 414.266 113.75 414.266 113.75C414.266 113.75 418.918 112.394 419.85 106.528C420.782 100.661 414.266 106.528 414.266 106.528Z" fill="#EA997C"/>
<path d="M400.988 89.3801C400.988 89.3801 395.121 96.5994 391.059 98.8562L386.093 101.565C386.093 101.565 386.545 97.5035 386.545 96.1508C386.545 94.798 383.556 98.8562 383.556 98.8562L383.384 108.339L381.075 104.681L381.589 95.709C381.589 95.709 379.784 97.5139 379.332 97.5139C378.88 97.5139 377.517 85.3184 391.96 80.3561C393.295 79.7016 394.761 79.3613 396.248 79.3613C397.734 79.3613 399.201 79.7016 400.536 80.3561C400.536 80.3561 407.303 77.6471 411.365 82.6095C415.427 87.5719 414.975 85.3184 415.879 89.3801C416.784 93.4418 418.136 96.6063 419.037 96.6063C419.037 96.6063 416.784 98.8631 415.879 98.8631L415.614 105.451L414.074 108.339L412.27 95.7056C412.27 95.7056 410.013 97.0514 400.988 89.3801Z" fill="#490E00"/>
<path d="M392.673 131.474C392.673 131.474 399.836 139.597 406.607 131.474L419.331 137.532L425.355 205.81V222.057C425.355 222.057 370.749 225.214 369.392 217.094C368.036 208.975 381.578 139.474 381.578 139.474L382.373 136.321L392.673 131.474Z" fill="#EFEDEE"/>
<path d="M382.936 135.411L394.67 152.107L390.156 211.227C390.156 211.227 378.422 216.189 368.042 208.518V203.552L356.76 204.004C356.76 204.004 355.407 143.983 375.713 137.671L382.936 135.411Z" fill="#4185B0"/>
<path d="M356.738 201.514L354.502 202.653V209.872C354.502 209.872 362.439 214.838 369.3 209.872L369.393 201.3L356.738 201.514Z" fill="#67A3C1"/>
<path d="M415.428 135.411L403.694 152.107L408.208 211.227C408.208 211.227 419.942 216.189 430.323 208.518L429.419 193.175C429.419 193.175 436.932 193.096 437.995 191.819C440.252 189.114 440.252 185.504 440.252 185.504C440.252 185.504 442.957 143.983 422.651 137.668L415.428 135.411Z" fill="#4185B0"/>
<path d="M414.074 134.056C414.074 134.056 408.207 164.292 411.817 171.964C415.426 179.635 428.965 201.748 432.578 202.652L434.832 199.491C434.832 199.491 416.331 174.673 415.879 168.354C415.426 162.035 420.845 135.412 420.845 135.412L414.074 134.056Z" fill="#26283D"/>
<path d="M433.679 169.958L419.036 151.669C419.036 151.669 410.464 150.312 408.659 154.374C406.854 158.436 407.303 162.95 410.012 163.402C412.721 163.854 417.684 162.95 419.036 163.85C420.389 164.751 425.355 178.292 425.355 178.292L433.679 169.958Z" fill="#EA997C"/>
<path d="M436.981 176.422L437.765 174.041L432.657 168.938C432.657 168.938 423.536 171.036 422.193 179.401L428.188 185.529L436.981 176.422Z" fill="#67A3C1"/>
<path d="M281.195 291.015L281.451 298.121L283.896 328.304L291.095 327.546L290.986 288.355L281.195 291.015Z" fill="#F5C0B2"/>
<path d="M283.681 325.429C283.681 325.429 285.208 326.166 291.105 324.5L291.77 335.259L283.725 335.529L283.681 325.429Z" fill="#92C3EA"/>
<path d="M292.743 339.317L281.987 339.481C281.769 339.486 281.553 339.439 281.358 339.344C281.162 339.248 280.992 339.107 280.861 338.932C280.731 338.758 280.645 338.554 280.609 338.339C280.574 338.124 280.59 337.903 280.657 337.696C281.435 335.224 283.426 331.041 288.091 330.505C291.59 330.105 293.35 334.923 294.049 337.59C294.104 337.792 294.113 338.004 294.073 338.209C294.034 338.415 293.947 338.609 293.821 338.776C293.695 338.943 293.532 339.079 293.345 339.173C293.158 339.266 292.952 339.316 292.743 339.317Z" fill="#564E4C"/>
<path d="M259.317 288.426L257.704 295.35L252.173 325.12L259.317 326.275L269.462 288.426H259.317Z" fill="#F5C0B2"/>
<path d="M256.783 255.412L249.407 291.888C249.407 291.888 287.209 298.352 300.349 291.888L297.123 255.412H256.783Z" fill="#C5D7EB"/>
<path d="M304.04 218.959L316.023 227.495C316.619 228.295 316.941 229.266 316.941 230.264C316.941 231.262 316.619 232.233 316.023 233.033C313.95 236.031 300.811 251.956 300.811 251.956C300.811 251.956 300.35 250.112 301.493 254.035C302.635 257.958 301.953 262.803 299.419 260.728C296.885 258.652 297.124 255.411 297.124 255.411V249.641L310.281 230.486L299.447 224.948L304.04 218.959Z" fill="#F5C0B2"/>
<path d="M249.867 218.959L237.881 227.495C237.286 228.296 236.965 229.267 236.965 230.264C236.965 231.262 237.286 232.233 237.881 233.033C239.957 236.031 253.097 251.956 253.097 251.956C253.097 251.956 253.557 250.112 252.415 254.035C251.272 257.958 251.954 262.803 254.488 260.728C257.022 258.652 256.783 255.411 256.783 255.411V249.641L243.644 230.486L254.478 224.948L249.867 218.959Z" fill="#F5C0B2"/>
<path d="M255.546 170.736C255.546 170.736 249.066 195.661 251.252 199.352C253.438 203.043 257.95 203.514 265.827 203.514H297.771C297.771 203.514 303.807 203.514 302.204 197.976C300.516 192.171 292.093 160.124 292.093 160.124L264.306 158.758L255.546 170.736Z" fill="#2F363E"/>
<path d="M281.678 161.677V160.8L276.951 161.237L272.228 160.8V161.677L256.783 163.108L258.857 177.879C258.857 177.879 260.221 196.767 272.211 196.801H272.456C274.274 196.767 275.751 196.743 276.951 196.726C278.151 196.709 279.631 196.767 281.446 196.801H281.695C293.681 196.767 295.045 177.879 295.045 177.879L297.122 163.108L281.678 161.677Z" fill="#F5C0B2"/>
<path d="M259.779 175.724C259.779 175.724 253.555 172.34 252.645 176.724C251.734 181.108 255.103 187.493 261.02 183.263C266.937 179.032 259.779 175.724 259.779 175.724Z" fill="#F5C0B2"/>
<path d="M294.09 175.724C294.09 175.724 300.314 172.34 301.252 176.724C302.19 181.108 298.793 187.493 292.876 183.263C286.96 179.032 294.09 175.724 294.09 175.724Z" fill="#F5C0B2"/>
<path d="M276.839 162.881C276.839 162.881 271.062 176.723 261.394 178.799L256.783 167.03L273.381 157.107L276.839 162.881Z" fill="#2F363E"/>
<path d="M262.317 165.876C262.317 165.876 259.551 189.173 263.469 200.956L262.317 165.876Z" fill="#2F363E"/>
<path d="M263.467 202.803C263.467 202.803 257.244 191.494 256.783 188.489C256.323 185.485 250.328 171.417 254.938 161.953C259.549 152.488 266.697 147.175 277.067 147.414L276.839 162.881L262.315 169.57L262.417 177.669L263.467 202.803Z" fill="#2F363E"/>
<path d="M289.973 202.571C289.973 202.571 296.196 191.263 296.66 188.265C297.124 185.267 303.112 171.193 298.502 161.721C293.891 152.249 286.747 146.954 276.373 147.176L276.605 162.64L291.126 169.332L291.023 177.431L289.973 202.571Z" fill="#2F363E"/>
<path d="M280.984 195.878H272.688V207.88H280.984V195.878Z" fill="#F5C0B2"/>
<path d="M308.186 215.499L281.447 202.804L276.608 206.727L271.997 202.804L245.258 215.499L250.329 229.122L256.784 226.582L256.552 255.413C256.552 255.413 265.078 262.105 276.376 262.105C288.363 262.105 296.891 255.413 296.891 255.413L296.663 226.565L303.118 229.122L308.186 215.499Z" fill="#6060BF"/>
<path d="M252.701 322.287C252.701 322.287 253.979 323.4 260.104 323.339L257.935 333.893L250.092 332.046L252.701 322.287Z" fill="#92C3EA"/>
<path d="M258.346 337.569L247.706 335.992C247.491 335.961 247.286 335.88 247.108 335.754C246.93 335.628 246.785 335.461 246.685 335.268C246.585 335.074 246.533 334.859 246.532 334.642C246.532 334.424 246.584 334.209 246.683 334.015C247.846 331.7 250.482 327.893 255.175 328.115C258.69 328.282 259.652 333.322 259.915 336.067C259.938 336.276 259.913 336.488 259.842 336.685C259.77 336.883 259.654 337.062 259.502 337.207C259.35 337.353 259.167 337.461 258.966 337.524C258.766 337.587 258.554 337.602 258.346 337.569Z" fill="#564E4C"/>
</svg>
