<svg width="610" height="434" viewBox="0 0 610 434" fill="none" xmlns="http://www.w3.org/2000/svg">
<path d="M444.082 380.688L444.512 390.409L374.512 393.048L374.204 386.104L444.082 380.688Z" fill="#141414"/>
<path d="M330.935 44.184C330.935 44.184 324.481 61.3761 287.818 56.5285C251.154 51.6808 243.669 56.2422 207.369 76.5643C171.069 96.8864 183.058 105.206 127.325 118.011C71.5923 130.816 49.434 109.464 34.9088 132.426C20.3836 155.388 37.0435 180.658 19.2361 225.57C9.2948 250.653 21.7609 268.483 17.1072 278.29C12.4534 288.097 0.282112 302.37 42.1865 296.229C84.0909 290.089 92.7622 283.11 105.936 285.198C122.167 287.973 138.858 285.509 153.597 278.163C172.012 269.277 222.016 253.595 247.792 259.008C273.568 264.421 284.4 271.4 287.145 287.878C289.89 304.357 295.741 319.711 310.086 319.368C324.43 319.025 341.988 314.004 340.706 331.524C339.424 349.044 350.284 352.265 371.474 356.127C392.663 359.99 438.554 364.151 450.572 361.156C462.589 358.162 466.672 357.146 485.756 335.721C504.839 314.297 557.24 289.964 572.839 275.874C588.438 261.783 605.179 252.763 600.829 217.292C596.479 181.821 580.723 148.093 574.464 142.665C568.204 137.237 555.908 102.521 558.333 86.3278C560.758 70.1349 550.372 70.7199 551.013 61.953C551.653 53.1861 552.576 42.6257 545.145 39.6289C537.715 36.6321 528.805 41.6741 515.451 62.2051C502.097 82.7361 477.256 106.934 453.822 96.6446C430.388 86.3551 399.118 59.1998 422.05 51.8675C444.982 44.5352 469.223 34.7377 428.531 30.9032C387.84 27.0687 359.247 16.437 330.935 44.184Z" fill="#8258DC"/>
<path d="M601.482 232.04C597.3 200.375 581.706 170.299 575.476 165.538C569.246 160.776 563.967 127.865 566.47 113.436C568.973 99.0064 551.732 101.439 552.414 93.6029C553.096 85.7665 562.512 68.304 555.097 65.6544C547.682 63.0049 530.307 75.6015 516.858 93.9938C503.409 112.386 478.455 134.029 455.077 125.003C443.039 120.29 428.937 111.675 421.234 103.472L304.09 320.83C305.878 321.204 307.706 321.356 309.531 321.285C323.875 320.915 342.237 319.629 340.872 335.274C339.507 350.919 350.35 353.751 371.517 357.1C392.684 360.448 438.546 363.957 450.574 361.212C462.602 358.467 466.691 357.563 485.871 338.332C505.052 319.102 557.558 297.144 573.22 284.484C588.883 271.824 605.566 263.697 601.482 232.04Z" fill="#141414"/>
<path d="M600.082 193.823L602.602 250.762L555.972 252.826L542.045 189.434L600.082 193.823Z" fill="#141414"/>
<path d="M302.261 268.229L304.597 321.002L369.375 308.395L365.994 232.013L302.261 268.229Z" fill="#141414"/>
<path d="M430.798 31.5542L430.394 53.8358L394.322 55.4324L392.662 17.9358L430.429 23.2216L430.798 31.5542Z" fill="#8258DC"/>
<path d="M449.781 22.9358L450.851 47.1003L430.394 53.836L430.798 31.5544L441.529 22.7305L449.781 22.9358Z" fill="#141414"/>
<path d="M330.19 27.367C330.19 27.367 323.655 42.7399 286.995 38.5878C250.334 34.4357 242.856 38.5376 206.468 56.8599C170.079 75.1822 182.026 82.5431 126.245 94.2514C70.4632 105.96 34.3575 107.433 19.7265 128.006C5.09561 148.58 6.5341 168.832 17.6964 190.81C28.8588 212.789 20.0172 229.112 15.3161 237.85C10.615 246.588 -1.61771 259.472 40.3058 253.762C82.2292 248.052 90.9318 241.781 104.094 243.606C120.284 246 136.82 243.743 151.779 237.098C170.232 229.073 220.299 214.835 246.044 219.54C271.789 224.245 282.586 230.446 285.254 245.175C287.921 259.904 292.913 270.286 307.2 269.904C321.487 269.522 339.906 268.248 338.541 283.893C337.176 299.538 348.019 302.37 369.186 305.719C390.353 309.068 436.215 312.576 448.243 309.831C460.271 307.086 464.36 306.182 483.54 286.951C502.721 267.721 555.227 245.763 570.889 233.103C586.552 220.443 603.332 212.312 599.151 180.66C594.969 149.008 579.375 118.918 573.145 114.157C566.915 109.395 561.691 76.4814 564.194 62.0523C566.697 47.6231 549.456 50.056 550.138 42.2196C550.82 34.3832 560.237 16.9208 552.821 14.2712C545.406 11.6216 528.031 24.2182 514.582 42.6105C501.134 61.0028 476.18 82.6456 452.802 73.6199C429.424 64.5942 398.287 40.4525 421.249 33.7868C444.21 27.1211 468.494 18.2818 427.828 15.0306C387.162 11.7794 358.626 2.43925 330.19 27.367Z" fill="#B371E7"/>
<path d="M442.055 397.378C447.863 391.972 444.107 385.947 434.873 385.548C416.516 384.76 369.992 383.898 374.889 395.912C380.985 410.837 386.004 421.204 404.947 415.454C416.978 411.832 434.462 404.532 442.055 397.378Z" fill="#141414"/>
<path d="M555.503 17.6859L556.786 46.6555L536.205 57.5016L535.161 33.8926L555.503 17.6859Z" fill="#141414"/>
<path d="M441.624 387.657C447.432 382.251 443.676 376.225 434.442 375.827C416.085 375.039 369.562 374.176 374.458 386.19C380.554 401.116 385.573 411.483 404.516 405.732C416.547 402.111 434.031 394.811 441.624 387.657Z" fill="#262626"/>
<path d="M430.289 31.0481C447.286 25.6065 459.804 19.5004 438.292 16.1946L430.289 31.0481Z" fill="#262626"/>
<path d="M599.207 180.656C595.026 148.99 579.432 118.915 573.202 114.153C566.972 109.392 561.692 76.4804 564.195 62.0513C566.698 47.6221 549.457 50.055 550.139 42.2186C550.821 34.3822 560.238 16.9197 552.822 14.2702C545.407 11.6206 528.032 24.2172 514.584 42.6095C501.135 61.0018 476.181 82.6446 452.803 73.6188C440.764 68.9058 426.663 60.2905 418.96 52.0877L301.815 269.446C303.604 269.819 305.431 269.972 307.257 269.901C321.6 269.53 339.962 268.244 338.597 283.89C337.233 299.535 348.076 302.366 369.243 305.715C390.409 309.064 436.272 312.572 448.3 309.828C460.328 307.083 464.417 306.178 483.597 286.948C502.778 267.717 555.284 245.76 570.946 233.1C586.608 220.44 603.291 212.313 599.207 180.656Z" fill="#262626"/>
<path d="M242.171 116.346H184.27V146.905C186.772 143.807 190.346 141.305 194.992 139.399C199.639 137.374 204.583 136.361 209.825 136.361C219.356 136.361 227.16 138.446 233.236 142.616C239.312 146.786 243.72 152.147 246.46 158.699C249.2 165.133 250.57 172.043 250.57 179.43C250.57 193.13 246.639 204.151 238.776 212.49C231.032 220.83 219.952 225 205.536 225C191.954 225 181.113 221.605 173.011 214.814C164.91 208.023 160.323 199.147 159.251 188.186H183.555C184.627 192.952 187.01 196.764 190.703 199.624C194.516 202.483 199.341 203.912 205.179 203.912C212.208 203.912 217.509 201.708 221.084 197.3C224.658 192.892 226.445 187.054 226.445 179.787C226.445 172.4 224.598 166.801 220.905 162.988C217.331 159.057 212.029 157.091 205 157.091C199.996 157.091 195.826 158.342 192.49 160.844C189.154 163.346 186.772 166.682 185.342 170.852H161.395V94.3647H242.171V116.346ZM291.415 156.019C279.501 149.824 273.544 140.233 273.544 127.247C273.544 120.813 275.152 114.976 278.369 109.734C281.705 104.372 286.649 100.143 293.202 97.0453C299.874 93.8285 307.975 92.2202 317.506 92.2202C327.037 92.2202 335.079 93.8285 341.632 97.0453C348.303 100.143 353.248 104.372 356.464 109.734C359.8 114.976 361.468 120.813 361.468 127.247C361.468 133.799 359.86 139.578 356.643 144.582C353.426 149.466 349.137 153.279 343.776 156.019C350.329 158.878 355.452 163.048 359.145 168.528C362.838 174.009 364.685 180.502 364.685 188.008C364.685 196.109 362.6 203.198 358.43 209.274C354.38 215.231 348.78 219.817 341.632 223.034C334.483 226.251 326.442 227.859 317.506 227.859C308.571 227.859 300.529 226.251 293.381 223.034C286.351 219.817 280.752 215.231 276.582 209.274C272.531 203.198 270.506 196.109 270.506 188.008C270.506 180.502 272.353 174.009 276.046 168.528C279.739 162.929 284.862 158.759 291.415 156.019ZM337.164 130.821C337.164 124.983 335.377 120.456 331.803 117.239C328.348 114.023 323.582 112.414 317.506 112.414C311.549 112.414 306.784 114.023 303.21 117.239C299.755 120.456 298.027 125.043 298.027 131C298.027 136.361 299.814 140.65 303.388 143.867C307.082 147.083 311.788 148.692 317.506 148.692C323.225 148.692 327.931 147.083 331.624 143.867C335.317 140.531 337.164 136.182 337.164 130.821ZM317.506 166.92C310.715 166.92 305.175 168.648 300.886 172.103C296.717 175.558 294.632 180.502 294.632 186.935C294.632 192.892 296.657 197.777 300.708 201.589C304.877 205.283 310.477 207.129 317.506 207.129C324.535 207.129 330.075 205.223 334.126 201.411C338.177 197.598 340.202 192.773 340.202 186.935C340.202 180.621 338.117 175.736 333.947 172.281C329.777 168.707 324.297 166.92 317.506 166.92ZM381.587 126.711C381.587 117.656 384.208 110.567 389.45 105.445C394.811 100.322 401.662 97.7601 410.001 97.7601C418.341 97.7601 425.132 100.322 430.374 105.445C435.735 110.567 438.416 117.656 438.416 126.711C438.416 135.884 435.735 143.033 430.374 148.156C425.132 153.279 418.341 155.84 410.001 155.84C401.662 155.84 394.811 153.279 389.45 148.156C384.208 143.033 381.587 135.884 381.587 126.711ZM496.317 99.9046L426.085 225H401.781L471.834 99.9046H496.317ZM409.823 112.772C403.27 112.772 399.994 117.418 399.994 126.711C399.994 136.123 403.27 140.829 409.823 140.829C413.039 140.829 415.541 139.697 417.328 137.433C419.115 135.05 420.009 131.476 420.009 126.711C420.009 117.418 416.614 112.772 409.823 112.772ZM460.04 198.015C460.04 188.841 462.661 181.753 467.903 176.749C473.264 171.626 480.114 169.064 488.454 169.064C496.794 169.064 503.525 171.626 508.648 176.749C513.89 181.753 516.511 188.841 516.511 198.015C516.511 207.189 513.89 214.337 508.648 219.46C503.525 224.583 496.794 227.144 488.454 227.144C479.995 227.144 473.145 224.583 467.903 219.46C462.661 214.337 460.04 207.189 460.04 198.015ZM488.275 184.076C481.484 184.076 478.089 188.722 478.089 198.015C478.089 207.427 481.484 212.133 488.275 212.133C494.947 212.133 498.283 207.427 498.283 198.015C498.283 188.722 494.947 184.076 488.275 184.076Z" fill="#7F21B3"/>
<path d="M248.171 110.346H190.27V140.905C192.772 137.807 196.346 135.305 200.992 133.399C205.639 131.374 210.583 130.361 215.825 130.361C225.356 130.361 233.16 132.446 239.236 136.616C245.312 140.786 249.72 146.147 252.46 152.699C255.2 159.133 256.57 166.043 256.57 173.43C256.57 187.13 252.639 198.151 244.776 206.49C237.032 214.83 225.952 219 211.536 219C197.954 219 187.113 215.605 179.011 208.814C170.91 202.023 166.323 193.147 165.251 182.186H189.555C190.627 186.952 193.01 190.764 196.703 193.624C200.516 196.483 205.341 197.912 211.179 197.912C218.208 197.912 223.509 195.708 227.084 191.3C230.658 186.892 232.445 181.054 232.445 173.787C232.445 166.4 230.598 160.801 226.905 156.988C223.331 153.057 218.029 151.091 211 151.091C205.996 151.091 201.826 152.342 198.49 154.844C195.154 157.346 192.772 160.682 191.342 164.852H167.395V88.3647H248.171V110.346ZM297.415 150.019C285.501 143.824 279.544 134.233 279.544 121.247C279.544 114.813 281.152 108.976 284.369 103.734C287.705 98.3723 292.649 94.1429 299.202 91.0453C305.874 87.8285 313.975 86.2202 323.506 86.2202C333.037 86.2202 341.079 87.8285 347.632 91.0453C354.303 94.1429 359.248 98.3723 362.464 103.734C365.8 108.976 367.468 114.813 367.468 121.247C367.468 127.799 365.86 133.578 362.643 138.582C359.426 143.466 355.137 147.279 349.776 150.019C356.329 152.878 361.452 157.048 365.145 162.528C368.838 168.009 370.685 174.502 370.685 182.008C370.685 190.109 368.6 197.198 364.43 203.274C360.38 209.231 354.78 213.817 347.632 217.034C340.483 220.251 332.442 221.859 323.506 221.859C314.571 221.859 306.529 220.251 299.381 217.034C292.351 213.817 286.752 209.231 282.582 203.274C278.531 197.198 276.506 190.109 276.506 182.008C276.506 174.502 278.353 168.009 282.046 162.528C285.739 156.929 290.862 152.759 297.415 150.019ZM343.164 124.821C343.164 118.983 341.377 114.456 337.803 111.239C334.348 108.023 329.582 106.414 323.506 106.414C317.549 106.414 312.784 108.023 309.21 111.239C305.755 114.456 304.027 119.043 304.027 125C304.027 130.361 305.814 134.65 309.388 137.867C313.082 141.083 317.788 142.692 323.506 142.692C329.225 142.692 333.931 141.083 337.624 137.867C341.317 134.531 343.164 130.182 343.164 124.821ZM323.506 160.92C316.715 160.92 311.175 162.648 306.886 166.103C302.717 169.558 300.632 174.502 300.632 180.935C300.632 186.892 302.657 191.777 306.708 195.589C310.877 199.283 316.477 201.129 323.506 201.129C330.535 201.129 336.075 199.223 340.126 195.411C344.177 191.598 346.202 186.773 346.202 180.935C346.202 174.621 344.117 169.736 339.947 166.281C335.777 162.707 330.297 160.92 323.506 160.92ZM387.587 120.711C387.587 111.656 390.208 104.567 395.45 99.4445C400.811 94.3216 407.662 91.7601 416.001 91.7601C424.341 91.7601 431.132 94.3216 436.374 99.4445C441.735 104.567 444.416 111.656 444.416 120.711C444.416 129.884 441.735 137.033 436.374 142.156C431.132 147.279 424.341 149.84 416.001 149.84C407.662 149.84 400.811 147.279 395.45 142.156C390.208 137.033 387.587 129.884 387.587 120.711ZM502.317 93.9046L432.085 219H407.781L477.834 93.9046H502.317ZM415.823 106.772C409.27 106.772 405.994 111.418 405.994 120.711C405.994 130.123 409.27 134.829 415.823 134.829C419.039 134.829 421.541 133.697 423.328 131.433C425.115 129.05 426.009 125.476 426.009 120.711C426.009 111.418 422.614 106.772 415.823 106.772ZM466.04 192.015C466.04 182.841 468.661 175.753 473.903 170.749C479.264 165.626 486.114 163.064 494.454 163.064C502.794 163.064 509.525 165.626 514.648 170.749C519.89 175.753 522.511 182.841 522.511 192.015C522.511 201.189 519.89 208.337 514.648 213.46C509.525 218.583 502.794 221.144 494.454 221.144C485.995 221.144 479.145 218.583 473.903 213.46C468.661 208.337 466.04 201.189 466.04 192.015ZM494.275 178.076C487.484 178.076 484.089 182.722 484.089 192.015C484.089 201.427 487.484 206.133 494.275 206.133C500.947 206.133 504.283 201.427 504.283 192.015C504.283 182.722 500.947 178.076 494.275 178.076Z" fill="white"/>
</svg>
