<svg width="54" height="65" viewBox="0 0 54 65" fill="none" xmlns="http://www.w3.org/2000/svg">
<path d="M27 24.1299C33.63 24.1299 39 18.7309 39 12.065C39 5.39907 33.63 0 27 0C20.37 0 15 5.39907 15 12.065C15 18.7309 20.37 24.1299 27 24.1299ZM27 6.03248C30.3 6.03248 33 8.7471 33 12.065C33 15.3828 30.3 18.0974 27 18.0974C23.7 18.0974 21 15.3828 21 12.065C21 8.7471 23.7 6.03248 27 6.03248ZM27 31.8213C19.92 25.1856 10.44 21.1137 0 21.1137V54.2923C10.44 54.2923 19.92 58.3643 27 65C34.08 58.3944 43.56 54.2923 54 54.2923V21.1137C43.56 21.1137 34.08 25.1856 27 31.8213ZM48 48.652C40.41 49.6775 33.21 52.5731 27 57.1578C20.82 52.5731 13.59 49.6473 6 48.6218V27.6589C12.3 28.8051 18.15 31.7309 22.92 36.1949L27 40.0557L31.08 36.2251C35.85 31.761 41.7 28.8353 48 27.6891V48.652Z" fill="white"/>
</svg>
