<svg width="22" height="22" viewBox="0 0 22 22" fill="none" xmlns="http://www.w3.org/2000/svg">
<path fill-rule="evenodd" clip-rule="evenodd" d="M10.6402 0C4.76681 0 0 4.76681 0 10.6402C0 16.5136 4.76681 21.2804 10.6402 21.2804C16.5136 21.2804 21.2804 16.5136 21.2804 10.6402C21.2804 4.76681 16.5136 0 10.6402 0ZM10.6402 19.1524C5.94787 19.1524 2.12804 15.3325 2.12804 10.6402C2.12804 5.94787 5.94787 2.12804 10.6402 2.12804C15.3325 2.12804 19.1524 5.94787 19.1524 10.6402C19.1524 15.3325 15.3325 19.1524 10.6402 19.1524Z" fill="#262626"/>
<path fill-rule="evenodd" clip-rule="evenodd" d="M12.225 9.98135C12.6825 8.68325 12.4059 7.17234 11.3631 6.1296C10.1821 4.94854 8.3945 4.74638 7.00063 5.50183L9.50108 8.00228L8.00081 9.50254L5.50037 7.0021C4.74491 8.4066 4.94708 10.1835 6.12814 11.3646C7.17088 12.4073 8.68178 12.684 9.97989 12.2264L13.6082 15.8547C13.821 16.0675 14.1508 16.0675 14.3636 15.8547L15.8533 14.3651C16.0661 14.1523 16.0661 13.8225 15.8533 13.6097L12.225 9.98135Z" fill="#262626"/>
</svg>
