<svg width="46" height="66" viewBox="0 0 46 66" fill="none" xmlns="http://www.w3.org/2000/svg">
<path d="M13.1429 62.7C13.1429 64.515 14.6214 66 16.4286 66H29.5714C31.3786 66 32.8571 64.515 32.8571 62.7V59.4H13.1429V62.7ZM23 0C10.3171 0 0 10.362 0 23.1C0 30.954 3.91 37.851 9.85714 42.042V49.5C9.85714 51.315 11.3357 52.8 13.1429 52.8H32.8571C34.6643 52.8 36.1429 51.315 36.1429 49.5V42.042C42.09 37.851 46 30.954 46 23.1C46 10.362 35.6829 0 23 0ZM32.3643 36.63L29.5714 38.61V46.2H16.4286V38.61L13.6357 36.63C9.2 33.528 6.57143 28.479 6.57143 23.1C6.57143 13.992 13.9314 6.6 23 6.6C32.0686 6.6 39.4286 13.992 39.4286 23.1C39.4286 28.479 36.8 33.528 32.3643 36.63Z" fill="white"/>
</svg>
