<svg width="288" height="288" viewBox="0 0 288 288" fill="none" xmlns="http://www.w3.org/2000/svg">
<path opacity="0.3" d="M144 0C115.52 0 87.6786 8.44545 63.998 24.2684C40.3173 40.0913 21.8604 62.581 10.9614 88.8936C0.0623932 115.206 -2.78929 144.16 2.76698 172.093C8.32326 200.026 22.0379 225.685 42.1767 245.823C62.3155 265.962 87.9738 279.677 115.907 285.233C143.84 290.789 172.794 287.938 199.106 277.039C225.419 266.14 247.909 247.683 263.732 224.002C279.555 200.321 288 172.481 288 144C288 105.809 272.829 69.1819 245.823 42.1766C218.818 15.1714 182.191 0 144 0V0ZM144 245C124.024 245 104.497 239.076 87.8875 227.978C71.2781 216.88 58.3327 201.106 50.6882 182.651C43.0438 164.196 41.0436 143.888 44.9408 124.296C48.8379 104.704 58.4572 86.7073 72.5823 72.5822C86.7074 58.4571 104.704 48.8378 124.296 44.9407C143.888 41.0436 164.196 43.0437 182.651 50.6882C201.106 58.3326 216.88 71.278 227.978 87.8874C239.077 104.497 245 124.024 245 144C245 170.787 234.359 196.477 215.418 215.418C196.477 234.359 170.787 245 144 245Z" fill="#209CE2"/>
<path opacity="0.8" d="M144 0V43C117.213 43 91.5234 53.641 72.5822 72.5822C53.641 91.5234 43 117.213 43 144C43 170.787 53.641 196.477 72.5822 215.418C91.5234 234.359 117.213 245 144 245V288C105.809 288 69.1819 272.829 42.1766 245.823C15.1714 218.818 0 182.191 0 144C0 105.809 15.1714 69.1819 42.1766 42.1766C69.1819 15.1714 105.809 0 144 0V0Z" fill="#7F21B3"/>
<g filter="url(#filter0_d)">
<path d="M144 253C204.199 253 253 204.199 253 144C253 83.801 204.199 35 144 35C83.801 35 35 83.801 35 144C35 204.199 83.801 253 144 253Z" fill="white"/>
</g>
<path d="M109.24 142C109.24 133.744 110.824 127.24 113.992 122.488C117.208 117.736 122.368 115.36 129.472 115.36C136.576 115.36 141.712 117.736 144.88 122.488C148.096 127.24 149.704 133.744 149.704 142C149.704 150.352 148.096 156.904 144.88 161.656C141.712 166.408 136.576 168.784 129.472 168.784C122.368 168.784 117.208 166.408 113.992 161.656C110.824 156.904 109.24 150.352 109.24 142ZM137.608 142C137.608 137.152 137.08 133.432 136.024 130.84C134.968 128.2 132.784 126.88 129.472 126.88C126.16 126.88 123.976 128.2 122.92 130.84C121.864 133.432 121.336 137.152 121.336 142C121.336 145.264 121.528 147.976 121.912 150.136C122.296 152.248 123.064 153.976 124.216 155.32C125.416 156.616 127.168 157.264 129.472 157.264C131.776 157.264 133.504 156.616 134.656 155.32C135.856 153.976 136.648 152.248 137.032 150.136C137.416 147.976 137.608 145.264 137.608 142ZM154.913 127.888V116.44H174.857V169H162.041V127.888H154.913Z" fill="#262626"/>
<defs>
<filter id="filter0_d" x="25" y="35" width="238" height="238" filterUnits="userSpaceOnUse" color-interpolation-filters="sRGB">
<feFlood flood-opacity="0" result="BackgroundImageFix"/>
<feColorMatrix in="SourceAlpha" type="matrix" values="0 0 0 0 0 0 0 0 0 0 0 0 0 0 0 0 0 0 127 0" result="hardAlpha"/>
<feOffset dy="10"/>
<feGaussianBlur stdDeviation="5"/>
<feComposite in2="hardAlpha" operator="out"/>
<feColorMatrix type="matrix" values="0 0 0 0 0 0 0 0 0 0 0 0 0 0 0 0 0 0 0.1 0"/>
<feBlend mode="normal" in2="BackgroundImageFix" result="effect1_dropShadow"/>
<feBlend mode="normal" in="SourceGraphic" in2="effect1_dropShadow" result="shape"/>
</filter>
</defs>
</svg>
