<svg width="288" height="288" viewBox="0 0 288 288" fill="none" xmlns="http://www.w3.org/2000/svg">
<path opacity="0.3" d="M144 0C115.52 0 87.6786 8.44545 63.998 24.2684C40.3173 40.0913 21.8604 62.581 10.9614 88.8936C0.0623932 115.206 -2.78929 144.16 2.76698 172.093C8.32326 200.026 22.0379 225.685 42.1767 245.823C62.3155 265.962 87.9738 279.677 115.907 285.233C143.84 290.789 172.794 287.938 199.106 277.039C225.419 266.14 247.909 247.683 263.732 224.002C279.555 200.321 288 172.481 288 144C288 105.809 272.829 69.1819 245.823 42.1766C218.818 15.1714 182.191 0 144 0V0ZM144 245C124.024 245 104.497 239.076 87.8875 227.978C71.2781 216.88 58.3327 201.106 50.6882 182.651C43.0438 164.196 41.0436 143.888 44.9408 124.296C48.8379 104.704 58.4572 86.7073 72.5823 72.5822C86.7074 58.4571 104.704 48.8378 124.296 44.9407C143.888 41.0436 164.196 43.0437 182.651 50.6882C201.106 58.3326 216.88 71.2781 227.978 87.8874C239.077 104.497 245 124.024 245 144C245 170.787 234.359 196.477 215.418 215.418C196.477 234.359 170.787 245 144 245Z" fill="#209CE2"/>
<path opacity="0.8" d="M144 0V43C170.787 43 196.477 53.641 215.418 72.5822C234.359 91.5234 245 117.213 245 144C245 170.787 234.359 196.477 215.418 215.418C196.477 234.359 170.787 245 144 245V288C182.191 288 218.818 272.829 245.823 245.823C272.829 218.818 288 182.191 288 144C288 105.809 272.829 69.1819 245.823 42.1766C218.818 15.1714 182.191 5.69093e-07 144 0Z" fill="#FFB649"/>
<g filter="url(#filter0_d)">
<path d="M144 253C204.199 253 253 204.199 253 144C253 83.801 204.199 35 144 35C83.801 35 35 83.801 35 144C35 204.199 83.801 253 144 253Z" fill="white"/>
</g>
<path d="M96.24 142C96.24 133.744 97.824 127.24 100.992 122.488C104.208 117.736 109.368 115.36 116.472 115.36C123.576 115.36 128.712 117.736 131.88 122.488C135.096 127.24 136.704 133.744 136.704 142C136.704 150.352 135.096 156.904 131.88 161.656C128.712 166.408 123.576 168.784 116.472 168.784C109.368 168.784 104.208 166.408 100.992 161.656C97.824 156.904 96.24 150.352 96.24 142ZM124.608 142C124.608 137.152 124.08 133.432 123.024 130.84C121.968 128.2 119.784 126.88 116.472 126.88C113.16 126.88 110.976 128.2 109.92 130.84C108.864 133.432 108.336 137.152 108.336 142C108.336 145.264 108.528 147.976 108.912 150.136C109.296 152.248 110.064 153.976 111.216 155.32C112.416 156.616 114.168 157.264 116.472 157.264C118.776 157.264 120.504 156.616 121.656 155.32C122.856 153.976 123.648 152.248 124.032 150.136C124.416 147.976 124.608 145.264 124.608 142ZM142.777 159.136C144.409 157.84 145.153 157.24 145.009 157.336C149.713 153.448 153.409 150.256 156.097 147.76C158.833 145.264 161.137 142.648 163.009 139.912C164.881 137.176 165.817 134.512 165.817 131.92C165.817 129.952 165.361 128.416 164.449 127.312C163.537 126.208 162.169 125.656 160.345 125.656C158.521 125.656 157.081 126.352 156.025 127.744C155.017 129.088 154.513 131.008 154.513 133.504H142.633C142.729 129.424 143.593 126.016 145.225 123.28C146.905 120.544 149.089 118.528 151.777 117.232C154.513 115.936 157.537 115.288 160.849 115.288C166.561 115.288 170.857 116.752 173.737 119.68C176.665 122.608 178.129 126.424 178.129 131.128C178.129 136.264 176.377 141.04 172.873 145.456C169.369 149.824 164.905 154.096 159.481 158.272H178.921V168.28H142.777V159.136Z" fill="#262626"/>
<defs>
<filter id="filter0_d" x="25" y="35" width="238" height="238" filterUnits="userSpaceOnUse" color-interpolation-filters="sRGB">
<feFlood flood-opacity="0" result="BackgroundImageFix"/>
<feColorMatrix in="SourceAlpha" type="matrix" values="0 0 0 0 0 0 0 0 0 0 0 0 0 0 0 0 0 0 127 0" result="hardAlpha"/>
<feOffset dy="10"/>
<feGaussianBlur stdDeviation="5"/>
<feComposite in2="hardAlpha" operator="out"/>
<feColorMatrix type="matrix" values="0 0 0 0 0 0 0 0 0 0 0 0 0 0 0 0 0 0 0.1 0"/>
<feBlend mode="normal" in2="BackgroundImageFix" result="effect1_dropShadow"/>
<feBlend mode="normal" in="SourceGraphic" in2="effect1_dropShadow" result="shape"/>
</filter>
</defs>
</svg>
