<svg width="288" height="794" viewBox="0 0 288 794" fill="none" xmlns="http://www.w3.org/2000/svg">
<path opacity="0.3" d="M144 0C115.52 0 87.6786 8.44545 63.998 24.2684C40.3173 40.0913 21.8604 62.581 10.9614 88.8936C0.0623932 115.206 -2.78929 144.16 2.76698 172.093C8.32326 200.026 22.0379 225.685 42.1767 245.823C62.3155 265.962 87.9738 279.677 115.907 285.233C143.84 290.789 172.794 287.938 199.106 277.039C225.419 266.14 247.909 247.683 263.732 224.002C279.555 200.321 288 172.481 288 144C288 105.809 272.829 69.1819 245.823 42.1766C218.818 15.1714 182.191 0 144 0V0ZM144 245C124.024 245 104.497 239.076 87.8875 227.978C71.2781 216.88 58.3327 201.106 50.6882 182.651C43.0438 164.196 41.0436 143.888 44.9408 124.296C48.8379 104.704 58.4572 86.7073 72.5823 72.5822C86.7074 58.4571 104.704 48.8378 124.296 44.9407C143.888 41.0436 164.196 43.0437 182.651 50.6882C201.106 58.3326 216.88 71.278 227.978 87.8874C239.077 104.497 245 124.024 245 144C245 170.787 234.359 196.477 215.418 215.418C196.477 234.359 170.787 245 144 245Z" fill="#209CE2"/>
<path opacity="0.8" d="M144 0V43C117.213 43 91.5234 53.641 72.5822 72.5822C53.641 91.5234 43 117.213 43 144C43 170.787 53.641 196.477 72.5822 215.418C91.5234 234.359 117.213 245 144 245V288C105.809 288 69.1819 272.829 42.1766 245.823C15.1714 218.818 0 182.191 0 144C0 105.809 15.1714 69.1819 42.1766 42.1766C69.1819 15.1714 105.809 0 144 0V0Z" fill="#7F21B3"/>
<g filter="url(#filter0_d)">
<path d="M144 253C204.199 253 253 204.199 253 144C253 83.801 204.199 35 144 35C83.801 35 35 83.801 35 144C35 204.199 83.801 253 144 253Z" fill="white"/>
</g>
<path d="M109.24 142C109.24 133.744 110.824 127.24 113.992 122.488C117.208 117.736 122.368 115.36 129.472 115.36C136.576 115.36 141.712 117.736 144.88 122.488C148.096 127.24 149.704 133.744 149.704 142C149.704 150.352 148.096 156.904 144.88 161.656C141.712 166.408 136.576 168.784 129.472 168.784C122.368 168.784 117.208 166.408 113.992 161.656C110.824 156.904 109.24 150.352 109.24 142ZM137.608 142C137.608 137.152 137.08 133.432 136.024 130.84C134.968 128.2 132.784 126.88 129.472 126.88C126.16 126.88 123.976 128.2 122.92 130.84C121.864 133.432 121.336 137.152 121.336 142C121.336 145.264 121.528 147.976 121.912 150.136C122.296 152.248 123.064 153.976 124.216 155.32C125.416 156.616 127.168 157.264 129.472 157.264C131.776 157.264 133.504 156.616 134.656 155.32C135.856 153.976 136.648 152.248 137.032 150.136C137.416 147.976 137.608 145.264 137.608 142ZM154.913 127.888V116.44H174.857V169H162.041V127.888H154.913Z" fill="#262626"/>
<path opacity="0.3" d="M144 253C115.52 253 87.6786 261.445 63.998 277.268C40.3173 293.091 21.8604 315.581 10.9614 341.894C0.0623932 368.206 -2.78929 397.16 2.76698 425.093C8.32326 453.026 22.0379 478.685 42.1767 498.823C62.3155 518.962 87.9738 532.677 115.907 538.233C143.84 543.789 172.794 540.938 199.106 530.039C225.419 519.14 247.909 500.683 263.732 477.002C279.555 453.321 288 425.481 288 397C288 358.809 272.829 322.182 245.823 295.177C218.818 268.171 182.191 253 144 253V253ZM144 498C124.024 498 104.497 492.076 87.8875 480.978C71.2781 469.88 58.3327 454.106 50.6882 435.651C43.0438 417.196 41.0436 396.888 44.9408 377.296C48.8379 357.704 58.4572 339.707 72.5823 325.582C86.7074 311.457 104.704 301.838 124.296 297.941C143.888 294.044 164.196 296.044 182.651 303.688C201.106 311.333 216.88 324.278 227.978 340.887C239.077 357.497 245 377.024 245 397C245 423.787 234.359 449.477 215.418 468.418C196.477 487.359 170.787 498 144 498Z" fill="#209CE2"/>
<path opacity="0.8" d="M144 253V296C170.787 296 196.477 306.641 215.418 325.582C234.359 344.523 245 370.213 245 397C245 423.787 234.359 449.477 215.418 468.418C196.477 487.359 170.787 498 144 498V541C182.191 541 218.818 525.829 245.823 498.823C272.829 471.818 288 435.191 288 397C288 358.809 272.829 322.182 245.823 295.177C218.818 268.171 182.191 253 144 253Z" fill="#FFB649"/>
<g filter="url(#filter1_d)">
<path d="M144 506C204.199 506 253 457.199 253 397C253 336.801 204.199 288 144 288C83.801 288 35 336.801 35 397C35 457.199 83.801 506 144 506Z" fill="white"/>
</g>
<path d="M96.24 395C96.24 386.744 97.824 380.24 100.992 375.488C104.208 370.736 109.368 368.36 116.472 368.36C123.576 368.36 128.712 370.736 131.88 375.488C135.096 380.24 136.704 386.744 136.704 395C136.704 403.352 135.096 409.904 131.88 414.656C128.712 419.408 123.576 421.784 116.472 421.784C109.368 421.784 104.208 419.408 100.992 414.656C97.824 409.904 96.24 403.352 96.24 395ZM124.608 395C124.608 390.152 124.08 386.432 123.024 383.84C121.968 381.2 119.784 379.88 116.472 379.88C113.16 379.88 110.976 381.2 109.92 383.84C108.864 386.432 108.336 390.152 108.336 395C108.336 398.264 108.528 400.976 108.912 403.136C109.296 405.248 110.064 406.976 111.216 408.32C112.416 409.616 114.168 410.264 116.472 410.264C118.776 410.264 120.504 409.616 121.656 408.32C122.856 406.976 123.648 405.248 124.032 403.136C124.416 400.976 124.608 398.264 124.608 395ZM142.777 412.136C144.409 410.84 145.153 410.24 145.009 410.336C149.713 406.448 153.409 403.256 156.097 400.76C158.833 398.264 161.137 395.648 163.009 392.912C164.881 390.176 165.817 387.512 165.817 384.92C165.817 382.952 165.361 381.416 164.449 380.312C163.537 379.208 162.169 378.656 160.345 378.656C158.521 378.656 157.081 379.352 156.025 380.744C155.017 382.088 154.513 384.008 154.513 386.504H142.633C142.729 382.424 143.593 379.016 145.225 376.28C146.905 373.544 149.089 371.528 151.777 370.232C154.513 368.936 157.537 368.288 160.849 368.288C166.561 368.288 170.857 369.752 173.737 372.68C176.665 375.608 178.129 379.424 178.129 384.128C178.129 389.264 176.377 394.04 172.873 398.456C169.369 402.824 164.905 407.096 159.481 411.272H178.921V421.28H142.777V412.136Z" fill="#262626"/>
<path opacity="0.3" d="M144 506C115.52 506 87.6786 514.445 63.998 530.268C40.3173 546.091 21.8604 568.581 10.9614 594.894C0.0623932 621.206 -2.78929 650.16 2.76698 678.093C8.32326 706.026 22.0379 731.685 42.1767 751.823C62.3155 771.962 87.9738 785.677 115.907 791.233C143.84 796.789 172.794 793.938 199.106 783.039C225.419 772.14 247.909 753.683 263.732 730.002C279.555 706.321 288 678.481 288 650C288 611.809 272.829 575.182 245.823 548.177C218.818 521.171 182.191 506 144 506V506ZM144 751C124.024 751 104.497 745.076 87.8875 733.978C71.2781 722.88 58.3327 707.106 50.6882 688.651C43.0438 670.196 41.0436 649.888 44.9408 630.296C48.8379 610.704 58.4572 592.707 72.5823 578.582C86.7074 564.457 104.704 554.838 124.296 550.941C143.888 547.044 164.196 549.044 182.651 556.688C201.106 564.333 216.88 577.278 227.978 593.887C239.077 610.497 245 630.024 245 650C245 676.787 234.359 702.477 215.418 721.418C196.477 740.359 170.787 751 144 751Z" fill="#209CE2"/>
<path opacity="0.8" d="M144 506V549C117.213 549 91.5234 559.641 72.5822 578.582C53.641 597.523 43 623.213 43 650C43 676.787 53.641 702.477 72.5822 721.418C91.5234 740.359 117.213 751 144 751V794C105.809 794 69.1819 778.829 42.1766 751.823C15.1714 724.818 0 688.191 0 650C0 611.809 15.1714 575.182 42.1766 548.177C69.1819 521.171 105.809 506 144 506V506Z" fill="#18DBAC"/>
<g filter="url(#filter2_d)">
<path d="M144 759C204.199 759 253 710.199 253 650C253 589.801 204.199 541 144 541C83.801 541 35 589.801 35 650C35 710.199 83.801 759 144 759Z" fill="white"/>
</g>
<path d="M96.24 648C96.24 639.744 97.824 633.24 100.992 628.488C104.208 623.736 109.368 621.36 116.472 621.36C123.576 621.36 128.712 623.736 131.88 628.488C135.096 633.24 136.704 639.744 136.704 648C136.704 656.352 135.096 662.904 131.88 667.656C128.712 672.408 123.576 674.784 116.472 674.784C109.368 674.784 104.208 672.408 100.992 667.656C97.824 662.904 96.24 656.352 96.24 648ZM124.608 648C124.608 643.152 124.08 639.432 123.024 636.84C121.968 634.2 119.784 632.88 116.472 632.88C113.16 632.88 110.976 634.2 109.92 636.84C108.864 639.432 108.336 643.152 108.336 648C108.336 651.264 108.528 653.976 108.912 656.136C109.296 658.248 110.064 659.976 111.216 661.32C112.416 662.616 114.168 663.264 116.472 663.264C118.776 663.264 120.504 662.616 121.656 661.32C122.856 659.976 123.648 658.248 124.032 656.136C124.416 653.976 124.608 651.264 124.608 648ZM143.641 637.272C143.833 632.136 145.513 628.176 148.681 625.392C151.849 622.608 156.145 621.216 161.569 621.216C165.169 621.216 168.241 621.84 170.785 623.088C173.377 624.336 175.321 626.04 176.617 628.2C177.961 630.36 178.633 632.784 178.633 635.472C178.633 638.64 177.841 641.232 176.257 643.248C174.673 645.216 172.825 646.56 170.713 647.28V647.568C173.449 648.48 175.609 649.992 177.193 652.104C178.777 654.216 179.569 656.928 179.569 660.24C179.569 663.216 178.873 665.856 177.481 668.16C176.137 670.416 174.145 672.192 171.505 673.488C168.913 674.784 165.817 675.432 162.217 675.432C156.457 675.432 151.849 674.016 148.393 671.184C144.985 668.352 143.185 664.08 142.993 658.368H154.945C154.993 660.48 155.593 662.16 156.745 663.408C157.897 664.608 159.577 665.208 161.785 665.208C163.657 665.208 165.097 664.68 166.105 663.624C167.161 662.52 167.689 661.08 167.689 659.304C167.689 657 166.945 655.344 165.457 654.336C164.017 653.28 161.689 652.752 158.473 652.752H156.169V642.744H158.473C160.921 642.744 162.889 642.336 164.377 641.52C165.913 640.656 166.681 639.144 166.681 636.984C166.681 635.256 166.201 633.912 165.241 632.952C164.281 631.992 162.961 631.512 161.281 631.512C159.457 631.512 158.089 632.064 157.177 633.168C156.313 634.272 155.809 635.64 155.665 637.272H143.641Z" fill="#262626"/>
<defs>
<filter id="filter0_d" x="25" y="35" width="238" height="238" filterUnits="userSpaceOnUse" color-interpolation-filters="sRGB">
<feFlood flood-opacity="0" result="BackgroundImageFix"/>
<feColorMatrix in="SourceAlpha" type="matrix" values="0 0 0 0 0 0 0 0 0 0 0 0 0 0 0 0 0 0 127 0" result="hardAlpha"/>
<feOffset dy="10"/>
<feGaussianBlur stdDeviation="5"/>
<feComposite in2="hardAlpha" operator="out"/>
<feColorMatrix type="matrix" values="0 0 0 0 0 0 0 0 0 0 0 0 0 0 0 0 0 0 0.1 0"/>
<feBlend mode="normal" in2="BackgroundImageFix" result="effect1_dropShadow"/>
<feBlend mode="normal" in="SourceGraphic" in2="effect1_dropShadow" result="shape"/>
</filter>
<filter id="filter1_d" x="25" y="288" width="238" height="238" filterUnits="userSpaceOnUse" color-interpolation-filters="sRGB">
<feFlood flood-opacity="0" result="BackgroundImageFix"/>
<feColorMatrix in="SourceAlpha" type="matrix" values="0 0 0 0 0 0 0 0 0 0 0 0 0 0 0 0 0 0 127 0" result="hardAlpha"/>
<feOffset dy="10"/>
<feGaussianBlur stdDeviation="5"/>
<feComposite in2="hardAlpha" operator="out"/>
<feColorMatrix type="matrix" values="0 0 0 0 0 0 0 0 0 0 0 0 0 0 0 0 0 0 0.1 0"/>
<feBlend mode="normal" in2="BackgroundImageFix" result="effect1_dropShadow"/>
<feBlend mode="normal" in="SourceGraphic" in2="effect1_dropShadow" result="shape"/>
</filter>
<filter id="filter2_d" x="25" y="541" width="238" height="238" filterUnits="userSpaceOnUse" color-interpolation-filters="sRGB">
<feFlood flood-opacity="0" result="BackgroundImageFix"/>
<feColorMatrix in="SourceAlpha" type="matrix" values="0 0 0 0 0 0 0 0 0 0 0 0 0 0 0 0 0 0 127 0" result="hardAlpha"/>
<feOffset dy="10"/>
<feGaussianBlur stdDeviation="5"/>
<feComposite in2="hardAlpha" operator="out"/>
<feColorMatrix type="matrix" values="0 0 0 0 0 0 0 0 0 0 0 0 0 0 0 0 0 0 0.1 0"/>
<feBlend mode="normal" in2="BackgroundImageFix" result="effect1_dropShadow"/>
<feBlend mode="normal" in="SourceGraphic" in2="effect1_dropShadow" result="shape"/>
</filter>
</defs>
</svg>
