<svg width="288" height="288" viewBox="0 0 288 288" fill="none" xmlns="http://www.w3.org/2000/svg">
<path opacity="0.3" d="M144 0C115.52 0 87.6786 8.44545 63.998 24.2684C40.3173 40.0913 21.8604 62.5811 10.9614 88.8936C0.0623932 115.206 -2.78929 144.16 2.76698 172.093C8.32326 200.026 22.0379 225.685 42.1767 245.823C62.3155 265.962 87.9738 279.677 115.907 285.233C143.84 290.789 172.794 287.938 199.106 277.039C225.419 266.14 247.909 247.683 263.732 224.002C279.555 200.321 288 172.481 288 144C288 105.809 272.829 69.1819 245.823 42.1766C218.818 15.1714 182.191 0 144 0V0ZM144 245C124.024 245 104.497 239.076 87.8875 227.978C71.2781 216.88 58.3327 201.106 50.6882 182.651C43.0438 164.196 41.0436 143.888 44.9408 124.296C48.8379 104.704 58.4572 86.7073 72.5823 72.5822C86.7074 58.4571 104.704 48.8378 124.296 44.9407C143.888 41.0436 164.196 43.0437 182.651 50.6882C201.106 58.3326 216.88 71.278 227.978 87.8874C239.077 104.497 245 124.024 245 144C245 170.787 234.359 196.477 215.418 215.418C196.477 234.359 170.787 245 144 245Z" fill="#209CE2"/>
<path opacity="0.8" d="M144 0V43C117.213 43 91.5234 53.641 72.5822 72.5822C53.641 91.5234 43 117.213 43 144C43 170.787 53.641 196.477 72.5822 215.418C91.5234 234.359 117.213 245 144 245V288C105.809 288 69.1819 272.829 42.1766 245.823C15.1714 218.818 0 182.191 0 144C0 105.809 15.1714 69.1819 42.1766 42.1766C69.1819 15.1714 105.809 8.04819e-07 144 0V0Z" fill="#18DBAC"/>
<g filter="url(#filter0_d)">
<path d="M144 253C204.199 253 253 204.199 253 144C253 83.801 204.199 35 144 35C83.801 35 35 83.801 35 144C35 204.199 83.801 253 144 253Z" fill="white"/>
</g>
<path d="M96.24 142C96.24 133.744 97.824 127.24 100.992 122.488C104.208 117.736 109.368 115.36 116.472 115.36C123.576 115.36 128.712 117.736 131.88 122.488C135.096 127.24 136.704 133.744 136.704 142C136.704 150.352 135.096 156.904 131.88 161.656C128.712 166.408 123.576 168.784 116.472 168.784C109.368 168.784 104.208 166.408 100.992 161.656C97.824 156.904 96.24 150.352 96.24 142ZM124.608 142C124.608 137.152 124.08 133.432 123.024 130.84C121.968 128.2 119.784 126.88 116.472 126.88C113.16 126.88 110.976 128.2 109.92 130.84C108.864 133.432 108.336 137.152 108.336 142C108.336 145.264 108.528 147.976 108.912 150.136C109.296 152.248 110.064 153.976 111.216 155.32C112.416 156.616 114.168 157.264 116.472 157.264C118.776 157.264 120.504 156.616 121.656 155.32C122.856 153.976 123.648 152.248 124.032 150.136C124.416 147.976 124.608 145.264 124.608 142ZM143.641 131.272C143.833 126.136 145.513 122.176 148.681 119.392C151.849 116.608 156.145 115.216 161.569 115.216C165.169 115.216 168.241 115.84 170.785 117.088C173.377 118.336 175.321 120.04 176.617 122.2C177.961 124.36 178.633 126.784 178.633 129.472C178.633 132.64 177.841 135.232 176.257 137.248C174.673 139.216 172.825 140.56 170.713 141.28V141.568C173.449 142.48 175.609 143.992 177.193 146.104C178.777 148.216 179.569 150.928 179.569 154.24C179.569 157.216 178.873 159.856 177.481 162.16C176.137 164.416 174.145 166.192 171.505 167.488C168.913 168.784 165.817 169.432 162.217 169.432C156.457 169.432 151.849 168.016 148.393 165.184C144.985 162.352 143.185 158.08 142.993 152.368H154.945C154.993 154.48 155.593 156.16 156.745 157.408C157.897 158.608 159.577 159.208 161.785 159.208C163.657 159.208 165.097 158.68 166.105 157.624C167.161 156.52 167.689 155.08 167.689 153.304C167.689 151 166.945 149.344 165.457 148.336C164.017 147.28 161.689 146.752 158.473 146.752H156.169V136.744H158.473C160.921 136.744 162.889 136.336 164.377 135.52C165.913 134.656 166.681 133.144 166.681 130.984C166.681 129.256 166.201 127.912 165.241 126.952C164.281 125.992 162.961 125.512 161.281 125.512C159.457 125.512 158.089 126.064 157.177 127.168C156.313 128.272 155.809 129.64 155.665 131.272H143.641Z" fill="#262626"/>
<defs>
<filter id="filter0_d" x="25" y="35" width="238" height="238" filterUnits="userSpaceOnUse" color-interpolation-filters="sRGB">
<feFlood flood-opacity="0" result="BackgroundImageFix"/>
<feColorMatrix in="SourceAlpha" type="matrix" values="0 0 0 0 0 0 0 0 0 0 0 0 0 0 0 0 0 0 127 0" result="hardAlpha"/>
<feOffset dy="10"/>
<feGaussianBlur stdDeviation="5"/>
<feComposite in2="hardAlpha" operator="out"/>
<feColorMatrix type="matrix" values="0 0 0 0 0 0 0 0 0 0 0 0 0 0 0 0 0 0 0.1 0"/>
<feBlend mode="normal" in2="BackgroundImageFix" result="effect1_dropShadow"/>
<feBlend mode="normal" in="SourceGraphic" in2="effect1_dropShadow" result="shape"/>
</filter>
</defs>
</svg>
