<svg width="24" height="15" viewBox="0 0 24 15" fill="none" xmlns="http://www.w3.org/2000/svg">
<path d="M21.5696 0.0810547H23.6793V14.7379H21.5696V0.0810547ZM17.3502 0.0810547H19.4599V14.7379H17.3502V0.0810547ZM14.1857 0.0810547H1.52751C0.947338 0.0810547 0.472656 0.552168 0.472656 1.12797V13.691C0.472656 14.2668 0.947338 14.7379 1.52751 14.7379H14.1857C14.7659 14.7379 15.2405 14.2668 15.2405 13.691V1.12797C15.2405 0.552168 14.7659 0.0810547 14.1857 0.0810547ZM13.1308 12.6441H2.58235V2.17489H13.1308V12.6441Z" fill="#262626"/>
<path d="M7.8013 7.40972C8.92557 7.40972 9.83697 6.49832 9.83697 5.37405C9.83697 4.24978 8.92557 3.33838 7.8013 3.33838C6.67703 3.33838 5.76562 4.24978 5.76562 5.37405C5.76562 6.49832 6.67703 7.40972 7.8013 7.40972Z" fill="#262626"/>
<path d="M11.8732 10.8702C11.8732 9.64879 9.16242 9.03809 7.80181 9.03809C6.44121 9.03809 3.73047 9.64879 3.73047 10.8702V11.4809H11.8732V10.8702Z" fill="#262626"/>
</svg>
