<svg width="121" height="121" viewBox="0 0 121 121" fill="none" xmlns="http://www.w3.org/2000/svg">
<path d="M51.791 35.2448L57.3092 29.2422L63.3071 31.4654L60.668 37.468L51.791 35.2448Z" fill="#4BD8D3"/>
<path d="M63.2511 0.451172C31.9206 0.451172 6.5498 25.8788 6.5498 57.2092C6.5498 88.5396 31.9206 113.967 63.2511 113.967C94.6383 113.967 120.066 88.5396 120.066 57.2092C120.066 25.8788 94.6383 0.451172 63.2511 0.451172ZM63.3078 102.616C38.2208 102.616 17.9014 82.2962 17.9014 57.2092C17.9014 32.1221 38.2208 11.8028 63.3078 11.8028C88.3949 11.8028 108.714 32.1221 108.714 57.2092C108.714 82.2962 88.3949 102.616 63.3078 102.616Z" fill="#4BD8D3"/>
<path d="M65.7746 29.2422H57.5488V62.6848L86.3391 80.2421L90.452 73.3864L65.7746 58.5045V29.2422Z" fill="#4BD8D3"/>
<path d="M57.4923 7.03223C26.1618 7.03223 0.791016 32.4598 0.791016 63.7902C0.791016 95.1207 26.1618 120.548 57.4923 120.548C88.8795 120.548 114.307 95.1207 114.307 63.7902C114.307 32.4598 88.8795 7.03223 57.4923 7.03223ZM57.549 109.197C32.462 109.197 12.1426 88.8773 12.1426 63.7902C12.1426 38.7032 32.462 18.3838 57.549 18.3838C82.6361 18.3838 102.955 38.7032 102.955 63.7902C102.955 88.8773 82.6361 109.197 57.549 109.197Z" fill="#FBFBFB"/>
<path d="M60.4281 35H51.791V68.982L82.0208 86.8225L86.3394 79.8562L60.4281 64.7342V35Z" fill="#FBFBFB"/>
</svg>
