<svg width="254" height="254" viewBox="0 0 254 254" fill="none" xmlns="http://www.w3.org/2000/svg">
<path d="M0.848739 127C0.848739 57.3636 57.2388 0.848739 126.873 0.848739C196.636 0.848739 253.151 57.3653 253.151 127C253.151 196.635 196.636 253.151 126.873 253.151C57.2388 253.151 0.848739 196.636 0.848739 127ZM24.5513 127C24.5513 183.603 70.3973 229.449 127 229.449C183.603 229.449 229.449 183.603 229.449 127C229.449 70.3973 183.603 24.5513 127 24.5513C70.3973 24.5513 24.5513 70.3973 24.5513 127Z" stroke="black" stroke-opacity="0.1" stroke-width="1.69748"/>
<path d="M132.151 130.131V130.612L132.564 130.859L188.833 164.563L180.213 178.834L114.849 139.243V63.8487H132.151V130.131Z" stroke="black" stroke-opacity="0.1" stroke-width="1.69748"/>
</svg>
