<svg width="71" height="47" viewBox="0 0 71 47" fill="none" xmlns="http://www.w3.org/2000/svg">
<path d="M57.2437 17.7425C55.2321 7.60812 46.2683 0 35.5 0C26.9504 0 19.5546 4.8175 15.8567 11.8675C6.95208 12.8075 0 20.2688 0 29.375C0 39.0981 7.95792 47 17.75 47H56.2083C64.3733 47 71 40.42 71 32.3125C71 24.5575 64.9354 18.2712 57.2437 17.7425ZM56.2083 41.125H17.75C11.2121 41.125 5.91667 35.8669 5.91667 29.375C5.91667 22.8831 11.2121 17.625 17.75 17.625C24.2879 17.625 29.5833 22.8831 29.5833 29.375H35.5C35.5 21.2675 29.9975 14.4525 22.4833 12.3963C25.4712 8.46 30.175 5.875 35.5 5.875C44.4637 5.875 51.7708 13.1306 51.7708 22.0312V23.5H56.2083C61.0896 23.5 65.0833 27.4656 65.0833 32.3125C65.0833 37.1594 61.0896 41.125 56.2083 41.125Z" fill="white"/>
</svg>
