<svg width="22" height="12" viewBox="0 0 22 12" fill="none" xmlns="http://www.w3.org/2000/svg">
<path d="M4.0247 6.7981C5.00151 6.7981 5.80072 5.9989 5.80072 5.02208C5.80072 4.04527 5.00151 3.24606 4.0247 3.24606C3.04789 3.24606 2.24868 4.04527 2.24868 5.02208C2.24868 5.9989 3.04789 6.7981 4.0247 6.7981ZM5.02815 7.77492C4.69959 7.72164 4.37102 7.68611 4.0247 7.68611C3.14557 7.68611 2.31084 7.8726 1.55603 8.20116C0.898901 8.48532 0.472656 9.12469 0.472656 9.84398V11.2382H4.4687V9.80846C4.4687 9.07141 4.67295 8.37876 5.02815 7.77492ZM18.2329 6.7981C19.2097 6.7981 20.0089 5.9989 20.0089 5.02208C20.0089 4.04527 19.2097 3.24606 18.2329 3.24606C17.2561 3.24606 16.4568 4.04527 16.4568 5.02208C16.4568 5.9989 17.2561 6.7981 18.2329 6.7981ZM21.7849 9.84398C21.7849 9.12469 21.3587 8.48532 20.7015 8.20116C19.9467 7.8726 19.112 7.68611 18.2329 7.68611C17.8865 7.68611 17.558 7.72164 17.2294 7.77492C17.5846 8.37876 17.7889 9.07141 17.7889 9.80846V11.2382H21.7849V9.84398ZM14.8939 7.37531C13.855 6.91355 12.5762 6.5761 11.1288 6.5761C9.68132 6.5761 8.40259 6.92243 7.36362 7.37531C6.40457 7.80156 5.80072 8.76061 5.80072 9.80846V11.2382H16.4568V9.80846C16.4568 8.76061 15.853 7.80156 14.8939 7.37531ZM7.6389 9.46214C7.71882 9.25789 7.75434 9.11581 8.44699 8.84941C9.30836 8.51196 10.2141 8.35212 11.1288 8.35212C12.0434 8.35212 12.9492 8.51196 13.8106 8.84941C14.4943 9.11581 14.5299 9.25789 14.6187 9.46214H7.6389ZM11.1288 2.35805C11.6172 2.35805 12.0168 2.75766 12.0168 3.24606C12.0168 3.73447 11.6172 4.13407 11.1288 4.13407C10.6404 4.13407 10.2408 3.73447 10.2408 3.24606C10.2408 2.75766 10.6404 2.35805 11.1288 2.35805ZM11.1288 0.582031C9.65468 0.582031 8.46475 1.77197 8.46475 3.24606C8.46475 4.72016 9.65468 5.91009 11.1288 5.91009C12.6029 5.91009 13.7928 4.72016 13.7928 3.24606C13.7928 1.77197 12.6029 0.582031 11.1288 0.582031Z" fill="#262626"/>
</svg>
