<svg width="22" height="21" viewBox="0 0 22 21" fill="none" xmlns="http://www.w3.org/2000/svg">
<path d="M17.9586 15.5303C18.3738 14.8007 18.6852 13.9669 18.6852 13.0288C18.6852 10.423 16.6091 8.33844 14.0139 8.33844C11.4187 8.33844 9.34261 10.423 9.34261 13.0288C9.34261 15.6346 11.4187 17.7192 14.0139 17.7192C14.9482 17.7192 15.7786 17.4065 16.5053 16.9896L19.8271 20.3249L21.2804 18.8657L17.9586 15.5303ZM14.0139 15.6346C12.5606 15.6346 11.4187 14.488 11.4187 13.0288C11.4187 11.5696 12.5606 10.423 14.0139 10.423C15.4672 10.423 16.6091 11.5696 16.6091 13.0288C16.6091 14.488 15.4672 15.6346 14.0139 15.6346ZM10.3807 18.7615V20.8461C4.65054 20.8461 0 16.1766 0 10.423C0 4.66953 4.65054 0 10.3807 0C15.4049 0 19.5883 3.58553 20.5537 8.33844H18.4049C17.7406 5.77437 15.9136 3.67934 13.4949 2.69957V3.12691C13.4949 4.27345 12.5606 5.21152 11.4187 5.21152H9.34261V7.29613C9.34261 7.8694 8.87548 8.33844 8.30454 8.33844H6.22841V10.423H8.30454V13.55H7.26648L2.29413 8.55732C2.15918 9.16186 2.07614 9.77682 2.07614 10.423C2.07614 15.0196 5.8028 18.7615 10.3807 18.7615Z" fill="#262626"/>
</svg>
