<svg width="38" height="43" viewBox="0 0 38 43" fill="none" xmlns="http://www.w3.org/2000/svg">
<path d="M14.3133 19.694L11.3156 22.747C9.88 21.2635 8.48667 19.35 7.53667 16.426L11.6322 15.3725C12.3078 17.286 13.2578 18.5975 14.3133 19.694ZM16.8889 8.6L8.44444 0L0 8.6H6.37556C6.41778 10.3415 6.54444 11.911 6.77667 13.2655L10.8722 12.212C10.7244 11.18 10.6189 9.9545 10.5978 8.6H16.8889ZM38 8.6L29.5556 0L21.1111 8.6H27.4233C27.2122 16.512 24.7211 18.8125 22.0611 21.242C21.0056 22.188 19.9289 23.22 19 24.5745C18.2822 23.521 17.4589 22.6825 16.6144 21.9085L13.6378 24.94C15.6011 26.7675 16.8889 28.251 16.8889 32.25V43H21.1111V32.25C21.1111 27.907 22.61 26.531 24.89 24.4455C27.8033 21.7795 31.3922 18.4685 31.6456 8.6H38Z" fill="#262626"/>
</svg>
