<svg width="69" height="143" viewBox="0 0 69 143" fill="none" xmlns="http://www.w3.org/2000/svg">
<path d="M68.5303 130.228V100L39.6791 107.777L31.5303 136.534L55.316 143L68.5303 130.228Z" fill="#E29F3A"/>
<path d="M15.6171 100L0.530273 110L52.5689 112L68.5303 100H15.6171Z" fill="#FFD392"/>
<rect x="0.530273" y="110" width="55" height="33" fill="#FFB649"/>
<path d="M37.1381 24.884C44.0864 24.884 49.7392 19.4051 49.7392 12.6706C49.7392 5.93615 44.0864 0.457275 37.1381 0.457275C30.1898 0.457275 24.5381 5.93615 24.5381 12.6706C24.5381 19.4051 30.1898 24.884 37.1381 24.884Z" fill="#B1B1B1"/>
<path d="M62.8033 61.3306L52.5955 30.6755C52.0489 29.0344 50.2278 27.7495 48.4486 27.7495H46.9228H45.8321H28.4421H27.3513H25.8256C24.0464 27.7495 22.2253 29.0344 21.6787 30.6755L11.4731 61.3306C11.1708 62.2401 11.2964 63.1599 11.8185 63.8553C12.3407 64.5507 13.2059 64.9497 14.192 64.9497H16.8085C18.5877 64.9497 20.4088 63.6648 20.9554 62.0237L23.8626 53.2887V65.085V65.6519V98.5251C23.8626 101.633 26.471 104.161 29.6771 104.161H30.0864C33.2926 104.161 35.9009 101.633 35.9009 98.5251V69.0332H38.3744V98.5251C38.3744 101.633 40.9828 104.161 44.1889 104.161H44.5982C47.8043 104.161 50.4127 101.633 50.4127 98.5251V65.6519V65.085V53.2841L53.3223 62.0237C53.8688 63.6648 55.6899 64.9497 57.4691 64.9497H60.0857C61.0718 64.9497 61.9358 64.5507 62.4591 63.8553C62.9824 63.1599 63.1057 62.2401 62.8033 61.3306Z" fill="#B1B1B1"/>
<mask id="mask0" mask-type="alpha" maskUnits="userSpaceOnUse" x="11" y="27" width="52" height="78">
<path d="M62.8033 61.3306L52.5955 30.6755C52.0489 29.0344 50.2278 27.7495 48.4486 27.7495H46.9228H45.8321H28.4421H27.3513H25.8256C24.0464 27.7495 22.2253 29.0344 21.6787 30.6755L11.4731 61.3306C11.1708 62.2401 11.2964 63.1599 11.8185 63.8553C12.3407 64.5507 13.2059 64.9497 14.192 64.9497H16.8085C18.5877 64.9497 20.4088 63.6648 20.9554 62.0237L23.8626 53.2887V65.085V65.6519V98.5251C23.8626 101.633 26.471 104.161 29.6771 104.161H30.0864C33.2926 104.161 35.9009 101.633 35.9009 98.5251V69.0332H38.3744V98.5251C38.3744 101.633 40.9828 104.161 44.1889 104.161H44.5982C47.8043 104.161 50.4127 101.633 50.4127 98.5251V65.6519V65.085V53.2841L53.3223 62.0237C53.8688 63.6648 55.6899 64.9497 57.4691 64.9497H60.0857C61.0718 64.9497 61.9358 64.5507 62.4591 63.8553C62.9824 63.1599 63.1057 62.2401 62.8033 61.3306Z" fill="black"/>
</mask>
<g mask="url(#mask0)">
<rect x="-44.5264" y="83.5593" width="163.556" height="20.7406" fill="#E29F3A"/>
</g>
<path d="M33.306 26.759C40.2543 26.759 45.9072 21.2801 45.9072 14.5456C45.9072 7.81115 40.2543 2.33228 33.306 2.33228C26.3577 2.33228 20.7061 7.81115 20.7061 14.5456C20.7061 21.2801 26.3577 26.759 33.306 26.759Z" fill="#CECECE"/>
<path d="M58.9723 63.2056L48.7644 32.5505C48.2178 30.9094 46.3967 29.6245 44.6175 29.6245H43.0918H42.001H24.6111H23.5203H21.9945C20.2153 29.6245 18.3942 30.9094 17.8477 32.5505L7.64209 63.2056C7.33974 64.1151 7.46534 65.0349 7.98748 65.7303C8.50962 66.4257 9.37481 66.8247 10.3609 66.8247H12.9775C14.7567 66.8247 16.5778 65.5398 17.1243 63.8987L20.0316 55.1637V66.96V67.5269V100.4C20.0316 103.508 22.64 106.036 25.8461 106.036H26.2554C29.4615 106.036 32.0699 103.508 32.0699 100.4V70.9082H34.5434V100.4C34.5434 103.508 37.1517 106.036 40.3578 106.036H40.7672C43.9733 106.036 46.5816 103.508 46.5816 100.4V67.5269V66.96V55.1591L49.4912 63.8987C50.0378 65.5398 51.8589 66.8247 53.6381 66.8247H56.2546C57.2407 66.8247 58.1048 66.4257 58.6281 65.7303C59.1514 65.0349 59.2746 64.1151 58.9723 63.2056Z" fill="#CECECE"/>
<mask id="mask1" mask-type="alpha" maskUnits="userSpaceOnUse" x="7" y="29" width="53" height="78">
<path d="M58.9723 63.2056L48.7644 32.5505C48.2178 30.9094 46.3967 29.6245 44.6175 29.6245H43.0918H42.001H24.6111H23.5203H21.9945C20.2153 29.6245 18.3942 30.9094 17.8477 32.5505L7.64209 63.2056C7.33974 64.1151 7.46534 65.0349 7.98748 65.7303C8.50962 66.4257 9.37481 66.8247 10.3609 66.8247H12.9775C14.7567 66.8247 16.5778 65.5398 17.1243 63.8987L20.0316 55.1637V66.96V67.5269V100.4C20.0316 103.508 22.64 106.036 25.8461 106.036H26.2554C29.4615 106.036 32.0699 103.508 32.0699 100.4V70.9082H34.5434V100.4C34.5434 103.508 37.1517 106.036 40.3578 106.036H40.7672C43.9733 106.036 46.5816 103.508 46.5816 100.4V67.5269V66.96V55.1591L49.4912 63.8987C50.0378 65.5398 51.8589 66.8247 53.6381 66.8247H56.2546C57.2407 66.8247 58.1048 66.4257 58.6281 65.7303C59.1514 65.0349 59.2746 64.1151 58.9723 63.2056Z" fill="black"/>
</mask>
<g mask="url(#mask1)">
<rect x="-48.3584" y="85.4341" width="163.556" height="20.7406" fill="#FFB649"/>
</g>
</svg>
