<svg width="71" height="269" viewBox="0 0 71 269" fill="none" xmlns="http://www.w3.org/2000/svg">
<path d="M70.0504 205.825V104.188L40.4829 125.824L32.1318 205.825L56.508 223.812L70.0504 205.825Z" fill="#787878"/>
<path d="M15.6056 104.188L0.0820312 114.721L53.6272 116.828L70.0507 104.188H15.6056Z" fill="#8D8D8D"/>
<path d="M69.8287 256.04V104.188L40.2613 133.825L31.9102 243.412L56.2863 268.051L69.8287 256.04Z" fill="#787878"/>
<path d="M15.6056 104.188L0.0820312 114.721L53.6272 116.828L70.0507 104.188H15.6056Z" fill="#7AE4FF"/>
<rect x="0.0820312" y="114.346" width="56.2007" height="153.705" fill="#494949"/>
<path d="M70.0504 205.825V104.188L40.4829 125.824L32.1318 205.825L56.508 223.812L70.0504 205.825Z" fill="#209CE2"/>
<path d="M69.8287 256.04V104.188L40.2613 133.825L31.9102 243.412L56.2863 268.051L69.8287 256.04Z" fill="#209CE2"/>
<rect x="0.0820312" y="114.346" width="56.2007" height="153.705" fill="#36C4E8"/>
<path d="M37.177 25.833C44.2992 25.833 50.0935 20.0387 50.0935 12.9165C50.0935 5.79431 44.2992 0 37.177 0C30.0548 0 24.2617 5.79431 24.2617 12.9165C24.2617 20.0387 30.0548 25.833 37.177 25.833Z" fill="#CECECE"/>
<mask id="mask0" mask-type="alpha" maskUnits="userSpaceOnUse" x="24" y="0" width="27" height="26">
<path d="M37.177 25.833C44.2992 25.833 50.0935 20.0387 50.0935 12.9165C50.0935 5.79431 44.2992 0 37.177 0C30.0548 0 24.2617 5.79431 24.2617 12.9165C24.2617 20.0387 30.0548 25.833 37.177 25.833Z" fill="#A2A2A2"/>
</mask>
<g mask="url(#mask0)">
<rect x="-6.9043" y="12.1873" width="90.7336" height="16.2508" fill="#209CE2"/>
</g>
<mask id="mask1" mask-type="alpha" maskUnits="userSpaceOnUse" x="10" y="28" width="54" height="82">
<path d="M63.4846 64.3779L53.0212 31.958C52.461 30.2224 50.5943 28.8635 48.7706 28.8635H47.2067H46.0886H28.2634H27.1453H25.5814C23.7577 28.8635 21.891 30.2224 21.3308 31.958L10.8698 64.3779C10.5599 65.3399 10.6886 66.3126 11.2238 67.048C11.759 67.7835 12.6458 68.2055 13.6567 68.2055H16.3387C18.1624 68.2055 20.0291 66.8466 20.5893 65.111L23.5693 55.873V68.3485V68.9481V103.714C23.5693 107 26.243 109.674 29.5293 109.674H29.9489C33.2352 109.674 35.9089 107 35.9089 103.714V72.5241H38.4443V103.714C38.4443 107 41.1179 109.674 44.4043 109.674H44.8239C48.1102 109.674 50.7838 107 50.7838 103.714V68.9481V68.3485V55.8683L53.7662 65.111C54.3265 66.8466 56.1931 68.2055 58.0169 68.2055H60.6989C61.7097 68.2055 62.5954 67.7835 63.1318 67.048C63.6682 66.3126 63.7945 65.3399 63.4846 64.3779Z" fill="black"/>
</mask>
<g mask="url(#mask1)">
<rect x="-46.542" y="26.0327" width="167.616" height="83.5796" fill="#209CE2"/>
</g>
<path d="M34.4729 27.188C41.5951 27.188 47.3894 21.3937 47.3894 14.2715C47.3894 7.14929 41.5951 1.35498 34.4729 1.35498C27.3507 1.35498 21.5576 7.14929 21.5576 14.2715C21.5576 21.3937 27.3507 27.188 34.4729 27.188Z" fill="#CECECE"/>
<mask id="mask2" mask-type="alpha" maskUnits="userSpaceOnUse" x="21" y="1" width="27" height="27">
<path d="M34.4729 27.188C41.5951 27.188 47.3894 21.3937 47.3894 14.2715C47.3894 7.14929 41.5951 1.35498 34.4729 1.35498C27.3507 1.35498 21.5576 7.14929 21.5576 14.2715C21.5576 21.3937 27.3507 27.188 34.4729 27.188Z" fill="#A2A2A2"/>
</mask>
<g mask="url(#mask2)">
<rect x="-9.70117" y="14.1873" width="91.1539" height="15.9298" fill="#36C4E8"/>
</g>
<mask id="mask3" mask-type="alpha" maskUnits="userSpaceOnUse" x="8" y="30" width="53" height="82">
<path d="M60.7805 65.7329L50.3171 33.3129C49.7569 31.5774 47.8902 30.2185 46.0665 30.2185H44.5026H43.3845H25.5593H24.4412H22.8773C21.0536 30.2185 19.1869 31.5774 18.6267 33.3129L8.16567 65.7329C7.85575 66.6949 7.98449 67.6675 8.5197 68.403C9.0549 69.1385 9.94175 69.5604 10.9526 69.5604H13.6346C15.4583 69.5604 17.325 68.2016 17.8852 66.466L20.8652 57.228V69.7035V70.303V105.069C20.8652 108.355 23.5389 111.029 26.8252 111.029H27.2448C30.5311 111.029 33.2048 108.355 33.2048 105.069V73.879H35.7402V105.069C35.7402 108.355 38.4138 111.029 41.7002 111.029H42.1198C45.4061 111.029 48.0797 108.355 48.0797 105.069V70.303V69.7035V57.2232L51.0621 66.466C51.6224 68.2016 53.489 69.5604 55.3128 69.5604H57.9948C59.0056 69.5604 59.8913 69.1385 60.4277 68.403C60.9641 67.6675 61.0904 66.6949 60.7805 65.7329Z" fill="black"/>
</mask>
<g mask="url(#mask3)">
<rect x="-49.2461" y="27.3877" width="167.616" height="83.5796" fill="#36C4E8"/>
</g>
</svg>
