<svg width="67" height="274" viewBox="0 0 67 274" fill="none" xmlns="http://www.w3.org/2000/svg">
<path d="M67 202.956V101L38.9286 122.703L31 202.956L54.1429 221L67 202.956Z" fill="#787878"/>
<path d="M14.865 101L0 111.833L51.2733 114L67 101H14.865Z" fill="#8D8D8D"/>
<path d="M67 260.393V101L38.9286 132.108L31 247.137L54.1429 273L67 260.393Z" fill="#787878"/>
<path d="M14.865 101L0 111.833L51.2733 114L67 101H14.865Z" fill="#33EFC2"/>
<path d="M34.5356 24.8904C41.5668 24.8904 47.2871 19.3076 47.2871 12.4452C47.2871 5.58289 41.5668 0 34.5356 0C27.5043 0 21.7852 5.58289 21.7852 12.4452C21.7852 19.3076 27.5043 24.8904 34.5356 24.8904Z" fill="#CECECE"/>
<mask id="mask0" mask-type="alpha" maskUnits="userSpaceOnUse" x="21" y="0" width="27" height="25">
<path d="M34.5356 24.8904C41.5668 24.8904 47.2871 19.3076 47.2871 12.4452C47.2871 5.58289 41.5668 0 34.5356 0C27.5043 0 21.7852 5.58289 21.7852 12.4452C21.7852 19.3076 27.5043 24.8904 34.5356 24.8904Z" fill="#A2A2A2"/>
</mask>
<g mask="url(#mask0)">
<rect x="-8.88867" y="5.72046" width="89.7265" height="22.0027" fill="#16A482"/>
</g>
<mask id="mask1" mask-type="alpha" maskUnits="userSpaceOnUse" x="8" y="27" width="53" height="79">
<path d="M60.505 62.0287L50.1752 30.7916C49.6221 29.1194 47.7793 27.8101 45.9788 27.8101H44.4349H43.3311H25.7335H24.6297H23.0858C21.2853 27.8101 19.4425 29.1194 18.8894 30.7916L8.56199 62.0287C8.25603 62.9555 8.38312 63.8927 8.9115 64.6013C9.43987 65.31 10.3154 65.7165 11.3133 65.7165H13.9611C15.7615 65.7165 17.6044 64.4072 18.1574 62.735L21.0994 53.8341V65.8544V66.432V99.9294C21.0994 103.096 23.7389 105.672 26.9833 105.672H27.3975C30.6419 105.672 33.2814 103.096 33.2814 99.9294V69.8776H35.7844V99.9294C35.7844 103.096 38.4239 105.672 41.6683 105.672H42.0825C45.3269 105.672 47.9664 103.096 47.9664 99.9294V66.432V65.8544V53.8295L50.9107 62.735C51.4638 64.4072 53.3066 65.7165 55.1071 65.7165H57.7548C58.7528 65.7165 59.6271 65.31 60.1567 64.6013C60.6862 63.8927 60.8109 62.9555 60.505 62.0287Z" fill="black"/>
</mask>
<g mask="url(#mask1)">
<rect x="-48.1172" y="25.083" width="165.476" height="80.53" fill="#16A482"/>
</g>
<path d="M30.3861 26.2449C37.4174 26.2449 43.1377 20.662 43.1377 13.7997C43.1377 6.93739 37.4174 1.35449 30.3861 1.35449C23.3549 1.35449 17.6357 6.93739 17.6357 13.7997C17.6357 20.662 23.3549 26.2449 30.3861 26.2449Z" fill="#CECECE"/>
<mask id="mask2" mask-type="alpha" maskUnits="userSpaceOnUse" x="17" y="1" width="27" height="26">
<path d="M30.3861 26.2449C37.4174 26.2449 43.1377 20.662 43.1377 13.7997C43.1377 6.93739 37.4174 1.35449 30.3861 1.35449C23.3549 1.35449 17.6357 6.93739 17.6357 13.7997C17.6357 20.662 23.3549 26.2449 30.3861 26.2449Z" fill="#F4F4F4"/>
</mask>
<g mask="url(#mask2)">
<rect x="-13.0391" y="7.07544" width="89.7265" height="22.0027" fill="#18DBAC"/>
</g>
<mask id="mask3" mask-type="alpha" maskUnits="userSpaceOnUse" x="4" y="29" width="53" height="79">
<path d="M56.3556 63.3832L46.0258 32.1461C45.4727 30.4738 43.6299 29.1646 41.8294 29.1646H40.2855H39.1817H21.5841H20.4803H18.9364C17.1359 29.1646 15.2931 30.4738 14.74 32.1461L4.41258 63.3832C4.10662 64.31 4.23371 65.2472 4.76208 65.9558C5.29046 66.6645 6.16598 67.071 7.16389 67.071H9.81164C11.6121 67.071 13.4549 65.7617 14.008 64.0895L16.95 55.1886V67.2088V67.7865V101.284C16.95 104.45 19.5895 107.026 22.8339 107.026H23.2481C26.4925 107.026 29.132 104.45 29.132 101.284V71.2321H31.635V101.284C31.635 104.45 34.2745 107.026 37.5189 107.026H37.9331C41.1775 107.026 43.817 104.45 43.817 101.284V67.7865V67.2088V55.184L46.7613 64.0895C47.3144 65.7617 49.1572 67.071 50.9577 67.071H53.6054C54.6033 67.071 55.4777 66.6645 56.0072 65.9558C56.5368 65.2472 56.6615 64.31 56.3556 63.3832Z" fill="black"/>
</mask>
<g mask="url(#mask3)">
<rect x="-52.2695" y="26.4373" width="165.476" height="80.53" fill="#18DBAC"/>
</g>
<rect y="111" width="54" height="162" fill="#494949"/>
<path d="M67 202.956V101L38.9286 122.703L31 202.956L54.1429 221L67 202.956Z" fill="#16A482"/>
<path d="M67 260.393V101L38.9286 132.108L31 247.137L54.1429 273L67 260.393Z" fill="#16A482"/>
<rect y="111" width="54" height="163" fill="#18DBAC"/>
</svg>
