<svg width="70" height="176" viewBox="0 0 70 176" fill="none" xmlns="http://www.w3.org/2000/svg">
<path d="M69.8228 155.491V107.416L40.2554 119.785L31.9043 165.522L56.2805 175.805L69.8228 155.491Z" fill="#6B3FCB"/>
<path d="M15.5507 107.416L0.0771484 124.344H55.9393L69.8201 107.416H15.5507Z" fill="#9F78F3"/>
<rect x="0.0771484" y="124.343" width="56.2007" height="51.4608" fill="#8258DC"/>
<path d="M33.609 27.4042C41.1644 27.4042 47.3111 21.2574 47.3111 13.7021C47.3111 6.14672 41.1644 0 33.609 0C26.0537 0 19.9082 6.14672 19.9082 13.7021C19.9082 21.2574 26.0537 27.4042 33.609 27.4042Z" fill="#B1B1B1"/>
<path d="M61.5179 68.293L50.4182 33.9013C49.8239 32.0602 47.8437 30.6187 45.909 30.6187H44.25H43.0639H24.1546H22.9685H21.3095C19.3748 30.6187 17.3946 32.0602 16.8003 33.9013L5.70309 68.293C5.37432 69.3135 5.51089 70.3453 6.07865 71.1255C6.64641 71.9057 7.58719 72.3533 8.65948 72.3533H11.5046C13.4393 72.3533 15.4195 70.9118 16.0138 69.0707L19.175 59.2709V72.5051V73.1411V110.021C19.175 113.508 22.0113 116.344 25.4975 116.344H25.9426C29.4288 116.344 32.2651 113.508 32.2651 110.021V76.9346H34.9547V110.021C34.9547 113.508 37.7909 116.344 41.2772 116.344H41.7223C45.2085 116.344 48.0447 113.508 48.0447 110.021V73.1411V72.5051V59.2658L51.2085 69.0707C51.8028 70.9118 53.783 72.3533 55.7177 72.3533H58.5628C59.6351 72.3533 60.5746 71.9057 61.1436 71.1255C61.7127 70.3453 61.8467 69.3135 61.5179 68.293Z" fill="#B1B1B1"/>
<mask id="mask0" mask-type="alpha" maskUnits="userSpaceOnUse" x="5" y="30" width="57" height="87">
<path d="M61.5179 68.293L50.4182 33.9013C49.8239 32.0602 47.8437 30.6187 45.909 30.6187H44.25H43.0639H24.1546H22.9685H21.3095C19.3748 30.6187 17.3946 32.0602 16.8003 33.9013L5.70309 68.293C5.37432 69.3135 5.51089 70.3453 6.07865 71.1255C6.64641 71.9057 7.58719 72.3533 8.65948 72.3533H11.5046C13.4393 72.3533 15.4195 70.9118 16.0138 69.0707L19.175 59.2709V72.5051V73.1411V110.021C19.175 113.508 22.0113 116.344 25.4975 116.344H25.9426C29.4288 116.344 32.2651 113.508 32.2651 110.021V76.9346H34.9547V110.021C34.9547 113.508 37.7909 116.344 41.2772 116.344H41.7223C45.2085 116.344 48.0447 113.508 48.0447 110.021V73.1411V72.5051V59.2658L51.2085 69.0707C51.8028 70.9118 53.783 72.3533 55.7177 72.3533H58.5628C59.6351 72.3533 60.5746 71.9057 61.1436 71.1255C61.7127 70.3453 61.8467 69.3135 61.5179 68.293Z" fill="black"/>
</mask>
<g mask="url(#mask0)">
<rect x="-55.4473" y="75.5908" width="178.082" height="40.627" fill="#6B3FCB"/>
</g>
<path d="M30.8639 29.1893C38.4193 29.1893 44.566 23.0426 44.566 15.4872C44.566 7.93187 38.4193 1.78516 30.8639 1.78516C23.3085 1.78516 17.1631 7.93187 17.1631 15.4872C17.1631 23.0426 23.3085 29.1893 30.8639 29.1893Z" fill="#CECECE"/>
<path d="M58.7728 70.0782L47.6731 35.6864C47.0788 33.8453 45.0986 32.4038 43.1639 32.4038H41.5049H40.3188H21.4095H20.2234H18.5644C16.6297 32.4038 14.6495 33.8453 14.0552 35.6864L2.95797 70.0782C2.6292 71.0987 2.76577 72.1305 3.33353 72.9107C3.90129 73.6909 4.84207 74.1385 5.91436 74.1385H8.75948C10.6942 74.1385 12.6744 72.697 13.2687 70.8559L16.4299 61.056V74.2902V74.9263V111.807C16.4299 115.293 19.2662 118.129 22.7524 118.129H23.1975C26.6837 118.129 29.52 115.293 29.52 111.807V78.7198H32.2096V111.807C32.2096 115.293 35.0458 118.129 38.532 118.129H38.9771C42.4633 118.129 45.2996 115.293 45.2996 111.807V74.9263V74.2902V61.051L48.4634 70.8559C49.0577 72.697 51.0379 74.1385 52.9726 74.1385H55.8177C56.89 74.1385 57.8295 73.6909 58.3985 72.9107C58.9676 72.1305 59.1016 71.0987 58.7728 70.0782Z" fill="#CECECE"/>
<mask id="mask1" mask-type="alpha" maskUnits="userSpaceOnUse" x="2" y="32" width="57" height="87">
<path d="M58.7728 70.0782L47.6731 35.6864C47.0788 33.8453 45.0986 32.4038 43.1639 32.4038H41.5049H40.3188H21.4095H20.2234H18.5644C16.6297 32.4038 14.6495 33.8453 14.0552 35.6864L2.95797 70.0782C2.6292 71.0987 2.76577 72.1305 3.33353 72.9107C3.90129 73.6909 4.84207 74.1385 5.91436 74.1385H8.75948C10.6942 74.1385 12.6744 72.697 13.2687 70.8559L16.4299 61.056V74.2902V74.9263V111.807C16.4299 115.293 19.2662 118.129 22.7524 118.129H23.1975C26.6837 118.129 29.52 115.293 29.52 111.807V78.7198H32.2096V111.807C32.2096 115.293 35.0458 118.129 38.532 118.129H38.9771C42.4633 118.129 45.2996 115.293 45.2996 111.807V74.9263V74.2902V61.051L48.4634 70.8559C49.0577 72.697 51.0379 74.1385 52.9726 74.1385H55.8177C56.89 74.1385 57.8295 73.6909 58.3985 72.9107C58.9676 72.1305 59.1016 71.0987 58.7728 70.0782Z" fill="black"/>
</mask>
<g mask="url(#mask1)">
<rect x="-57.9355" y="78.5645" width="177.845" height="39.5647" fill="#8258DC"/>
</g>
</svg>
