<svg width="18" height="18" viewBox="0 0 18 18" fill="none" xmlns="http://www.w3.org/2000/svg">
<path d="M2.225 3.73832H0.472656V16.0047C0.472656 16.9685 1.26121 17.757 2.225 17.757H14.4914V16.0047H2.225V3.73832ZM16.2437 0.233643H5.72968C4.76589 0.233643 3.97734 1.0222 3.97734 1.98598V12.5C3.97734 13.4638 4.76589 14.2524 5.72968 14.2524H16.2437C17.2075 14.2524 17.9961 13.4638 17.9961 12.5V1.98598C17.9961 1.0222 17.2075 0.233643 16.2437 0.233643ZM16.2437 12.5H5.72968V1.98598H16.2437V12.5ZM10.5574 7.38319C10.9166 6.74359 11.5913 6.36683 11.9855 5.80609C12.4061 5.21029 12.1695 4.10632 10.9867 4.10632C10.2157 4.10632 9.83016 4.69335 9.67244 5.18401L8.47209 4.68459C8.80504 3.70328 9.68997 2.86215 10.9779 2.86215C12.0556 2.86215 12.8004 3.35281 13.1771 3.96613C13.5013 4.49183 13.6853 5.4819 13.1859 6.21789C12.6339 7.03272 12.1082 7.27805 11.8191 7.80375C11.7052 8.01404 11.6614 8.15422 11.6614 8.83764H10.3296C10.3383 8.4784 10.277 7.89137 10.5574 7.38319ZM10.0667 10.7039C10.0667 10.1869 10.4785 9.79266 10.9867 9.79266C11.5036 9.79266 11.8979 10.1869 11.8979 10.7039C11.8979 11.2121 11.5124 11.6239 10.9867 11.6239C10.4785 11.6239 10.0667 11.2121 10.0667 10.7039Z" fill="#262626"/>
</svg>
