<svg width="253" height="216" viewBox="0 0 253 216" fill="none" xmlns="http://www.w3.org/2000/svg">
<path d="M83.2534 53.7068C116.487 -2.34468 153.695 -3.74597 168.145 2.55982C179.182 7.93137 208.964 37.0313 239.79 110.459C278.322 202.243 222.932 193.835 189.818 205.046C156.704 216.256 136.235 169.313 83.2534 188.23C30.2715 207.147 -9.46497 146.892 1.97431 110.459C13.4136 74.0253 41.7107 123.771 83.2534 53.7068Z" fill="#F3F3F3"/>
<path opacity="0.64" d="M65.626 57.2946L70.7961 103.798C70.7961 103.798 69.6882 104.537 72.6425 104.537C75.5968 104.537 140.592 93.0952 173.459 106.751C173.459 106.751 175.675 108.966 176.413 103.798C177.152 98.6314 179.737 55.4492 179.737 55.4492C179.737 55.4492 180.476 54.711 176.413 52.8657C172.351 51.0203 119.173 40.317 66.7339 55.4492C66.7339 55.4492 65.626 55.8183 65.626 57.2946Z" fill="#6BDD7E"/>
<path opacity="0.64" d="M73.7498 62.3546L78.5506 105.537C78.5506 105.537 77.5203 106.22 80.2641 106.22C83.0079 106.22 143.339 95.6012 173.846 108.275C173.846 108.275 175.903 110.331 176.59 105.537C177.277 100.742 179.674 60.6606 179.674 60.6606C179.674 60.6606 180.361 59.9741 176.59 58.2616C172.82 56.549 123.456 46.595 74.7801 60.6606C74.4532 60.8004 74.1781 61.0388 73.9933 61.3426C73.8086 61.6463 73.7235 62.0002 73.7498 62.3546Z" fill="#BEFCCB"/>
<path d="M101.816 145.135L84.0898 203.08C84.0898 203.08 98.1229 209.354 104.77 210.462C111.417 211.569 120.65 173.185 120.65 173.185L126.558 214.522C126.558 214.522 145.023 216.736 154.994 213.045L152.778 145.135H101.816Z" fill="#0B2D50"/>
<path d="M168.1 95.9967C168.1 95.9967 183.824 118.57 187.624 121.5C191.424 124.43 200.786 127.774 200.786 127.774C200.786 127.774 209.231 132.687 197.093 135.156L190.076 133.68C190.076 133.68 192.292 137.518 191.553 138.847C190.815 140.175 190.771 141.061 185.763 135.525C184.928 134.599 184.6 130.542 182.69 128.512C176.043 121.5 149.794 102.91 149.794 102.91L158.524 89.7593L168.1 95.9967Z" fill="#FFCDBB"/>
<path d="M74.3289 74.2578L56.7617 72.2168C56.7617 72.2168 55.1294 83.2412 55.5356 84.4665C55.9419 85.6918 80.0492 89.7738 80.0492 89.7738L91.8961 83.6508L74.3289 74.2578Z" fill="#FFCDBB"/>
<path d="M107.723 8.57641C107.723 8.57641 94.0597 7.1001 89.9975 19.6488C85.9353 32.1974 93.6904 41.4244 93.6904 41.4244C93.6904 41.4244 101.815 62.4618 99.5991 68.7362C97.3833 75.0105 113.632 79.8085 113.632 79.8085L126.557 60.9855L111.416 7.1001L107.723 8.57641Z" fill="#0B2D50"/>
<path d="M106.377 16.8952C105.872 16.8845 105.373 17.0013 104.926 17.2348C102.732 18.3937 96.661 22.6344 97.5695 33.8433C98.489 45.1518 101.742 51.5996 103.293 54.3271C103.633 54.9213 105.509 57.8371 106.13 58.0917C108.497 59.0292 114.76 60.8414 121.019 56.9107C126.441 53.5078 128.619 50.4038 129.491 48.3887C129.716 47.8981 130.072 47.4788 130.52 47.1762C130.967 46.8736 131.489 46.6994 132.028 46.6724C132.652 46.6092 133.249 46.3854 133.76 46.0229C135.976 44.5466 134.499 36.7959 131.544 37.5341L131.456 37.5562C131.056 37.6536 130.64 37.6652 130.235 37.5904C129.83 37.5155 129.445 37.3559 129.107 37.122C128.768 36.8881 128.483 36.5852 128.27 36.2332C128.056 35.8812 127.92 35.4881 127.87 35.0797L125.961 19.8146C125.869 19.0988 125.524 18.4396 124.987 17.9572C124.45 17.4748 123.758 17.2014 123.036 17.1868L106.377 16.8952Z" fill="#FFCDBB"/>
<path d="M105.877 7.46914C105.877 7.46914 99.5992 20.756 105.877 28.8757C112.155 36.9954 121.018 38.1026 126.188 37.7336C131.358 37.3645 129.881 46.9605 129.881 46.9605C129.881 46.9605 125.08 61.3546 133.205 67.2598C141.329 73.1651 142.806 76.8559 150.931 74.6414C159.055 72.4269 157.947 67.6289 157.947 67.6289C157.947 67.6289 145.761 55.8184 144.653 42.9006C143.545 29.9829 130.25 -6.92492 105.877 7.46914Z" fill="#0B2D50"/>
<path d="M128.773 45.4844L134.682 62.8311L129.142 75.0106L119.171 70.5817L118.063 53.6041L128.773 45.4844Z" fill="#FFCDBB"/>
<path d="M118.803 64.676C118.803 64.676 99.9691 68.3667 95.1683 70.9503C90.3675 73.5338 64.8864 73.1648 64.8864 73.1648C64.8864 73.1648 60.8242 86.8206 60.8242 91.9877C68.0622 92.7209 75.3413 92.9675 82.6124 92.7259L95.1683 92.3568C95.1683 92.3568 101.077 127.419 99.5998 141.444C99.5998 141.444 99.5998 144.766 101.077 145.135C102.554 145.504 135.421 168.756 154.994 147.349C154.994 147.349 155.732 147.719 154.994 141.813C154.255 135.908 153.886 101.584 153.886 101.584L157.948 75.3792L134.683 62.8306C134.683 62.8306 132.836 67.6286 126.558 67.2595C120.28 66.8904 120.28 66.5213 118.803 64.676Z" fill="#FFC83D"/>
<path d="M157.948 75.3794L170.135 96.4168L151.67 110.811L136.16 96.4168L151.301 81.2846L157.948 75.3794Z" fill="#FFC83D"/>
<path d="M21.8972 79.4395C24.8403 79.4395 27.2261 71.6731 27.2261 62.0928C27.2261 52.5125 24.8403 44.7461 21.8972 44.7461C18.9542 44.7461 16.5684 52.5125 16.5684 62.0928C16.5684 71.6731 18.9542 79.4395 21.8972 79.4395Z" fill="#72D1F2"/>
<path d="M21.8969 86.4517C26.9998 86.4517 31.1366 75.5458 31.1366 62.0926C31.1366 48.6394 26.9998 37.7334 21.8969 37.7334C16.794 37.7334 12.6572 48.6394 12.6572 62.0926C12.6572 75.5458 16.794 86.4517 21.8969 86.4517Z" stroke="#72D1F2" stroke-width="8.76102" stroke-miterlimit="10"/>
<path d="M21.8971 94.018C29.3598 94.018 35.4095 79.7246 35.4095 62.0928C35.4095 44.4609 29.3598 30.1675 21.8971 30.1675C14.4345 30.1675 8.38477 44.4609 8.38477 62.0928C8.38477 79.7246 14.4345 94.018 21.8971 94.018Z" stroke="#72D1F2" stroke-width="12.1425" stroke-miterlimit="10"/>
<path opacity="0.64" d="M40.875 83.2593C40.875 83.2593 58.4016 116.196 105.752 117.333C105.752 117.333 106.86 116.923 106.59 119.887C106.321 122.85 105.483 158.341 105.483 158.341C105.483 158.341 105.202 160.555 103.355 160.64C101.509 160.725 51.4441 156.352 40.9009 122.407L40.875 83.2593Z" fill="#DFF3FC"/>
<path d="M40.875 83.2596C40.875 83.2596 41.909 81.3699 42.6919 82.4513C43.4748 83.5327 43.6262 87.456 43.6262 87.456L40.875 83.2596Z" fill="#DFF3FC"/>
<path opacity="0.64" d="M37.5332 88.0576C37.5332 88.0576 55.0598 120.994 102.407 122.131C102.407 122.131 103.515 121.721 103.245 124.685C102.975 127.649 102.137 163.139 102.137 163.139C102.137 163.139 101.853 165.354 100.006 165.439C98.1598 165.523 48.1023 161.15 37.5591 127.206L37.5332 88.0576Z" fill="#A7E4F9"/>
<path d="M37.5332 88.057C37.5332 88.057 38.5709 86.1673 39.3501 87.2487C40.1293 88.3301 40.2881 92.2534 40.2881 92.2534L37.5332 88.057Z" fill="#A7E4F9"/>
<path d="M21.8969 86.4517C26.9998 86.4517 31.1366 75.5458 31.1366 62.0926C31.1366 48.6394 26.9998 37.7334 21.8969 37.7334C16.794 37.7334 12.6572 48.6394 12.6572 62.0926C12.6572 75.5458 16.794 86.4517 21.8969 86.4517Z" stroke="#DCF8FF" stroke-width="1.39729" stroke-miterlimit="10"/>
<path d="M21.8971 94.018C29.3598 94.018 35.4095 79.7246 35.4095 62.0928C35.4095 44.4609 29.3598 30.1675 21.8971 30.1675C14.4345 30.1675 8.38477 44.4609 8.38477 62.0928C8.38477 79.7246 14.4345 94.018 21.8971 94.018Z" stroke="#DCF8FF" stroke-width="1.39729" stroke-miterlimit="10"/>
<path d="M130.62 44.377C130.62 44.377 122.495 69.4743 124.711 75.0105C126.927 80.5466 133.068 84.8316 142.806 79.8085C154.254 73.9032 154.624 73.5341 154.624 73.5341L130.62 44.377Z" fill="#0B2D50"/>
<path d="M21.8963 73.1652C23.5136 73.1652 24.8247 68.208 24.8247 62.0929C24.8247 55.9778 23.5136 51.0205 21.8963 51.0205C20.2789 51.0205 18.9678 55.9778 18.9678 62.0929C18.9678 68.208 20.2789 73.1652 21.8963 73.1652Z" fill="#DCF8FF"/>
<path d="M56.7613 72.2162L27.9344 64.0374C27.9344 64.0374 26.0879 48.8387 21.6564 49.5621C17.2249 50.2855 21.878 68.0161 21.1431 70.7546C20.4082 73.4932 12.9707 77.1064 17.8527 75.9217C20.64 75.2747 23.3106 74.2015 25.7703 72.7402L56.7908 84.8903L56.7613 72.2162Z" fill="#FFCDBB"/>
<path opacity="0.64" d="M151.302 95.3097V134.063C151.302 134.063 151.302 139.23 156.103 138.123C160.903 137.016 205.957 136.277 214.081 107.489V67.2598C214.081 67.2598 209.28 83.8683 151.302 95.3097Z" fill="#F6BDF9"/>
<path opacity="0.64" d="M154.994 98.632V137.385C154.994 137.385 154.994 142.552 159.795 141.445C164.596 140.338 209.649 139.6 217.774 110.812V70.582C217.774 70.582 212.973 87.1906 154.994 98.632Z" fill="#D29AD6"/>
</svg>
