<svg width="20" height="23" viewBox="0 0 20 23" fill="none" xmlns="http://www.w3.org/2000/svg">
<path d="M13.8733 14.6903C13.8733 16.9052 11.0986 18.5664 11.0986 20.2275H8.87889C8.87889 18.5664 6.10424 16.9052 6.10424 14.6903C6.10424 12.5529 7.84672 10.8142 9.98875 10.8142C12.1308 10.8142 13.8733 12.5529 13.8733 14.6903ZM11.0986 21.335H8.87889V22.9961H11.0986V21.335ZM17.7578 14.1366C17.7578 15.9971 17.103 17.6915 16.0042 19.0315L17.5802 20.6041C19.0674 18.8654 19.9775 16.6062 19.9775 14.1366C19.9775 11.1021 18.6124 8.3889 16.4703 6.5616L14.8943 8.13418C16.6368 9.55172 17.7578 11.7223 17.7578 14.1366ZM14.4282 5.27696L9.98875 0.847168V4.16951C4.47274 4.16951 0 8.63253 0 14.1366C0 16.6062 0.910086 18.8654 2.3973 20.6041L3.9733 19.0315C2.87454 17.6915 2.21972 15.9971 2.21972 14.1366C2.21972 9.8618 5.70469 6.38441 9.98875 6.38441V9.70676L14.4282 5.27696Z" fill="#262626"/>
</svg>
