<svg width="994" height="812" viewBox="0 0 994 812" fill="none" xmlns="http://www.w3.org/2000/svg">
<path d="M96.2408 773.593L95.7505 791.979L43.4512 808.323V792.6L96.2408 773.593Z" fill="#209CE2"/>
<path d="M527.841 389.942V407.904L510.876 412.807V394.829L527.841 389.942Z" fill="#209CE2"/>
<path d="M618.056 404.374V437.323L600.764 434.054L595.861 411.173L618.056 404.374Z" fill="#141414"/>
<path d="M292.788 684.242V715.295L260.82 702.089L270.626 693.917L285.336 679.208L292.788 684.242Z" fill="#209CE2"/>
<path d="M625.28 71.2255V104.73L638.355 110.45L641.624 82.666L625.28 71.2255Z" fill="#209CE2"/>
<path d="M606.927 23.2733L607.303 56.5162H618.743L620.378 36.9039L606.927 23.2733Z" fill="#209CE2"/>
<path d="M774.382 138.234L774.006 180.728L792.801 172.556L791.984 143.137L774.382 138.234Z" fill="#141414"/>
<path d="M741.32 133.331V157.029L723.342 149.675L728.245 128.428L741.32 133.331Z" fill="#141414"/>
<path d="M630.984 31.0529C630.984 31.0529 635.086 59.1802 694.511 78.7926C753.936 98.4049 736.171 137.417 736.171 137.417C736.171 137.417 742.202 155.395 740.763 164.727C739.325 174.06 727.689 184.258 740.535 183.768C753.381 183.277 755.996 176.593 765.295 191.351C774.595 206.109 785.3 204.557 786.051 191.629C786.803 178.701 764.658 164.433 779.024 168.405C793.39 172.376 810.371 176.576 811.711 190.632C813.051 204.687 807.249 221.407 824.622 234.351C841.995 247.295 880.926 254.519 907.304 250.057C933.682 245.596 974.884 221.047 984.821 232.406C994.758 243.765 992.323 247.867 992.323 247.867C992.323 247.867 988.858 246.658 983.007 263.426C977.156 280.195 968.609 282.843 957.609 289.576C946.61 296.31 941.478 293.221 932.963 302.798C924.448 312.376 919.888 317.818 917.584 323.849C916.211 327.444 908.889 325.483 901.747 322.312C891.532 317.883 873.081 321.283 849.448 332.87C824.344 345.161 859.466 358.105 844.986 363.645C836.406 366.914 819.67 373.337 815.094 383.258C807.298 400.321 754.378 431.145 732.036 442.863C709.694 454.581 678.821 475.861 671.205 469.928C663.589 463.995 682.891 466.659 662.919 460.465C642.947 454.271 607.858 456.886 627.421 447.505C646.984 438.123 707.504 394.126 693.727 379.793C679.949 365.46 646.02 363.923 635.92 355.147C625.819 346.37 592.871 339.62 598.33 331.596C603.641 323.865 615.817 319.845 653.424 311.771C676.027 306.868 712.048 239.418 713.176 235.185C714.303 230.952 693.563 163.093 673.657 147.305C653.75 131.517 620.083 110.924 625.476 101.919C630.87 92.9135 643.569 94.9891 628.843 82.3064C614.117 69.6238 586.856 52.2996 630.984 31.0529Z" fill="#141414"/>
<path d="M587.756 414.752C587.756 414.752 599.098 409.849 600.651 421.29C602.203 432.73 620.116 428.366 617.86 436.816C615.605 445.266 594.195 448.404 593.737 456.151C593.28 463.897 601.239 471.612 591.891 480.241C582.542 488.87 559.203 502.223 534.688 519.809C510.173 537.395 519.57 528.749 515.648 535.303C511.726 541.856 483.925 548.704 477.028 553.281C470.131 557.857 448.754 567.892 467.598 578.368C486.442 588.844 488.583 589.939 473.286 594.516C457.988 599.092 387.923 594.957 362.983 613.36C338.043 631.763 335.493 652.307 325.818 659.122C316.143 665.937 308.216 665.218 300.518 675.76C292.82 686.301 278.7 693.574 284.845 701.91C290.99 710.245 299.423 717.191 284.845 718.368C270.266 719.544 265.706 713.056 252.403 721.309C239.099 729.563 223.524 746.266 204.124 753.049C184.724 759.831 174.019 761.417 150.452 763.476C126.885 765.535 105.017 769.49 102.974 758.9C100.931 748.309 88.5916 747.982 81.3514 750.728C74.1113 753.474 70.4176 740.922 59.3857 740.807C48.3539 740.693 52.9627 744.534 40.8685 745.988C28.7743 747.443 -0.61136 752.379 0.00969362 735.103C0.630748 717.828 2.62466 698.085 12.3164 691.221C22.0081 684.356 51.8023 681.153 67.8844 663.633C83.9664 646.112 124.22 613.605 149.308 609.094C174.395 604.583 201.133 592.424 204.402 589.269C207.671 586.115 296.024 557.367 317.875 546.465C339.726 535.564 356.021 529.354 374.669 505.149C393.317 480.944 394.461 476.727 413.893 469.928C433.326 463.129 451.99 445.87 455.733 434.953C459.475 424.035 449.391 422.205 463.038 415.733C476.685 409.261 500.35 397.657 504.649 399.798C508.947 401.939 502.197 403.9 509.813 409.833C517.429 415.765 519.538 409.914 526.647 416.664C533.757 423.414 509.47 438.401 527.105 439.235C544.739 440.068 550.803 434.593 560.331 430.311C569.859 426.029 574.468 423.006 578.309 419.034C580.881 416.576 584.212 415.066 587.756 414.752V414.752Z" fill="#141414"/>
<path d="M76.6285 779.149C76.6285 779.149 112.682 786.602 87.0394 797.389C61.3964 808.176 46.3113 812 46.3113 812C46.3113 812 35.7207 808.339 53.0612 800.723C70.4017 793.107 57.7845 789.266 76.6285 779.149Z" fill="#209CE2"/>
<path d="M730.435 100.987C724.028 92.8154 713.012 84.8887 694.479 78.7926C635.087 59.1802 630.984 31.0529 630.984 31.0529C586.857 52.2996 614.134 69.7382 628.876 82.4209C643.618 95.1035 630.903 93.0115 625.509 102.033C620.116 111.055 653.849 131.631 673.69 147.419C679.067 151.685 684.493 159.759 689.543 169.353L730.435 100.987Z" fill="#209CE2"/>
<path d="M528.134 439.267H527.088C509.454 438.434 533.757 423.447 526.631 416.697C519.505 409.947 517.397 415.798 509.797 409.865C502.197 403.932 508.931 401.988 504.632 399.83C500.334 397.673 476.669 409.277 463.022 415.765C449.375 422.254 459.443 424.084 455.716 434.985C451.99 445.887 433.277 463.162 413.877 469.961C394.477 476.76 393.333 480.976 374.652 505.181C355.972 529.386 339.726 535.613 317.859 546.498C295.991 557.383 207.671 586.147 204.386 589.302C201.1 592.456 174.313 604.599 149.291 609.127C124.27 613.654 83.9174 646.145 67.8517 663.665C51.786 681.186 21.9754 684.389 12.2837 691.253C11.6015 691.743 10.9619 692.29 10.3715 692.888L4.91276 702.154C1.41525 711.291 0.385606 723.712 0.0097048 735.103C-0.545975 752.378 28.9214 747.426 40.8685 745.988C52.8156 744.55 48.2558 740.627 59.304 740.823C70.3522 741.02 74.0132 753.522 81.2697 750.744C88.5262 747.966 100.882 748.309 102.892 758.916C104.902 769.523 126.819 765.551 150.37 763.492C173.921 761.433 184.692 759.864 204.042 753.065C223.393 746.266 239.017 729.579 252.321 721.326C265.625 713.072 270.103 719.577 284.763 718.384C299.423 717.191 290.99 710.326 284.763 701.926C278.536 693.525 292.755 686.236 300.436 675.776C308.118 665.316 316.044 665.97 325.736 659.138C335.428 652.306 337.945 631.713 362.901 613.376C377.611 602.589 407.65 599.549 433.179 597.964L528.134 439.267Z" fill="#209CE2"/>
<path d="M76.6285 764.44C76.6285 764.44 112.682 771.893 87.0394 782.679C61.3964 793.466 46.3113 797.291 46.3113 797.291C46.3113 797.291 35.7207 793.63 53.0612 786.014C70.4017 778.397 57.7845 774.557 76.6285 764.44Z" fill="#36C4E8"/>
<path d="M993.009 219.952V246.102L952.15 235.479L963.591 215.049H992.584L993.009 219.952Z" fill="#141414"/>
<path d="M621.75 421.436V451.623L664.505 455.3V409.538L621.75 421.436Z" fill="#141414"/>
<path d="M597.79 302.945L597.496 333.835L631.818 340.895L626.097 296.767L597.79 302.945Z" fill="#141414"/>
<path d="M847.944 330.746L848.582 359.707L826.306 360.508L818.134 316.38L847.944 330.746Z" fill="#141414"/>
<path d="M689.02 138.234V169.287L702.094 172.556L703.189 147.223L693.923 138.234H689.02Z" fill="#141414"/>
<path d="M630.984 0C630.984 0 635.086 28.1274 694.511 47.7397C753.936 67.3521 736.171 106.364 736.171 106.364C736.171 106.364 742.202 124.342 740.763 133.674C739.325 143.007 727.689 153.205 740.535 152.715C753.381 152.224 755.996 145.54 765.295 160.298C774.595 175.057 785.3 173.504 786.051 160.576C786.803 147.648 764.658 133.38 779.024 137.286C793.39 141.193 810.371 145.458 811.711 159.514C813.051 173.569 807.249 190.289 824.622 203.233C841.995 216.177 880.926 223.466 907.304 219.004C933.682 214.543 974.884 189.995 984.821 201.353C994.758 212.712 992.323 216.814 992.323 216.814C992.323 216.814 988.858 215.605 983.007 232.374C977.156 249.142 968.609 251.79 957.609 258.523C946.61 265.257 941.478 262.168 932.963 271.745C924.448 281.323 919.888 286.765 917.584 292.796C916.211 296.392 908.889 294.43 901.747 291.26C891.532 286.831 873.081 290.23 849.448 301.818C824.344 314.108 859.466 327.052 844.986 332.593C836.406 335.861 819.67 342.284 815.094 352.205C807.298 369.268 754.378 400.092 732.036 411.81C709.694 423.529 678.821 444.808 671.205 438.875C663.589 432.942 682.891 435.606 662.919 429.412C642.947 423.218 607.858 425.833 627.421 416.452C646.984 407.071 707.504 363.073 693.727 348.74C679.949 334.407 646.02 332.87 635.92 324.094C625.819 315.317 592.871 308.568 598.33 300.543C603.641 292.812 615.817 288.792 653.424 280.718C676.027 275.815 712.048 208.365 713.176 204.132C714.303 199.899 693.563 132.04 673.657 116.252C653.75 100.464 620.083 79.8713 625.476 70.8659C630.87 61.8606 643.569 63.9362 628.843 51.2536C614.117 38.5709 586.856 21.2467 630.984 0Z" fill="#262626"/>
<path d="M730.435 69.9344C724.028 61.7625 713.012 53.8359 694.479 47.7397C635.087 28.1274 630.984 0 630.984 0C586.857 21.2467 614.134 38.6853 628.876 51.368C643.618 64.0506 630.903 61.9587 625.509 70.9803C620.116 80.002 653.849 100.579 673.69 116.367C679.067 120.632 684.493 128.706 689.543 138.3L730.435 69.9344Z" fill="#36C4E8"/>
<path d="M434.061 566.437V597.49L483.075 590.266V559.213H458.576L434.061 566.437Z" fill="#141414"/>
<path d="M494.532 528.847L486.36 511.408L463.48 525.578L452.039 546.825L460.767 559.36L494.532 535.384V528.847Z" fill="#141414"/>
<path d="M587.756 383.699C587.756 383.699 599.098 378.796 600.651 390.155C602.203 401.514 620.116 397.232 617.86 405.681C615.605 414.131 594.195 417.269 593.737 425.016C593.28 432.763 601.239 440.477 591.891 449.106C582.542 457.736 559.203 471.088 534.688 488.674C510.173 506.26 519.57 497.614 515.648 504.168C511.726 510.722 483.925 517.57 477.028 522.146C470.131 526.722 448.754 536.757 467.598 547.233C486.442 557.71 488.583 558.805 473.286 563.381C457.988 567.957 387.923 563.822 362.983 582.225C338.043 600.628 335.493 621.172 325.818 627.987C316.143 634.802 308.216 634.083 300.518 644.625C292.82 655.167 278.7 662.44 284.845 670.775C290.99 679.11 299.423 686.056 284.845 687.233C270.266 688.41 265.706 681.921 252.403 690.175C239.099 698.428 223.524 715.131 204.124 721.914C184.724 728.697 174.019 730.282 150.452 732.341C126.885 734.4 105.017 738.356 102.974 727.765C100.931 717.174 88.5916 716.847 81.3514 719.593C74.1113 722.339 70.4176 709.787 59.3857 709.673C48.3539 709.558 52.9627 713.481 40.8685 714.935C28.7743 716.39 -0.61136 721.326 0.00969362 704.05C0.630748 686.775 2.62466 667.032 12.3164 660.168C22.0081 653.303 51.8023 650.1 67.8844 632.58C83.9664 615.059 124.22 582.552 149.308 578.041C174.395 573.53 201.133 561.371 204.402 558.216C207.671 555.062 296.024 526.314 317.875 515.412C339.726 504.511 356.021 498.301 374.669 474.096C393.317 449.891 394.461 445.674 413.893 438.875C433.326 432.076 451.99 414.817 455.733 403.9C459.475 392.982 449.391 391.152 463.038 384.68C476.685 378.208 500.35 366.604 504.649 368.745C508.947 370.886 502.197 372.847 509.813 378.78C517.429 384.712 519.538 378.861 526.647 385.611C533.757 392.361 509.47 407.348 527.105 408.182C544.739 409.015 550.803 403.54 560.331 399.258C569.859 394.976 574.468 391.953 578.309 387.981C580.881 385.523 584.212 384.013 587.756 383.699V383.699Z" fill="#262626"/>
<path d="M528.134 408.215H527.088C509.454 407.381 533.757 392.394 526.631 385.644C519.505 378.894 517.397 384.745 509.797 378.812C502.197 372.88 508.931 370.935 504.632 368.777C500.334 366.62 476.669 378.224 463.022 384.713C449.375 391.201 459.443 393.031 455.716 403.933C451.99 414.834 433.277 432.109 413.877 438.908C394.477 445.707 393.333 449.924 374.652 474.128C355.972 498.333 339.726 504.56 317.859 515.445C295.991 526.33 207.671 555.095 204.386 558.249C201.1 561.403 174.313 573.547 149.291 578.074C124.27 582.601 83.9174 615.092 67.8517 632.613C51.786 650.133 21.9754 653.336 12.2837 660.201C11.6015 660.691 10.9619 661.237 10.3715 661.835L4.91276 671.102C1.41525 680.238 0.385606 692.659 0.0097048 704.051C-0.545975 721.326 28.9214 716.374 40.8685 714.935C52.8156 713.497 48.2558 709.575 59.304 709.771C70.3522 709.967 74.0132 722.47 81.2697 719.691C88.5262 716.913 100.882 717.256 102.892 727.863C104.902 738.47 126.819 734.499 150.37 732.439C173.921 730.38 184.692 728.811 204.042 722.012C223.393 715.213 239.017 698.526 252.321 690.273C265.625 682.019 270.103 688.524 284.763 687.331C299.423 686.138 290.99 679.274 284.763 670.873C278.536 662.472 292.755 655.183 300.436 644.723C308.118 634.263 316.044 634.917 325.736 628.085C335.428 621.254 337.945 600.661 362.901 582.323C377.611 571.536 407.65 568.497 433.179 566.911L528.134 408.215Z" fill="#36C4E8"/>
</svg>
