<svg width="218" height="229" viewBox="0 0 218 229" fill="none" xmlns="http://www.w3.org/2000/svg">
<path d="M104.449 11.589C120.259 16.7951 140.524 35.7841 148.68 44.6278C156.209 52.2213 170.325 51.1354 199.028 58.1436C227.731 65.1519 220.673 117.714 199.028 130.228C177.383 142.743 112.448 161.765 97.3909 171.276C82.3336 180.788 67.2763 199.81 49.3957 213.826C31.5152 227.843 18.3401 219.333 6.57677 205.316C-5.18657 191.3 1.40082 124.722 6.57677 110.705C11.7527 96.6889 5.16514 79.1684 6.57677 44.1272C7.98839 9.08608 84.6865 5.08138 104.449 11.589Z" fill="#F3F3F3"/>
<path d="M29.3899 205.415L26.6509 208.612C26.6509 208.612 26.1944 210.896 22.9989 209.982C19.8034 209.069 13.4125 205.415 13.4125 205.415L12.043 207.242C12.043 207.242 24.3684 218.204 28.0204 215.006C31.6724 211.809 35.7809 208.155 35.7809 208.155L29.3899 205.415Z" fill="#F4E0CF"/>
<path d="M63.1697 222.314C63.1697 222.314 72.2996 222.314 75.4951 224.598C78.6906 226.881 63.6262 228.252 63.6262 228.252C63.6262 228.252 60.4307 227.795 61.8002 225.054L63.1697 222.314Z" fill="#795151"/>
<path d="M55.4108 203.588C55.4108 203.588 60.8888 208.612 64.9973 220.03L65.9103 222.483C65.9685 222.639 65.9947 222.805 65.9875 222.971C65.9802 223.137 65.9396 223.3 65.868 223.45C65.7965 223.6 65.6954 223.734 65.5709 223.844C65.4464 223.954 65.301 224.038 65.1433 224.091V224.091C64.7288 224.228 64.2777 224.206 63.879 224.027C63.4802 223.849 63.1626 223.528 62.9887 223.127C61.8155 220.419 59.4006 214.906 59.0582 214.55C58.6017 214.093 50.3848 205.415 50.3848 205.415L55.4108 203.588Z" fill="#F4E0CF"/>
<path d="M52.6702 192.169L60.8871 203.131C60.8871 203.131 50.3877 211.352 48.1052 211.352L43.5402 205.414L35.3232 215.006L25.2803 206.328L32.5842 197.193L52.6702 192.169Z" fill="#5D468C"/>
<path d="M30.9656 182.875L32.1251 179.381L28.0166 179.838L26.6562 183.021L29.3861 184.405L30.9656 182.875Z" fill="#F4E0CF"/>
<path d="M52.6719 162.482L57.2369 159.741L65.4538 150.15C65.4538 150.15 65.9103 145.126 66.8233 145.126H67.7363C67.7363 145.126 68.1928 141.929 70.4753 142.842C72.7578 143.756 68.1928 152.89 68.1928 152.89L61.8018 161.568L54.0414 167.049L52.6719 162.482Z" fill="#F4E0CF"/>
<path d="M40.8022 159.741L40.3457 164.309C40.3457 164.309 45.3672 165.679 46.2802 164.765C47.1932 163.852 44.9107 157.458 44.9107 157.458L40.8022 159.741Z" fill="#F4E0CF"/>
<path d="M38.977 160.198C38.977 160.198 37.151 163.852 34.412 162.482C31.673 161.112 26.6515 158.371 28.021 153.347C28.021 153.347 18.8911 150.15 25.7385 144.669C25.7385 144.669 21.1736 139.645 22.0865 138.732C22.9995 137.818 28.021 134.621 33.0425 136.905C33.0425 136.905 30.1894 133.415 33.992 132.794C34.8419 132.665 35.7099 132.727 36.5328 132.976C37.3557 133.225 38.1127 133.654 38.7487 134.233L41.2595 136.462C41.2595 136.462 41.2595 134.178 43.0855 135.092C44.3236 135.781 45.4104 136.713 46.2809 137.832C46.2809 137.832 47.1939 136.462 48.5634 137.832C49.9329 139.202 51.3024 143.769 51.3024 143.769L39.4335 150.164L38.977 160.198Z" fill="#353535"/>
<path d="M48.7925 140.33C51.2287 142.772 52.6897 146.02 52.9009 149.465C53.3574 155.402 51.7597 158.371 51.7597 158.371C51.7597 158.371 43.3145 162.253 41.032 161.34C39.7744 160.892 38.6674 160.101 37.8365 159.056C37.8365 159.056 37.6082 160.654 36.6953 160.198C35.7823 159.741 31.4455 157.686 33.728 156.316C36.0105 154.945 38.293 156.316 38.293 156.316L37.38 140.787L44.684 138.503L48.7925 140.33Z" fill="#F4E0CF"/>
<path d="M38.52 156.544C38.52 156.544 41.259 153.804 38.52 148.323C38.52 148.323 38.8076 144.724 41.7155 143.756C43.3656 143.229 45.1044 143.039 46.8293 143.196C48.5543 143.352 50.2303 143.854 51.7584 144.669L49.7179 139.188L43.085 136.905L35.3245 139.645L33.042 147.866L35.781 154.717L38.52 156.544Z" fill="#353535"/>
<path d="M53.5832 160.655C53.5832 160.655 47.4204 163.103 46.6216 163.934C45.8227 164.765 42.787 165.862 40.4269 163.477C40.4269 163.477 35.3232 164.3 30.3018 172.977C25.2803 181.655 25.2803 180.742 25.2803 180.742C25.2803 180.742 31.6712 183.026 34.8667 179.372L30.7583 198.098C30.7583 198.098 37.1492 202.208 48.1052 195.814L52.6702 192.16L52.2137 170.237L55.4092 168.41L53.5832 160.655Z" fill="#E84860"/>
<path d="M27.1074 182.122L25.2814 185.776C25.2814 185.776 24.8249 187.146 27.1074 187.146C29.3899 187.146 43.0848 185.776 43.0848 185.776C43.0848 185.776 47.1933 187.602 47.6498 185.776C48.1063 183.949 49.9323 183.035 48.5628 182.122C47.1933 181.208 46.2803 181.665 46.2803 181.665C46.2803 181.665 46.7368 180.751 45.8238 180.751C44.9108 180.751 43.0848 182.122 43.0848 182.122L30.7594 183.492L31.2159 182.122H27.1074Z" fill="#F4E0CF"/>
<path d="M75.9529 225.968C70.9315 227.795 63.171 228.708 63.171 228.708L62.1484 227.639C67.5214 227.032 75.9529 225.054 75.9529 225.054V225.968Z" fill="#EDEDED"/>
<path d="M14.6222 206.045C14.6222 206.045 8.16271 212.503 4.2916 213.147C0.420498 213.791 10.1028 202.186 10.1028 202.186C10.1028 202.186 12.682 200.249 13.6498 203.154L14.6222 206.045Z" fill="#795151"/>
<path d="M3 212.503C5.28249 207.657 10.1031 201.542 10.1031 201.542L11.5776 201.573C8.20865 205.807 3.64366 213.165 3.64366 213.165L3 212.503Z" fill="#EDEDED"/>
<path d="M140.949 31.1618C140.949 31.1618 144.282 26.4711 146.619 25.681C148.956 24.8908 144.163 33.112 144.163 33.112C144.163 33.112 142.762 34.5873 141.853 32.8836L140.949 31.1618Z" fill="#353535"/>
<path d="M147.491 25.9184C146.578 29.1658 144.231 33.4865 144.231 33.4865L143.318 33.6189C144.966 30.6364 147.03 25.585 147.03 25.585L147.491 25.9184Z" fill="#EDEDED"/>
<path d="M131.436 31.7691L141.146 30.8556C141.311 30.84 141.477 30.8611 141.633 30.9173C141.789 30.9736 141.931 31.0637 142.047 31.1812C142.164 31.2986 142.254 31.4405 142.31 31.5966C142.365 31.7527 142.386 31.9192 142.369 32.0842V32.1436C142.345 32.3975 142.234 32.6354 142.056 32.8174C141.877 32.9995 141.641 33.1147 141.388 33.1438L131.601 34.2857C131.416 34.3066 131.229 34.2812 131.056 34.2118C130.883 34.1423 130.73 34.0311 130.611 33.888C130.492 33.7448 130.411 33.5744 130.374 33.3919C130.337 33.2093 130.346 33.0205 130.4 32.8424L130.482 32.5775C130.542 32.3627 130.665 32.1708 130.835 32.0267C131.005 31.8826 131.215 31.7928 131.436 31.7691V31.7691Z" fill="#F4E0CF"/>
<path d="M125.681 34.0163L132.341 29.9057C132.404 29.8625 132.477 29.8358 132.553 29.8281C132.629 29.8203 132.706 29.8317 132.776 29.8612C132.846 29.8908 132.908 29.9375 132.956 29.9971C133.004 30.0567 133.036 30.1274 133.049 30.2026L134.3 35.6834C134.326 35.7877 134.315 35.898 134.269 35.9949C134.222 36.0919 134.142 36.1692 134.044 36.2132L124.554 40.7348C124.489 40.7694 124.416 40.7877 124.343 40.7882C124.269 40.7887 124.196 40.7713 124.131 40.7377C124.065 40.7041 124.009 40.6551 123.967 40.5949C123.924 40.5348 123.897 40.4653 123.887 40.3923L122.668 33.8382C122.646 33.7543 122.649 33.6658 122.675 33.5832C122.701 33.5006 122.751 33.4272 122.817 33.3716C122.884 33.316 122.965 33.2806 123.051 33.2694C123.137 33.2582 123.224 33.2717 123.303 33.3084L125.266 34.0665C125.334 34.0919 125.407 34.1006 125.48 34.0918C125.552 34.0831 125.621 34.0572 125.681 34.0163V34.0163Z" fill="#494949"/>
<path d="M45.2133 105.847L44.7568 106.043L45.0307 106.066L44.8618 106.28L45.3183 106.089C51.3578 106.545 106.338 110.012 102.015 81.1829L102.084 81.1555L101.997 81.0505C101.997 81.0048 101.997 80.9637 101.997 80.918L101.929 80.9454C83.6277 58.2458 48.9612 101.078 45.2133 105.847Z" fill="#FDC613"/>
<path d="M69.1248 95.4011L68.8691 95.5152H69.0244L68.9285 95.6386L69.1841 95.5244C72.6581 95.7939 104.271 97.7852 101.783 81.2058H101.824L101.774 81.1418C101.774 81.1418 101.774 81.0916 101.774 81.0688H101.732C91.2102 68.0336 71.2749 92.6607 69.1248 95.4011Z" fill="#FDE289"/>
<path d="M86.6535 67.6685L85.001 69.7603L99.4537 100.699L102.476 100.603L102.229 89.7561L90.2005 67.7644L86.6535 67.6685Z" fill="#0E3F5D"/>
<path d="M87.471 64.2612L85.5674 66.6637L102.193 102.248L105.672 102.134L105.384 89.6647L91.5521 64.3708L87.471 64.2612Z" fill="#052436"/>
<path d="M122.991 53.9804L98.865 41.0686H98.8377C98.5044 40.927 92.8621 38.6068 87.8817 40.5388C83.3715 42.2881 64.3401 58.3514 59.7432 62.2702C59.6878 62.318 59.6498 62.3828 59.6349 62.4545C59.62 62.5261 59.6291 62.6007 59.6608 62.6667C59.6925 62.7327 59.745 62.7864 59.8102 62.8195C59.8754 62.8527 59.9497 62.8635 60.0216 62.8502C60.9346 62.6766 62.4639 62.3935 65.0431 62.0281C70.9776 61.1146 81.6094 55.104 96.6967 63.0375L104.174 67.413C104.222 67.439 104.275 67.4526 104.329 67.4526C104.384 67.4526 104.437 67.439 104.485 67.413L125.735 57.141C125.783 57.1174 125.825 57.0823 125.857 57.0387C125.89 56.9952 125.91 56.9444 125.919 56.8909C125.927 56.8374 125.922 56.7827 125.904 56.7316C125.886 56.6805 125.856 56.6345 125.817 56.5975L123.078 54.0352L122.991 53.9804Z" fill="#FC7E56"/>
<path d="M135.763 79.7121L130.194 106.513C130.196 106.522 130.196 106.532 130.194 106.541C130.089 106.883 128.249 112.702 123.565 115.296C119.329 117.639 94.8061 121.942 88.8716 122.96C88.7998 122.971 88.7264 122.958 88.6626 122.924C88.5987 122.889 88.548 122.834 88.518 122.768C88.488 122.702 88.4805 122.628 88.4965 122.557C88.5125 122.486 88.5513 122.422 88.6068 122.376C89.319 121.791 90.5058 120.782 92.4414 119.064C96.9379 115.082 108.378 110.793 111.97 94.1175L113.408 85.5766C113.418 85.5229 113.44 85.4724 113.474 85.4294C113.507 85.3864 113.55 85.3523 113.6 85.3299L135.106 75.6061C135.154 75.5866 135.207 75.5788 135.259 75.5833C135.311 75.5878 135.361 75.6045 135.406 75.6321C135.45 75.6596 135.487 75.6973 135.515 75.742C135.542 75.7866 135.558 75.8371 135.562 75.8893L135.786 79.6253C135.783 79.6553 135.775 79.6845 135.763 79.7121V79.7121Z" fill="#FC7E56"/>
<path d="M197.817 31.614C197.817 31.614 185.035 26.7498 150.126 29.7551C118.628 32.4727 87.5312 64.0832 87.5312 64.0832L96.6247 82.9737L105.714 101.869C105.714 101.869 149.241 96.1276 170.628 72.3638C194.315 46.0422 197.817 31.614 197.817 31.614Z" fill="#E5E5E5"/>
<path d="M150.71 65.992C156.761 65.992 161.666 61.0844 161.666 55.0304C161.666 48.9765 156.761 44.0688 150.71 44.0688C144.659 44.0688 139.754 48.9765 139.754 55.0304C139.754 61.0844 144.659 65.992 150.71 65.992Z" fill="#5CCFD6"/>
<path d="M150.71 65.992C156.761 65.992 161.666 61.0844 161.666 55.0304C161.666 48.9765 156.761 44.0688 150.71 44.0688C144.659 44.0688 139.754 48.9765 139.754 55.0304C139.754 61.0844 144.659 65.992 150.71 65.992Z" stroke="#F9F4F6" stroke-width="8.3663" stroke-miterlimit="10"/>
<path d="M123.566 66.0695L73.4609 92.0028L73.639 92.7016L126.556 70.5364C126.556 70.5364 131.582 64.4983 123.566 66.0695Z" fill="#FC7E56"/>
<path d="M178.841 62.7539C195.161 42.5526 197.817 31.6138 197.817 31.6138C197.817 31.6138 188.144 27.9599 162.667 28.9556C168.131 37.3367 174.696 49.1752 178.841 62.7539Z" fill="#FC7E56"/>
<path d="M111.862 14.7512L110.648 14.5L107.909 8.5625L110.192 9.01923L111.862 14.7512Z" fill="#353535"/>
<path d="M106.453 3.42883C106.453 3.42883 105.567 2.60671 104.681 3.01777C104.681 3.01777 106.01 1.36896 109.543 1.78459H111.314C111.314 1.78459 110.429 0.546839 109.105 0.546839C109.105 0.546839 110.429 -0.275281 113.967 1.36896C117.504 3.0132 117.504 3.84445 117.504 3.84445C117.504 3.84445 118.819 6.37019 117.504 7.19231C116.19 8.01443 109.114 10.8462 109.114 10.8462C109.114 10.8462 106.462 10.0241 106.019 10.8462C106.019 10.8462 104.691 10.0241 106.475 8.37525C106.475 8.37525 104.261 8.37525 103.823 8.78631C103.823 8.78631 105.59 6.31538 105.59 5.48869C105.59 5.48869 104.704 6.31538 103.823 6.31538C104.492 5.1757 105.397 4.19168 106.475 3.42883" fill="#353535"/>
<path d="M124.512 21.9356L131.359 32.5044C131.359 32.5044 135.399 33.258 135.765 33.7924C136.13 34.3268 136.495 34.8566 135.148 34.6054L132.19 34.0527L132.747 34.6784C132.934 34.884 133.012 35.0895 132.747 35.0849C132.323 35.0849 132.291 35.0027 131.483 34.3861C130.172 33.3905 124.658 26.1421 123.845 25.5301C123.33 25.1373 120.559 20.7344 120.559 20.7344L124.512 21.9356Z" fill="#F4E0CF"/>
<path d="M128.537 55.7295C128.537 55.7295 134.673 58.0132 136.257 60.3242C137.841 62.6353 127.369 59.8355 127.369 59.8355C127.369 59.8355 125.337 58.7348 126.935 57.2321L128.537 55.7295Z" fill="#353535"/>
<path d="M136.23 61.3565C132.404 61.3565 126.958 60.0274 126.958 60.0274L126.538 59.0591C130.304 59.9725 136.458 60.7444 136.458 60.7444L136.23 61.3565Z" fill="#EDEDED"/>
<path d="M123.795 48.6503L127.396 56.5746C127.467 56.7336 127.573 56.8746 127.706 56.9871C127.838 57.0996 127.995 57.1808 128.163 57.2247C128.331 57.2685 128.507 57.2739 128.678 57.2405C128.849 57.207 129.01 57.1355 129.149 57.0314C129.343 56.884 129.486 56.68 129.559 56.4476C129.632 56.2152 129.631 55.9659 129.556 55.7342L126.712 47.1751C126.651 46.9986 126.549 46.8394 126.414 46.7109C126.279 46.5823 126.115 46.4883 125.935 46.4368C125.756 46.3852 125.567 46.3777 125.384 46.4148C125.202 46.4518 125.031 46.5325 124.886 46.6498L124.137 47.2755C123.936 47.4347 123.794 47.6558 123.732 47.9046C123.67 48.1533 123.692 48.4155 123.795 48.6503V48.6503Z" fill="#F4E0CF"/>
<path d="M115.715 39.8488L122.604 50.034C122.708 50.1868 122.862 50.2977 123.04 50.347C123.218 50.3964 123.408 50.3809 123.576 50.3035L129.086 47.7275C129.181 47.6837 129.266 47.621 129.336 47.5433C129.406 47.4655 129.46 47.3743 129.494 47.2751C129.527 47.176 129.541 47.0711 129.532 46.9667C129.524 46.8623 129.495 46.7606 129.447 46.6679L125.338 38.8258C125.297 38.7471 125.269 38.6622 125.256 38.5745L124.521 33.3998C124.503 33.2771 124.456 33.1605 124.384 33.0597C124.311 32.959 124.216 32.877 124.106 32.8206C123.995 32.7643 123.873 32.7352 123.749 32.7358C123.625 32.7365 123.503 32.7668 123.393 32.8243L116.089 36.67C115.969 36.7337 115.867 36.828 115.794 36.9434C115.721 37.0588 115.68 37.1913 115.674 37.3277L115.606 39.3921C115.594 39.552 115.632 39.7116 115.715 39.8488V39.8488Z" fill="#494949"/>
<path d="M109.43 20.0906C109.43 20.0906 104.126 19.442 104.021 18.999C103.916 18.556 96.7668 15.9937 96.7668 15.9937C96.4045 15.3052 96.0829 14.5961 95.8036 13.8699C95.7032 13.4132 94.5026 12.2987 94.6076 12.7418L94.9134 14.0754C94.9134 14.0754 90.7411 12.2485 89.6135 13.4314C89.6135 13.4314 88.4814 14.6281 90.1248 15.6557C91.7682 16.6834 95.2969 17.7384 95.2969 17.7384L103.304 21.9769L109.823 23.7536L109.43 20.0906Z" fill="#F4E0CF"/>
<path d="M117.724 6.05046C117.724 6.05046 119.55 11.988 118.637 13.3582C117.724 14.7284 117.267 16.0986 114.528 16.0986C111.789 16.0986 110.876 12.9015 110.876 12.9015C110.876 12.9015 110.42 14.2717 109.507 13.8149C108.594 13.3582 106.768 11.988 107.224 11.0745C107.282 10.9526 107.364 10.8436 107.465 10.7541C107.566 10.6646 107.684 10.5965 107.812 10.5538C107.94 10.5111 108.075 10.4948 108.209 10.5058C108.344 10.5168 108.475 10.5549 108.594 10.6178L109.963 4.68026L114.528 3.31006L117.724 6.05046Z" fill="#F4E0CF"/>
<path d="M112.929 15.4137L113.385 18.1541L115.211 21.3512L117.95 18.1541L117.037 14.0435L112.929 15.4137Z" fill="#F4E0CF"/>
<path d="M113.372 17.3776C112.138 17.5497 110.917 17.8091 109.72 18.1541C108.852 18.4418 106.524 19.5243 106.524 19.5243L105.611 23.6349C105.611 23.6349 106.159 23.3608 108.35 25.0051C110.176 26.3753 110.176 27.7455 111.089 29.1157C112.002 30.4859 110.176 33.683 111.089 35.0532C112.002 36.4234 111.546 40.0773 113.372 40.0773C115.198 40.0773 124.328 38.7071 126.154 34.1398C126.154 34.1398 124.784 26.832 122.958 23.1781C121.132 19.5243 119.763 16.3271 119.763 16.3271H117.53C117.53 16.3271 116.097 19.7938 113.372 17.3776Z" fill="#6BB5F2"/>
<path d="M119.779 16.3271L126.626 22.2647L122.974 27.2888L118.409 20.8945L119.779 16.3271Z" fill="#6BB5F2"/>
<path d="M117.953 6.73579C117.953 6.73579 117.04 5.36559 115.214 6.27906C115.214 6.27906 112.931 6.27906 112.018 7.19252C110.854 8.35719 111.105 11.3031 111.105 11.3031L110.649 12.2166C110.244 11.7105 109.785 11.251 109.279 10.8464C108.691 10.6228 108.078 10.4695 107.453 10.3897L107.91 3.53866L110.649 2.16846H114.757L117.953 5.36559V6.73579Z" fill="#353535"/>
</svg>
