<svg width="116" height="116" viewBox="0 0 116 116" fill="none" xmlns="http://www.w3.org/2000/svg">
<path d="M42.0151 79.7576L46.128 74.8221L38.7248 71.5318L42.0151 79.7576Z" fill="#369CB6"/>
<path d="M25.5635 64.9511L30.499 59.1931H34.2006L30.499 66.5963L25.5635 64.9511Z" fill="#369CB6"/>
<path d="M46.9506 32.8705L51.886 26.7012H54.7651L56.4102 32.8705H46.9506Z" fill="#369CB6"/>
<path d="M63.4022 47.2657L69.1602 40.2737L66.2812 39.0399L59.7006 41.5076L63.4022 47.2657Z" fill="#369CB6"/>
<path d="M69.1602 64.9511L74.0957 59.1931H75.7409L74.0957 66.5963L69.1602 64.9511Z" fill="#369CB6"/>
<path d="M85.6118 80.1689L90.9586 73.5882L84.3779 71.5318L85.6118 80.1689Z" fill="#369CB6"/>
<path d="M60.1119 0.790039C29.6896 0.790039 4.99902 25.4806 4.99902 55.9029C4.99902 86.3252 29.6896 111.016 60.1119 111.016C90.5342 111.016 115.225 86.3252 115.225 55.9029C115.225 25.4806 90.5342 0.790039 60.1119 0.790039ZM60.1119 99.9932C35.8071 99.9932 16.0216 80.2077 16.0216 55.9029C16.0216 31.5981 35.8071 11.8126 60.1119 11.8126C84.4167 11.8126 104.202 31.5981 104.202 55.9029C104.202 80.2077 84.4167 99.9932 60.1119 99.9932Z" fill="#379CB6"/>
<path d="M38.3138 78.112C44.4468 78.112 49.4186 73.1402 49.4186 67.0072C49.4186 60.8741 44.4468 55.9023 38.3138 55.9023C32.1808 55.9023 27.209 60.8741 27.209 67.0072C27.209 73.1402 32.1808 78.112 38.3138 78.112Z" fill="#379CB6"/>
<path d="M60.1125 45.2097C66.0184 45.2097 70.806 40.2379 70.806 34.1048C70.806 27.9718 66.0184 23 60.1125 23C54.2066 23 49.4189 27.9718 49.4189 34.1048C49.4189 40.2379 54.2066 45.2097 60.1125 45.2097Z" fill="#379CB6"/>
<path d="M81.9115 78.112C88.0445 78.112 93.0163 73.1402 93.0163 67.0072C93.0163 60.8741 88.0445 55.9023 81.9115 55.9023C75.7784 55.9023 70.8066 60.8741 70.8066 67.0072C70.8066 73.1402 75.7784 78.112 81.9115 78.112Z" fill="#379CB6"/>
<path d="M56.0015 5.72559C25.5792 5.72559 0.888672 30.4161 0.888672 60.8384C0.888672 91.2607 25.5792 115.951 56.0015 115.951C86.4238 115.951 111.114 91.2607 111.114 60.8384C111.114 30.4161 86.4238 5.72559 56.0015 5.72559ZM56.0015 104.929C31.6968 104.929 11.9112 85.1432 11.9112 60.8384C11.9112 36.5337 31.6968 16.7482 56.0015 16.7482C80.3063 16.7482 100.092 36.5337 100.092 60.8384C100.092 85.1432 80.3063 104.929 56.0015 104.929Z" fill="white"/>
<path d="M34.2025 83.0466C40.3355 83.0466 45.3073 78.0748 45.3073 71.9417C45.3073 65.8087 40.3355 60.8369 34.2025 60.8369C28.0695 60.8369 23.0977 65.8087 23.0977 71.9417C23.0977 78.0748 28.0695 83.0466 34.2025 83.0466Z" fill="white"/>
<path d="M56.0012 50.1452C61.907 50.1452 66.6947 45.1734 66.6947 39.0404C66.6947 32.9073 61.907 27.9355 56.0012 27.9355C50.0953 27.9355 45.3076 32.9073 45.3076 39.0404C45.3076 45.1734 50.0953 50.1452 56.0012 50.1452Z" fill="white"/>
<path d="M77.7972 83.0466C83.9302 83.0466 88.902 78.0748 88.902 71.9417C88.902 65.8087 83.9302 60.8369 77.7972 60.8369C71.6642 60.8369 66.6924 65.8087 66.6924 71.9417C66.6924 78.0748 71.6642 83.0466 77.7972 83.0466Z" fill="white"/>
</svg>
