<svg width="24" height="19" viewBox="0 0 24 19" fill="none" xmlns="http://www.w3.org/2000/svg">
<path d="M21.141 5.604C19.6427 5.604 18.8057 7.09199 19.1467 8.19764L15.4784 11.8763C15.1684 11.7833 14.7138 11.7833 14.4038 11.8763L11.7688 9.2413C12.1201 8.13564 11.2831 6.63733 9.7745 6.63733C8.27619 6.63733 7.42886 8.12531 7.78019 9.2413L3.06825 13.9429C1.96259 13.6019 0.474609 14.4389 0.474609 15.9372C0.474609 17.0739 1.4046 18.0039 2.54125 18.0039C4.03957 18.0039 4.87656 16.5159 4.53556 15.4102L9.23717 10.6983C9.54717 10.7913 10.0018 10.7913 10.3118 10.6983L12.9468 13.3332C12.5955 14.4389 13.4325 15.9372 14.9411 15.9372C16.4394 15.9372 17.2867 14.4492 16.9354 13.3332L20.614 9.66496C21.7197 10.006 23.2077 9.16896 23.2077 7.67065C23.2077 6.53399 22.2777 5.604 21.141 5.604Z" fill="#262626"/>
<path d="M14.9418 6.63718L15.9131 4.49821L18.0417 3.53722L15.9131 2.57623L14.9418 0.437256L13.9911 2.57623L11.8418 3.53722L13.9911 4.49821L14.9418 6.63718Z" fill="#262626"/>
<path d="M3.05791 8.70372L3.57457 6.63707L5.64122 6.12041L3.57457 5.60375L3.05791 3.53711L2.54125 5.60375L0.474609 6.12041L2.54125 6.63707L3.05791 8.70372Z" fill="#262626"/>
</svg>
