<svg width="1158" height="636" viewBox="0 0 1158 636" fill="none" xmlns="http://www.w3.org/2000/svg">
<path opacity="0.6" d="M576 226V304H126V430" stroke="#FFB649" stroke-width="7"/>
<path opacity="0.6" d="M576 220V430" stroke="#B835CF" stroke-width="7"/>
<path opacity="0.6" d="M576 220V304H1032V444" stroke="#18DBAC" stroke-width="7"/>
<path opacity="0.6" d="M579 0C553.738 0 529.043 7.49116 508.038 21.5262C487.033 35.5612 470.662 55.5097 460.994 78.8491C451.327 102.189 448.797 127.871 453.726 152.647C458.654 177.424 470.819 200.184 488.682 218.047C506.546 235.91 529.305 248.075 554.082 253.003C578.859 257.932 604.541 255.402 627.88 245.735C651.219 236.067 671.168 219.696 685.203 198.691C699.238 177.686 706.729 152.991 706.729 127.729C706.729 93.853 693.272 61.3647 669.318 37.4109C645.365 13.4571 612.876 0 579 0V0ZM579 217.316C561.282 217.316 543.961 212.062 529.228 202.218C514.496 192.374 503.013 178.383 496.232 162.013C489.452 145.643 487.677 127.629 491.134 110.251C494.591 92.8729 503.123 76.9099 515.652 64.3808C528.181 51.8518 544.144 43.3194 561.523 39.8626C578.901 36.4059 596.914 38.18 613.284 44.9607C629.654 51.7414 643.646 63.224 653.49 77.9566C663.334 92.6892 668.588 110.01 668.588 127.729C668.588 151.489 659.149 174.276 642.348 191.077C625.547 207.878 602.76 217.316 579 217.316Z" fill="#209CE2"/>
<g filter="url(#filter0_d)">
<path d="M579 224.565C632.482 224.565 675.837 181.21 675.837 127.729C675.837 74.2477 632.482 30.8926 579 30.8926C525.519 30.8926 482.164 74.2477 482.164 127.729C482.164 181.21 525.519 224.565 579 224.565Z" fill="white"/>
</g>
<path d="M531.884 122.897C531.884 124.19 531.573 125.402 530.949 126.533C530.349 127.665 529.391 128.577 528.075 129.269C526.782 129.962 525.143 130.308 523.158 130.308H519.106V139.589H514.258V115.417H523.158C525.028 115.417 526.621 115.74 527.936 116.387C529.252 117.033 530.234 117.922 530.88 119.053C531.55 120.185 531.884 121.466 531.884 122.897ZM522.95 126.395C524.289 126.395 525.281 126.095 525.928 125.494C526.574 124.871 526.898 124.005 526.898 122.897C526.898 120.542 525.582 119.365 522.95 119.365H519.106V126.395H522.95ZM540.175 123.382C540.798 122.366 541.606 121.57 542.599 120.993C543.615 120.415 544.769 120.127 546.062 120.127V125.217H544.78C543.257 125.217 542.102 125.575 541.317 126.291C540.556 127.007 540.175 128.253 540.175 130.031V139.589H535.326V120.404H540.175V123.382ZM557.846 139.901C555.999 139.901 554.337 139.497 552.859 138.688C551.382 137.857 550.216 136.691 549.362 135.191C548.531 133.69 548.115 131.959 548.115 129.996C548.115 128.034 548.542 126.303 549.396 124.802C550.274 123.301 551.463 122.147 552.963 121.339C554.464 120.508 556.138 120.092 557.985 120.092C559.832 120.092 561.505 120.508 563.006 121.339C564.507 122.147 565.684 123.301 566.538 124.802C567.416 126.303 567.854 128.034 567.854 129.996C567.854 131.959 567.404 133.69 566.504 135.191C565.626 136.691 564.426 137.857 562.902 138.688C561.401 139.497 559.716 139.901 557.846 139.901ZM557.846 135.676C558.723 135.676 559.543 135.468 560.305 135.052C561.09 134.614 561.713 133.967 562.175 133.113C562.637 132.259 562.867 131.22 562.867 129.996C562.867 128.173 562.383 126.776 561.413 125.806C560.466 124.813 559.301 124.317 557.915 124.317C556.53 124.317 555.364 124.813 554.418 125.806C553.494 126.776 553.033 128.173 553.033 129.996C553.033 131.82 553.483 133.229 554.383 134.221C555.307 135.191 556.461 135.676 557.846 135.676ZM573.869 118.118C572.992 118.118 572.265 117.853 571.688 117.322C571.133 116.768 570.856 116.087 570.856 115.279C570.856 114.471 571.133 113.801 571.688 113.27C572.265 112.716 572.992 112.439 573.869 112.439C574.723 112.439 575.428 112.716 575.982 113.27C576.536 113.801 576.813 114.471 576.813 115.279C576.813 116.087 576.536 116.768 575.982 117.322C575.428 117.853 574.723 118.118 573.869 118.118ZM576.259 142.74C576.259 144.864 575.728 146.388 574.666 147.311C573.627 148.258 572.126 148.731 570.164 148.731H568.017V144.61H569.402C570.141 144.61 570.66 144.46 570.96 144.16C571.26 143.883 571.411 143.421 571.411 142.775V120.404H576.259V142.74ZM598.883 129.581C598.883 130.273 598.837 130.897 598.745 131.451H584.719C584.835 132.836 585.32 133.921 586.174 134.706C587.028 135.491 588.079 135.883 589.325 135.883C591.126 135.883 592.407 135.11 593.169 133.563H598.398C597.844 135.41 596.782 136.934 595.212 138.134C593.642 139.312 591.715 139.901 589.429 139.901C587.582 139.901 585.92 139.497 584.442 138.688C582.988 137.857 581.845 136.691 581.014 135.191C580.206 133.69 579.802 131.959 579.802 129.996C579.802 128.011 580.206 126.268 581.014 124.767C581.822 123.267 582.953 122.112 584.408 121.304C585.862 120.496 587.536 120.092 589.429 120.092C591.253 120.092 592.881 120.485 594.312 121.27C595.766 122.055 596.886 123.174 597.671 124.629C598.479 126.06 598.883 127.711 598.883 129.581ZM593.862 128.196C593.839 126.949 593.389 125.956 592.511 125.217C591.634 124.456 590.56 124.075 589.291 124.075C588.09 124.075 587.074 124.444 586.243 125.183C585.435 125.899 584.939 126.903 584.754 128.196H593.862ZM601.175 129.996C601.175 128.011 601.579 126.279 602.387 124.802C603.195 123.301 604.315 122.147 605.746 121.339C607.178 120.508 608.817 120.092 610.664 120.092C613.042 120.092 615.004 120.692 616.551 121.893C618.121 123.07 619.171 124.733 619.702 126.88H614.473C614.196 126.049 613.723 125.402 613.053 124.94C612.407 124.456 611.599 124.213 610.629 124.213C609.244 124.213 608.147 124.721 607.339 125.737C606.531 126.73 606.127 128.149 606.127 129.996C606.127 131.82 606.531 133.24 607.339 134.256C608.147 135.249 609.244 135.745 610.629 135.745C612.592 135.745 613.873 134.868 614.473 133.113H619.702C619.171 135.191 618.121 136.842 616.551 138.065C614.981 139.289 613.019 139.901 610.664 139.901C608.817 139.901 607.178 139.497 605.746 138.688C604.315 137.857 603.195 136.703 602.387 135.225C601.579 133.725 601.175 131.982 601.175 129.996ZM628.899 124.386V133.667C628.899 134.314 629.049 134.787 629.349 135.087C629.672 135.364 630.203 135.503 630.942 135.503H633.193V139.589H630.145C626.059 139.589 624.016 137.603 624.016 133.633V124.386H621.73V120.404H624.016V115.66H628.899V120.404H633.193V124.386H628.899ZM644.021 139.901C642.451 139.901 641.043 139.623 639.796 139.069C638.55 138.492 637.557 137.719 636.818 136.749C636.103 135.78 635.71 134.706 635.641 133.529H640.524C640.616 134.267 640.974 134.879 641.597 135.364C642.244 135.849 643.04 136.091 643.987 136.091C644.91 136.091 645.626 135.907 646.134 135.537C646.665 135.168 646.93 134.695 646.93 134.117C646.93 133.494 646.607 133.032 645.961 132.732C645.337 132.409 644.333 132.063 642.948 131.693C641.516 131.347 640.339 130.989 639.416 130.62C638.515 130.25 637.73 129.685 637.061 128.923C636.414 128.161 636.091 127.134 636.091 125.841C636.091 124.779 636.391 123.809 636.991 122.932C637.615 122.055 638.492 121.362 639.623 120.854C640.778 120.346 642.128 120.092 643.675 120.092C645.961 120.092 647.784 120.669 649.147 121.824C650.509 122.955 651.259 124.49 651.398 126.429H646.757C646.688 125.668 646.365 125.067 645.787 124.629C645.233 124.167 644.483 123.936 643.537 123.936C642.659 123.936 641.978 124.098 641.493 124.421C641.032 124.744 640.801 125.194 640.801 125.772C640.801 126.418 641.124 126.914 641.77 127.261C642.417 127.584 643.421 127.919 644.783 128.265C646.168 128.611 647.311 128.969 648.212 129.338C649.112 129.708 649.885 130.285 650.532 131.07C651.201 131.832 651.548 132.848 651.571 134.117C651.571 135.225 651.259 136.218 650.636 137.096C650.035 137.973 649.158 138.665 648.004 139.173C646.873 139.658 645.545 139.901 644.021 139.901Z" fill="#262626"/>
<path opacity="0.6" d="M127.729 380.373C102.467 380.373 77.7715 387.864 56.7666 401.899C35.7617 415.934 19.3903 435.883 9.72284 459.222C0.0553431 482.562 -2.47411 508.244 2.45433 533.021C7.38278 557.798 19.5478 580.557 37.411 598.42C55.2742 616.283 78.0333 628.448 102.81 633.376C127.587 638.305 153.269 635.775 176.609 626.108C199.948 616.44 219.897 600.069 233.932 579.064C247.967 558.059 255.458 533.364 255.458 508.102C255.458 474.226 242.001 441.738 218.047 417.784C194.093 393.83 161.605 380.373 127.729 380.373V380.373ZM127.729 597.689C110.01 597.689 92.6893 592.435 77.9567 582.591C63.2241 572.747 51.7414 558.756 44.9608 542.386C38.1801 526.016 36.4059 508.002 39.8627 490.624C43.3195 473.246 51.8518 457.283 64.3809 444.754C76.91 432.225 92.8729 423.692 110.251 420.236C127.63 416.779 145.643 418.553 162.013 425.334C178.383 432.114 192.374 443.597 202.218 458.33C212.062 473.062 217.316 490.383 217.316 508.102C217.316 531.862 207.878 554.649 191.077 571.45C174.276 588.251 151.489 597.689 127.729 597.689Z" fill="#FFB649"/>
<g filter="url(#filter1_d)">
<path d="M127.729 604.938C181.21 604.938 224.565 561.583 224.565 508.102C224.565 454.621 181.21 411.266 127.729 411.266C74.2477 411.266 30.8926 454.621 30.8926 508.102C30.8926 561.583 74.2477 604.938 127.729 604.938Z" fill="white"/>
</g>
<path opacity="0.6" d="M579 380.373C553.738 380.373 529.043 387.864 508.038 401.899C487.033 415.934 470.662 435.883 460.994 459.222C451.327 482.562 448.797 508.244 453.726 533.021C458.654 557.798 470.819 580.557 488.682 598.42C506.546 616.283 529.305 628.448 554.082 633.376C578.859 638.305 604.541 635.775 627.88 626.108C651.219 616.44 671.168 600.069 685.203 579.064C699.238 558.059 706.729 533.364 706.729 508.102C706.729 474.226 693.272 441.738 669.318 417.784C645.365 393.83 612.876 380.373 579 380.373V380.373ZM579 597.689C561.282 597.689 543.961 592.435 529.228 582.591C514.496 572.747 503.013 558.756 496.232 542.386C489.452 526.016 487.677 508.002 491.134 490.624C494.591 473.246 503.123 457.283 515.652 444.754C528.181 432.225 544.144 423.692 561.523 420.236C578.901 416.779 596.914 418.553 613.284 425.334C629.654 432.114 643.646 443.597 653.49 458.33C663.334 473.062 668.588 490.383 668.588 508.102C668.588 531.862 659.149 554.649 642.348 571.45C625.547 588.251 602.76 597.689 579 597.689Z" fill="#B835CF"/>
<g filter="url(#filter2_d)">
<path d="M579 604.938C632.482 604.938 675.837 561.583 675.837 508.102C675.837 454.621 632.482 411.266 579 411.266C525.519 411.266 482.164 454.621 482.164 508.102C482.164 561.583 525.519 604.938 579 604.938Z" fill="white"/>
</g>
<path d="M517.078 489.398V501.962H514.558V489.398H517.078ZM525.093 491.846C526.281 491.846 527.241 492.224 527.973 492.98C528.705 493.724 529.071 494.768 529.071 496.112V501.962H526.551V496.454C526.551 495.662 526.353 495.056 525.957 494.636C525.561 494.204 525.021 493.988 524.337 493.988C523.641 493.988 523.089 494.204 522.681 494.636C522.285 495.056 522.087 495.662 522.087 496.454V501.962H519.567V491.99H522.087V493.232C522.423 492.8 522.849 492.464 523.365 492.224C523.893 491.972 524.469 491.846 525.093 491.846ZM534.402 494.06V498.884C534.402 499.22 534.48 499.466 534.636 499.622C534.804 499.766 535.08 499.838 535.464 499.838H536.634V501.962H535.05C532.926 501.962 531.864 500.93 531.864 498.866V494.06H530.676V491.99H531.864V489.524H534.402V491.99H536.634V494.06H534.402ZM547.716 496.76C547.716 497.12 547.692 497.444 547.644 497.732H540.354C540.414 498.452 540.666 499.016 541.11 499.424C541.554 499.832 542.1 500.036 542.748 500.036C543.684 500.036 544.35 499.634 544.746 498.83H547.464C547.176 499.79 546.624 500.582 545.808 501.206C544.992 501.818 543.99 502.124 542.802 502.124C541.842 502.124 540.978 501.914 540.21 501.494C539.454 501.062 538.86 500.456 538.428 499.676C538.008 498.896 537.798 497.996 537.798 496.976C537.798 495.944 538.008 495.038 538.428 494.258C538.848 493.478 539.436 492.878 540.192 492.458C540.948 492.038 541.818 491.828 542.802 491.828C543.75 491.828 544.596 492.032 545.34 492.44C546.096 492.848 546.678 493.43 547.086 494.186C547.506 494.93 547.716 495.788 547.716 496.76ZM545.106 496.04C545.094 495.392 544.86 494.876 544.404 494.492C543.948 494.096 543.39 493.898 542.73 493.898C542.106 493.898 541.578 494.09 541.146 494.474C540.726 494.846 540.468 495.368 540.372 496.04H545.106ZM552.076 493.538C552.4 493.01 552.82 492.596 553.336 492.296C553.864 491.996 554.464 491.846 555.136 491.846V494.492H554.47C553.678 494.492 553.078 494.678 552.67 495.05C552.274 495.422 552.076 496.07 552.076 496.994V501.962H549.556V491.99H552.076V493.538ZM556.185 496.94C556.185 495.932 556.383 495.038 556.779 494.258C557.187 493.478 557.733 492.878 558.417 492.458C559.113 492.038 559.887 491.828 560.739 491.828C561.483 491.828 562.131 491.978 562.683 492.278C563.247 492.578 563.697 492.956 564.033 493.412V491.99H566.571V501.962H564.033V500.504C563.709 500.972 563.259 501.362 562.683 501.674C562.119 501.974 561.465 502.124 560.721 502.124C559.881 502.124 559.113 501.908 558.417 501.476C557.733 501.044 557.187 500.438 556.779 499.658C556.383 498.866 556.185 497.96 556.185 496.94ZM564.033 496.976C564.033 496.364 563.913 495.842 563.673 495.41C563.433 494.966 563.109 494.63 562.701 494.402C562.293 494.162 561.855 494.042 561.387 494.042C560.919 494.042 560.487 494.156 560.091 494.384C559.695 494.612 559.371 494.948 559.119 495.392C558.879 495.824 558.759 496.34 558.759 496.94C558.759 497.54 558.879 498.068 559.119 498.524C559.371 498.968 559.695 499.31 560.091 499.55C560.499 499.79 560.931 499.91 561.387 499.91C561.855 499.91 562.293 499.796 562.701 499.568C563.109 499.328 563.433 498.992 563.673 498.56C563.913 498.116 564.033 497.588 564.033 496.976ZM568.384 496.976C568.384 495.944 568.594 495.044 569.014 494.276C569.434 493.496 570.016 492.896 570.76 492.476C571.504 492.044 572.356 491.828 573.316 491.828C574.552 491.828 575.572 492.14 576.376 492.764C577.192 493.376 577.738 494.24 578.014 495.356H575.296C575.152 494.924 574.906 494.588 574.558 494.348C574.222 494.096 573.802 493.97 573.298 493.97C572.578 493.97 572.008 494.234 571.588 494.762C571.168 495.278 570.958 496.016 570.958 496.976C570.958 497.924 571.168 498.662 571.588 499.19C572.008 499.706 572.578 499.964 573.298 499.964C574.318 499.964 574.984 499.508 575.296 498.596H578.014C577.738 499.676 577.192 500.534 576.376 501.17C575.56 501.806 574.54 502.124 573.316 502.124C572.356 502.124 571.504 501.914 570.76 501.494C570.016 501.062 569.434 500.462 569.014 499.694C568.594 498.914 568.384 498.008 568.384 496.976ZM582.794 494.06V498.884C582.794 499.22 582.872 499.466 583.028 499.622C583.196 499.766 583.472 499.838 583.856 499.838H585.026V501.962H583.442C581.318 501.962 580.256 500.93 580.256 498.866V494.06H579.068V491.99H580.256V489.524H582.794V491.99H585.026V494.06H582.794ZM588.117 490.802C587.673 490.802 587.301 490.664 587.001 490.388C586.713 490.1 586.569 489.746 586.569 489.326C586.569 488.906 586.713 488.558 587.001 488.282C587.301 487.994 587.673 487.85 588.117 487.85C588.561 487.85 588.927 487.994 589.215 488.282C589.515 488.558 589.665 488.906 589.665 489.326C589.665 489.746 589.515 490.1 589.215 490.388C588.927 490.664 588.561 490.802 588.117 490.802ZM589.359 491.99V501.962H586.839V491.99H589.359ZM596.007 499.64L598.527 491.99H601.209L597.519 501.962H594.459L590.787 491.99H593.487L596.007 499.64ZM611.894 496.76C611.894 497.12 611.87 497.444 611.822 497.732H604.532C604.592 498.452 604.844 499.016 605.288 499.424C605.732 499.832 606.278 500.036 606.926 500.036C607.862 500.036 608.528 499.634 608.924 498.83H611.642C611.354 499.79 610.802 500.582 609.986 501.206C609.17 501.818 608.168 502.124 606.98 502.124C606.02 502.124 605.156 501.914 604.388 501.494C603.632 501.062 603.038 500.456 602.606 499.676C602.186 498.896 601.976 497.996 601.976 496.976C601.976 495.944 602.186 495.038 602.606 494.258C603.026 493.478 603.614 492.878 604.37 492.458C605.126 492.038 605.996 491.828 606.98 491.828C607.928 491.828 608.774 492.032 609.518 492.44C610.274 492.848 610.856 493.43 611.264 494.186C611.684 494.93 611.894 495.788 611.894 496.76ZM609.284 496.04C609.272 495.392 609.038 494.876 608.582 494.492C608.126 494.096 607.568 493.898 606.908 493.898C606.284 493.898 605.756 494.09 605.324 494.474C604.904 494.846 604.646 495.368 604.55 496.04H609.284ZM617.771 492.296C617.831 491.096 618.251 490.172 619.031 489.524C619.823 488.864 620.861 488.534 622.145 488.534C623.021 488.534 623.771 488.69 624.395 489.002C625.019 489.302 625.487 489.716 625.799 490.244C626.123 490.76 626.285 491.348 626.285 492.008C626.285 492.764 626.087 493.406 625.691 493.934C625.307 494.45 624.845 494.798 624.305 494.978V495.05C625.001 495.266 625.541 495.65 625.925 496.202C626.321 496.754 626.519 497.462 626.519 498.326C626.519 499.046 626.351 499.688 626.015 500.252C625.691 500.816 625.205 501.26 624.557 501.584C623.921 501.896 623.153 502.052 622.253 502.052C620.897 502.052 619.793 501.71 618.941 501.026C618.089 500.342 617.639 499.334 617.591 498.002H620.039C620.063 498.59 620.261 499.064 620.633 499.424C621.017 499.772 621.539 499.946 622.199 499.946C622.811 499.946 623.279 499.778 623.603 499.442C623.939 499.094 624.107 498.65 624.107 498.11C624.107 497.39 623.879 496.874 623.423 496.562C622.967 496.25 622.259 496.094 621.299 496.094H620.777V494.024H621.299C623.003 494.024 623.855 493.454 623.855 492.314C623.855 491.798 623.699 491.396 623.387 491.108C623.087 490.82 622.649 490.676 622.073 490.676C621.509 490.676 621.071 490.832 620.759 491.144C620.459 491.444 620.285 491.828 620.237 492.296H617.771ZM633.19 489.398C634.51 489.398 635.668 489.656 636.664 490.172C637.672 490.688 638.446 491.426 638.986 492.386C639.538 493.334 639.814 494.438 639.814 495.698C639.814 496.958 639.538 498.062 638.986 499.01C638.446 499.946 637.672 500.672 636.664 501.188C635.668 501.704 634.51 501.962 633.19 501.962H628.798V489.398H633.19ZM633.1 499.82C634.42 499.82 635.44 499.46 636.16 498.74C636.88 498.02 637.24 497.006 637.24 495.698C637.24 494.39 636.88 493.37 636.16 492.638C635.44 491.894 634.42 491.522 633.1 491.522H631.318V499.82H633.1ZM527.904 529.088C527.028 529.088 526.236 528.938 525.528 528.638C524.832 528.338 524.28 527.906 523.872 527.342C523.464 526.778 523.254 526.112 523.242 525.344H525.942C525.978 525.86 526.158 526.268 526.482 526.568C526.818 526.868 527.274 527.018 527.85 527.018C528.438 527.018 528.9 526.88 529.236 526.604C529.572 526.316 529.74 525.944 529.74 525.488C529.74 525.116 529.626 524.81 529.398 524.57C529.17 524.33 528.882 524.144 528.534 524.012C528.198 523.868 527.73 523.712 527.13 523.544C526.314 523.304 525.648 523.07 525.132 522.842C524.628 522.602 524.19 522.248 523.818 521.78C523.458 521.3 523.278 520.664 523.278 519.872C523.278 519.128 523.464 518.48 523.836 517.928C524.208 517.376 524.73 516.956 525.402 516.668C526.074 516.368 526.842 516.218 527.706 516.218C529.002 516.218 530.052 516.536 530.856 517.172C531.672 517.796 532.122 518.672 532.206 519.8H529.434C529.41 519.368 529.224 519.014 528.876 518.738C528.54 518.45 528.09 518.306 527.526 518.306C527.034 518.306 526.638 518.432 526.338 518.684C526.05 518.936 525.906 519.302 525.906 519.782C525.906 520.118 526.014 520.4 526.23 520.628C526.458 520.844 526.734 521.024 527.058 521.168C527.394 521.3 527.862 521.456 528.462 521.636C529.278 521.876 529.944 522.116 530.46 522.356C530.976 522.596 531.42 522.956 531.792 523.436C532.164 523.916 532.35 524.546 532.35 525.326C532.35 525.998 532.176 526.622 531.828 527.198C531.48 527.774 530.97 528.236 530.298 528.584C529.626 528.92 528.828 529.088 527.904 529.088ZM535.813 517.802C535.369 517.802 534.997 517.664 534.697 517.388C534.409 517.1 534.265 516.746 534.265 516.326C534.265 515.906 534.409 515.558 534.697 515.282C534.997 514.994 535.369 514.85 535.813 514.85C536.257 514.85 536.623 514.994 536.911 515.282C537.211 515.558 537.361 515.906 537.361 516.326C537.361 516.746 537.211 517.1 536.911 517.388C536.623 517.664 536.257 517.802 535.813 517.802ZM537.055 518.99V528.962H534.535V518.99H537.055ZM551.929 518.846C553.153 518.846 554.137 519.224 554.881 519.98C555.637 520.724 556.015 521.768 556.015 523.112V528.962H553.495V523.454C553.495 522.674 553.297 522.08 552.901 521.672C552.505 521.252 551.965 521.042 551.281 521.042C550.597 521.042 550.051 521.252 549.643 521.672C549.247 522.08 549.049 522.674 549.049 523.454V528.962H546.529V523.454C546.529 522.674 546.331 522.08 545.935 521.672C545.539 521.252 544.999 521.042 544.315 521.042C543.619 521.042 543.067 521.252 542.659 521.672C542.263 522.08 542.065 522.674 542.065 523.454V528.962H539.545V518.99H542.065V520.196C542.389 519.776 542.803 519.446 543.307 519.206C543.823 518.966 544.387 518.846 544.999 518.846C545.779 518.846 546.475 519.014 547.087 519.35C547.699 519.674 548.173 520.142 548.509 520.754C548.833 520.178 549.301 519.716 549.913 519.368C550.537 519.02 551.209 518.846 551.929 518.846ZM567.82 518.99V528.962H565.282V527.702C564.958 528.134 564.532 528.476 564.004 528.728C563.488 528.968 562.924 529.088 562.312 529.088C561.532 529.088 560.842 528.926 560.242 528.602C559.642 528.266 559.168 527.78 558.82 527.144C558.484 526.496 558.316 525.728 558.316 524.84V518.99H560.836V524.48C560.836 525.272 561.034 525.884 561.43 526.316C561.826 526.736 562.366 526.946 563.05 526.946C563.746 526.946 564.292 526.736 564.688 526.316C565.084 525.884 565.282 525.272 565.282 524.48V518.99H567.82ZM572.827 515.642V528.962H570.307V515.642H572.827ZM574.668 523.94C574.668 522.932 574.866 522.038 575.262 521.258C575.67 520.478 576.216 519.878 576.9 519.458C577.596 519.038 578.37 518.828 579.222 518.828C579.966 518.828 580.614 518.978 581.166 519.278C581.73 519.578 582.18 519.956 582.516 520.412V518.99H585.054V528.962H582.516V527.504C582.192 527.972 581.742 528.362 581.166 528.674C580.602 528.974 579.948 529.124 579.204 529.124C578.364 529.124 577.596 528.908 576.9 528.476C576.216 528.044 575.67 527.438 575.262 526.658C574.866 525.866 574.668 524.96 574.668 523.94ZM582.516 523.976C582.516 523.364 582.396 522.842 582.156 522.41C581.916 521.966 581.592 521.63 581.184 521.402C580.776 521.162 580.338 521.042 579.87 521.042C579.402 521.042 578.97 521.156 578.574 521.384C578.178 521.612 577.854 521.948 577.602 522.392C577.362 522.824 577.242 523.34 577.242 523.94C577.242 524.54 577.362 525.068 577.602 525.524C577.854 525.968 578.178 526.31 578.574 526.55C578.982 526.79 579.414 526.91 579.87 526.91C580.338 526.91 580.776 526.796 581.184 526.568C581.592 526.328 581.916 525.992 582.156 525.56C582.396 525.116 582.516 524.588 582.516 523.976ZM590.45 521.06V525.884C590.45 526.22 590.528 526.466 590.684 526.622C590.852 526.766 591.128 526.838 591.512 526.838H592.682V528.962H591.098C588.974 528.962 587.912 527.93 587.912 525.866V521.06H586.724V518.99H587.912V516.524H590.45V518.99H592.682V521.06H590.45ZM595.772 517.802C595.328 517.802 594.956 517.664 594.656 517.388C594.368 517.1 594.224 516.746 594.224 516.326C594.224 515.906 594.368 515.558 594.656 515.282C594.956 514.994 595.328 514.85 595.772 514.85C596.216 514.85 596.582 514.994 596.87 515.282C597.17 515.558 597.32 515.906 597.32 516.326C597.32 516.746 597.17 517.1 596.87 517.388C596.582 517.664 596.216 517.802 595.772 517.802ZM597.014 518.99V528.962H594.494V518.99H597.014ZM603.932 529.124C602.972 529.124 602.108 528.914 601.34 528.494C600.572 528.062 599.966 527.456 599.522 526.676C599.09 525.896 598.874 524.996 598.874 523.976C598.874 522.956 599.096 522.056 599.54 521.276C599.996 520.496 600.614 519.896 601.394 519.476C602.174 519.044 603.044 518.828 604.004 518.828C604.964 518.828 605.834 519.044 606.614 519.476C607.394 519.896 608.006 520.496 608.45 521.276C608.906 522.056 609.134 522.956 609.134 523.976C609.134 524.996 608.9 525.896 608.432 526.676C607.976 527.456 607.352 528.062 606.56 528.494C605.78 528.914 604.904 529.124 603.932 529.124ZM603.932 526.928C604.388 526.928 604.814 526.82 605.21 526.604C605.618 526.376 605.942 526.04 606.182 525.596C606.422 525.152 606.542 524.612 606.542 523.976C606.542 523.028 606.29 522.302 605.786 521.798C605.294 521.282 604.688 521.024 603.968 521.024C603.248 521.024 602.642 521.282 602.15 521.798C601.67 522.302 601.43 523.028 601.43 523.976C601.43 524.924 601.664 525.656 602.132 526.172C602.612 526.676 603.212 526.928 603.932 526.928ZM616.508 518.846C617.696 518.846 618.656 519.224 619.388 519.98C620.12 520.724 620.486 521.768 620.486 523.112V528.962H617.966V523.454C617.966 522.662 617.768 522.056 617.372 521.636C616.976 521.204 616.436 520.988 615.752 520.988C615.056 520.988 614.504 521.204 614.096 521.636C613.7 522.056 613.502 522.662 613.502 523.454V528.962H610.982V518.99H613.502V520.232C613.838 519.8 614.264 519.464 614.78 519.224C615.308 518.972 615.884 518.846 616.508 518.846ZM626.699 529.124C625.883 529.124 625.151 528.98 624.503 528.692C623.855 528.392 623.339 527.99 622.955 527.486C622.583 526.982 622.379 526.424 622.343 525.812H624.881C624.929 526.196 625.115 526.514 625.439 526.766C625.775 527.018 626.189 527.144 626.681 527.144C627.161 527.144 627.533 527.048 627.797 526.856C628.073 526.664 628.211 526.418 628.211 526.118C628.211 525.794 628.043 525.554 627.707 525.398C627.383 525.23 626.861 525.05 626.141 524.858C625.397 524.678 624.785 524.492 624.305 524.3C623.837 524.108 623.429 523.814 623.081 523.418C622.745 523.022 622.577 522.488 622.577 521.816C622.577 521.264 622.733 520.76 623.045 520.304C623.369 519.848 623.825 519.488 624.413 519.224C625.013 518.96 625.715 518.828 626.519 518.828C627.707 518.828 628.655 519.128 629.363 519.728C630.071 520.316 630.461 521.114 630.533 522.122H628.121C628.085 521.726 627.917 521.414 627.617 521.186C627.329 520.946 626.939 520.826 626.447 520.826C625.991 520.826 625.637 520.91 625.385 521.078C625.145 521.246 625.025 521.48 625.025 521.78C625.025 522.116 625.193 522.374 625.529 522.554C625.865 522.722 626.387 522.896 627.095 523.076C627.815 523.256 628.409 523.442 628.877 523.634C629.345 523.826 629.747 524.126 630.083 524.534C630.431 524.93 630.611 525.458 630.623 526.118C630.623 526.694 630.461 527.21 630.137 527.666C629.825 528.122 629.369 528.482 628.769 528.746C628.181 528.998 627.491 529.124 626.699 529.124Z" fill="#262626"/>
<path opacity="0.6" d="M1030.27 380.373C1005.01 380.373 980.313 387.864 959.309 401.899C938.304 415.934 921.932 435.883 912.265 459.222C902.597 482.562 900.068 508.244 904.996 533.021C909.925 557.798 922.09 580.557 939.953 598.42C957.816 616.283 980.575 628.448 1005.35 633.376C1030.13 638.305 1055.81 635.775 1079.15 626.108C1102.49 616.44 1122.44 600.069 1136.47 579.064C1150.51 558.059 1158 533.364 1158 508.102C1158 474.226 1144.54 441.738 1120.59 417.784C1096.64 393.83 1064.15 380.373 1030.27 380.373V380.373ZM1030.27 597.689C1012.55 597.689 995.231 592.435 980.499 582.591C965.766 572.747 954.283 558.756 947.503 542.386C940.722 526.016 938.948 508.002 942.405 490.624C945.861 473.246 954.394 457.283 966.923 444.754C979.452 432.225 995.415 423.692 1012.79 420.236C1030.17 416.779 1048.18 418.553 1064.55 425.334C1080.92 432.114 1094.92 443.597 1104.76 458.33C1114.6 473.062 1119.86 490.383 1119.86 508.102C1119.86 531.862 1110.42 554.649 1093.62 571.45C1076.82 588.251 1054.03 597.689 1030.27 597.689Z" fill="#18DBAC"/>
<g filter="url(#filter3_d)">
<path d="M1030.27 604.938C1083.75 604.938 1127.11 561.583 1127.11 508.102C1127.11 454.621 1083.75 411.266 1030.27 411.266C976.79 411.266 933.435 454.621 933.435 508.102C933.435 561.583 976.79 604.938 1030.27 604.938Z" fill="white"/>
</g>
<path d="M37.0343 495.662C37.0343 494.426 37.3103 493.322 37.8623 492.35C38.4263 491.366 39.1883 490.604 40.1483 490.064C41.1203 489.512 42.2063 489.236 43.4063 489.236C44.8103 489.236 46.0403 489.596 47.0963 490.316C48.1523 491.036 48.8903 492.032 49.3103 493.304H46.4123C46.1243 492.704 45.7163 492.254 45.1883 491.954C44.6723 491.654 44.0723 491.504 43.3883 491.504C42.6563 491.504 42.0023 491.678 41.4263 492.026C40.8623 492.362 40.4183 492.842 40.0943 493.466C39.7823 494.09 39.6263 494.822 39.6263 495.662C39.6263 496.49 39.7823 497.222 40.0943 497.858C40.4183 498.482 40.8623 498.968 41.4263 499.316C42.0023 499.652 42.6563 499.82 43.3883 499.82C44.0723 499.82 44.6723 499.67 45.1883 499.37C45.7163 499.058 46.1243 498.602 46.4123 498.002H49.3103C48.8903 499.286 48.1523 500.288 47.0963 501.008C46.0523 501.716 44.8223 502.07 43.4063 502.07C42.2063 502.07 41.1203 501.8 40.1483 501.26C39.1883 500.708 38.4263 499.946 37.8623 498.974C37.3103 498.002 37.0343 496.898 37.0343 495.662ZM60.8767 491.99V501.962H58.3387V500.702C58.0147 501.134 57.5887 501.476 57.0607 501.728C56.5447 501.968 55.9807 502.088 55.3687 502.088C54.5887 502.088 53.8987 501.926 53.2987 501.602C52.6987 501.266 52.2247 500.78 51.8767 500.144C51.5407 499.496 51.3727 498.728 51.3727 497.84V491.99H53.8927V497.48C53.8927 498.272 54.0907 498.884 54.4867 499.316C54.8827 499.736 55.4227 499.946 56.1067 499.946C56.8027 499.946 57.3487 499.736 57.7447 499.316C58.1407 498.884 58.3387 498.272 58.3387 497.48V491.99H60.8767ZM65.8831 493.538C66.2071 493.01 66.6271 492.596 67.1431 492.296C67.6711 491.996 68.2711 491.846 68.9431 491.846V494.492H68.2771C67.4851 494.492 66.8851 494.678 66.4771 495.05C66.0811 495.422 65.8831 496.07 65.8831 496.994V501.962H63.3631V491.99H65.8831V493.538ZM73.1604 493.538C73.4844 493.01 73.9044 492.596 74.4204 492.296C74.9484 491.996 75.5484 491.846 76.2204 491.846V494.492H75.5544C74.7624 494.492 74.1624 494.678 73.7544 495.05C73.3584 495.422 73.1604 496.07 73.1604 496.994V501.962H70.6404V491.99H73.1604V493.538ZM79.1958 490.802C78.7518 490.802 78.3798 490.664 78.0798 490.388C77.7918 490.1 77.6478 489.746 77.6478 489.326C77.6478 488.906 77.7918 488.558 78.0798 488.282C78.3798 487.994 78.7518 487.85 79.1958 487.85C79.6398 487.85 80.0058 487.994 80.2938 488.282C80.5938 488.558 80.7438 488.906 80.7438 489.326C80.7438 489.746 80.5938 490.1 80.2938 490.388C80.0058 490.664 79.6398 490.802 79.1958 490.802ZM80.4378 491.99V501.962H77.9178V491.99H80.4378ZM82.2795 496.976C82.2795 495.944 82.4895 495.044 82.9095 494.276C83.3295 493.496 83.9115 492.896 84.6555 492.476C85.3995 492.044 86.2515 491.828 87.2115 491.828C88.4475 491.828 89.4675 492.14 90.2715 492.764C91.0875 493.376 91.6335 494.24 91.9095 495.356H89.1915C89.0475 494.924 88.8015 494.588 88.4535 494.348C88.1175 494.096 87.6975 493.97 87.1935 493.97C86.4735 493.97 85.9035 494.234 85.4835 494.762C85.0635 495.278 84.8535 496.016 84.8535 496.976C84.8535 497.924 85.0635 498.662 85.4835 499.19C85.9035 499.706 86.4735 499.964 87.1935 499.964C88.2135 499.964 88.8795 499.508 89.1915 498.596H91.9095C91.6335 499.676 91.0875 500.534 90.2715 501.17C89.4555 501.806 88.4355 502.124 87.2115 502.124C86.2515 502.124 85.3995 501.914 84.6555 501.494C83.9115 501.062 83.3295 500.462 82.9095 499.694C82.4895 498.914 82.2795 498.008 82.2795 496.976ZM103.17 491.99V501.962H100.632V500.702C100.308 501.134 99.8817 501.476 99.3537 501.728C98.8377 501.968 98.2737 502.088 97.6617 502.088C96.8817 502.088 96.1917 501.926 95.5917 501.602C94.9917 501.266 94.5177 500.78 94.1697 500.144C93.8337 499.496 93.6657 498.728 93.6657 497.84V491.99H96.1857V497.48C96.1857 498.272 96.3837 498.884 96.7797 499.316C97.1757 499.736 97.7157 499.946 98.3997 499.946C99.0957 499.946 99.6417 499.736 100.038 499.316C100.434 498.884 100.632 498.272 100.632 497.48V491.99H103.17ZM108.176 488.642V501.962H105.656V488.642H108.176ZM120.08 491.99V501.962H117.542V500.702C117.218 501.134 116.792 501.476 116.264 501.728C115.748 501.968 115.184 502.088 114.572 502.088C113.792 502.088 113.102 501.926 112.502 501.602C111.902 501.266 111.428 500.78 111.08 500.144C110.744 499.496 110.576 498.728 110.576 497.84V491.99H113.096V497.48C113.096 498.272 113.294 498.884 113.69 499.316C114.086 499.736 114.626 499.946 115.31 499.946C116.006 499.946 116.552 499.736 116.948 499.316C117.344 498.884 117.542 498.272 117.542 497.48V491.99H120.08ZM134.95 491.846C136.174 491.846 137.158 492.224 137.902 492.98C138.658 493.724 139.036 494.768 139.036 496.112V501.962H136.516V496.454C136.516 495.674 136.318 495.08 135.922 494.672C135.526 494.252 134.986 494.042 134.302 494.042C133.618 494.042 133.072 494.252 132.664 494.672C132.268 495.08 132.07 495.674 132.07 496.454V501.962H129.55V496.454C129.55 495.674 129.352 495.08 128.956 494.672C128.56 494.252 128.02 494.042 127.336 494.042C126.64 494.042 126.088 494.252 125.68 494.672C125.284 495.08 125.086 495.674 125.086 496.454V501.962H122.566V491.99H125.086V493.196C125.41 492.776 125.824 492.446 126.328 492.206C126.844 491.966 127.408 491.846 128.02 491.846C128.8 491.846 129.496 492.014 130.108 492.35C130.72 492.674 131.194 493.142 131.53 493.754C131.854 493.178 132.322 492.716 132.934 492.368C133.558 492.02 134.23 491.846 134.95 491.846ZM149.096 494.474V496.598H141.464V494.474H149.096ZM151.274 496.94C151.274 495.932 151.472 495.038 151.868 494.258C152.276 493.478 152.822 492.878 153.506 492.458C154.202 492.038 154.976 491.828 155.828 491.828C156.572 491.828 157.22 491.978 157.772 492.278C158.336 492.578 158.786 492.956 159.122 493.412V491.99H161.66V501.962H159.122V500.504C158.798 500.972 158.348 501.362 157.772 501.674C157.208 501.974 156.554 502.124 155.81 502.124C154.97 502.124 154.202 501.908 153.506 501.476C152.822 501.044 152.276 500.438 151.868 499.658C151.472 498.866 151.274 497.96 151.274 496.94ZM159.122 496.976C159.122 496.364 159.002 495.842 158.762 495.41C158.522 494.966 158.198 494.63 157.79 494.402C157.382 494.162 156.944 494.042 156.476 494.042C156.008 494.042 155.576 494.156 155.18 494.384C154.784 494.612 154.46 494.948 154.208 495.392C153.968 495.824 153.848 496.34 153.848 496.94C153.848 497.54 153.968 498.068 154.208 498.524C154.46 498.968 154.784 499.31 155.18 499.55C155.588 499.79 156.02 499.91 156.476 499.91C156.944 499.91 157.382 499.796 157.79 499.568C158.198 499.328 158.522 498.992 158.762 498.56C159.002 498.116 159.122 497.588 159.122 496.976ZM166.641 488.642V501.962H164.121V488.642H166.641ZM170.409 490.802C169.965 490.802 169.593 490.664 169.293 490.388C169.005 490.1 168.861 489.746 168.861 489.326C168.861 488.906 169.005 488.558 169.293 488.282C169.593 487.994 169.965 487.85 170.409 487.85C170.853 487.85 171.219 487.994 171.507 488.282C171.807 488.558 171.957 488.906 171.957 489.326C171.957 489.746 171.807 490.1 171.507 490.388C171.219 490.664 170.853 490.802 170.409 490.802ZM171.651 491.99V501.962H169.131V491.99H171.651ZM178.046 491.828C178.79 491.828 179.444 491.978 180.008 492.278C180.572 492.566 181.016 492.944 181.34 493.412V491.99H183.878V502.034C183.878 502.958 183.692 503.78 183.32 504.5C182.948 505.232 182.39 505.808 181.646 506.228C180.902 506.66 180.002 506.876 178.946 506.876C177.53 506.876 176.366 506.546 175.454 505.886C174.554 505.226 174.044 504.326 173.924 503.186H176.426C176.558 503.642 176.84 504.002 177.272 504.266C177.716 504.542 178.25 504.68 178.874 504.68C179.606 504.68 180.2 504.458 180.656 504.014C181.112 503.582 181.34 502.922 181.34 502.034V500.486C181.016 500.954 180.566 501.344 179.99 501.656C179.426 501.968 178.778 502.124 178.046 502.124C177.206 502.124 176.438 501.908 175.742 501.476C175.046 501.044 174.494 500.438 174.086 499.658C173.69 498.866 173.492 497.96 173.492 496.94C173.492 495.932 173.69 495.038 174.086 494.258C174.494 493.478 175.04 492.878 175.724 492.458C176.42 492.038 177.194 491.828 178.046 491.828ZM181.34 496.976C181.34 496.364 181.22 495.842 180.98 495.41C180.74 494.966 180.416 494.63 180.008 494.402C179.6 494.162 179.162 494.042 178.694 494.042C178.226 494.042 177.794 494.156 177.398 494.384C177.002 494.612 176.678 494.948 176.426 495.392C176.186 495.824 176.066 496.34 176.066 496.94C176.066 497.54 176.186 498.068 176.426 498.524C176.678 498.968 177.002 499.31 177.398 499.55C177.806 499.79 178.238 499.91 178.694 499.91C179.162 499.91 179.6 499.796 180.008 499.568C180.416 499.328 180.74 498.992 180.98 498.56C181.22 498.116 181.34 497.588 181.34 496.976ZM191.866 491.846C193.054 491.846 194.014 492.224 194.746 492.98C195.478 493.724 195.844 494.768 195.844 496.112V501.962H193.324V496.454C193.324 495.662 193.126 495.056 192.73 494.636C192.334 494.204 191.794 493.988 191.11 493.988C190.414 493.988 189.862 494.204 189.454 494.636C189.058 495.056 188.86 495.662 188.86 496.454V501.962H186.34V491.99H188.86V493.232C189.196 492.8 189.622 492.464 190.138 492.224C190.666 491.972 191.242 491.846 191.866 491.846ZM207.51 496.76C207.51 497.12 207.486 497.444 207.438 497.732H200.148C200.208 498.452 200.46 499.016 200.904 499.424C201.348 499.832 201.894 500.036 202.542 500.036C203.478 500.036 204.144 499.634 204.54 498.83H207.258C206.97 499.79 206.418 500.582 205.602 501.206C204.786 501.818 203.784 502.124 202.596 502.124C201.636 502.124 200.772 501.914 200.004 501.494C199.248 501.062 198.654 500.456 198.222 499.676C197.802 498.896 197.592 497.996 197.592 496.976C197.592 495.944 197.802 495.038 198.222 494.258C198.642 493.478 199.23 492.878 199.986 492.458C200.742 492.038 201.612 491.828 202.596 491.828C203.544 491.828 204.39 492.032 205.134 492.44C205.89 492.848 206.472 493.43 206.88 494.186C207.3 494.93 207.51 495.788 207.51 496.76ZM204.9 496.04C204.888 495.392 204.654 494.876 204.198 494.492C203.742 494.096 203.184 493.898 202.524 493.898C201.9 493.898 201.372 494.09 200.94 494.474C200.52 494.846 200.262 495.368 200.166 496.04H204.9ZM208.701 496.94C208.701 495.932 208.899 495.038 209.295 494.258C209.703 493.478 210.255 492.878 210.951 492.458C211.647 492.038 212.421 491.828 213.273 491.828C213.921 491.828 214.539 491.972 215.127 492.26C215.715 492.536 216.183 492.908 216.531 493.376V488.642H219.087V501.962H216.531V500.486C216.219 500.978 215.781 501.374 215.217 501.674C214.653 501.974 213.999 502.124 213.255 502.124C212.415 502.124 211.647 501.908 210.951 501.476C210.255 501.044 209.703 500.438 209.295 499.658C208.899 498.866 208.701 497.96 208.701 496.94ZM216.549 496.976C216.549 496.364 216.429 495.842 216.189 495.41C215.949 494.966 215.625 494.63 215.217 494.402C214.809 494.162 214.371 494.042 213.903 494.042C213.435 494.042 213.003 494.156 212.607 494.384C212.211 494.612 211.887 494.948 211.635 495.392C211.395 495.824 211.275 496.34 211.275 496.94C211.275 497.54 211.395 498.068 211.635 498.524C211.887 498.968 212.211 499.31 212.607 499.55C213.015 499.79 213.447 499.91 213.903 499.91C214.371 499.91 214.809 499.796 215.217 499.568C215.625 499.328 215.949 498.992 216.189 498.56C216.429 498.116 216.549 497.588 216.549 496.976ZM75.9993 526.964H80.1393V528.962H73.4793V516.398H75.9993V526.964ZM91.011 523.76C91.011 524.12 90.987 524.444 90.939 524.732H83.649C83.709 525.452 83.961 526.016 84.405 526.424C84.849 526.832 85.395 527.036 86.043 527.036C86.979 527.036 87.645 526.634 88.041 525.83H90.759C90.471 526.79 89.919 527.582 89.103 528.206C88.287 528.818 87.285 529.124 86.097 529.124C85.137 529.124 84.273 528.914 83.505 528.494C82.749 528.062 82.155 527.456 81.723 526.676C81.303 525.896 81.093 524.996 81.093 523.976C81.093 522.944 81.303 522.038 81.723 521.258C82.143 520.478 82.731 519.878 83.487 519.458C84.243 519.038 85.113 518.828 86.097 518.828C87.045 518.828 87.891 519.032 88.635 519.44C89.391 519.848 89.973 520.43 90.381 521.186C90.801 521.93 91.011 522.788 91.011 523.76ZM88.401 523.04C88.389 522.392 88.155 521.876 87.699 521.492C87.243 521.096 86.685 520.898 86.025 520.898C85.401 520.898 84.873 521.09 84.441 521.474C84.021 521.846 83.763 522.368 83.667 523.04H88.401ZM96.6664 529.124C95.8504 529.124 95.1184 528.98 94.4704 528.692C93.8224 528.392 93.3064 527.99 92.9224 527.486C92.5504 526.982 92.3464 526.424 92.3104 525.812H94.8484C94.8964 526.196 95.0824 526.514 95.4064 526.766C95.7424 527.018 96.1564 527.144 96.6484 527.144C97.1284 527.144 97.5004 527.048 97.7644 526.856C98.0404 526.664 98.1784 526.418 98.1784 526.118C98.1784 525.794 98.0104 525.554 97.6744 525.398C97.3504 525.23 96.8284 525.05 96.1084 524.858C95.3644 524.678 94.7524 524.492 94.2724 524.3C93.8044 524.108 93.3964 523.814 93.0484 523.418C92.7124 523.022 92.5444 522.488 92.5444 521.816C92.5444 521.264 92.7004 520.76 93.0124 520.304C93.3364 519.848 93.7924 519.488 94.3804 519.224C94.9804 518.96 95.6824 518.828 96.4864 518.828C97.6744 518.828 98.6224 519.128 99.3304 519.728C100.038 520.316 100.428 521.114 100.5 522.122H98.0884C98.0524 521.726 97.8844 521.414 97.5844 521.186C97.2964 520.946 96.9064 520.826 96.4144 520.826C95.9584 520.826 95.6044 520.91 95.3524 521.078C95.1124 521.246 94.9924 521.48 94.9924 521.78C94.9924 522.116 95.1604 522.374 95.4964 522.554C95.8324 522.722 96.3544 522.896 97.0624 523.076C97.7824 523.256 98.3764 523.442 98.8444 523.634C99.3124 523.826 99.7144 524.126 100.05 524.534C100.398 524.93 100.578 525.458 100.59 526.118C100.59 526.694 100.428 527.21 100.104 527.666C99.7924 528.122 99.3364 528.482 98.7364 528.746C98.1484 528.998 97.4584 529.124 96.6664 529.124ZM106.475 529.124C105.659 529.124 104.927 528.98 104.279 528.692C103.631 528.392 103.115 527.99 102.731 527.486C102.359 526.982 102.155 526.424 102.119 525.812H104.657C104.705 526.196 104.891 526.514 105.215 526.766C105.551 527.018 105.965 527.144 106.457 527.144C106.937 527.144 107.309 527.048 107.573 526.856C107.849 526.664 107.987 526.418 107.987 526.118C107.987 525.794 107.819 525.554 107.483 525.398C107.159 525.23 106.637 525.05 105.917 524.858C105.173 524.678 104.561 524.492 104.081 524.3C103.613 524.108 103.205 523.814 102.857 523.418C102.521 523.022 102.353 522.488 102.353 521.816C102.353 521.264 102.509 520.76 102.821 520.304C103.145 519.848 103.601 519.488 104.189 519.224C104.789 518.96 105.491 518.828 106.295 518.828C107.483 518.828 108.431 519.128 109.139 519.728C109.847 520.316 110.237 521.114 110.309 522.122H107.897C107.861 521.726 107.693 521.414 107.393 521.186C107.105 520.946 106.715 520.826 106.223 520.826C105.767 520.826 105.413 520.91 105.161 521.078C104.921 521.246 104.801 521.48 104.801 521.78C104.801 522.116 104.969 522.374 105.305 522.554C105.641 522.722 106.163 522.896 106.871 523.076C107.591 523.256 108.185 523.442 108.653 523.634C109.121 523.826 109.523 524.126 109.859 524.534C110.207 524.93 110.387 525.458 110.399 526.118C110.399 526.694 110.237 527.21 109.913 527.666C109.601 528.122 109.145 528.482 108.545 528.746C107.957 528.998 107.267 529.124 106.475 529.124ZM116.896 529.124C115.936 529.124 115.072 528.914 114.304 528.494C113.536 528.062 112.93 527.456 112.486 526.676C112.054 525.896 111.838 524.996 111.838 523.976C111.838 522.956 112.06 522.056 112.504 521.276C112.96 520.496 113.578 519.896 114.358 519.476C115.138 519.044 116.008 518.828 116.968 518.828C117.928 518.828 118.798 519.044 119.578 519.476C120.358 519.896 120.97 520.496 121.414 521.276C121.87 522.056 122.098 522.956 122.098 523.976C122.098 524.996 121.864 525.896 121.396 526.676C120.94 527.456 120.316 528.062 119.524 528.494C118.744 528.914 117.868 529.124 116.896 529.124ZM116.896 526.928C117.352 526.928 117.778 526.82 118.174 526.604C118.582 526.376 118.906 526.04 119.146 525.596C119.386 525.152 119.506 524.612 119.506 523.976C119.506 523.028 119.254 522.302 118.75 521.798C118.258 521.282 117.652 521.024 116.932 521.024C116.212 521.024 115.606 521.282 115.114 521.798C114.634 522.302 114.394 523.028 114.394 523.976C114.394 524.924 114.628 525.656 115.096 526.172C115.576 526.676 116.176 526.928 116.896 526.928ZM129.472 518.846C130.66 518.846 131.62 519.224 132.352 519.98C133.084 520.724 133.45 521.768 133.45 523.112V528.962H130.93V523.454C130.93 522.662 130.732 522.056 130.336 521.636C129.94 521.204 129.4 520.988 128.716 520.988C128.02 520.988 127.468 521.204 127.06 521.636C126.664 522.056 126.466 522.662 126.466 523.454V528.962H123.946V518.99H126.466V520.232C126.802 519.8 127.228 519.464 127.744 519.224C128.272 518.972 128.848 518.846 129.472 518.846ZM149.298 520.286C149.298 520.958 149.136 521.588 148.812 522.176C148.5 522.764 148.002 523.238 147.318 523.598C146.646 523.958 145.794 524.138 144.762 524.138H142.656V528.962H140.136V516.398H144.762C145.734 516.398 146.562 516.566 147.246 516.902C147.93 517.238 148.44 517.7 148.776 518.288C149.124 518.876 149.298 519.542 149.298 520.286ZM144.654 522.104C145.35 522.104 145.866 521.948 146.202 521.636C146.538 521.312 146.706 520.862 146.706 520.286C146.706 519.062 146.022 518.45 144.654 518.45H142.656V522.104H144.654ZM153.607 515.642V528.962H151.087V515.642H153.607ZM155.448 523.94C155.448 522.932 155.646 522.038 156.042 521.258C156.45 520.478 156.996 519.878 157.68 519.458C158.376 519.038 159.15 518.828 160.002 518.828C160.746 518.828 161.394 518.978 161.946 519.278C162.51 519.578 162.96 519.956 163.296 520.412V518.99H165.834V528.962H163.296V527.504C162.972 527.972 162.522 528.362 161.946 528.674C161.382 528.974 160.728 529.124 159.984 529.124C159.144 529.124 158.376 528.908 157.68 528.476C156.996 528.044 156.45 527.438 156.042 526.658C155.646 525.866 155.448 524.96 155.448 523.94ZM163.296 523.976C163.296 523.364 163.176 522.842 162.936 522.41C162.696 521.966 162.372 521.63 161.964 521.402C161.556 521.162 161.118 521.042 160.65 521.042C160.182 521.042 159.75 521.156 159.354 521.384C158.958 521.612 158.634 521.948 158.382 522.392C158.142 522.824 158.022 523.34 158.022 523.94C158.022 524.54 158.142 525.068 158.382 525.524C158.634 525.968 158.958 526.31 159.354 526.55C159.762 526.79 160.194 526.91 160.65 526.91C161.118 526.91 161.556 526.796 161.964 526.568C162.372 526.328 162.696 525.992 162.936 525.56C163.176 525.116 163.296 524.588 163.296 523.976ZM173.822 518.846C175.01 518.846 175.97 519.224 176.702 519.98C177.434 520.724 177.8 521.768 177.8 523.112V528.962H175.28V523.454C175.28 522.662 175.082 522.056 174.686 521.636C174.29 521.204 173.75 520.988 173.066 520.988C172.37 520.988 171.818 521.204 171.41 521.636C171.014 522.056 170.816 522.662 170.816 523.454V528.962H168.296V518.99H170.816V520.232C171.152 519.8 171.578 519.464 172.094 519.224C172.622 518.972 173.198 518.846 173.822 518.846ZM184.012 529.124C183.196 529.124 182.464 528.98 181.816 528.692C181.168 528.392 180.652 527.99 180.268 527.486C179.896 526.982 179.692 526.424 179.656 525.812H182.194C182.242 526.196 182.428 526.514 182.752 526.766C183.088 527.018 183.502 527.144 183.994 527.144C184.474 527.144 184.846 527.048 185.11 526.856C185.386 526.664 185.524 526.418 185.524 526.118C185.524 525.794 185.356 525.554 185.02 525.398C184.696 525.23 184.174 525.05 183.454 524.858C182.71 524.678 182.098 524.492 181.618 524.3C181.15 524.108 180.742 523.814 180.394 523.418C180.058 523.022 179.89 522.488 179.89 521.816C179.89 521.264 180.046 520.76 180.358 520.304C180.682 519.848 181.138 519.488 181.726 519.224C182.326 518.96 183.028 518.828 183.832 518.828C185.02 518.828 185.968 519.128 186.676 519.728C187.384 520.316 187.774 521.114 187.846 522.122H185.434C185.398 521.726 185.23 521.414 184.93 521.186C184.642 520.946 184.252 520.826 183.76 520.826C183.304 520.826 182.95 520.91 182.698 521.078C182.458 521.246 182.338 521.48 182.338 521.78C182.338 522.116 182.506 522.374 182.842 522.554C183.178 522.722 183.7 522.896 184.408 523.076C185.128 523.256 185.722 523.442 186.19 523.634C186.658 523.826 187.06 524.126 187.396 524.534C187.744 524.93 187.924 525.458 187.936 526.118C187.936 526.694 187.774 527.21 187.45 527.666C187.138 528.122 186.682 528.482 186.082 528.746C185.494 528.998 184.804 529.124 184.012 529.124Z" fill="#262626"/>
<path d="M971.824 489.324C971.824 489.996 971.662 490.626 971.338 491.214C971.026 491.802 970.528 492.276 969.844 492.636C969.172 492.996 968.32 493.176 967.288 493.176H965.182V498H962.662V485.436H967.288C968.26 485.436 969.088 485.604 969.772 485.94C970.456 486.276 970.966 486.738 971.302 487.326C971.65 487.914 971.824 488.58 971.824 489.324ZM967.18 491.142C967.876 491.142 968.392 490.986 968.728 490.674C969.064 490.35 969.232 489.9 969.232 489.324C969.232 488.1 968.548 487.488 967.18 487.488H965.182V491.142H967.18ZM982.883 492.798C982.883 493.158 982.859 493.482 982.811 493.77H975.521C975.581 494.49 975.833 495.054 976.277 495.462C976.721 495.87 977.267 496.074 977.915 496.074C978.851 496.074 979.517 495.672 979.913 494.868H982.631C982.343 495.828 981.791 496.62 980.975 497.244C980.159 497.856 979.157 498.162 977.969 498.162C977.009 498.162 976.145 497.952 975.377 497.532C974.621 497.1 974.027 496.494 973.595 495.714C973.175 494.934 972.965 494.034 972.965 493.014C972.965 491.982 973.175 491.076 973.595 490.296C974.015 489.516 974.603 488.916 975.359 488.496C976.115 488.076 976.985 487.866 977.969 487.866C978.917 487.866 979.763 488.07 980.507 488.478C981.263 488.886 981.845 489.468 982.253 490.224C982.673 490.968 982.883 491.826 982.883 492.798ZM980.273 492.078C980.261 491.43 980.027 490.914 979.571 490.53C979.115 490.134 978.557 489.936 977.897 489.936C977.273 489.936 976.745 490.128 976.313 490.512C975.893 490.884 975.635 491.406 975.539 492.078H980.273ZM987.242 489.576C987.566 489.048 987.986 488.634 988.502 488.334C989.03 488.034 989.63 487.884 990.302 487.884V490.53H989.636C988.844 490.53 988.244 490.716 987.836 491.088C987.44 491.46 987.242 492.108 987.242 493.032V498H984.722V488.028H987.242V489.576ZM995.816 498.162C995 498.162 994.268 498.018 993.62 497.73C992.972 497.43 992.456 497.028 992.072 496.524C991.7 496.02 991.496 495.462 991.46 494.85H993.998C994.046 495.234 994.232 495.552 994.556 495.804C994.892 496.056 995.306 496.182 995.798 496.182C996.278 496.182 996.65 496.086 996.914 495.894C997.19 495.702 997.328 495.456 997.328 495.156C997.328 494.832 997.16 494.592 996.824 494.436C996.5 494.268 995.978 494.088 995.258 493.896C994.514 493.716 993.902 493.53 993.422 493.338C992.954 493.146 992.546 492.852 992.198 492.456C991.862 492.06 991.694 491.526 991.694 490.854C991.694 490.302 991.85 489.798 992.162 489.342C992.486 488.886 992.942 488.526 993.53 488.262C994.13 487.998 994.832 487.866 995.636 487.866C996.824 487.866 997.772 488.166 998.48 488.766C999.188 489.354 999.578 490.152 999.65 491.16H997.238C997.202 490.764 997.034 490.452 996.734 490.224C996.446 489.984 996.056 489.864 995.564 489.864C995.108 489.864 994.754 489.948 994.502 490.116C994.262 490.284 994.142 490.518 994.142 490.818C994.142 491.154 994.31 491.412 994.646 491.592C994.982 491.76 995.504 491.934 996.212 492.114C996.932 492.294 997.526 492.48 997.994 492.672C998.462 492.864 998.864 493.164 999.2 493.572C999.548 493.968 999.728 494.496 999.74 495.156C999.74 495.732 999.578 496.248 999.254 496.704C998.942 497.16 998.486 497.52 997.886 497.784C997.298 498.036 996.608 498.162 995.816 498.162ZM1006.24 498.162C1005.28 498.162 1004.41 497.952 1003.64 497.532C1002.88 497.1 1002.27 496.494 1001.83 495.714C1001.39 494.934 1001.18 494.034 1001.18 493.014C1001.18 491.994 1001.4 491.094 1001.84 490.314C1002.3 489.534 1002.92 488.934 1003.7 488.514C1004.48 488.082 1005.35 487.866 1006.31 487.866C1007.27 487.866 1008.14 488.082 1008.92 488.514C1009.7 488.934 1010.31 489.534 1010.75 490.314C1011.21 491.094 1011.44 491.994 1011.44 493.014C1011.44 494.034 1011.2 494.934 1010.74 495.714C1010.28 496.494 1009.66 497.1 1008.86 497.532C1008.08 497.952 1007.21 498.162 1006.24 498.162ZM1006.24 495.966C1006.69 495.966 1007.12 495.858 1007.51 495.642C1007.92 495.414 1008.25 495.078 1008.49 494.634C1008.73 494.19 1008.85 493.65 1008.85 493.014C1008.85 492.066 1008.59 491.34 1008.09 490.836C1007.6 490.32 1006.99 490.062 1006.27 490.062C1005.55 490.062 1004.95 490.32 1004.45 490.836C1003.97 491.34 1003.73 492.066 1003.73 493.014C1003.73 493.962 1003.97 494.694 1004.44 495.21C1004.92 495.714 1005.52 495.966 1006.24 495.966ZM1018.81 487.884C1020 487.884 1020.96 488.262 1021.69 489.018C1022.42 489.762 1022.79 490.806 1022.79 492.15V498H1020.27V492.492C1020.27 491.7 1020.07 491.094 1019.68 490.674C1019.28 490.242 1018.74 490.026 1018.06 490.026C1017.36 490.026 1016.81 490.242 1016.4 490.674C1016 491.094 1015.81 491.7 1015.81 492.492V498H1013.29V488.028H1015.81V489.27C1016.14 488.838 1016.57 488.502 1017.08 488.262C1017.61 488.01 1018.19 487.884 1018.81 487.884ZM1024.54 492.978C1024.54 491.97 1024.74 491.076 1025.13 490.296C1025.54 489.516 1026.09 488.916 1026.77 488.496C1027.47 488.076 1028.24 487.866 1029.09 487.866C1029.84 487.866 1030.49 488.016 1031.04 488.316C1031.6 488.616 1032.05 488.994 1032.39 489.45V488.028H1034.93V498H1032.39V496.542C1032.06 497.01 1031.61 497.4 1031.04 497.712C1030.47 498.012 1029.82 498.162 1029.08 498.162C1028.24 498.162 1027.47 497.946 1026.77 497.514C1026.09 497.082 1025.54 496.476 1025.13 495.696C1024.74 494.904 1024.54 493.998 1024.54 492.978ZM1032.39 493.014C1032.39 492.402 1032.27 491.88 1032.03 491.448C1031.79 491.004 1031.46 490.668 1031.06 490.44C1030.65 490.2 1030.21 490.08 1029.74 490.08C1029.27 490.08 1028.84 490.194 1028.45 490.422C1028.05 490.65 1027.73 490.986 1027.47 491.43C1027.23 491.862 1027.11 492.378 1027.11 492.978C1027.11 493.578 1027.23 494.106 1027.47 494.562C1027.73 495.006 1028.05 495.348 1028.45 495.588C1028.85 495.828 1029.29 495.948 1029.74 495.948C1030.21 495.948 1030.65 495.834 1031.06 495.606C1031.46 495.366 1031.79 495.03 1032.03 494.598C1032.27 494.154 1032.39 493.626 1032.39 493.014ZM1039.91 484.68V498H1037.39V484.68H1039.91ZM1043.67 486.84C1043.23 486.84 1042.86 486.702 1042.56 486.426C1042.27 486.138 1042.13 485.784 1042.13 485.364C1042.13 484.944 1042.27 484.596 1042.56 484.32C1042.86 484.032 1043.23 483.888 1043.67 483.888C1044.12 483.888 1044.48 484.032 1044.77 484.32C1045.07 484.596 1045.22 484.944 1045.22 485.364C1045.22 485.784 1045.07 486.138 1044.77 486.426C1044.48 486.702 1044.12 486.84 1043.67 486.84ZM1044.92 488.028V498H1042.4V488.028H1044.92ZM1051.22 498.162C1050.41 498.162 1049.67 498.018 1049.03 497.73C1048.38 497.43 1047.86 497.028 1047.48 496.524C1047.11 496.02 1046.9 495.462 1046.87 494.85H1049.4C1049.45 495.234 1049.64 495.552 1049.96 495.804C1050.3 496.056 1050.71 496.182 1051.2 496.182C1051.68 496.182 1052.06 496.086 1052.32 495.894C1052.6 495.702 1052.73 495.456 1052.73 495.156C1052.73 494.832 1052.57 494.592 1052.23 494.436C1051.91 494.268 1051.38 494.088 1050.66 493.896C1049.92 493.716 1049.31 493.53 1048.83 493.338C1048.36 493.146 1047.95 492.852 1047.6 492.456C1047.27 492.06 1047.1 491.526 1047.1 490.854C1047.1 490.302 1047.26 489.798 1047.57 489.342C1047.89 488.886 1048.35 488.526 1048.94 488.262C1049.54 487.998 1050.24 487.866 1051.04 487.866C1052.23 487.866 1053.18 488.166 1053.89 488.766C1054.59 489.354 1054.98 490.152 1055.06 491.16H1052.64C1052.61 490.764 1052.44 490.452 1052.14 490.224C1051.85 489.984 1051.46 489.864 1050.97 489.864C1050.51 489.864 1050.16 489.948 1049.91 490.116C1049.67 490.284 1049.55 490.518 1049.55 490.818C1049.55 491.154 1049.72 491.412 1050.05 491.592C1050.39 491.76 1050.91 491.934 1051.62 492.114C1052.34 492.294 1052.93 492.48 1053.4 492.672C1053.87 492.864 1054.27 493.164 1054.61 493.572C1054.95 493.968 1055.13 494.496 1055.15 495.156C1055.15 495.732 1054.98 496.248 1054.66 496.704C1054.35 497.16 1053.89 497.52 1053.29 497.784C1052.7 498.036 1052.01 498.162 1051.22 498.162ZM1066.48 492.798C1066.48 493.158 1066.46 493.482 1066.41 493.77H1059.12C1059.18 494.49 1059.43 495.054 1059.88 495.462C1060.32 495.87 1060.87 496.074 1061.52 496.074C1062.45 496.074 1063.12 495.672 1063.51 494.868H1066.23C1065.94 495.828 1065.39 496.62 1064.58 497.244C1063.76 497.856 1062.76 498.162 1061.57 498.162C1060.61 498.162 1059.75 497.952 1058.98 497.532C1058.22 497.1 1057.63 496.494 1057.2 495.714C1056.78 494.934 1056.57 494.034 1056.57 493.014C1056.57 491.982 1056.78 491.076 1057.2 490.296C1057.62 489.516 1058.2 488.916 1058.96 488.496C1059.72 488.076 1060.59 487.866 1061.57 487.866C1062.52 487.866 1063.36 488.07 1064.11 488.478C1064.86 488.886 1065.45 489.468 1065.85 490.224C1066.27 490.968 1066.48 491.826 1066.48 492.798ZM1063.87 492.078C1063.86 491.43 1063.63 490.914 1063.17 490.53C1062.72 490.134 1062.16 489.936 1061.5 489.936C1060.87 489.936 1060.35 490.128 1059.91 490.512C1059.49 490.884 1059.24 491.406 1059.14 492.078H1063.87ZM1067.68 492.978C1067.68 491.97 1067.87 491.076 1068.27 490.296C1068.68 489.516 1069.23 488.916 1069.93 488.496C1070.62 488.076 1071.4 487.866 1072.25 487.866C1072.9 487.866 1073.51 488.01 1074.1 488.298C1074.69 488.574 1075.16 488.946 1075.51 489.414V484.68H1078.06V498H1075.51V496.524C1075.19 497.016 1074.76 497.412 1074.19 497.712C1073.63 498.012 1072.97 498.162 1072.23 498.162C1071.39 498.162 1070.62 497.946 1069.93 497.514C1069.23 497.082 1068.68 496.476 1068.27 495.696C1067.87 494.904 1067.68 493.998 1067.68 492.978ZM1075.52 493.014C1075.52 492.402 1075.4 491.88 1075.16 491.448C1074.92 491.004 1074.6 490.668 1074.19 490.44C1073.78 490.2 1073.35 490.08 1072.88 490.08C1072.41 490.08 1071.98 490.194 1071.58 490.422C1071.19 490.65 1070.86 490.986 1070.61 491.43C1070.37 491.862 1070.25 492.378 1070.25 492.978C1070.25 493.578 1070.37 494.106 1070.61 494.562C1070.86 495.006 1071.19 495.348 1071.58 495.588C1071.99 495.828 1072.42 495.948 1072.88 495.948C1073.35 495.948 1073.78 495.834 1074.19 495.606C1074.6 495.366 1074.92 495.03 1075.16 494.598C1075.4 494.154 1075.52 493.626 1075.52 493.014ZM1094.48 498L1093.11 496.65C1091.95 497.694 1090.52 498.216 1088.84 498.216C1087.92 498.216 1087.1 498.06 1086.4 497.748C1085.7 497.424 1085.16 496.974 1084.78 496.398C1084.39 495.81 1084.2 495.132 1084.2 494.364C1084.2 493.536 1084.43 492.792 1084.9 492.132C1085.37 491.472 1086.06 490.938 1086.97 490.53C1086.65 490.134 1086.41 489.756 1086.27 489.396C1086.13 489.024 1086.05 488.628 1086.05 488.208C1086.05 487.632 1086.2 487.116 1086.5 486.66C1086.8 486.192 1087.23 485.826 1087.78 485.562C1088.35 485.298 1089 485.166 1089.74 485.166C1090.5 485.166 1091.15 485.31 1091.69 485.598C1092.23 485.886 1092.63 486.27 1092.89 486.75C1093.16 487.23 1093.27 487.764 1093.24 488.352H1090.79C1090.8 487.956 1090.7 487.656 1090.5 487.452C1090.3 487.236 1090.02 487.128 1089.67 487.128C1089.34 487.128 1089.05 487.23 1088.83 487.434C1088.61 487.626 1088.5 487.878 1088.5 488.19C1088.5 488.49 1088.59 488.79 1088.77 489.09C1088.95 489.378 1089.25 489.738 1089.65 490.17L1092.82 493.302C1092.85 493.278 1092.86 493.254 1092.88 493.23C1092.89 493.206 1092.9 493.182 1092.91 493.158L1093.94 491.448H1096.57L1095.31 493.662C1095.07 494.13 1094.81 494.574 1094.53 494.994L1097.57 498H1094.48ZM1088.92 496.128C1089.9 496.128 1090.77 495.78 1091.53 495.084L1088.43 492.024C1087.27 492.54 1086.68 493.272 1086.68 494.22C1086.68 494.76 1086.89 495.216 1087.3 495.588C1087.7 495.948 1088.24 496.128 1088.92 496.128ZM957.804 516.216C957.516 515.688 957.12 515.286 956.616 515.01C956.112 514.734 955.524 514.596 954.852 514.596C954.108 514.596 953.448 514.764 952.872 515.1C952.296 515.436 951.846 515.916 951.522 516.54C951.198 517.164 951.036 517.884 951.036 518.7C951.036 519.54 951.198 520.272 951.522 520.896C951.858 521.52 952.32 522 952.908 522.336C953.496 522.672 954.18 522.84 954.96 522.84C955.92 522.84 956.706 522.588 957.318 522.084C957.93 521.568 958.332 520.854 958.524 519.942H954.204V518.016H961.008V520.212C960.84 521.088 960.48 521.898 959.928 522.642C959.376 523.386 958.662 523.986 957.786 524.442C956.922 524.886 955.95 525.108 954.87 525.108C953.658 525.108 952.56 524.838 951.576 524.298C950.604 523.746 949.836 522.984 949.272 522.012C948.72 521.04 948.444 519.936 948.444 518.7C948.444 517.464 948.72 516.36 949.272 515.388C949.836 514.404 950.604 513.642 951.576 513.102C952.56 512.55 953.652 512.274 954.852 512.274C956.268 512.274 957.498 512.622 958.542 513.318C959.586 514.002 960.306 514.968 960.702 516.216H957.804ZM962.225 519.978C962.225 518.97 962.423 518.076 962.819 517.296C963.227 516.516 963.773 515.916 964.457 515.496C965.153 515.076 965.927 514.866 966.779 514.866C967.523 514.866 968.171 515.016 968.723 515.316C969.287 515.616 969.737 515.994 970.073 516.45V515.028H972.611V525H970.073V523.542C969.749 524.01 969.299 524.4 968.723 524.712C968.159 525.012 967.505 525.162 966.761 525.162C965.921 525.162 965.153 524.946 964.457 524.514C963.773 524.082 963.227 523.476 962.819 522.696C962.423 521.904 962.225 520.998 962.225 519.978ZM970.073 520.014C970.073 519.402 969.953 518.88 969.713 518.448C969.473 518.004 969.149 517.668 968.741 517.44C968.333 517.2 967.895 517.08 967.427 517.08C966.959 517.08 966.527 517.194 966.131 517.422C965.735 517.65 965.411 517.986 965.159 518.43C964.919 518.862 964.799 519.378 964.799 519.978C964.799 520.578 964.919 521.106 965.159 521.562C965.411 522.006 965.735 522.348 966.131 522.588C966.539 522.828 966.971 522.948 967.427 522.948C967.895 522.948 968.333 522.834 968.741 522.606C969.149 522.366 969.473 522.03 969.713 521.598C969.953 521.154 970.073 520.626 970.073 520.014ZM987.456 514.884C988.68 514.884 989.664 515.262 990.408 516.018C991.164 516.762 991.542 517.806 991.542 519.15V525H989.022V519.492C989.022 518.712 988.824 518.118 988.428 517.71C988.032 517.29 987.492 517.08 986.808 517.08C986.124 517.08 985.578 517.29 985.17 517.71C984.774 518.118 984.576 518.712 984.576 519.492V525H982.056V519.492C982.056 518.712 981.858 518.118 981.462 517.71C981.066 517.29 980.526 517.08 979.842 517.08C979.146 517.08 978.594 517.29 978.186 517.71C977.79 518.118 977.592 518.712 977.592 519.492V525H975.072V515.028H977.592V516.234C977.916 515.814 978.33 515.484 978.834 515.244C979.35 515.004 979.914 514.884 980.526 514.884C981.306 514.884 982.002 515.052 982.614 515.388C983.226 515.712 983.7 516.18 984.036 516.792C984.36 516.216 984.828 515.754 985.44 515.406C986.064 515.058 986.736 514.884 987.456 514.884ZM995.211 513.84C994.767 513.84 994.395 513.702 994.095 513.426C993.807 513.138 993.663 512.784 993.663 512.364C993.663 511.944 993.807 511.596 994.095 511.32C994.395 511.032 994.767 510.888 995.211 510.888C995.655 510.888 996.021 511.032 996.309 511.32C996.609 511.596 996.759 511.944 996.759 512.364C996.759 512.784 996.609 513.138 996.309 513.426C996.021 513.702 995.655 513.84 995.211 513.84ZM996.453 515.028V525H993.933V515.028H996.453ZM1003.52 517.098H1001.77V525H999.213V517.098H998.079V515.028H999.213V514.524C999.213 513.3 999.561 512.4 1000.26 511.824C1000.95 511.248 1002 510.978 1003.41 511.014V513.138C1002.8 513.126 1002.37 513.228 1002.13 513.444C1001.89 513.66 1001.77 514.05 1001.77 514.614V515.028H1003.52V517.098ZM1006.43 513.84C1005.98 513.84 1005.61 513.702 1005.31 513.426C1005.02 513.138 1004.88 512.784 1004.88 512.364C1004.88 511.944 1005.02 511.596 1005.31 511.32C1005.61 511.032 1005.98 510.888 1006.43 510.888C1006.87 510.888 1007.24 511.032 1007.52 511.32C1007.82 511.596 1007.97 511.944 1007.97 512.364C1007.97 512.784 1007.82 513.138 1007.52 513.426C1007.24 513.702 1006.87 513.84 1006.43 513.84ZM1007.67 515.028V525H1005.15V515.028H1007.67ZM1019.43 519.798C1019.43 520.158 1019.4 520.482 1019.36 520.77H1012.07C1012.13 521.49 1012.38 522.054 1012.82 522.462C1013.27 522.87 1013.81 523.074 1014.46 523.074C1015.4 523.074 1016.06 522.672 1016.46 521.868H1019.18C1018.89 522.828 1018.34 523.62 1017.52 524.244C1016.7 524.856 1015.7 525.162 1014.51 525.162C1013.55 525.162 1012.69 524.952 1011.92 524.532C1011.17 524.1 1010.57 523.494 1010.14 522.714C1009.72 521.934 1009.51 521.034 1009.51 520.014C1009.51 518.982 1009.72 518.076 1010.14 517.296C1010.56 516.516 1011.15 515.916 1011.9 515.496C1012.66 515.076 1013.53 514.866 1014.51 514.866C1015.46 514.866 1016.31 515.07 1017.05 515.478C1017.81 515.886 1018.39 516.468 1018.8 517.224C1019.22 517.968 1019.43 518.826 1019.43 519.798ZM1016.82 519.078C1016.81 518.43 1016.57 517.914 1016.12 517.53C1015.66 517.134 1015.1 516.936 1014.44 516.936C1013.82 516.936 1013.29 517.128 1012.86 517.512C1012.44 517.884 1012.18 518.406 1012.08 519.078H1016.82ZM1020.62 519.978C1020.62 518.97 1020.82 518.076 1021.21 517.296C1021.62 516.516 1022.17 515.916 1022.87 515.496C1023.57 515.076 1024.34 514.866 1025.19 514.866C1025.84 514.866 1026.46 515.01 1027.05 515.298C1027.63 515.574 1028.1 515.946 1028.45 516.414V511.68H1031.01V525H1028.45V523.524C1028.14 524.016 1027.7 524.412 1027.14 524.712C1026.57 525.012 1025.92 525.162 1025.17 525.162C1024.33 525.162 1023.57 524.946 1022.87 524.514C1022.17 524.082 1021.62 523.476 1021.21 522.696C1020.82 521.904 1020.62 520.998 1020.62 519.978ZM1028.47 520.014C1028.47 519.402 1028.35 518.88 1028.11 518.448C1027.87 518.004 1027.54 517.668 1027.14 517.44C1026.73 517.2 1026.29 517.08 1025.82 517.08C1025.35 517.08 1024.92 517.194 1024.53 517.422C1024.13 517.65 1023.81 517.986 1023.55 518.43C1023.31 518.862 1023.19 519.378 1023.19 519.978C1023.19 520.578 1023.31 521.106 1023.55 521.562C1023.81 522.006 1024.13 522.348 1024.53 522.588C1024.93 522.828 1025.37 522.948 1025.82 522.948C1026.29 522.948 1026.73 522.834 1027.14 522.606C1027.54 522.366 1027.87 522.03 1028.11 521.598C1028.35 521.154 1028.47 520.626 1028.47 520.014ZM1046.92 516.324C1046.92 516.996 1046.76 517.626 1046.43 518.214C1046.12 518.802 1045.62 519.276 1044.94 519.636C1044.27 519.996 1043.41 520.176 1042.38 520.176H1040.28V525H1037.76V512.436H1042.38C1043.35 512.436 1044.18 512.604 1044.87 512.94C1045.55 513.276 1046.06 513.738 1046.4 514.326C1046.74 514.914 1046.92 515.58 1046.92 516.324ZM1042.27 518.142C1042.97 518.142 1043.49 517.986 1043.82 517.674C1044.16 517.35 1044.33 516.9 1044.33 516.324C1044.33 515.1 1043.64 514.488 1042.27 514.488H1040.28V518.142H1042.27ZM1051.23 511.68V525H1048.71V511.68H1051.23ZM1053.07 519.978C1053.07 518.97 1053.27 518.076 1053.66 517.296C1054.07 516.516 1054.62 515.916 1055.3 515.496C1056 515.076 1056.77 514.866 1057.62 514.866C1058.37 514.866 1059.01 515.016 1059.57 515.316C1060.13 515.616 1060.58 515.994 1060.92 516.45V515.028H1063.45V525H1060.92V523.542C1060.59 524.01 1060.14 524.4 1059.57 524.712C1059 525.012 1058.35 525.162 1057.6 525.162C1056.76 525.162 1056 524.946 1055.3 524.514C1054.62 524.082 1054.07 523.476 1053.66 522.696C1053.27 521.904 1053.07 520.998 1053.07 519.978ZM1060.92 520.014C1060.92 519.402 1060.8 518.88 1060.56 518.448C1060.32 518.004 1059.99 517.668 1059.58 517.44C1059.18 517.2 1058.74 517.08 1058.27 517.08C1057.8 517.08 1057.37 517.194 1056.97 517.422C1056.58 517.65 1056.25 517.986 1056 518.43C1055.76 518.862 1055.64 519.378 1055.64 519.978C1055.64 520.578 1055.76 521.106 1056 521.562C1056.25 522.006 1056.58 522.348 1056.97 522.588C1057.38 522.828 1057.81 522.948 1058.27 522.948C1058.74 522.948 1059.18 522.834 1059.58 522.606C1059.99 522.366 1060.32 522.03 1060.56 521.598C1060.8 521.154 1060.92 520.626 1060.92 520.014ZM1068.85 517.098V521.922C1068.85 522.258 1068.93 522.504 1069.08 522.66C1069.25 522.804 1069.53 522.876 1069.91 522.876H1071.08V525H1069.5C1067.37 525 1066.31 523.968 1066.31 521.904V517.098H1065.12V515.028H1066.31V512.562H1068.85V515.028H1071.08V517.098H1068.85ZM1077.47 517.098H1075.72V525H1073.16V517.098H1072.03V515.028H1073.16V514.524C1073.16 513.3 1073.51 512.4 1074.21 511.824C1074.9 511.248 1075.95 510.978 1077.36 511.014V513.138C1076.75 513.126 1076.32 513.228 1076.08 513.444C1075.84 513.66 1075.72 514.05 1075.72 514.614V515.028H1077.47V517.098ZM1083.53 525.162C1082.57 525.162 1081.7 524.952 1080.94 524.532C1080.17 524.1 1079.56 523.494 1079.12 522.714C1078.69 521.934 1078.47 521.034 1078.47 520.014C1078.47 518.994 1078.69 518.094 1079.14 517.314C1079.59 516.534 1080.21 515.934 1080.99 515.514C1081.77 515.082 1082.64 514.866 1083.6 514.866C1084.56 514.866 1085.43 515.082 1086.21 515.514C1086.99 515.934 1087.6 516.534 1088.05 517.314C1088.5 518.094 1088.73 518.994 1088.73 520.014C1088.73 521.034 1088.5 521.934 1088.03 522.714C1087.57 523.494 1086.95 524.1 1086.16 524.532C1085.38 524.952 1084.5 525.162 1083.53 525.162ZM1083.53 522.966C1083.98 522.966 1084.41 522.858 1084.81 522.642C1085.21 522.414 1085.54 522.078 1085.78 521.634C1086.02 521.19 1086.14 520.65 1086.14 520.014C1086.14 519.066 1085.89 518.34 1085.38 517.836C1084.89 517.32 1084.28 517.062 1083.56 517.062C1082.84 517.062 1082.24 517.32 1081.75 517.836C1081.27 518.34 1081.03 519.066 1081.03 520.014C1081.03 520.962 1081.26 521.694 1081.73 522.21C1082.21 522.714 1082.81 522.966 1083.53 522.966ZM1093.1 516.576C1093.42 516.048 1093.84 515.634 1094.36 515.334C1094.89 515.034 1095.49 514.884 1096.16 514.884V517.53H1095.49C1094.7 517.53 1094.1 517.716 1093.69 518.088C1093.3 518.46 1093.1 519.108 1093.1 520.032V525H1090.58V515.028H1093.1V516.576ZM1110.24 514.884C1111.46 514.884 1112.45 515.262 1113.19 516.018C1113.95 516.762 1114.33 517.806 1114.33 519.15V525H1111.81V519.492C1111.81 518.712 1111.61 518.118 1111.21 517.71C1110.82 517.29 1110.28 517.08 1109.59 517.08C1108.91 517.08 1108.36 517.29 1107.95 517.71C1107.56 518.118 1107.36 518.712 1107.36 519.492V525H1104.84V519.492C1104.84 518.712 1104.64 518.118 1104.25 517.71C1103.85 517.29 1103.31 517.08 1102.63 517.08C1101.93 517.08 1101.38 517.29 1100.97 517.71C1100.57 518.118 1100.38 518.712 1100.38 519.492V525H1097.86V515.028H1100.38V516.234C1100.7 515.814 1101.11 515.484 1101.62 515.244C1102.13 515.004 1102.7 514.884 1103.31 514.884C1104.09 514.884 1104.79 515.052 1105.4 515.388C1106.01 515.712 1106.48 516.18 1106.82 516.792C1107.14 516.216 1107.61 515.754 1108.22 515.406C1108.85 515.058 1109.52 514.884 1110.24 514.884Z" fill="#262626"/>
<defs>
<filter id="filter0_d" x="476.223" y="30.8926" width="205.554" height="205.554" filterUnits="userSpaceOnUse" color-interpolation-filters="sRGB">
<feFlood flood-opacity="0" result="BackgroundImageFix"/>
<feColorMatrix in="SourceAlpha" type="matrix" values="0 0 0 0 0 0 0 0 0 0 0 0 0 0 0 0 0 0 127 0" result="hardAlpha"/>
<feOffset dy="5.94088"/>
<feGaussianBlur stdDeviation="2.97044"/>
<feComposite in2="hardAlpha" operator="out"/>
<feColorMatrix type="matrix" values="0 0 0 0 0 0 0 0 0 0 0 0 0 0 0 0 0 0 0.1 0"/>
<feBlend mode="normal" in2="BackgroundImageFix" result="effect1_dropShadow"/>
<feBlend mode="normal" in="SourceGraphic" in2="effect1_dropShadow" result="shape"/>
</filter>
<filter id="filter1_d" x="24.9517" y="411.266" width="205.554" height="205.554" filterUnits="userSpaceOnUse" color-interpolation-filters="sRGB">
<feFlood flood-opacity="0" result="BackgroundImageFix"/>
<feColorMatrix in="SourceAlpha" type="matrix" values="0 0 0 0 0 0 0 0 0 0 0 0 0 0 0 0 0 0 127 0" result="hardAlpha"/>
<feOffset dy="5.94088"/>
<feGaussianBlur stdDeviation="2.97044"/>
<feComposite in2="hardAlpha" operator="out"/>
<feColorMatrix type="matrix" values="0 0 0 0 0 0 0 0 0 0 0 0 0 0 0 0 0 0 0.1 0"/>
<feBlend mode="normal" in2="BackgroundImageFix" result="effect1_dropShadow"/>
<feBlend mode="normal" in="SourceGraphic" in2="effect1_dropShadow" result="shape"/>
</filter>
<filter id="filter2_d" x="476.223" y="411.266" width="205.554" height="205.554" filterUnits="userSpaceOnUse" color-interpolation-filters="sRGB">
<feFlood flood-opacity="0" result="BackgroundImageFix"/>
<feColorMatrix in="SourceAlpha" type="matrix" values="0 0 0 0 0 0 0 0 0 0 0 0 0 0 0 0 0 0 127 0" result="hardAlpha"/>
<feOffset dy="5.94088"/>
<feGaussianBlur stdDeviation="2.97044"/>
<feComposite in2="hardAlpha" operator="out"/>
<feColorMatrix type="matrix" values="0 0 0 0 0 0 0 0 0 0 0 0 0 0 0 0 0 0 0.1 0"/>
<feBlend mode="normal" in2="BackgroundImageFix" result="effect1_dropShadow"/>
<feBlend mode="normal" in="SourceGraphic" in2="effect1_dropShadow" result="shape"/>
</filter>
<filter id="filter3_d" x="927.494" y="411.266" width="205.554" height="205.554" filterUnits="userSpaceOnUse" color-interpolation-filters="sRGB">
<feFlood flood-opacity="0" result="BackgroundImageFix"/>
<feColorMatrix in="SourceAlpha" type="matrix" values="0 0 0 0 0 0 0 0 0 0 0 0 0 0 0 0 0 0 127 0" result="hardAlpha"/>
<feOffset dy="5.94088"/>
<feGaussianBlur stdDeviation="2.97044"/>
<feComposite in2="hardAlpha" operator="out"/>
<feColorMatrix type="matrix" values="0 0 0 0 0 0 0 0 0 0 0 0 0 0 0 0 0 0 0.1 0"/>
<feBlend mode="normal" in2="BackgroundImageFix" result="effect1_dropShadow"/>
<feBlend mode="normal" in="SourceGraphic" in2="effect1_dropShadow" result="shape"/>
</filter>
</defs>
</svg>
