<svg width="76" height="68" viewBox="0 0 76 68" fill="none" xmlns="http://www.w3.org/2000/svg">
<path d="M28.6823 0H4.44778C3.57132 0 2.73075 0.348174 2.11099 0.967928C1.49124 1.58768 1.14307 2.42825 1.14307 3.30471L1.14307 27.5393C1.14307 28.4157 1.49124 29.2563 2.11099 29.8761C2.73075 30.4958 3.57132 30.844 4.44778 30.844H13.8972V20.3577H9.55976V15.422H13.8972V11.6601C13.8972 7.38122 16.4446 5.01766 20.3462 5.01766C22.2147 5.01766 24.1687 5.35088 24.1687 5.35088V9.55062H22.0158C19.8946 9.55062 19.2329 10.867 19.2329 12.2171V15.422H23.9683L23.211 20.3577H19.2329V30.844H28.6823C29.5588 30.844 30.3994 30.4958 31.0191 29.8761C31.6389 29.2563 31.9871 28.4157 31.9871 27.5393V3.30471C31.9871 2.42825 31.6389 1.58768 31.0191 0.967928C30.3994 0.348174 29.5588 0 28.6823 0Z" fill="#262626"/>
<path d="M60.5814 7.51399C56.2051 7.51399 52.6752 11.0447 52.6752 15.422C52.6752 19.7993 56.2051 23.33 60.5814 23.33C64.9577 23.33 68.4877 19.7993 68.4877 15.422C68.4877 11.0447 64.9577 7.51399 60.5814 7.51399ZM60.5814 20.5632C57.7534 20.5632 55.4413 18.2576 55.4413 15.422C55.4413 12.5864 57.7465 10.2808 60.5814 10.2808C63.4164 10.2808 65.7215 12.5864 65.7215 15.422C65.7215 18.2576 63.4095 20.5632 60.5814 20.5632ZM70.6552 7.19051C70.6552 8.216 69.8295 9.03502 68.8111 9.03502C67.7858 9.03502 66.967 8.20912 66.967 7.19051C66.967 6.1719 67.7927 5.34599 68.8111 5.34599C69.8295 5.34599 70.6552 6.1719 70.6552 7.19051ZM75.8916 9.06255C75.7746 6.59173 75.2104 4.40309 73.4007 2.59987C71.5979 0.796651 69.4097 0.232285 66.9395 0.1084C64.3935 -0.0361332 56.7625 -0.0361332 54.2165 0.1084C51.7531 0.225402 49.565 0.789769 47.7553 2.59299C45.9456 4.39621 45.3882 6.58485 45.2644 9.05567C45.1199 11.6022 45.1199 19.2349 45.2644 21.7814C45.3814 24.2523 45.9456 26.4409 47.7553 28.2441C49.565 30.0473 51.7463 30.6117 54.2165 30.7356C56.7625 30.8801 64.3935 30.8801 66.9395 30.7356C69.4097 30.6186 71.5979 30.0542 73.4007 28.2441C75.2035 26.4409 75.7678 24.2523 75.8916 21.7814C76.0361 19.2349 76.0361 11.6091 75.8916 9.06255ZM72.6025 24.5138C72.0658 25.8628 71.0268 26.902 69.6712 27.4458C67.6413 28.251 62.8246 28.0652 60.5814 28.0652C58.3382 28.0652 53.5147 28.2441 51.4917 27.4458C50.143 26.9089 49.104 25.8697 48.5604 24.5138C47.7553 22.4835 47.9411 17.6657 47.9411 15.422C47.9411 13.1783 47.7622 8.35365 48.5604 6.33019C49.0971 4.98122 50.1361 3.94196 51.4917 3.39824C53.5216 2.59299 58.3382 2.77882 60.5814 2.77882C62.8246 2.77882 67.6482 2.59987 69.6712 3.39824C71.0199 3.93508 72.0589 4.97434 72.6025 6.33019C73.4076 8.36054 73.2218 13.1783 73.2218 15.422C73.2218 17.6657 73.4076 22.4903 72.6025 24.5138Z" fill="#262626"/>
<path d="M27.6736 48.496C27.6931 48.768 27.6931 49.0401 27.6931 49.3122C27.6931 57.61 21.3326 67.1711 9.70728 67.1711C6.12575 67.1711 2.79868 66.1411 0 64.3533C0.508868 64.4116 0.998096 64.431 1.52654 64.431C4.48173 64.431 7.20216 63.44 9.37456 61.7493C6.59546 61.691 4.26649 59.8837 3.46406 57.3963C3.85551 57.4545 4.24691 57.4934 4.65794 57.4934C5.22549 57.4934 5.79309 57.4157 6.32148 57.2797C3.42496 56.6967 1.2525 54.1704 1.2525 51.1194V51.0417C2.09403 51.5081 3.07266 51.7996 4.10986 51.8384C2.40717 50.7113 1.29166 48.7875 1.29166 46.6109C1.29166 45.445 1.60474 44.3762 2.15276 43.4434C5.26458 47.2522 9.94211 49.7396 15.1871 50.0117C15.0893 49.5453 15.0305 49.0596 15.0305 48.5737C15.0305 45.1146 17.8488 42.2969 21.352 42.2969C23.1721 42.2969 24.8161 43.0548 25.9708 44.279C27.3995 44.007 28.7694 43.4823 29.9829 42.7633C29.5131 44.2208 28.515 45.4451 27.2038 46.2223C28.4759 46.0864 29.7089 45.7365 30.844 45.2507C29.983 46.4944 28.9065 47.602 27.6736 48.496Z" fill="#262626"/>
<path d="M74.2122 45.6268C73.8574 44.3161 72.8123 43.2838 71.4852 42.9335C69.0799 42.2969 59.4347 42.2969 59.4347 42.2969C59.4347 42.2969 49.7896 42.2969 47.3841 42.9335C46.0571 43.2838 45.0119 44.3161 44.6572 45.6268C44.0127 48.0027 44.0127 52.9596 44.0127 52.9596C44.0127 52.9596 44.0127 57.9165 44.6572 60.2923C45.0119 61.603 46.0571 62.5923 47.3841 62.9426C49.7896 63.5792 59.4347 63.5792 59.4347 63.5792C59.4347 63.5792 69.0798 63.5792 71.4852 62.9426C72.8123 62.5923 73.8574 61.603 74.2122 60.2923C74.8567 57.9165 74.8567 52.9596 74.8567 52.9596C74.8567 52.9596 74.8567 48.0027 74.2122 45.6268ZM56.2802 57.4601V48.4591L64.3416 52.9597L56.2802 57.4601Z" fill="#262626"/>
</svg>
