<svg width="47" height="47" viewBox="0 0 47 47" fill="none" xmlns="http://www.w3.org/2000/svg">
<path d="M24.6985 18.7765C24.6985 14.899 21.526 11.7265 17.6485 11.7265C13.771 11.7265 10.5985 14.899 10.5985 18.7765C10.5985 22.654 13.771 25.8265 17.6485 25.8265C21.526 25.8265 24.6985 22.654 24.6985 18.7765ZM17.6485 21.1265C16.356 21.1265 15.2985 20.069 15.2985 18.7765C15.2985 17.484 16.356 16.4265 17.6485 16.4265C18.941 16.4265 19.9985 17.484 19.9985 18.7765C19.9985 20.069 18.941 21.1265 17.6485 21.1265ZM32.9235 25.8265C35.532 25.8265 37.6235 23.735 37.6235 21.1265C37.6235 18.518 35.532 16.4265 32.9235 16.4265C30.315 16.4265 28.2 18.518 28.2235 21.1265C28.2235 23.735 30.315 25.8265 32.9235 25.8265ZM23.5 0C10.528 0 0 10.528 0 23.5C0 36.472 10.528 47 23.5 47C36.472 47 47 36.472 47 23.5C47 10.528 36.472 0 23.5 0ZM9.0475 35.5085C10.6455 34.2395 14.382 32.9 17.6485 32.9C17.813 32.9 18.001 32.9235 18.189 32.9235C18.753 31.4195 19.7635 29.892 21.244 28.5525C19.928 28.3175 18.6825 28.1765 17.6485 28.1765C14.5935 28.1765 9.682 29.234 6.533 31.537C5.358 29.093 4.7 26.367 4.7 23.4765C4.7 13.113 13.1365 4.6765 23.5 4.6765C33.8635 4.6765 42.3 13.113 42.3 23.4765C42.3 26.2965 41.6655 28.9755 40.5375 31.396C38.1875 30.0095 34.9915 29.3515 32.9235 29.3515C29.3515 29.3515 22.3485 31.255 22.3485 35.6965V42.2295C17.014 41.924 12.267 39.386 9.0475 35.5085Z" fill="#262626"/>
</svg>
