<svg width="217" height="307" viewBox="0 0 217 307" fill="none" xmlns="http://www.w3.org/2000/svg">
<path d="M100.581 203.979C100.581 203.979 97.4703 279.179 102.914 294.289C108.358 309.398 127.413 307.193 127.413 307.193C127.413 307.193 183.409 306.086 191.963 289.497C191.963 289.497 181.464 217.267 172.52 197.711C163.577 178.155 105.247 191.443 105.247 191.443L100.581 203.979Z" fill="#62658E"/>
<path d="M206.245 196.356L177.17 215.912C177.059 215.987 176.97 216.09 176.911 216.21C176.851 216.329 176.824 216.462 176.831 216.596L178.624 238.303C178.643 238.445 178.699 238.58 178.787 238.693C178.875 238.807 178.991 238.895 179.124 238.95C179.257 239.004 179.402 239.023 179.544 239.003C179.686 238.984 179.821 238.927 179.934 238.839L207.221 217.869C207.312 217.8 207.387 217.71 207.438 217.607C207.489 217.504 207.516 217.39 207.516 217.275V196.977C207.509 196.833 207.463 196.693 207.384 196.573C207.304 196.452 207.194 196.355 207.064 196.292C206.934 196.229 206.79 196.201 206.646 196.212C206.501 196.223 206.363 196.273 206.245 196.356Z" fill="#FAF6F3"/>
<path d="M53.1389 116.616C53.1389 116.616 46.9171 112.558 47.306 106.294C47.6948 100.031 49.6391 97.8133 44.9728 92.6524C40.3065 87.4915 38.751 86.3887 36.029 84.5441C33.307 82.6995 29.4184 84.1558 32.1404 87.1265C33.857 89.0632 35.178 91.3163 36.029 93.7592C36.029 93.7592 15.8082 84.913 6.47557 86.3809C-2.85709 87.8488 -0.135062 90.4351 2.58696 92.2796C5.30899 94.1242 21.2523 103.335 25.5298 104.442C29.395 105.44 50.4168 129.509 50.4168 129.509L53.1389 116.616Z" fill="#FCC198"/>
<path d="M186.129 188.127L187.296 195.866C187.296 195.866 182.629 212.456 186.518 210.234C186.518 210.234 188.074 209.128 188.074 207.652C188.074 207.652 188.074 228.296 193.129 223.135C198.184 217.974 200.128 207.283 200.128 205.807C200.128 204.332 198.962 195.49 196.628 192.169C194.295 188.849 193.906 183.692 193.906 183.692L186.129 188.127Z" fill="#FCC198"/>
<path d="M156.576 36.9932C156.576 36.9932 163.575 39.9406 163.187 46.946C162.798 53.9515 165.52 59.8464 152.298 59.8464C139.077 59.8464 139.077 47.0548 139.077 47.0548L145.688 37.7349L156.576 36.9932Z" fill="#804642"/>
<path d="M155.247 33.9834C155.247 33.9834 156.576 34.4106 156.576 36.993C156.576 39.5753 149.188 49.5243 141.8 46.9458C134.411 44.3673 145.688 37.7308 145.688 37.7308L155.247 33.9834Z" fill="#262626"/>
<path d="M105.813 60.852L109.134 70.5369L110.301 44.3635L105.813 60.852Z" fill="#804642"/>
<path d="M101.941 16.9009C101.941 16.9009 94.9412 39.7579 103.496 57.4502C112.051 75.1425 138.883 50.4603 138.883 50.4603V18.7454L119.051 11.7555L101.941 16.9009Z" fill="#FCC198"/>
<path d="M120.801 58.0054C120.801 58.0054 123.134 70.9057 122.745 75.6977C122.356 80.4897 130.522 75.6977 130.522 75.6977L136.355 70.1679L132.855 48.7865L120.801 58.0054Z" fill="#FCC198"/>
<path d="M99.4141 24.8268C99.4141 24.8268 94.3589 -2.08059 120.801 0.129001C147.244 2.3386 149.188 10.8197 150.744 14.136C152.299 17.4524 160.854 31.0944 152.299 40.3095C143.744 49.5245 135.967 39.9211 135.967 39.9211L124.69 22.2288L101.673 17.864L99.4141 24.8268Z" fill="#804642"/>
<path d="M99.9767 13.1342C99.9767 13.1342 97.8574 25.1957 114.19 25.5607C130.522 25.9257 133.244 28.877 133.244 28.877L131.688 15.7321L99.9767 13.1342Z" fill="#804642"/>
<path d="M134.605 36.0687C134.994 37.1755 137.327 64.8245 136.161 72.9328C134.994 81.0412 141.994 58.5647 142.772 41.9675C143.549 25.3702 134.605 36.0687 134.605 36.0687Z" fill="#804642"/>
<path d="M121.968 70.1679C121.968 70.1679 133.245 69.7563 136.356 67.0146C136.356 67.0146 143.744 79.7519 146.466 81.2275C149.189 82.7032 142.578 130.623 142.578 130.623L142.967 201.027C142.967 201.027 111.469 202.134 107.969 191.812C104.47 181.49 102.914 105.556 102.914 105.556L110.302 88.598C110.302 88.598 123.135 72.3814 121.968 70.1679Z" fill="#FAF6F3"/>
<path d="M144.133 77.1736L153.077 84.5518L171.353 97.4522C171.353 97.4522 174.464 100.403 181.463 114.41C188.463 128.418 199.351 185.925 199.351 185.925C199.351 185.925 195.074 193.304 181.852 189.242C181.852 189.242 164.354 131.738 162.02 129.524C162.02 129.524 159.298 146.848 164.354 164.544C169.409 182.24 178.353 202.88 178.353 202.88C178.353 202.88 165.52 211.726 144.133 205.827C144.133 205.827 139.078 203.249 137.911 194.771C136.744 186.294 134.022 133.21 134.022 133.21C134.022 133.21 134.8 112.566 136.356 109.987C137.911 107.409 146.466 81.251 146.466 81.251L144.133 77.1736Z" fill="#BC977D"/>
<path d="M110.302 86.3884L100.581 94.1278L95.1367 105.556L81.5266 134.293L53.1397 112.911L44.9736 129.501C44.9736 129.501 86.1929 161.938 87.7483 159.359C89.3038 156.781 95.1367 144.991 95.1367 144.991C95.1367 144.991 102.136 167.107 99.803 181.106C97.4699 195.105 95.9144 201.012 95.9144 201.012C95.9144 201.012 95.1367 203.225 98.2476 204.332C101.358 205.439 113.413 204.332 117.302 202.456L114.58 111.04L110.302 86.3884Z" fill="#BC977D"/>
<rect x="18" y="234" width="199" height="73" fill="white"/>
</svg>
