<svg width="773" height="276" viewBox="0 0 773 276" fill="none" xmlns="http://www.w3.org/2000/svg">
<rect x="40.0273" y="73.7695" width="171.334" height="30.9353" fill="#36C4E8"/>
<rect x="208.98" y="73.7695" width="171.334" height="30.9353" fill="#209CE2"/>
<rect x="513.574" y="73.7695" width="235.584" height="30.9353" fill="#0A73DC"/>
<path d="M195.516 30H191.668L182.957 16.837V30H179.11V10.7914H182.957L191.668 23.9819V10.7914H195.516V30ZM206.078 30.2473C204.612 30.2473 203.293 29.9267 202.12 29.2855C200.948 28.626 200.023 27.7008 199.345 26.51C198.685 25.3192 198.356 23.9452 198.356 22.388C198.356 20.8308 198.695 19.4568 199.372 18.266C200.069 17.0752 201.012 16.1592 202.203 15.518C203.394 14.8585 204.722 14.5287 206.188 14.5287C207.653 14.5287 208.981 14.8585 210.172 15.518C211.363 16.1592 212.297 17.0752 212.975 18.266C213.671 19.4568 214.019 20.8308 214.019 22.388C214.019 23.9452 213.662 25.3192 212.948 26.51C212.251 27.7008 211.299 28.626 210.09 29.2855C208.899 29.9267 207.562 30.2473 206.078 30.2473ZM206.078 26.8947C206.774 26.8947 207.424 26.7299 208.029 26.4001C208.652 26.052 209.146 25.5391 209.513 24.8612C209.879 24.1834 210.062 23.359 210.062 22.388C210.062 20.9407 209.678 19.8324 208.908 19.0629C208.157 18.2752 207.232 17.8813 206.133 17.8813C205.033 17.8813 204.108 18.2752 203.357 19.0629C202.624 19.8324 202.258 20.9407 202.258 22.388C202.258 23.8353 202.615 24.9528 203.33 25.7406C204.062 26.51 204.978 26.8947 206.078 26.8947ZM237.946 14.776L233.494 30H229.345L226.569 19.3652L223.794 30H219.617L215.138 14.776H219.04L221.733 26.3726L224.646 14.776H228.713L231.571 26.3451L234.264 14.776H237.946Z" fill="#585858"/>
<path d="M610.601 10.8189V13.9241H602.605V18.8431H608.733V21.8934H602.605V30H598.757V10.8189H610.601ZM627.702 14.776V30H623.827V28.0764C623.332 28.7359 622.682 29.258 621.876 29.6428C621.088 30.0092 620.227 30.1924 619.293 30.1924C618.102 30.1924 617.048 29.945 616.132 29.4504C615.216 28.9374 614.493 28.1955 613.961 27.2245C613.448 26.2352 613.192 25.0627 613.192 23.7071V14.776H617.039V23.1575C617.039 24.3666 617.342 25.3009 617.946 25.9604C618.551 26.6016 619.375 26.9222 620.419 26.9222C621.482 26.9222 622.315 26.6016 622.92 25.9604C623.525 25.3009 623.827 24.3666 623.827 23.1575V14.776H627.702ZM635.977 17.9362V25.3009C635.977 25.8139 636.096 26.1894 636.334 26.4276C636.59 26.6474 637.012 26.7573 637.598 26.7573H639.384V30H636.966C633.723 30 632.102 28.4245 632.102 25.2734V17.9362H630.288V14.776H632.102V11.0113H635.977V14.776H639.384V17.9362H635.977ZM656.523 14.776V30H652.649V28.0764C652.154 28.7359 651.504 29.258 650.698 29.6428C649.91 30.0092 649.049 30.1924 648.114 30.1924C646.924 30.1924 645.87 29.945 644.954 29.4504C644.038 28.9374 643.315 28.1955 642.783 27.2245C642.27 26.2352 642.014 25.0627 642.014 23.7071V14.776H645.861V23.1575C645.861 24.3666 646.163 25.3009 646.768 25.9604C647.373 26.6016 648.197 26.9222 649.241 26.9222C650.304 26.9222 651.137 26.6016 651.742 25.9604C652.346 25.3009 652.649 24.3666 652.649 23.1575V14.776H656.523ZM664.167 17.1393C664.661 16.3332 665.302 15.7012 666.09 15.2432C666.896 14.7852 667.812 14.5562 668.838 14.5562V18.5958H667.821C666.612 18.5958 665.696 18.8797 665.073 19.4476C664.469 20.0156 664.167 21.0049 664.167 22.4155V30H660.319V14.776H664.167V17.1393ZM685.582 22.0583C685.582 22.6079 685.545 23.1025 685.472 23.5422H674.342C674.434 24.6414 674.819 25.5024 675.496 26.1253C676.174 26.7482 677.008 27.0596 677.997 27.0596C679.426 27.0596 680.443 26.4459 681.047 25.2185H685.197C684.757 26.6841 683.915 27.8932 682.669 28.8458C681.423 29.7802 679.893 30.2473 678.08 30.2473C676.614 30.2473 675.295 29.9267 674.122 29.2855C672.968 28.626 672.061 27.7008 671.402 26.51C670.761 25.3192 670.44 23.9452 670.44 22.388C670.44 20.8125 670.761 19.4293 671.402 18.2385C672.043 17.0477 672.941 16.1317 674.095 15.4905C675.249 14.8493 676.577 14.5287 678.08 14.5287C679.527 14.5287 680.818 14.8401 681.954 15.463C683.108 16.0859 683.997 16.9744 684.62 18.1286C685.261 19.2644 685.582 20.5743 685.582 22.0583ZM681.597 20.959C681.579 19.9698 681.221 19.182 680.525 18.5958C679.829 17.9912 678.977 17.6889 677.97 17.6889C677.017 17.6889 676.211 17.982 675.551 18.5683C674.91 19.1362 674.516 19.9331 674.37 20.959H681.597Z" fill="#585858"/>
<path d="M0.3125 59.8672H396.811V121.697H174.026V174.695" stroke="#36C4E8" stroke-width="5.88859"/>
<path d="M51.524 208.135V211.241H46.4127V227.316H42.5655V211.241H37.4542V208.135H51.524ZM68.4833 219.375C68.4833 219.924 68.4467 220.419 68.3734 220.859H57.244C57.3356 221.958 57.7203 222.819 58.3981 223.442C59.076 224.065 59.9096 224.376 60.8988 224.376C62.3278 224.376 63.3446 223.762 63.9491 222.535H68.0986C67.6589 224 66.8162 225.21 65.5705 226.162C64.3247 227.097 62.795 227.564 60.9813 227.564C59.5157 227.564 58.1966 227.243 57.0241 226.602C55.87 225.942 54.9631 225.017 54.3036 223.826C53.6624 222.636 53.3418 221.262 53.3418 219.704C53.3418 218.129 53.6624 216.746 54.3036 215.555C54.9448 214.364 55.8425 213.448 56.9967 212.807C58.1508 212.166 59.479 211.845 60.9813 211.845C62.4286 211.845 63.7201 212.157 64.856 212.779C66.0101 213.402 66.8987 214.291 67.5215 215.445C68.1627 216.581 68.4833 217.891 68.4833 219.375ZM64.4987 218.275C64.4804 217.286 64.1232 216.498 63.427 215.912C62.7308 215.308 61.879 215.005 60.8714 215.005C59.9187 215.005 59.1126 215.298 58.4531 215.885C57.8119 216.453 57.418 217.25 57.2715 218.275H64.4987ZM70.3022 219.649C70.3022 218.111 70.6045 216.746 71.209 215.555C71.8319 214.364 72.6655 213.448 73.7097 212.807C74.7723 212.166 75.9539 211.845 77.2546 211.845C78.3905 211.845 79.3798 212.074 80.2225 212.532C81.0835 212.99 81.7705 213.567 82.2835 214.263V212.092H86.1582V227.316H82.2835V225.091C81.7889 225.805 81.1019 226.4 80.2225 226.877C79.3614 227.335 78.363 227.564 77.2272 227.564C75.9448 227.564 74.7723 227.234 73.7097 226.574C72.6655 225.915 71.8319 224.99 71.209 223.799C70.6045 222.59 70.3022 221.207 70.3022 219.649ZM82.2835 219.704C82.2835 218.77 82.1003 217.973 81.7339 217.314C81.3675 216.636 80.8729 216.123 80.25 215.775C79.6271 215.408 78.9584 215.225 78.2439 215.225C77.5294 215.225 76.8699 215.399 76.2654 215.747C75.6608 216.095 75.1662 216.608 74.7814 217.286C74.415 217.946 74.2318 218.733 74.2318 219.649C74.2318 220.565 74.415 221.372 74.7814 222.068C75.1662 222.746 75.6608 223.268 76.2654 223.634C76.8882 224 77.5478 224.184 78.2439 224.184C78.9584 224.184 79.6271 224.01 80.25 223.662C80.8729 223.295 81.3675 222.782 81.7339 222.123C82.1003 221.445 82.2835 220.639 82.2835 219.704ZM88.9264 219.704C88.9264 218.129 89.247 216.755 89.8882 215.582C90.5294 214.392 91.4179 213.476 92.5537 212.834C93.6896 212.175 94.9903 211.845 96.4559 211.845C98.3429 211.845 99.9001 212.321 101.128 213.274C102.373 214.208 103.207 215.527 103.628 217.231H99.4787C99.2589 216.572 98.8833 216.059 98.352 215.692C97.8391 215.308 97.1979 215.115 96.4284 215.115C95.3292 215.115 94.459 215.518 93.8178 216.324C93.1766 217.112 92.856 218.239 92.856 219.704C92.856 221.152 93.1766 222.278 93.8178 223.084C94.459 223.872 95.3292 224.266 96.4284 224.266C97.9856 224.266 99.0024 223.57 99.4787 222.178H103.628C103.207 223.826 102.373 225.136 101.128 226.107C99.8818 227.078 98.3246 227.564 96.4559 227.564C94.9903 227.564 93.6896 227.243 92.5537 226.602C91.4179 225.942 90.5294 225.026 89.8882 223.854C89.247 222.663 88.9264 221.28 88.9264 219.704ZM115.02 211.873C116.175 211.873 117.201 212.129 118.098 212.642C118.996 213.137 119.692 213.879 120.187 214.868C120.7 215.839 120.956 217.011 120.956 218.385V227.316H117.109V218.907C117.109 217.698 116.807 216.773 116.202 216.132C115.598 215.472 114.773 215.143 113.729 215.143C112.666 215.143 111.824 215.472 111.201 216.132C110.596 216.773 110.294 217.698 110.294 218.907V227.316H106.447V206.981H110.294V213.989C110.789 213.329 111.448 212.816 112.272 212.45C113.097 212.065 114.013 211.873 115.02 211.873ZM138.767 219.375C138.767 219.924 138.73 220.419 138.657 220.859H127.528C127.619 221.958 128.004 222.819 128.682 223.442C129.36 224.065 130.193 224.376 131.182 224.376C132.611 224.376 133.628 223.762 134.233 222.535H138.382C137.942 224 137.1 225.21 135.854 226.162C134.608 227.097 133.079 227.564 131.265 227.564C129.799 227.564 128.48 227.243 127.308 226.602C126.154 225.942 125.247 225.017 124.587 223.826C123.946 222.636 123.625 221.262 123.625 219.704C123.625 218.129 123.946 216.746 124.587 215.555C125.228 214.364 126.126 213.448 127.28 212.807C128.434 212.166 129.763 211.845 131.265 211.845C132.712 211.845 134.004 212.157 135.14 212.779C136.294 213.402 137.182 214.291 137.805 215.445C138.446 216.581 138.767 217.891 138.767 219.375ZM134.782 218.275C134.764 217.286 134.407 216.498 133.711 215.912C133.014 215.308 132.163 215.005 131.155 215.005C130.202 215.005 129.396 215.298 128.737 215.885C128.095 216.453 127.702 217.25 127.555 218.275H134.782ZM145.422 214.456C145.917 213.65 146.558 213.018 147.346 212.56C148.152 212.102 149.068 211.873 150.094 211.873V215.912H149.077C147.868 215.912 146.952 216.196 146.329 216.764C145.724 217.332 145.422 218.321 145.422 219.732V227.316H141.575V212.092H145.422V214.456ZM158.511 227.564C157.265 227.564 156.148 227.344 155.158 226.904C154.169 226.446 153.381 225.832 152.795 225.063C152.227 224.294 151.916 223.442 151.861 222.507H155.735C155.809 223.094 156.093 223.579 156.587 223.964C157.1 224.349 157.732 224.541 158.483 224.541C159.216 224.541 159.784 224.394 160.187 224.101C160.609 223.808 160.819 223.433 160.819 222.975C160.819 222.48 160.563 222.114 160.05 221.875C159.555 221.619 158.758 221.344 157.659 221.051C156.523 220.776 155.589 220.492 154.856 220.199C154.142 219.906 153.519 219.457 152.987 218.853C152.474 218.248 152.218 217.433 152.218 216.407C152.218 215.564 152.456 214.795 152.932 214.098C153.427 213.402 154.123 212.853 155.021 212.45C155.937 212.047 157.009 211.845 158.236 211.845C160.05 211.845 161.497 212.303 162.578 213.219C163.659 214.117 164.254 215.335 164.364 216.874H160.682C160.627 216.269 160.37 215.793 159.912 215.445C159.473 215.079 158.877 214.895 158.126 214.895C157.43 214.895 156.89 215.024 156.505 215.28C156.138 215.537 155.955 215.894 155.955 216.352C155.955 216.865 156.212 217.259 156.725 217.533C157.238 217.79 158.035 218.056 159.115 218.33C160.215 218.605 161.122 218.889 161.836 219.182C162.55 219.475 163.164 219.933 163.677 220.556C164.208 221.161 164.483 221.967 164.502 222.975C164.502 223.854 164.254 224.642 163.76 225.338C163.283 226.034 162.587 226.584 161.671 226.987C160.773 227.371 159.72 227.564 158.511 227.564ZM188.964 227.316L186.876 225.255C185.099 226.849 182.928 227.646 180.363 227.646C178.952 227.646 177.707 227.408 176.626 226.932C175.563 226.437 174.739 225.75 174.153 224.871C173.566 223.973 173.273 222.938 173.273 221.765C173.273 220.501 173.631 219.365 174.345 218.358C175.059 217.35 176.113 216.535 177.505 215.912C177.011 215.308 176.653 214.731 176.433 214.181C176.214 213.613 176.104 213.008 176.104 212.367C176.104 211.488 176.333 210.7 176.791 210.004C177.249 209.289 177.899 208.731 178.742 208.328C179.603 207.925 180.601 207.723 181.737 207.723C182.891 207.723 183.881 207.943 184.705 208.383C185.529 208.822 186.143 209.409 186.546 210.141C186.949 210.874 187.123 211.689 187.068 212.587H183.331C183.349 211.983 183.203 211.525 182.891 211.213C182.58 210.883 182.159 210.718 181.627 210.718C181.114 210.718 180.684 210.874 180.336 211.186C180.006 211.479 179.841 211.863 179.841 212.34C179.841 212.798 179.978 213.256 180.253 213.714C180.528 214.153 180.977 214.703 181.6 215.363L186.436 220.144C186.473 220.107 186.5 220.071 186.519 220.034C186.537 219.998 186.555 219.961 186.574 219.924L188.14 217.314H192.152L190.228 220.694C189.862 221.408 189.468 222.086 189.047 222.727L193.691 227.316H188.964ZM180.473 224.458C181.975 224.458 183.304 223.927 184.458 222.865L179.731 218.193C177.954 218.981 177.066 220.098 177.066 221.546C177.066 222.37 177.377 223.066 178 223.634C178.623 224.184 179.447 224.458 180.473 224.458ZM207.97 227.564C206.724 227.564 205.606 227.344 204.617 226.904C203.628 226.446 202.84 225.832 202.254 225.063C201.686 224.294 201.374 223.442 201.32 222.507H205.194C205.267 223.094 205.551 223.579 206.046 223.964C206.559 224.349 207.191 224.541 207.942 224.541C208.675 224.541 209.243 224.394 209.646 224.101C210.067 223.808 210.278 223.433 210.278 222.975C210.278 222.48 210.022 222.114 209.509 221.875C209.014 221.619 208.217 221.344 207.118 221.051C205.982 220.776 205.048 220.492 204.315 220.199C203.6 219.906 202.977 219.457 202.446 218.853C201.933 218.248 201.677 217.433 201.677 216.407C201.677 215.564 201.915 214.795 202.391 214.098C202.886 213.402 203.582 212.853 204.48 212.45C205.396 212.047 206.467 211.845 207.695 211.845C209.509 211.845 210.956 212.303 212.037 213.219C213.118 214.117 213.713 215.335 213.823 216.874H210.141C210.086 216.269 209.829 215.793 209.371 215.445C208.931 215.079 208.336 214.895 207.585 214.895C206.889 214.895 206.348 215.024 205.964 215.28C205.597 215.537 205.414 215.894 205.414 216.352C205.414 216.865 205.671 217.259 206.183 217.533C206.696 217.79 207.493 218.056 208.574 218.33C209.673 218.605 210.58 218.889 211.295 219.182C212.009 219.475 212.623 219.933 213.136 220.556C213.667 221.161 213.942 221.967 213.96 222.975C213.96 223.854 213.713 224.642 213.218 225.338C212.742 226.034 212.046 226.584 211.13 226.987C210.232 227.371 209.179 227.564 207.97 227.564ZM221.598 215.253V222.617C221.598 223.13 221.717 223.506 221.955 223.744C222.211 223.964 222.633 224.074 223.219 224.074H225.005V227.316H222.587C219.344 227.316 217.723 225.741 217.723 222.59V215.253H215.909V212.092H217.723V208.328H221.598V212.092H225.005V215.253H221.598ZM242.144 212.092V227.316H238.27V225.393C237.775 226.052 237.125 226.574 236.319 226.959C235.531 227.326 234.67 227.509 233.735 227.509C232.545 227.509 231.491 227.261 230.575 226.767C229.659 226.254 228.936 225.512 228.404 224.541C227.891 223.552 227.635 222.379 227.635 221.023V212.092H231.482V220.474C231.482 221.683 231.784 222.617 232.389 223.277C232.994 223.918 233.818 224.239 234.862 224.239C235.925 224.239 236.758 223.918 237.363 223.277C237.967 222.617 238.27 221.683 238.27 220.474V212.092H242.144ZM244.951 219.649C244.951 218.111 245.253 216.746 245.858 215.555C246.481 214.364 247.323 213.448 248.386 212.807C249.449 212.166 250.63 211.845 251.931 211.845C252.92 211.845 253.864 212.065 254.761 212.505C255.659 212.926 256.374 213.494 256.905 214.208V206.981H260.807V227.316H256.905V225.063C256.429 225.814 255.76 226.419 254.899 226.877C254.038 227.335 253.039 227.564 251.903 227.564C250.621 227.564 249.449 227.234 248.386 226.574C247.323 225.915 246.481 224.99 245.858 223.799C245.253 222.59 244.951 221.207 244.951 219.649ZM256.932 219.704C256.932 218.77 256.749 217.973 256.383 217.314C256.016 216.636 255.522 216.123 254.899 215.775C254.276 215.408 253.607 215.225 252.893 215.225C252.178 215.225 251.519 215.399 250.914 215.747C250.31 216.095 249.815 216.608 249.43 217.286C249.064 217.946 248.881 218.733 248.881 219.649C248.881 220.565 249.064 221.372 249.43 222.068C249.815 222.746 250.31 223.268 250.914 223.634C251.537 224 252.197 224.184 252.893 224.184C253.607 224.184 254.276 224.01 254.899 223.662C255.522 223.295 256.016 222.782 256.383 222.123C256.749 221.445 256.932 220.639 256.932 219.704ZM278.717 219.375C278.717 219.924 278.68 220.419 278.607 220.859H267.477C267.569 221.958 267.954 222.819 268.632 223.442C269.309 224.065 270.143 224.376 271.132 224.376C272.561 224.376 273.578 223.762 274.183 222.535H278.332C277.892 224 277.05 225.21 275.804 226.162C274.558 227.097 273.028 227.564 271.215 227.564C269.749 227.564 268.43 227.243 267.258 226.602C266.103 225.942 265.197 225.017 264.537 223.826C263.896 222.636 263.575 221.262 263.575 219.704C263.575 218.129 263.896 216.746 264.537 215.555C265.178 214.364 266.076 213.448 267.23 212.807C268.384 212.166 269.712 211.845 271.215 211.845C272.662 211.845 273.954 212.157 275.089 212.779C276.244 213.402 277.132 214.291 277.755 215.445C278.396 216.581 278.717 217.891 278.717 219.375ZM274.732 218.275C274.714 217.286 274.357 216.498 273.66 215.912C272.964 215.308 272.112 215.005 271.105 215.005C270.152 215.005 269.346 215.298 268.687 215.885C268.045 216.453 267.651 217.25 267.505 218.275H274.732ZM289.961 211.873C291.775 211.873 293.241 212.45 294.358 213.604C295.476 214.74 296.034 216.334 296.034 218.385V227.316H292.187V218.907C292.187 217.698 291.885 216.773 291.28 216.132C290.676 215.472 289.851 215.143 288.807 215.143C287.745 215.143 286.902 215.472 286.279 216.132C285.674 216.773 285.372 217.698 285.372 218.907V227.316H281.525V212.092H285.372V213.989C285.885 213.329 286.535 212.816 287.323 212.45C288.129 212.065 289.009 211.873 289.961 211.873ZM304.172 215.253V222.617C304.172 223.13 304.291 223.506 304.529 223.744C304.786 223.964 305.207 224.074 305.793 224.074H307.58V227.316H305.161C301.919 227.316 300.297 225.741 300.297 222.59V215.253H298.484V212.092H300.297V208.328H304.172V212.092H307.58V215.253H304.172ZM316.173 227.564C314.927 227.564 313.809 227.344 312.82 226.904C311.831 226.446 311.043 225.832 310.457 225.063C309.889 224.294 309.577 223.442 309.522 222.507H313.397C313.47 223.094 313.754 223.579 314.249 223.964C314.762 224.349 315.394 224.541 316.145 224.541C316.878 224.541 317.446 224.394 317.849 224.101C318.27 223.808 318.481 223.433 318.481 222.975C318.481 222.48 318.224 222.114 317.711 221.875C317.217 221.619 316.42 221.344 315.321 221.051C314.185 220.776 313.25 220.492 312.518 220.199C311.803 219.906 311.18 219.457 310.649 218.853C310.136 218.248 309.88 217.433 309.88 216.407C309.88 215.564 310.118 214.795 310.594 214.098C311.089 213.402 311.785 212.853 312.683 212.45C313.599 212.047 314.67 211.845 315.898 211.845C317.711 211.845 319.159 212.303 320.24 213.219C321.32 214.117 321.916 215.335 322.026 216.874H318.343C318.288 216.269 318.032 215.793 317.574 215.445C317.134 215.079 316.539 214.895 315.788 214.895C315.092 214.895 314.551 215.024 314.166 215.28C313.8 215.537 313.617 215.894 313.617 216.352C313.617 216.865 313.873 217.259 314.386 217.533C314.899 217.79 315.696 218.056 316.777 218.33C317.876 218.605 318.783 218.889 319.498 219.182C320.212 219.475 320.826 219.933 321.339 220.556C321.87 221.161 322.145 221.967 322.163 222.975C322.163 223.854 321.916 224.642 321.421 225.338C320.945 226.034 320.249 226.584 319.333 226.987C318.435 227.371 317.382 227.564 316.173 227.564ZM110.57 260.649C110.57 259.111 110.872 257.746 111.476 256.555C112.099 255.364 112.933 254.448 113.977 253.807C115.04 253.166 116.221 252.845 117.522 252.845C118.658 252.845 119.647 253.074 120.49 253.532C121.351 253.99 122.038 254.567 122.551 255.263V253.092H126.426V268.316H122.551V266.091C122.056 266.805 121.369 267.4 120.49 267.877C119.629 268.335 118.63 268.564 117.495 268.564C116.212 268.564 115.04 268.234 113.977 267.574C112.933 266.915 112.099 265.99 111.476 264.799C110.872 263.59 110.57 262.207 110.57 260.649ZM122.551 260.704C122.551 259.77 122.368 258.973 122.001 258.314C121.635 257.636 121.14 257.123 120.517 256.775C119.895 256.408 119.226 256.225 118.511 256.225C117.797 256.225 117.137 256.399 116.533 256.747C115.928 257.095 115.434 257.608 115.049 258.286C114.682 258.946 114.499 259.733 114.499 260.649C114.499 261.565 114.682 262.372 115.049 263.068C115.434 263.746 115.928 264.268 116.533 264.634C117.156 265 117.815 265.184 118.511 265.184C119.226 265.184 119.895 265.01 120.517 264.662C121.14 264.295 121.635 263.782 122.001 263.123C122.368 262.445 122.551 261.639 122.551 260.704ZM136.146 252.845C137.282 252.845 138.281 253.074 139.142 253.532C140.003 253.972 140.681 254.549 141.175 255.263V253.092H145.05V268.426C145.05 269.837 144.766 271.092 144.198 272.191C143.63 273.309 142.778 274.188 141.642 274.829C140.506 275.489 139.132 275.818 137.52 275.818C135.359 275.818 133.581 275.315 132.189 274.307C130.815 273.299 130.037 271.925 129.853 270.185H133.673C133.875 270.881 134.305 271.431 134.965 271.834C135.642 272.255 136.458 272.466 137.41 272.466C138.528 272.466 139.435 272.127 140.131 271.449C140.827 270.79 141.175 269.782 141.175 268.426V266.063C140.681 266.778 139.994 267.373 139.114 267.849C138.253 268.326 137.264 268.564 136.146 268.564C134.864 268.564 133.691 268.234 132.629 267.574C131.566 266.915 130.724 265.99 130.101 264.799C129.496 263.59 129.194 262.207 129.194 260.649C129.194 259.111 129.496 257.746 130.101 256.555C130.724 255.364 131.557 254.448 132.601 253.807C133.664 253.166 134.846 252.845 136.146 252.845ZM141.175 260.704C141.175 259.77 140.992 258.973 140.626 258.314C140.259 257.636 139.765 257.123 139.142 256.775C138.519 256.408 137.85 256.225 137.136 256.225C136.421 256.225 135.762 256.399 135.157 256.747C134.552 257.095 134.058 257.608 133.673 258.286C133.307 258.946 133.123 259.733 133.123 260.649C133.123 261.565 133.307 262.372 133.673 263.068C134.058 263.746 134.552 264.268 135.157 264.634C135.78 265 136.439 265.184 137.136 265.184C137.85 265.184 138.519 265.01 139.142 264.662C139.765 264.295 140.259 263.782 140.626 263.123C140.992 262.445 141.175 261.639 141.175 260.704ZM162.96 260.375C162.96 260.924 162.923 261.419 162.85 261.859H151.72C151.812 262.958 152.197 263.819 152.874 264.442C153.552 265.065 154.386 265.376 155.375 265.376C156.804 265.376 157.821 264.762 158.425 263.535H162.575C162.135 265 161.292 266.21 160.047 267.162C158.801 268.097 157.271 268.564 155.457 268.564C153.992 268.564 152.673 268.243 151.5 267.602C150.346 266.942 149.439 266.017 148.78 264.826C148.139 263.636 147.818 262.262 147.818 260.704C147.818 259.129 148.139 257.746 148.78 256.555C149.421 255.364 150.319 254.448 151.473 253.807C152.627 253.166 153.955 252.845 155.457 252.845C156.905 252.845 158.196 253.157 159.332 253.779C160.486 254.402 161.375 255.291 161.998 256.445C162.639 257.581 162.96 258.891 162.96 260.375ZM158.975 259.275C158.957 258.286 158.599 257.498 157.903 256.912C157.207 256.308 156.355 256.005 155.348 256.005C154.395 256.005 153.589 256.298 152.929 256.885C152.288 257.453 151.894 258.25 151.748 259.275H158.975ZM164.778 260.649C164.778 259.111 165.081 257.746 165.685 256.555C166.308 255.364 167.151 254.448 168.213 253.807C169.276 253.166 170.458 252.845 171.758 252.845C172.748 252.845 173.691 253.065 174.589 253.505C175.486 253.926 176.201 254.494 176.732 255.208V247.981H180.634V268.316H176.732V266.063C176.256 266.814 175.587 267.419 174.726 267.877C173.865 268.335 172.867 268.564 171.731 268.564C170.448 268.564 169.276 268.234 168.213 267.574C167.151 266.915 166.308 265.99 165.685 264.799C165.081 263.59 164.778 262.207 164.778 260.649ZM176.76 260.704C176.76 259.77 176.577 258.973 176.21 258.314C175.844 257.636 175.349 257.123 174.726 256.775C174.103 256.408 173.435 256.225 172.72 256.225C172.006 256.225 171.346 256.399 170.742 256.747C170.137 257.095 169.642 257.608 169.258 258.286C168.891 258.946 168.708 259.733 168.708 260.649C168.708 261.565 168.891 262.372 169.258 263.068C169.642 263.746 170.137 264.268 170.742 264.634C171.364 265 172.024 265.184 172.72 265.184C173.435 265.184 174.103 265.01 174.726 264.662C175.349 264.295 175.844 263.782 176.21 263.123C176.577 262.445 176.76 261.639 176.76 260.704ZM193.853 257.709C192.021 256.756 191.105 255.282 191.105 253.285C191.105 252.296 191.352 251.398 191.847 250.592C192.36 249.767 193.12 249.117 194.128 248.641C195.153 248.146 196.399 247.899 197.865 247.899C199.33 247.899 200.567 248.146 201.575 248.641C202.601 249.117 203.361 249.767 203.856 250.592C204.368 251.398 204.625 252.296 204.625 253.285C204.625 254.292 204.378 255.181 203.883 255.95C203.388 256.701 202.729 257.288 201.904 257.709C202.912 258.149 203.7 258.79 204.268 259.633C204.836 260.475 205.12 261.474 205.12 262.628C205.12 263.874 204.799 264.964 204.158 265.898C203.535 266.814 202.674 267.519 201.575 268.014C200.475 268.509 199.239 268.756 197.865 268.756C196.491 268.756 195.254 268.509 194.155 268.014C193.074 267.519 192.213 266.814 191.572 265.898C190.949 264.964 190.638 263.874 190.638 262.628C190.638 261.474 190.922 260.475 191.489 259.633C192.057 258.772 192.845 258.13 193.853 257.709ZM200.888 253.834C200.888 252.937 200.613 252.241 200.063 251.746C199.532 251.251 198.799 251.004 197.865 251.004C196.949 251.004 196.216 251.251 195.666 251.746C195.135 252.241 194.87 252.946 194.87 253.862C194.87 254.686 195.144 255.346 195.694 255.84C196.262 256.335 196.985 256.582 197.865 256.582C198.744 256.582 199.468 256.335 200.036 255.84C200.604 255.327 200.888 254.659 200.888 253.834ZM197.865 259.385C196.821 259.385 195.969 259.651 195.309 260.182C194.668 260.714 194.347 261.474 194.347 262.463C194.347 263.379 194.659 264.13 195.282 264.717C195.923 265.284 196.784 265.568 197.865 265.568C198.946 265.568 199.798 265.275 200.42 264.689C201.043 264.103 201.355 263.361 201.355 262.463C201.355 261.492 201.034 260.741 200.393 260.21C199.752 259.66 198.909 259.385 197.865 259.385ZM220.304 256.885V260.127H208.653V256.885H220.304ZM223.712 251.828V248.283H230.335V268.316H226.378V251.828H223.712ZM237.488 257.709C235.656 256.756 234.74 255.282 234.74 253.285C234.74 252.296 234.987 251.398 235.482 250.592C235.995 249.767 236.755 249.117 237.763 248.641C238.789 248.146 240.035 247.899 241.5 247.899C242.966 247.899 244.202 248.146 245.21 248.641C246.236 249.117 246.996 249.767 247.491 250.592C248.004 251.398 248.26 252.296 248.26 253.285C248.26 254.292 248.013 255.181 247.518 255.95C247.024 256.701 246.364 257.288 245.54 257.709C246.547 258.149 247.335 258.79 247.903 259.633C248.471 260.475 248.755 261.474 248.755 262.628C248.755 263.874 248.434 264.964 247.793 265.898C247.17 266.814 246.309 267.519 245.21 268.014C244.111 268.509 242.874 268.756 241.5 268.756C240.126 268.756 238.89 268.509 237.79 268.014C236.71 267.519 235.848 266.814 235.207 265.898C234.584 264.964 234.273 263.874 234.273 262.628C234.273 261.474 234.557 260.475 235.125 259.633C235.693 258.772 236.481 258.13 237.488 257.709ZM244.523 253.834C244.523 252.937 244.248 252.241 243.699 251.746C243.167 251.251 242.435 251.004 241.5 251.004C240.584 251.004 239.851 251.251 239.302 251.746C238.771 252.241 238.505 252.946 238.505 253.862C238.505 254.686 238.78 255.346 239.329 255.84C239.897 256.335 240.621 256.582 241.5 256.582C242.38 256.582 243.103 256.335 243.671 255.84C244.239 255.327 244.523 254.659 244.523 253.834ZM241.5 259.385C240.456 259.385 239.604 259.651 238.945 260.182C238.303 260.714 237.983 261.474 237.983 262.463C237.983 263.379 238.294 264.13 238.917 264.717C239.558 265.284 240.419 265.568 241.5 265.568C242.581 265.568 243.433 265.275 244.056 264.689C244.679 264.103 244.99 263.361 244.99 262.463C244.99 261.492 244.67 260.741 244.028 260.21C243.387 259.66 242.544 259.385 241.5 259.385Z" fill="#585858"/>
<path d="M518.16 214.264C518.16 215.29 517.912 216.252 517.418 217.15C516.941 218.047 516.181 218.771 515.137 219.321C514.111 219.87 512.81 220.145 511.235 220.145H508.019V227.51H504.172V208.329H511.235C512.719 208.329 513.983 208.585 515.027 209.098C516.071 209.611 516.85 210.316 517.363 211.214C517.894 212.112 518.16 213.129 518.16 214.264ZM511.07 217.04C512.132 217.04 512.92 216.802 513.433 216.325C513.946 215.831 514.202 215.144 514.202 214.264C514.202 212.396 513.158 211.461 511.07 211.461H508.019V217.04H511.07ZM519.902 219.843C519.902 218.304 520.204 216.939 520.809 215.748C521.432 214.557 522.265 213.641 523.309 213C524.372 212.359 525.554 212.038 526.854 212.038C527.99 212.038 528.979 212.267 529.822 212.725C530.683 213.183 531.37 213.761 531.883 214.457V212.286H535.758V227.51H531.883V225.284C531.389 225.998 530.702 226.594 529.822 227.07C528.961 227.528 527.963 227.757 526.827 227.757C525.544 227.757 524.372 227.427 523.309 226.768C522.265 226.108 521.432 225.183 520.809 223.992C520.204 222.783 519.902 221.4 519.902 219.843ZM531.883 219.898C531.883 218.963 531.7 218.167 531.334 217.507C530.967 216.829 530.472 216.316 529.85 215.968C529.227 215.602 528.558 215.419 527.844 215.419C527.129 215.419 526.47 215.593 525.865 215.941C525.26 216.289 524.766 216.802 524.381 217.48C524.015 218.139 523.831 218.927 523.831 219.843C523.831 220.759 524.015 221.565 524.381 222.261C524.766 222.939 525.26 223.461 525.865 223.827C526.488 224.194 527.147 224.377 527.844 224.377C528.558 224.377 529.227 224.203 529.85 223.855C530.472 223.489 530.967 222.976 531.334 222.316C531.7 221.638 531.883 220.832 531.883 219.898ZM543.363 214.649C543.857 213.843 544.498 213.211 545.286 212.753C546.092 212.295 547.008 212.066 548.034 212.066V216.106H547.017C545.808 216.106 544.892 216.389 544.269 216.957C543.665 217.525 543.363 218.515 543.363 219.925V227.51H539.515V212.286H543.363V214.649ZM564.778 219.568C564.778 220.118 564.741 220.612 564.668 221.052H553.538C553.63 222.151 554.015 223.012 554.692 223.635C555.37 224.258 556.204 224.569 557.193 224.569C558.622 224.569 559.639 223.956 560.243 222.728H564.393C563.953 224.194 563.111 225.403 561.865 226.356C560.619 227.29 559.089 227.757 557.276 227.757C555.81 227.757 554.491 227.436 553.318 226.795C552.164 226.136 551.257 225.211 550.598 224.02C549.957 222.829 549.636 221.455 549.636 219.898C549.636 218.322 549.957 216.939 550.598 215.748C551.239 214.557 552.137 213.641 553.291 213C554.445 212.359 555.773 212.038 557.276 212.038C558.723 212.038 560.014 212.35 561.15 212.973C562.304 213.596 563.193 214.484 563.816 215.638C564.457 216.774 564.778 218.084 564.778 219.568ZM560.793 218.469C560.775 217.48 560.417 216.692 559.721 216.106C559.025 215.501 558.173 215.199 557.166 215.199C556.213 215.199 555.407 215.492 554.747 216.078C554.106 216.646 553.712 217.443 553.566 218.469H560.793ZM576.022 212.066C577.836 212.066 579.301 212.643 580.419 213.797C581.537 214.933 582.095 216.527 582.095 218.579V227.51H578.248V219.101C578.248 217.892 577.946 216.967 577.341 216.325C576.737 215.666 575.912 215.336 574.868 215.336C573.805 215.336 572.963 215.666 572.34 216.325C571.735 216.967 571.433 217.892 571.433 219.101V227.51H567.586V212.286H571.433V214.182C571.946 213.522 572.596 213.009 573.384 212.643C574.19 212.258 575.07 212.066 576.022 212.066ZM590.233 215.446V222.811C590.233 223.324 590.352 223.699 590.59 223.937C590.847 224.157 591.268 224.267 591.854 224.267H593.641V227.51H591.222C587.98 227.51 586.358 225.934 586.358 222.783V215.446H584.545V212.286H586.358V208.521H590.233V212.286H593.641V215.446H590.233ZM602.233 227.757C600.988 227.757 599.87 227.537 598.881 227.098C597.892 226.64 597.104 226.026 596.518 225.256C595.95 224.487 595.638 223.635 595.583 222.701H599.458C599.531 223.287 599.815 223.772 600.31 224.157C600.823 224.542 601.455 224.734 602.206 224.734C602.939 224.734 603.507 224.588 603.91 224.295C604.331 224.001 604.542 223.626 604.542 223.168C604.542 222.673 604.285 222.307 603.772 222.069C603.278 221.812 602.481 221.537 601.382 221.244C600.246 220.97 599.311 220.686 598.579 220.392C597.864 220.099 597.241 219.65 596.71 219.046C596.197 218.441 595.941 217.626 595.941 216.6C595.941 215.757 596.179 214.988 596.655 214.292C597.15 213.596 597.846 213.046 598.743 212.643C599.659 212.24 600.731 212.038 601.959 212.038C603.772 212.038 605.22 212.496 606.301 213.412C607.381 214.31 607.977 215.528 608.087 217.067H604.404C604.349 216.463 604.093 215.986 603.635 215.638C603.195 215.272 602.6 215.089 601.849 215.089C601.153 215.089 600.612 215.217 600.227 215.473C599.861 215.73 599.678 216.087 599.678 216.545C599.678 217.058 599.934 217.452 600.447 217.727C600.96 217.983 601.757 218.249 602.838 218.524C603.937 218.799 604.844 219.083 605.559 219.376C606.273 219.669 606.887 220.127 607.4 220.75C607.931 221.354 608.206 222.16 608.224 223.168C608.224 224.047 607.977 224.835 607.482 225.531C607.006 226.227 606.31 226.777 605.394 227.18C604.496 227.565 603.443 227.757 602.233 227.757ZM632.687 227.51L630.598 225.449C628.821 227.043 626.651 227.84 624.086 227.84C622.675 227.84 621.429 227.601 620.348 227.125C619.286 226.63 618.461 225.943 617.875 225.064C617.289 224.166 616.996 223.131 616.996 221.959C616.996 220.695 617.353 219.559 618.068 218.551C618.782 217.544 619.835 216.728 621.228 216.106C620.733 215.501 620.376 214.924 620.156 214.374C619.936 213.806 619.826 213.202 619.826 212.561C619.826 211.681 620.055 210.893 620.513 210.197C620.971 209.483 621.622 208.924 622.464 208.521C623.325 208.118 624.324 207.916 625.46 207.916C626.614 207.916 627.603 208.136 628.428 208.576C629.252 209.016 629.866 209.602 630.269 210.335C630.672 211.068 630.846 211.883 630.791 212.78H627.054C627.072 212.176 626.925 211.718 626.614 211.406C626.302 211.077 625.881 210.912 625.35 210.912C624.837 210.912 624.406 211.068 624.058 211.379C623.728 211.672 623.564 212.057 623.564 212.533C623.564 212.991 623.701 213.449 623.976 213.907C624.251 214.347 624.699 214.896 625.322 215.556L630.159 220.337C630.195 220.301 630.223 220.264 630.241 220.228C630.26 220.191 630.278 220.154 630.296 220.118L631.863 217.507H635.875L633.951 220.887C633.585 221.602 633.191 222.279 632.769 222.921L637.414 227.51H632.687ZM624.196 224.652C625.698 224.652 627.026 224.121 628.18 223.058L623.454 218.386C621.677 219.174 620.788 220.292 620.788 221.739C620.788 222.563 621.1 223.26 621.722 223.827C622.345 224.377 623.17 224.652 624.196 224.652ZM650.346 215.446V222.811C650.346 223.324 650.465 223.699 650.703 223.937C650.959 224.157 651.381 224.267 651.967 224.267H653.753V227.51H651.335C648.092 227.51 646.471 225.934 646.471 222.783V215.446H644.657V212.286H646.471V208.521H650.346V212.286H653.753V215.446H650.346ZM665.094 212.066C666.248 212.066 667.274 212.322 668.172 212.835C669.07 213.33 669.766 214.072 670.26 215.061C670.773 216.032 671.03 217.205 671.03 218.579V227.51H667.183V219.101C667.183 217.892 666.88 216.967 666.276 216.325C665.671 215.666 664.847 215.336 663.803 215.336C662.74 215.336 661.897 215.666 661.274 216.325C660.67 216.967 660.368 217.892 660.368 219.101V227.51H656.52V207.174H660.368V214.182C660.862 213.522 661.522 213.009 662.346 212.643C663.171 212.258 664.087 212.066 665.094 212.066ZM688.841 219.568C688.841 220.118 688.804 220.612 688.731 221.052H677.601C677.693 222.151 678.078 223.012 678.755 223.635C679.433 224.258 680.267 224.569 681.256 224.569C682.685 224.569 683.702 223.956 684.306 222.728H688.456C688.016 224.194 687.173 225.403 685.928 226.356C684.682 227.29 683.152 227.757 681.339 227.757C679.873 227.757 678.554 227.436 677.381 226.795C676.227 226.136 675.32 225.211 674.661 224.02C674.02 222.829 673.699 221.455 673.699 219.898C673.699 218.322 674.02 216.939 674.661 215.748C675.302 214.557 676.2 213.641 677.354 213C678.508 212.359 679.836 212.038 681.339 212.038C682.786 212.038 684.077 212.35 685.213 212.973C686.367 213.596 687.256 214.484 687.879 215.638C688.52 216.774 688.841 218.084 688.841 219.568ZM684.856 218.469C684.838 217.48 684.48 216.692 683.784 216.106C683.088 215.501 682.236 215.199 681.229 215.199C680.276 215.199 679.47 215.492 678.81 216.078C678.169 216.646 677.775 217.443 677.629 218.469H684.856ZM693.6 210.472C692.922 210.472 692.354 210.261 691.896 209.84C691.456 209.4 691.237 208.86 691.237 208.219C691.237 207.578 691.456 207.046 691.896 206.625C692.354 206.185 692.922 205.965 693.6 205.965C694.278 205.965 694.836 206.185 695.276 206.625C695.734 207.046 695.963 207.578 695.963 208.219C695.963 208.86 695.734 209.4 695.276 209.84C694.836 210.261 694.278 210.472 693.6 210.472ZM695.496 212.286V227.51H691.649V212.286H695.496ZM703.144 214.649C703.639 213.843 704.28 213.211 705.068 212.753C705.874 212.295 706.79 212.066 707.816 212.066V216.106H706.799C705.59 216.106 704.674 216.389 704.051 216.957C703.446 217.525 703.144 218.515 703.144 219.925V227.51H699.297V212.286H703.144V214.649ZM725.969 227.51L720.802 221.024V227.51H716.955V207.174H720.802V218.744L725.914 212.286H730.915L724.21 219.925L730.97 227.51H725.969ZM734.954 210.472C734.276 210.472 733.708 210.261 733.25 209.84C732.811 209.4 732.591 208.86 732.591 208.219C732.591 207.578 732.811 207.046 733.25 206.625C733.708 206.185 734.276 205.965 734.954 205.965C735.632 205.965 736.191 206.185 736.63 206.625C737.088 207.046 737.317 207.578 737.317 208.219C737.317 208.86 737.088 209.4 736.63 209.84C736.191 210.261 735.632 210.472 734.954 210.472ZM736.85 212.286V227.51H733.003V212.286H736.85ZM739.662 219.843C739.662 218.304 739.964 216.939 740.569 215.748C741.192 214.557 742.034 213.641 743.097 213C744.16 212.359 745.341 212.038 746.642 212.038C747.631 212.038 748.575 212.258 749.472 212.698C750.37 213.119 751.085 213.687 751.616 214.402V207.174H755.518V227.51H751.616V225.256C751.14 226.008 750.471 226.612 749.61 227.07C748.749 227.528 747.75 227.757 746.614 227.757C745.332 227.757 744.16 227.427 743.097 226.768C742.034 226.108 741.192 225.183 740.569 223.992C739.964 222.783 739.662 221.4 739.662 219.843ZM751.643 219.898C751.643 218.963 751.46 218.167 751.094 217.507C750.727 216.829 750.233 216.316 749.61 215.968C748.987 215.602 748.318 215.419 747.604 215.419C746.889 215.419 746.23 215.593 745.625 215.941C745.021 216.289 744.526 216.802 744.141 217.48C743.775 218.139 743.592 218.927 743.592 219.843C743.592 220.759 743.775 221.565 744.141 222.261C744.526 222.939 745.021 223.461 745.625 223.827C746.248 224.194 746.908 224.377 747.604 224.377C748.318 224.377 748.987 224.203 749.61 223.855C750.233 223.489 750.727 222.976 751.094 222.316C751.46 221.638 751.643 220.832 751.643 219.898ZM765.101 227.757C763.856 227.757 762.738 227.537 761.749 227.098C760.759 226.64 759.972 226.026 759.385 225.256C758.818 224.487 758.506 223.635 758.451 222.701H762.326C762.399 223.287 762.683 223.772 763.178 224.157C763.691 224.542 764.323 224.734 765.074 224.734C765.807 224.734 766.375 224.588 766.778 224.295C767.199 224.001 767.41 223.626 767.41 223.168C767.41 222.673 767.153 222.307 766.64 222.069C766.146 221.812 765.349 221.537 764.249 221.244C763.114 220.97 762.179 220.686 761.446 220.392C760.732 220.099 760.109 219.65 759.578 219.046C759.065 218.441 758.808 217.626 758.808 216.6C758.808 215.757 759.047 214.988 759.523 214.292C760.017 213.596 760.714 213.046 761.611 212.643C762.527 212.24 763.599 212.038 764.826 212.038C766.64 212.038 768.087 212.496 769.168 213.412C770.249 214.31 770.845 215.528 770.955 217.067H767.272C767.217 216.463 766.961 215.986 766.503 215.638C766.063 215.272 765.468 215.089 764.717 215.089C764.02 215.089 763.48 215.217 763.095 215.473C762.729 215.73 762.546 216.087 762.546 216.545C762.546 217.058 762.802 217.452 763.315 217.727C763.828 217.983 764.625 218.249 765.706 218.524C766.805 218.799 767.712 219.083 768.426 219.376C769.141 219.669 769.755 220.127 770.268 220.75C770.799 221.354 771.074 222.16 771.092 223.168C771.092 224.047 770.845 224.835 770.35 225.531C769.874 226.227 769.177 226.777 768.261 227.18C767.364 227.565 766.31 227.757 765.101 227.757Z" fill="#585858"/>
<path d="M397.79 89.3105H496.915" stroke="#36C4E8" stroke-width="5.88859"/>
<path d="M494.537 90.4266V59.4914H762.246V121.362H640.885V183.232" stroke="#36C4E8" stroke-width="7.13891"/>
</svg>
