<svg width="474" height="169" viewBox="0 0 474 169" fill="none" xmlns="http://www.w3.org/2000/svg">
<rect x="24.9062" y="45.1328" width="104.824" height="18.9265" fill="#36C4E8"/>
<rect x="128.274" y="45.1328" width="104.824" height="18.9265" fill="#209CE2"/>
<rect x="314.628" y="45.1328" width="144.133" height="18.9265" fill="#0A73DC"/>
<path d="M120.036 18H117.682L112.353 9.94676V18H109.999V6.24799H112.353L117.682 14.318V6.24799H120.036V18ZM126.498 18.1513C125.601 18.1513 124.794 17.9552 124.077 17.5629C123.36 17.1594 122.794 16.5933 122.379 15.8648C121.975 15.1363 121.774 14.2956 121.774 13.3429C121.774 12.3902 121.981 11.5496 122.396 10.821C122.822 10.0925 123.399 9.53205 124.127 9.13976C124.856 8.73625 125.669 8.5345 126.565 8.5345C127.462 8.5345 128.275 8.73625 129.003 9.13976C129.732 9.53205 130.303 10.0925 130.718 10.821C131.144 11.5496 131.357 12.3902 131.357 13.3429C131.357 14.2956 131.138 15.1363 130.701 15.8648C130.275 16.5933 129.692 17.1594 128.953 17.5629C128.224 17.9552 127.406 18.1513 126.498 18.1513ZM126.498 16.1002C126.924 16.1002 127.322 15.9993 127.692 15.7975C128.073 15.5846 128.375 15.2708 128.6 14.856C128.824 14.4413 128.936 13.937 128.936 13.3429C128.936 12.4574 128.7 11.7793 128.23 11.3086C127.77 10.8266 127.204 10.5856 126.532 10.5856C125.859 10.5856 125.293 10.8266 124.834 11.3086C124.385 11.7793 124.161 12.4574 124.161 13.3429C124.161 14.2284 124.38 14.9121 124.817 15.394C125.265 15.8648 125.826 16.1002 126.498 16.1002ZM145.996 8.68582L143.272 18H140.733L139.035 11.4935L137.337 18H134.782L132.041 8.68582H134.428L136.076 15.7807L137.858 8.68582H140.346L142.095 15.7639L143.743 8.68582H145.996Z" fill="#585858"/>
<path d="M373.99 6.2648V8.16462H369.098V11.1741H372.847V13.0403H369.098V18H366.744V6.2648H373.99ZM384.452 8.68582V18H382.082V16.8231C381.779 17.2266 381.381 17.5461 380.888 17.7814C380.406 18.0056 379.879 18.1177 379.308 18.1177C378.579 18.1177 377.935 17.9664 377.374 17.6637C376.814 17.3499 376.371 16.896 376.046 16.3019C375.732 15.6967 375.575 14.9793 375.575 14.1499V8.68582H377.929V13.8137C377.929 14.5534 378.114 15.125 378.484 15.5285C378.854 15.9208 379.358 16.117 379.997 16.117C380.647 16.117 381.157 15.9208 381.527 15.5285C381.897 15.125 382.082 14.5534 382.082 13.8137V8.68582H384.452ZM389.515 10.6193V15.125C389.515 15.4389 389.588 15.6687 389.734 15.8144C389.891 15.9489 390.148 16.0161 390.507 16.0161H391.6V18H390.12C388.137 18 387.145 17.0361 387.145 15.1082V10.6193H386.035V8.68582H387.145V6.38249H389.515V8.68582H391.6V10.6193H389.515ZM402.086 8.68582V18H399.715V16.8231C399.413 17.2266 399.015 17.5461 398.522 17.7814C398.04 18.0056 397.513 18.1177 396.941 18.1177C396.213 18.1177 395.568 17.9664 395.008 17.6637C394.447 17.3499 394.005 16.896 393.68 16.3019C393.366 15.6967 393.209 14.9793 393.209 14.1499V8.68582H395.563V13.8137C395.563 14.5534 395.748 15.125 396.117 15.5285C396.487 15.9208 396.992 16.117 397.631 16.117C398.281 16.117 398.791 15.9208 399.16 15.5285C399.53 15.125 399.715 14.5534 399.715 13.8137V8.68582H402.086ZM406.762 10.1317C407.065 9.63853 407.457 9.25184 407.939 8.97163C408.432 8.69142 408.992 8.55131 409.62 8.55131V11.0228H408.998C408.258 11.0228 407.698 11.1965 407.317 11.544C406.947 11.8914 406.762 12.4967 406.762 13.3597V18H404.408V8.68582H406.762V10.1317ZM419.864 13.1412C419.864 13.4774 419.842 13.78 419.797 14.049H412.988C413.044 14.7215 413.279 15.2483 413.694 15.6294C414.108 16.0105 414.618 16.2011 415.224 16.2011C416.098 16.2011 416.72 15.8256 417.09 15.0746H419.629C419.36 15.9713 418.844 16.711 418.082 17.2939C417.32 17.8655 416.384 18.1513 415.274 18.1513C414.377 18.1513 413.57 17.9552 412.853 17.5629C412.147 17.1594 411.592 16.5933 411.189 15.8648C410.796 15.1363 410.6 14.2956 410.6 13.3429C410.6 12.379 410.796 11.5328 411.189 10.8042C411.581 10.0757 412.13 9.51524 412.836 9.12294C413.542 8.73065 414.355 8.5345 415.274 8.5345C416.16 8.5345 416.95 8.72504 417.645 9.10613C418.351 9.48722 418.894 10.0308 419.276 10.737C419.668 11.4319 419.864 12.2333 419.864 13.1412ZM417.426 12.4687C417.415 11.8634 417.196 11.3814 416.77 11.0228C416.345 10.6529 415.823 10.468 415.207 10.468C414.624 10.468 414.131 10.6473 413.727 11.006C413.335 11.3534 413.094 11.841 413.004 12.4687H417.426Z" fill="#585858"/>
<path d="M0.608398 36.6279H243.19V74.4563H106.888V106.881" stroke="#36C4E8" stroke-width="3.6027"/>
<path d="M81.5807 127.265V129.165H78.4536V139H76.0998V129.165H72.9727V127.265H81.5807ZM91.9566 134.141C91.9566 134.477 91.9342 134.78 91.8893 135.049H85.0802C85.1363 135.722 85.3717 136.248 85.7864 136.629C86.2011 137.011 86.7111 137.201 87.3163 137.201C88.1906 137.201 88.8126 136.826 89.1825 136.075H91.7212C91.4522 136.971 90.9366 137.711 90.1745 138.294C89.4123 138.865 88.4764 139.151 87.3668 139.151C86.4701 139.151 85.6631 138.955 84.9457 138.563C84.2396 138.159 83.6848 137.593 83.2813 136.865C82.889 136.136 82.6928 135.296 82.6928 134.343C82.6928 133.379 82.889 132.533 83.2813 131.804C83.6736 131.076 84.2228 130.515 84.9289 130.123C85.6351 129.731 86.4477 129.535 87.3668 129.535C88.2522 129.535 89.0424 129.725 89.7373 130.106C90.4435 130.487 90.9871 131.031 91.3682 131.737C91.7604 132.432 91.9566 133.233 91.9566 134.141ZM89.5188 133.469C89.5076 132.863 89.289 132.381 88.8631 132.023C88.4372 131.653 87.916 131.468 87.2995 131.468C86.7167 131.468 86.2235 131.647 85.82 132.006C85.4277 132.353 85.1867 132.841 85.0971 133.469H89.5188ZM93.0694 134.309C93.0694 133.368 93.2543 132.533 93.6242 131.804C94.0053 131.076 94.5153 130.515 95.1541 130.123C95.8042 129.731 96.5272 129.535 97.323 129.535C98.0179 129.535 98.6231 129.675 99.1387 129.955C99.6655 130.235 100.086 130.588 100.4 131.014V129.686H102.77V139H100.4V137.638C100.097 138.075 99.6767 138.44 99.1387 138.731C98.6119 139.011 98.0011 139.151 97.3062 139.151C96.5216 139.151 95.8042 138.95 95.1541 138.546C94.5153 138.143 94.0053 137.577 93.6242 136.848C93.2543 136.108 93.0694 135.262 93.0694 134.309ZM100.4 134.343C100.4 133.771 100.288 133.284 100.063 132.88C99.8393 132.465 99.5366 132.152 99.1555 131.939C98.7745 131.715 98.3654 131.602 97.9282 131.602C97.4911 131.602 97.0876 131.709 96.7177 131.922C96.3478 132.135 96.0452 132.449 95.8098 132.863C95.5857 133.267 95.4736 133.749 95.4736 134.309C95.4736 134.87 95.5857 135.363 95.8098 135.789C96.0452 136.204 96.3478 136.523 96.7177 136.747C97.0988 136.971 97.5023 137.083 97.9282 137.083C98.3654 137.083 98.7745 136.977 99.1555 136.764C99.5366 136.54 99.8393 136.226 100.063 135.822C100.288 135.408 100.4 134.915 100.4 134.343ZM104.464 134.343C104.464 133.379 104.66 132.538 105.052 131.821C105.445 131.092 105.988 130.532 106.683 130.14C107.378 129.736 108.174 129.535 109.071 129.535C110.225 129.535 111.178 129.826 111.929 130.409C112.691 130.98 113.201 131.787 113.459 132.83H110.92C110.785 132.426 110.556 132.112 110.231 131.888C109.917 131.653 109.524 131.535 109.054 131.535C108.381 131.535 107.849 131.782 107.457 132.275C107.064 132.757 106.868 133.446 106.868 134.343C106.868 135.228 107.064 135.918 107.457 136.411C107.849 136.893 108.381 137.134 109.054 137.134C110.006 137.134 110.628 136.708 110.92 135.856H113.459C113.201 136.865 112.691 137.666 111.929 138.26C111.166 138.854 110.214 139.151 109.071 139.151C108.174 139.151 107.378 138.955 106.683 138.563C105.988 138.159 105.445 137.599 105.052 136.882C104.66 136.153 104.464 135.307 104.464 134.343ZM120.428 129.551C121.135 129.551 121.762 129.708 122.311 130.022C122.861 130.325 123.287 130.779 123.589 131.384C123.903 131.978 124.06 132.695 124.06 133.536V139H121.706V133.855C121.706 133.116 121.521 132.55 121.151 132.157C120.782 131.754 120.277 131.552 119.638 131.552C118.988 131.552 118.473 131.754 118.092 132.157C117.722 132.55 117.537 133.116 117.537 133.855V139H115.183V126.559H117.537V130.846C117.839 130.442 118.243 130.129 118.747 129.904C119.252 129.669 119.812 129.551 120.428 129.551ZM134.957 134.141C134.957 134.477 134.934 134.78 134.89 135.049H128.08C128.136 135.722 128.372 136.248 128.787 136.629C129.201 137.011 129.711 137.201 130.317 137.201C131.191 137.201 131.813 136.826 132.183 136.075H134.721C134.452 136.971 133.937 137.711 133.175 138.294C132.412 138.865 131.477 139.151 130.367 139.151C129.47 139.151 128.663 138.955 127.946 138.563C127.24 138.159 126.685 137.593 126.282 136.865C125.889 136.136 125.693 135.296 125.693 134.343C125.693 133.379 125.889 132.533 126.282 131.804C126.674 131.076 127.223 130.515 127.929 130.123C128.635 129.731 129.448 129.535 130.367 129.535C131.252 129.535 132.043 129.725 132.738 130.106C133.444 130.487 133.987 131.031 134.368 131.737C134.761 132.432 134.957 133.233 134.957 134.141ZM132.519 133.469C132.508 132.863 132.289 132.381 131.863 132.023C131.437 131.653 130.916 131.468 130.3 131.468C129.717 131.468 129.224 131.647 128.82 132.006C128.428 132.353 128.187 132.841 128.097 133.469H132.519ZM139.029 131.132C139.331 130.639 139.724 130.252 140.205 129.972C140.699 129.691 141.259 129.551 141.887 129.551V132.023H141.265C140.525 132.023 139.965 132.196 139.583 132.544C139.214 132.891 139.029 133.497 139.029 134.36V139H136.675V129.686H139.029V131.132ZM147.036 139.151C146.274 139.151 145.591 139.017 144.985 138.748C144.38 138.468 143.898 138.092 143.539 137.621C143.192 137.151 143.001 136.629 142.968 136.058H145.338C145.383 136.416 145.557 136.713 145.86 136.949C146.173 137.184 146.56 137.302 147.02 137.302C147.468 137.302 147.815 137.212 148.062 137.033C148.32 136.854 148.449 136.624 148.449 136.344C148.449 136.041 148.292 135.817 147.978 135.671C147.675 135.514 147.188 135.346 146.515 135.167C145.82 134.999 145.249 134.825 144.8 134.646C144.363 134.466 143.982 134.192 143.657 133.822C143.343 133.452 143.186 132.953 143.186 132.325C143.186 131.81 143.332 131.339 143.623 130.913C143.926 130.487 144.352 130.151 144.901 129.904C145.462 129.658 146.117 129.535 146.868 129.535C147.978 129.535 148.863 129.815 149.525 130.375C150.186 130.924 150.55 131.67 150.617 132.611H148.365C148.331 132.241 148.174 131.95 147.894 131.737C147.625 131.513 147.261 131.401 146.801 131.401C146.375 131.401 146.044 131.479 145.809 131.636C145.585 131.793 145.473 132.012 145.473 132.292C145.473 132.606 145.63 132.847 145.944 133.015C146.257 133.172 146.745 133.334 147.406 133.502C148.079 133.67 148.634 133.844 149.071 134.023C149.508 134.203 149.883 134.483 150.197 134.864C150.522 135.234 150.69 135.727 150.702 136.344C150.702 136.882 150.55 137.364 150.248 137.789C149.956 138.215 149.53 138.552 148.97 138.798C148.421 139.034 147.776 139.151 147.036 139.151ZM165.668 139L164.39 137.739C163.303 138.714 161.975 139.202 160.406 139.202C159.543 139.202 158.781 139.056 158.119 138.765C157.469 138.462 156.965 138.042 156.606 137.504C156.248 136.954 156.068 136.321 156.068 135.604C156.068 134.83 156.287 134.136 156.724 133.519C157.161 132.903 157.805 132.404 158.657 132.023C158.355 131.653 158.136 131.3 158.002 130.964C157.867 130.616 157.8 130.246 157.8 129.854C157.8 129.316 157.94 128.834 158.22 128.408C158.5 127.971 158.898 127.629 159.414 127.382C159.941 127.136 160.552 127.013 161.246 127.013C161.953 127.013 162.558 127.147 163.062 127.416C163.567 127.685 163.942 128.044 164.189 128.492C164.435 128.94 164.542 129.439 164.508 129.988H162.222C162.233 129.619 162.143 129.338 161.953 129.148C161.762 128.946 161.504 128.845 161.179 128.845C160.865 128.845 160.602 128.94 160.389 129.131C160.187 129.31 160.086 129.546 160.086 129.837C160.086 130.117 160.17 130.398 160.339 130.678C160.507 130.947 160.781 131.283 161.162 131.687L164.121 134.612C164.144 134.589 164.161 134.567 164.172 134.545C164.183 134.522 164.194 134.5 164.205 134.477L165.164 132.88H167.618L166.442 134.948C166.217 135.385 165.976 135.8 165.719 136.192L168.56 139H165.668ZM160.473 137.251C161.392 137.251 162.205 136.926 162.911 136.276L160.019 133.418C158.932 133.9 158.388 134.584 158.388 135.469C158.388 135.974 158.579 136.4 158.96 136.747C159.341 137.083 159.845 137.251 160.473 137.251ZM42.2974 164.118C41.4792 164.118 40.7394 163.978 40.0781 163.697C39.4281 163.417 38.9125 163.014 38.5314 162.487C38.1503 161.96 37.9542 161.338 37.9429 160.621H40.4648C40.4985 161.103 40.6666 161.484 40.9692 161.764C41.2831 162.044 41.709 162.184 42.247 162.184C42.7962 162.184 43.2277 162.055 43.5415 161.798C43.8554 161.529 44.0123 161.181 44.0123 160.755C44.0123 160.408 43.9058 160.122 43.6929 159.898C43.4799 159.674 43.2109 159.5 42.8859 159.377C42.572 159.242 42.1349 159.096 41.5745 158.939C40.8123 158.715 40.1902 158.497 39.7083 158.284C39.2375 158.06 38.8284 157.729 38.4809 157.292C38.1447 156.843 37.9766 156.249 37.9766 155.51C37.9766 154.815 38.1503 154.209 38.4978 153.694C38.8452 153.178 39.3328 152.786 39.9605 152.517C40.5881 152.237 41.3055 152.097 42.1125 152.097C43.323 152.097 44.3037 152.394 45.0547 152.988C45.8169 153.571 46.2372 154.389 46.3156 155.442H43.7265C43.7041 155.039 43.5303 154.708 43.2053 154.45C42.8915 154.181 42.4711 154.047 41.9443 154.047C41.4848 154.047 41.1149 154.165 40.8347 154.4C40.5657 154.635 40.4312 154.977 40.4312 155.426C40.4312 155.739 40.5321 156.003 40.7338 156.216C40.9468 156.418 41.2046 156.586 41.5072 156.72C41.8211 156.843 42.2582 156.989 42.8186 157.157C43.5808 157.381 44.2028 157.606 44.6848 157.83C45.1668 158.054 45.5815 158.39 45.9289 158.839C46.2764 159.287 46.4501 159.875 46.4501 160.604C46.4501 161.232 46.2876 161.814 45.9626 162.352C45.6375 162.89 45.1612 163.322 44.5335 163.647C43.9058 163.961 43.1605 164.118 42.2974 164.118ZM51.2312 156.619V161.125C51.2312 161.439 51.3041 161.669 51.4498 161.814C51.6067 161.949 51.8645 162.016 52.2232 162.016H53.316V164H51.8365C49.8526 164 48.8606 163.036 48.8606 161.108V156.619H47.751V154.686H48.8606V152.382H51.2312V154.686H53.316V156.619H51.2312ZM63.8019 154.686V164H61.4313V162.823C61.1287 163.227 60.7308 163.546 60.2376 163.781C59.7557 164.006 59.2289 164.118 58.6573 164.118C57.9287 164.118 57.2842 163.966 56.7238 163.664C56.1634 163.35 55.7207 162.896 55.3956 162.302C55.0818 161.697 54.9249 160.979 54.9249 160.15V154.686H57.2786V159.814C57.2786 160.553 57.4636 161.125 57.8334 161.529C58.2033 161.921 58.7077 162.117 59.3466 162.117C59.9967 162.117 60.5066 161.921 60.8765 161.529C61.2464 161.125 61.4313 160.553 61.4313 159.814V154.686H63.8019ZM65.519 159.309C65.519 158.368 65.704 157.533 66.0739 156.804C66.4549 156.076 66.9705 155.515 67.6206 155.123C68.2707 154.731 68.9936 154.535 69.7894 154.535C70.3947 154.535 70.9719 154.669 71.5211 154.938C72.0703 155.196 72.5075 155.543 72.8325 155.98V151.559H75.2199V164H72.8325V162.621C72.5411 163.081 72.132 163.451 71.6052 163.731C71.0784 164.011 70.4675 164.151 69.7726 164.151C68.988 164.151 68.2707 163.95 67.6206 163.546C66.9705 163.143 66.4549 162.577 66.0739 161.848C65.704 161.108 65.519 160.262 65.519 159.309ZM72.8493 159.343C72.8493 158.771 72.7372 158.284 72.5131 157.88C72.2889 157.465 71.9863 157.152 71.6052 156.939C71.2241 156.715 70.815 156.602 70.3779 156.602C69.9408 156.602 69.5372 156.709 69.1674 156.922C68.7975 157.135 68.4949 157.449 68.2595 157.863C68.0353 158.267 67.9232 158.749 67.9232 159.309C67.9232 159.87 68.0353 160.363 68.2595 160.789C68.4949 161.204 68.7975 161.523 69.1674 161.747C69.5485 161.971 69.952 162.083 70.3779 162.083C70.815 162.083 71.2241 161.977 71.6052 161.764C71.9863 161.54 72.2889 161.226 72.5131 160.822C72.7372 160.408 72.8493 159.915 72.8493 159.343ZM86.1773 159.141C86.1773 159.477 86.1548 159.78 86.11 160.049H79.3009C79.3569 160.722 79.5923 161.248 80.007 161.629C80.4217 162.011 80.9317 162.201 81.537 162.201C82.4112 162.201 83.0333 161.826 83.4032 161.075H85.9419C85.6729 161.971 85.1573 162.711 84.3951 163.294C83.633 163.865 82.6971 164.151 81.5874 164.151C80.6907 164.151 79.8837 163.955 79.1664 163.563C78.4603 163.159 77.9055 162.593 77.502 161.865C77.1097 161.136 76.9135 160.296 76.9135 159.343C76.9135 158.379 77.1097 157.533 77.502 156.804C77.8943 156.076 78.4435 155.515 79.1496 155.123C79.8557 154.731 80.6683 154.535 81.5874 154.535C82.4729 154.535 83.2631 154.725 83.958 155.106C84.6641 155.487 85.2077 156.031 85.5888 156.737C85.9811 157.432 86.1773 158.233 86.1773 159.141ZM83.7394 158.469C83.7282 157.863 83.5097 157.381 83.0837 157.023C82.6578 156.653 82.1366 156.468 81.5202 156.468C80.9373 156.468 80.4442 156.647 80.0407 157.006C79.6484 157.353 79.4074 157.841 79.3177 158.469H83.7394ZM93.0568 154.551C94.1664 154.551 95.0631 154.904 95.7468 155.611C96.4305 156.305 96.7724 157.281 96.7724 158.536V164H94.4186V158.855C94.4186 158.116 94.2337 157.55 93.8638 157.157C93.4939 156.754 92.9895 156.552 92.3506 156.552C91.7006 156.552 91.185 156.754 90.8039 157.157C90.434 157.55 90.2491 158.116 90.2491 158.855V164H87.8953V154.686H90.2491V155.846C90.5629 155.442 90.9608 155.129 91.4428 154.904C91.9359 154.669 92.4739 154.551 93.0568 154.551ZM101.751 156.619V161.125C101.751 161.439 101.824 161.669 101.97 161.814C102.127 161.949 102.384 162.016 102.743 162.016H103.836V164H102.356C100.372 164 99.3805 163.036 99.3805 161.108V156.619H98.2709V154.686H99.3805V152.382H101.751V154.686H103.836V156.619H101.751ZM109.093 164.151C108.331 164.151 107.647 164.017 107.042 163.748C106.437 163.468 105.955 163.092 105.596 162.621C105.249 162.151 105.058 161.629 105.024 161.058H107.395C107.44 161.416 107.614 161.713 107.916 161.949C108.23 162.184 108.617 162.302 109.076 162.302C109.525 162.302 109.872 162.212 110.119 162.033C110.376 161.854 110.505 161.624 110.505 161.344C110.505 161.041 110.348 160.817 110.035 160.671C109.732 160.514 109.244 160.346 108.572 160.167C107.877 159.999 107.305 159.825 106.857 159.646C106.42 159.466 106.039 159.192 105.714 158.822C105.4 158.452 105.243 157.953 105.243 157.325C105.243 156.81 105.389 156.339 105.68 155.913C105.983 155.487 106.409 155.151 106.958 154.904C107.518 154.658 108.174 154.535 108.925 154.535C110.035 154.535 110.92 154.815 111.581 155.375C112.243 155.924 112.607 156.67 112.674 157.611H110.421C110.388 157.241 110.231 156.95 109.951 156.737C109.682 156.513 109.317 156.401 108.858 156.401C108.432 156.401 108.101 156.479 107.866 156.636C107.642 156.793 107.53 157.012 107.53 157.292C107.53 157.606 107.686 157.847 108 158.015C108.314 158.172 108.802 158.334 109.463 158.502C110.135 158.67 110.69 158.844 111.127 159.023C111.565 159.203 111.94 159.483 112.254 159.864C112.579 160.234 112.747 160.727 112.758 161.344C112.758 161.882 112.607 162.364 112.304 162.789C112.013 163.215 111.587 163.552 111.027 163.798C110.477 164.034 109.833 164.151 109.093 164.151ZM118.091 159.309C118.091 158.368 118.276 157.533 118.646 156.804C119.027 156.076 119.537 155.515 120.176 155.123C120.826 154.731 121.549 154.535 122.345 154.535C123.04 154.535 123.645 154.675 124.161 154.955C124.687 155.235 125.108 155.588 125.422 156.014V154.686H127.792V164H125.422V162.638C125.119 163.075 124.699 163.44 124.161 163.731C123.634 164.011 123.023 164.151 122.328 164.151C121.543 164.151 120.826 163.95 120.176 163.546C119.537 163.143 119.027 162.577 118.646 161.848C118.276 161.108 118.091 160.262 118.091 159.309ZM125.422 159.343C125.422 158.771 125.309 158.284 125.085 157.88C124.861 157.465 124.559 157.152 124.177 156.939C123.796 156.715 123.387 156.602 122.95 156.602C122.513 156.602 122.109 156.709 121.74 156.922C121.37 157.135 121.067 157.449 120.832 157.863C120.608 158.267 120.495 158.749 120.495 159.309C120.495 159.87 120.608 160.363 120.832 160.789C121.067 161.204 121.37 161.523 121.74 161.747C122.121 161.971 122.524 162.083 122.95 162.083C123.387 162.083 123.796 161.977 124.177 161.764C124.559 161.54 124.861 161.226 125.085 160.822C125.309 160.408 125.422 159.915 125.422 159.343ZM133.739 154.535C134.434 154.535 135.045 154.675 135.572 154.955C136.099 155.224 136.513 155.577 136.816 156.014V154.686H139.187V164.067C139.187 164.93 139.013 165.698 138.665 166.371C138.318 167.054 137.797 167.592 137.102 167.985C136.407 168.388 135.566 168.59 134.58 168.59C133.257 168.59 132.17 168.282 131.318 167.665C130.478 167.049 130.001 166.208 129.889 165.143H132.226C132.349 165.569 132.613 165.905 133.016 166.152C133.431 166.41 133.93 166.539 134.513 166.539C135.196 166.539 135.751 166.331 136.177 165.917C136.603 165.513 136.816 164.897 136.816 164.067V162.621C136.513 163.058 136.093 163.423 135.555 163.714C135.028 164.006 134.423 164.151 133.739 164.151C132.955 164.151 132.237 163.95 131.587 163.546C130.937 163.143 130.422 162.577 130.041 161.848C129.671 161.108 129.486 160.262 129.486 159.309C129.486 158.368 129.671 157.533 130.041 156.804C130.422 156.076 130.932 155.515 131.571 155.123C132.221 154.731 132.944 154.535 133.739 154.535ZM136.816 159.343C136.816 158.771 136.704 158.284 136.48 157.88C136.256 157.465 135.953 157.152 135.572 156.939C135.191 156.715 134.782 156.602 134.345 156.602C133.907 156.602 133.504 156.709 133.134 156.922C132.764 157.135 132.462 157.449 132.226 157.863C132.002 158.267 131.89 158.749 131.89 159.309C131.89 159.87 132.002 160.363 132.226 160.789C132.462 161.204 132.764 161.523 133.134 161.747C133.515 161.971 133.919 162.083 134.345 162.083C134.782 162.083 135.191 161.977 135.572 161.764C135.953 161.54 136.256 161.226 136.48 160.822C136.704 160.408 136.816 159.915 136.816 159.343ZM150.144 159.141C150.144 159.477 150.122 159.78 150.077 160.049H143.268C143.324 160.722 143.559 161.248 143.974 161.629C144.388 162.011 144.898 162.201 145.504 162.201C146.378 162.201 147 161.826 147.37 161.075H149.909C149.64 161.971 149.124 162.711 148.362 163.294C147.6 163.865 146.664 164.151 145.554 164.151C144.657 164.151 143.85 163.955 143.133 163.563C142.427 163.159 141.872 162.593 141.469 161.865C141.076 161.136 140.88 160.296 140.88 159.343C140.88 158.379 141.076 157.533 141.469 156.804C141.861 156.076 142.41 155.515 143.116 155.123C143.822 154.731 144.635 154.535 145.554 154.535C146.44 154.535 147.23 154.725 147.925 155.106C148.631 155.487 149.174 156.031 149.556 156.737C149.948 157.432 150.144 158.233 150.144 159.141ZM147.706 158.469C147.695 157.863 147.476 157.381 147.05 157.023C146.625 156.653 146.103 156.468 145.487 156.468C144.904 156.468 144.411 156.647 144.007 157.006C143.615 157.353 143.374 157.841 143.284 158.469H147.706ZM151.257 159.309C151.257 158.368 151.442 157.533 151.812 156.804C152.193 156.076 152.708 155.515 153.358 155.123C154.008 154.731 154.731 154.535 155.527 154.535C156.132 154.535 156.71 154.669 157.259 154.938C157.808 155.196 158.245 155.543 158.57 155.98V151.559H160.958V164H158.57V162.621C158.279 163.081 157.87 163.451 157.343 163.731C156.816 164.011 156.205 164.151 155.51 164.151C154.726 164.151 154.008 163.95 153.358 163.546C152.708 163.143 152.193 162.577 151.812 161.848C151.442 161.108 151.257 160.262 151.257 159.309ZM158.587 159.343C158.587 158.771 158.475 158.284 158.251 157.88C158.027 157.465 157.724 157.152 157.343 156.939C156.962 156.715 156.553 156.602 156.116 156.602C155.678 156.602 155.275 156.709 154.905 156.922C154.535 157.135 154.233 157.449 153.997 157.863C153.773 158.267 153.661 158.749 153.661 159.309C153.661 159.87 153.773 160.363 153.997 160.789C154.233 161.204 154.535 161.523 154.905 161.747C155.286 161.971 155.69 162.083 156.116 162.083C156.553 162.083 156.962 161.977 157.343 161.764C157.724 161.54 158.027 161.226 158.251 160.822C158.475 160.408 158.587 159.915 158.587 159.343ZM169.045 157.51C167.924 156.927 167.364 156.025 167.364 154.804C167.364 154.198 167.515 153.649 167.817 153.156C168.131 152.651 168.596 152.254 169.213 151.962C169.841 151.66 170.603 151.508 171.499 151.508C172.396 151.508 173.153 151.66 173.769 151.962C174.397 152.254 174.862 152.651 175.165 153.156C175.478 153.649 175.635 154.198 175.635 154.804C175.635 155.42 175.484 155.964 175.181 156.434C174.879 156.894 174.475 157.253 173.971 157.51C174.587 157.779 175.069 158.172 175.417 158.687C175.764 159.203 175.938 159.814 175.938 160.52C175.938 161.282 175.742 161.949 175.35 162.52C174.968 163.081 174.442 163.512 173.769 163.815C173.097 164.118 172.34 164.269 171.499 164.269C170.659 164.269 169.902 164.118 169.23 163.815C168.568 163.512 168.042 163.081 167.649 162.52C167.268 161.949 167.078 161.282 167.078 160.52C167.078 159.814 167.251 159.203 167.599 158.687C167.946 158.16 168.428 157.768 169.045 157.51ZM173.349 155.14C173.349 154.591 173.181 154.165 172.844 153.862C172.519 153.559 172.071 153.408 171.499 153.408C170.939 153.408 170.491 153.559 170.154 153.862C169.829 154.165 169.667 154.596 169.667 155.157C169.667 155.661 169.835 156.064 170.171 156.367C170.519 156.67 170.961 156.821 171.499 156.821C172.037 156.821 172.48 156.67 172.828 156.367C173.175 156.053 173.349 155.644 173.349 155.14ZM171.499 158.536C170.861 158.536 170.339 158.698 169.936 159.023C169.544 159.349 169.347 159.814 169.347 160.419C169.347 160.979 169.538 161.439 169.919 161.798C170.311 162.145 170.838 162.319 171.499 162.319C172.161 162.319 172.682 162.139 173.063 161.781C173.444 161.422 173.635 160.968 173.635 160.419C173.635 159.825 173.438 159.365 173.046 159.04C172.654 158.704 172.138 158.536 171.499 158.536ZM185.228 157.006V158.99H178.1V157.006H185.228ZM187.313 153.912V151.744H191.365V164H188.944V153.912H187.313ZM193.589 161.613V159.763L199.087 151.895H201.828V159.561H203.307V161.613H201.828V164H199.474V161.613H193.589ZM199.625 154.417L196.178 159.561H199.625V154.417Z" fill="#585858"/>
<path d="M317.433 130.735C317.433 131.363 317.281 131.951 316.979 132.501C316.687 133.05 316.222 133.492 315.583 133.829C314.956 134.165 314.16 134.333 313.196 134.333H311.229V138.839H308.875V127.104H313.196C314.104 127.104 314.877 127.261 315.516 127.574C316.155 127.888 316.631 128.32 316.945 128.869C317.27 129.418 317.433 130.04 317.433 130.735ZM313.095 132.433C313.745 132.433 314.227 132.288 314.541 131.996C314.855 131.694 315.012 131.273 315.012 130.735C315.012 129.592 314.373 129.02 313.095 129.02H311.229V132.433H313.095ZM318.499 134.148C318.499 133.207 318.683 132.372 319.053 131.643C319.434 130.915 319.944 130.354 320.583 129.962C321.233 129.57 321.956 129.373 322.752 129.373C323.447 129.373 324.052 129.513 324.568 129.794C325.095 130.074 325.515 130.427 325.829 130.853V129.525H328.199V138.839H325.829V137.477C325.526 137.914 325.106 138.278 324.568 138.57C324.041 138.85 323.43 138.99 322.735 138.99C321.951 138.99 321.233 138.788 320.583 138.385C319.944 137.981 319.434 137.415 319.053 136.687C318.683 135.947 318.499 135.101 318.499 134.148ZM325.829 134.182C325.829 133.61 325.717 133.123 325.493 132.719C325.268 132.304 324.966 131.991 324.585 131.778C324.204 131.553 323.795 131.441 323.357 131.441C322.92 131.441 322.517 131.548 322.147 131.761C321.777 131.974 321.474 132.288 321.239 132.702C321.015 133.106 320.903 133.588 320.903 134.148C320.903 134.709 321.015 135.202 321.239 135.628C321.474 136.042 321.777 136.362 322.147 136.586C322.528 136.81 322.931 136.922 323.357 136.922C323.795 136.922 324.204 136.816 324.585 136.603C324.966 136.379 325.268 136.065 325.493 135.661C325.717 135.247 325.829 134.753 325.829 134.182ZM332.852 130.971C333.155 130.477 333.547 130.091 334.029 129.81C334.522 129.53 335.083 129.39 335.71 129.39V131.862H335.088C334.348 131.862 333.788 132.035 333.407 132.383C333.037 132.73 332.852 133.336 332.852 134.199V138.839H330.498V129.525H332.852V130.971ZM345.954 133.98C345.954 134.316 345.932 134.619 345.887 134.888H339.078C339.134 135.56 339.369 136.087 339.784 136.468C340.199 136.849 340.709 137.04 341.314 137.04C342.188 137.04 342.81 136.664 343.18 135.913H345.719C345.45 136.81 344.934 137.55 344.172 138.133C343.41 138.704 342.474 138.99 341.364 138.99C340.468 138.99 339.661 138.794 338.943 138.402C338.237 137.998 337.682 137.432 337.279 136.704C336.886 135.975 336.69 135.134 336.69 134.182C336.69 133.218 336.886 132.372 337.279 131.643C337.671 130.915 338.22 130.354 338.926 129.962C339.633 129.57 340.445 129.373 341.364 129.373C342.25 129.373 343.04 129.564 343.735 129.945C344.441 130.326 344.985 130.87 345.366 131.576C345.758 132.271 345.954 133.072 345.954 133.98ZM343.516 133.308C343.505 132.702 343.286 132.22 342.861 131.862C342.435 131.492 341.913 131.307 341.297 131.307C340.714 131.307 340.221 131.486 339.817 131.845C339.425 132.192 339.184 132.68 339.095 133.308H343.516ZM352.834 129.39C353.943 129.39 354.84 129.743 355.524 130.449C356.207 131.144 356.549 132.119 356.549 133.375V138.839H354.195V133.694C354.195 132.954 354.01 132.388 353.641 131.996C353.271 131.593 352.766 131.391 352.127 131.391C351.477 131.391 350.962 131.593 350.581 131.996C350.211 132.388 350.026 132.954 350.026 133.694V138.839H347.672V129.525H350.026V130.685C350.34 130.281 350.738 129.967 351.22 129.743C351.713 129.508 352.251 129.39 352.834 129.39ZM361.528 131.458V135.964C361.528 136.278 361.601 136.508 361.746 136.653C361.903 136.788 362.161 136.855 362.52 136.855H363.613V138.839H362.133C360.149 138.839 359.157 137.875 359.157 135.947V131.458H358.048V129.525H359.157V127.221H361.528V129.525H363.613V131.458H361.528ZM368.87 138.99C368.108 138.99 367.424 138.856 366.819 138.587C366.214 138.306 365.732 137.931 365.373 137.46C365.025 136.989 364.835 136.468 364.801 135.897H367.172C367.217 136.255 367.39 136.552 367.693 136.788C368.007 137.023 368.394 137.141 368.853 137.141C369.301 137.141 369.649 137.051 369.895 136.872C370.153 136.692 370.282 136.463 370.282 136.182C370.282 135.88 370.125 135.656 369.811 135.51C369.509 135.353 369.021 135.185 368.349 135.006C367.654 134.837 367.082 134.664 366.634 134.484C366.197 134.305 365.816 134.03 365.491 133.661C365.177 133.291 365.02 132.792 365.02 132.164C365.02 131.649 365.166 131.178 365.457 130.752C365.76 130.326 366.185 129.99 366.735 129.743C367.295 129.497 367.951 129.373 368.702 129.373C369.811 129.373 370.697 129.654 371.358 130.214C372.019 130.763 372.384 131.509 372.451 132.45H370.198C370.164 132.08 370.008 131.789 369.727 131.576C369.458 131.352 369.094 131.24 368.635 131.24C368.209 131.24 367.878 131.318 367.643 131.475C367.418 131.632 367.306 131.85 367.306 132.131C367.306 132.444 367.463 132.685 367.777 132.854C368.091 133.01 368.578 133.173 369.24 133.341C369.912 133.509 370.467 133.683 370.904 133.862C371.341 134.042 371.717 134.322 372.031 134.703C372.356 135.073 372.524 135.566 372.535 136.182C372.535 136.72 372.384 137.202 372.081 137.628C371.79 138.054 371.364 138.391 370.803 138.637C370.254 138.872 369.61 138.99 368.87 138.99ZM387.502 138.839L386.224 137.578C385.137 138.553 383.809 139.041 382.239 139.041C381.376 139.041 380.614 138.895 379.953 138.603C379.303 138.301 378.798 137.881 378.44 137.343C378.081 136.793 377.902 136.16 377.902 135.443C377.902 134.669 378.12 133.974 378.557 133.358C378.995 132.741 379.639 132.243 380.491 131.862C380.188 131.492 379.97 131.139 379.835 130.802C379.701 130.455 379.633 130.085 379.633 129.693C379.633 129.155 379.773 128.673 380.054 128.247C380.334 127.81 380.732 127.468 381.247 127.221C381.774 126.975 382.385 126.851 383.08 126.851C383.786 126.851 384.391 126.986 384.896 127.255C385.4 127.524 385.776 127.883 386.022 128.331C386.269 128.779 386.375 129.278 386.342 129.827H384.055C384.066 129.457 383.977 129.177 383.786 128.987C383.596 128.785 383.338 128.684 383.013 128.684C382.699 128.684 382.435 128.779 382.223 128.97C382.021 129.149 381.92 129.385 381.92 129.676C381.92 129.956 382.004 130.236 382.172 130.517C382.34 130.786 382.615 131.122 382.996 131.525L385.955 134.451C385.977 134.428 385.994 134.406 386.005 134.384C386.017 134.361 386.028 134.339 386.039 134.316L386.997 132.719H389.452L388.275 134.787C388.051 135.224 387.81 135.639 387.552 136.031L390.393 138.839H387.502ZM382.307 137.09C383.226 137.09 384.038 136.765 384.744 136.115L381.853 133.257C380.765 133.739 380.222 134.423 380.222 135.308C380.222 135.813 380.412 136.239 380.793 136.586C381.175 136.922 381.679 137.09 382.307 137.09ZM398.305 131.458V135.964C398.305 136.278 398.378 136.508 398.524 136.653C398.681 136.788 398.939 136.855 399.297 136.855H400.39V138.839H398.911C396.927 138.839 395.935 137.875 395.935 135.947V131.458H394.825V129.525H395.935V127.221H398.305V129.525H400.39V131.458H398.305ZM407.329 129.39C408.035 129.39 408.663 129.547 409.212 129.861C409.761 130.164 410.187 130.618 410.49 131.223C410.803 131.817 410.96 132.534 410.96 133.375V138.839H408.606V133.694C408.606 132.954 408.422 132.388 408.052 131.996C407.682 131.593 407.177 131.391 406.539 131.391C405.888 131.391 405.373 131.593 404.992 131.996C404.622 132.388 404.437 132.954 404.437 133.694V138.839H402.083V126.398H404.437V130.685C404.74 130.281 405.143 129.967 405.647 129.743C406.152 129.508 406.712 129.39 407.329 129.39ZM421.857 133.98C421.857 134.316 421.835 134.619 421.79 134.888H414.981C415.037 135.56 415.272 136.087 415.687 136.468C416.102 136.849 416.612 137.04 417.217 137.04C418.091 137.04 418.713 136.664 419.083 135.913H421.622C421.353 136.81 420.837 137.55 420.075 138.133C419.313 138.704 418.377 138.99 417.267 138.99C416.371 138.99 415.564 138.794 414.846 138.402C414.14 137.998 413.585 137.432 413.182 136.704C412.789 135.975 412.593 135.134 412.593 134.182C412.593 133.218 412.789 132.372 413.182 131.643C413.574 130.915 414.123 130.354 414.829 129.962C415.536 129.57 416.348 129.373 417.267 129.373C418.153 129.373 418.943 129.564 419.638 129.945C420.344 130.326 420.888 130.87 421.269 131.576C421.661 132.271 421.857 133.072 421.857 133.98ZM419.419 133.308C419.408 132.702 419.189 132.22 418.764 131.862C418.338 131.492 417.816 131.307 417.2 131.307C416.617 131.307 416.124 131.486 415.72 131.845C415.328 132.192 415.087 132.68 414.998 133.308H419.419ZM424.769 128.415C424.354 128.415 424.007 128.286 423.726 128.028C423.457 127.759 423.323 127.429 423.323 127.036C423.323 126.644 423.457 126.319 423.726 126.061C424.007 125.792 424.354 125.658 424.769 125.658C425.183 125.658 425.525 125.792 425.794 126.061C426.075 126.319 426.215 126.644 426.215 127.036C426.215 127.429 426.075 127.759 425.794 128.028C425.525 128.286 425.183 128.415 424.769 128.415ZM425.929 129.525V138.839H423.575V129.525H425.929ZM430.608 130.971C430.911 130.477 431.303 130.091 431.785 129.81C432.278 129.53 432.839 129.39 433.466 129.39V131.862H432.844C432.104 131.862 431.544 132.035 431.163 132.383C430.793 132.73 430.608 133.336 430.608 134.199V138.839H428.254V129.525H430.608V130.971ZM444.572 138.839L441.412 134.871V138.839H439.058V126.398H441.412V133.476L444.539 129.525H447.599L443.496 134.199L447.632 138.839H444.572ZM450.07 128.415C449.655 128.415 449.308 128.286 449.027 128.028C448.758 127.759 448.624 127.429 448.624 127.036C448.624 126.644 448.758 126.319 449.027 126.061C449.308 125.792 449.655 125.658 450.07 125.658C450.485 125.658 450.826 125.792 451.095 126.061C451.376 126.319 451.516 126.644 451.516 127.036C451.516 127.429 451.376 127.759 451.095 128.028C450.826 128.286 450.485 128.415 450.07 128.415ZM451.23 129.525V138.839H448.876V129.525H451.23ZM452.95 134.148C452.95 133.207 453.135 132.372 453.505 131.643C453.886 130.915 454.402 130.354 455.052 129.962C455.702 129.57 456.425 129.373 457.221 129.373C457.826 129.373 458.403 129.508 458.952 129.777C459.501 130.035 459.939 130.382 460.264 130.819V126.398H462.651V138.839H460.264V137.46C459.972 137.92 459.563 138.29 459.036 138.57C458.51 138.85 457.899 138.99 457.204 138.99C456.419 138.99 455.702 138.788 455.052 138.385C454.402 137.981 453.886 137.415 453.505 136.687C453.135 135.947 452.95 135.101 452.95 134.148ZM460.28 134.182C460.28 133.61 460.168 133.123 459.944 132.719C459.72 132.304 459.417 131.991 459.036 131.778C458.655 131.553 458.246 131.441 457.809 131.441C457.372 131.441 456.968 131.548 456.598 131.761C456.229 131.974 455.926 132.288 455.691 132.702C455.466 133.106 455.354 133.588 455.354 134.148C455.354 134.709 455.466 135.202 455.691 135.628C455.926 136.042 456.229 136.362 456.598 136.586C456.98 136.81 457.383 136.922 457.809 136.922C458.246 136.922 458.655 136.816 459.036 136.603C459.417 136.379 459.72 136.065 459.944 135.661C460.168 135.247 460.28 134.753 460.28 134.182ZM468.514 138.99C467.752 138.99 467.068 138.856 466.463 138.587C465.858 138.306 465.376 137.931 465.017 137.46C464.67 136.989 464.479 136.468 464.445 135.897H466.816C466.861 136.255 467.035 136.552 467.337 136.788C467.651 137.023 468.038 137.141 468.497 137.141C468.946 137.141 469.293 137.051 469.54 136.872C469.797 136.692 469.926 136.463 469.926 136.182C469.926 135.88 469.769 135.656 469.456 135.51C469.153 135.353 468.665 135.185 467.993 135.006C467.298 134.837 466.726 134.664 466.278 134.484C465.841 134.305 465.46 134.03 465.135 133.661C464.821 133.291 464.664 132.792 464.664 132.164C464.664 131.649 464.81 131.178 465.101 130.752C465.404 130.326 465.83 129.99 466.379 129.743C466.939 129.497 467.595 129.373 468.346 129.373C469.456 129.373 470.341 129.654 471.002 130.214C471.664 130.763 472.028 131.509 472.095 132.45H469.842C469.809 132.08 469.652 131.789 469.372 131.576C469.103 131.352 468.738 131.24 468.279 131.24C467.853 131.24 467.522 131.318 467.287 131.475C467.063 131.632 466.951 131.85 466.951 132.131C466.951 132.444 467.107 132.685 467.421 132.854C467.735 133.01 468.223 133.173 468.884 133.341C469.557 133.509 470.111 133.683 470.548 133.862C470.986 134.042 471.361 134.322 471.675 134.703C472 135.073 472.168 135.566 472.179 136.182C472.179 136.72 472.028 137.202 471.725 137.628C471.434 138.054 471.008 138.391 470.448 138.637C469.898 138.872 469.254 138.99 468.514 138.99Z" fill="#585858"/>
<path d="M243.789 54.6416H304.435" stroke="#36C4E8" stroke-width="3.6027"/>
<path d="M302.98 55.324V36.3974H466.768V74.2505H392.517V112.104" stroke="#36C4E8" stroke-width="4.36766"/>
</svg>
