<svg width="357" height="205" viewBox="0 0 357 205" fill="none" xmlns="http://www.w3.org/2000/svg">
<path d="M194.27 5.16873L196.099 5.83961L197.06 3.2204H194.27V5.16873ZM122.447 201V202.948H123.807L124.276 201.671L122.447 201ZM74.7514 201L72.9222 201.671L73.3907 202.948H74.7514V201ZM2.92785 5.16873V3.2204H0.138027L1.09866 5.83961L2.92785 5.16873ZM45.0119 5.16873L46.8532 4.53175L46.3995 3.2204H45.0119V5.16873ZM98.8796 160.88L97.0383 161.517L98.8844 166.853L100.722 161.514L98.8796 160.88ZM152.467 5.16873V3.2204H151.077L150.624 4.53472L152.467 5.16873ZM192.441 4.49786L120.617 200.329L124.276 201.671L196.099 5.83961L192.441 4.49786ZM122.447 199.052H74.7514V202.948H122.447V199.052ZM76.5805 200.329L4.75704 4.49786L1.09866 5.83961L72.9222 201.671L76.5805 200.329ZM2.92785 7.11707H45.0119V3.2204H2.92785V7.11707ZM43.1707 5.80572L97.0383 161.517L100.721 160.243L46.8532 4.53175L43.1707 5.80572ZM100.722 161.514L154.309 5.80275L150.624 4.53472L97.0373 160.246L100.722 161.514ZM152.467 7.11707H194.27V3.2204H152.467V7.11707ZM248.401 195.95L247.63 197.739L247.641 197.744L248.401 195.95ZM222.589 175.75L221.011 176.892L222.589 175.75ZM212.77 144.607V142.659H210.791L210.822 144.638L212.77 144.607ZM254.854 144.607L256.797 144.472L256.671 142.659H254.854V144.607ZM263.271 163.685L261.947 165.115L261.96 165.127L261.973 165.139L263.271 163.685ZM306.196 164.247L307.433 165.752L307.449 165.739L307.464 165.726L306.196 164.247ZM308.721 132.543L307.309 133.885L308.721 132.543ZM295.254 123.846L294.487 125.637L294.525 125.653L294.563 125.668L295.254 123.846ZM273.371 116.551L272.821 118.42L272.833 118.424L272.845 118.427L273.371 116.551ZM242.228 105.609L241.391 107.368L241.416 107.38L241.441 107.392L242.228 105.609ZM221.748 89.0563L220.189 90.2253L220.205 90.2472L220.222 90.2687L221.748 89.0563ZM222.028 29.0164L223.644 30.1052L222.028 29.0164ZM246.437 9.37714L247.204 11.1679L247.218 11.1622L247.231 11.1562L246.437 9.37714ZM331.447 17.2328L330.238 18.7609L330.251 18.7708L330.263 18.7805L331.447 17.2328ZM352.489 58.1947V60.143H354.588L354.432 58.05L352.489 58.1947ZM309.282 58.1947L307.337 58.3027L307.439 60.143H309.282V58.1947ZM300.585 41.6416L299.317 43.1209L299.345 43.1451L299.374 43.1681L300.585 41.6416ZM261.026 40.7999L259.773 39.3081L259.758 39.3207L259.743 39.3336L261.026 40.7999ZM259.343 71.1005L257.928 72.4404L257.964 72.4786L258.003 72.5149L259.343 71.1005ZM272.248 79.5173L271.457 81.2977L271.496 81.3151L271.536 81.3307L272.248 79.5173ZM294.132 86.8119L293.572 88.6781L293.582 88.681L294.132 86.8119ZM346.036 114.868L344.496 116.061L346.036 114.868ZM346.597 173.505L344.929 172.498L346.597 173.505ZM322.749 195.108L323.621 196.851L323.633 196.845L323.645 196.838L322.749 195.108ZM285.435 201.016C272.006 201.016 259.925 198.717 249.161 194.156L247.641 197.744C258.948 202.535 271.556 204.912 285.435 204.912V201.016ZM249.172 194.161C238.617 189.611 230.303 183.089 224.168 174.608L221.011 176.892C227.594 185.992 236.488 192.937 247.63 197.739L249.172 194.161ZM224.168 174.608C218.067 166.174 214.899 156.191 214.718 144.577L210.822 144.638C211.014 156.965 214.393 167.743 221.011 176.892L224.168 174.608ZM212.77 146.556H254.854V142.659H212.77V146.556ZM252.91 144.743C253.499 153.19 256.471 160.045 261.947 165.115L264.594 162.256C259.969 157.974 257.33 152.111 256.797 144.472L252.91 144.743ZM261.973 165.139C267.658 170.215 275.274 172.648 284.593 172.648V168.751C275.956 168.751 269.357 166.508 264.568 162.232L261.973 165.139ZM284.593 172.648C294.05 172.648 301.742 170.427 307.433 165.752L304.96 162.741C300.177 166.67 293.466 168.751 284.593 168.751V172.648ZM307.464 165.726C313.148 160.854 316 154.508 316 146.852H312.104C312.104 153.41 309.719 158.661 304.928 162.767L307.464 165.726ZM316 146.852C316 140.621 314.075 135.35 310.134 131.201L307.309 133.885C310.475 137.218 312.104 141.486 312.104 146.852H316ZM310.134 131.201C306.355 127.223 301.609 124.172 295.945 122.024L294.563 125.668C299.748 127.634 303.98 130.381 307.309 133.885L310.134 131.201ZM296.022 122.055C290.67 119.761 283.282 117.303 273.896 114.675L272.845 118.427C282.164 121.037 289.364 123.441 294.487 125.637L296.022 122.055ZM273.92 114.682C261.246 110.954 250.953 107.334 243.016 103.827L241.441 107.392C249.589 110.992 260.057 114.666 272.821 118.42L273.92 114.682ZM243.066 103.85C235.497 100.246 228.9 94.9232 223.273 87.844L220.222 90.2687C226.192 97.7786 233.249 103.491 241.391 107.368L243.066 103.85ZM223.306 87.8873C218.018 80.8367 215.279 71.3745 215.279 59.3169H211.382C211.382 71.9487 214.254 82.3128 220.189 90.2253L223.306 87.8873ZM215.279 59.3169C215.279 48.061 218.087 38.3502 223.644 30.1052L220.412 27.9275C214.372 36.8903 211.382 47.3799 211.382 59.3169H215.279ZM223.644 30.1052C229.212 21.8423 237.039 15.5244 247.204 11.1679L245.669 7.58633C234.886 12.2078 226.44 18.9827 220.412 27.9275L223.644 30.1052ZM247.231 11.1562C257.416 6.60954 269.108 4.31147 282.349 4.31147V0.414795C268.655 0.414795 256.407 2.79273 245.643 7.59804L247.231 11.1562ZM282.349 4.31147C302.228 4.31147 318.133 9.18509 330.238 18.7609L332.655 15.7048C319.697 5.45431 302.87 0.414795 282.349 0.414795V4.31147ZM330.263 18.7805C342.492 28.1323 349.273 41.2494 350.546 58.3394L354.432 58.05C353.086 39.9764 345.838 25.7855 332.63 15.6852L330.263 18.7805ZM352.489 56.2463H309.282V60.143H352.489V56.2463ZM311.228 58.0866C310.822 50.7804 307.643 44.7526 301.796 40.1151L299.374 43.1681C304.375 47.1345 306.995 52.142 307.337 58.3027L311.228 58.0866ZM301.853 40.1623C296.175 35.2951 288.668 32.9598 279.543 32.9598V36.8565C288 36.8565 294.521 39.0101 299.317 43.1209L301.853 40.1623ZM279.543 32.9598C271.536 32.9598 264.882 35.0162 259.773 39.3081L262.279 42.2918C266.522 38.728 272.212 36.8565 279.543 36.8565V32.9598ZM259.743 39.3336C254.728 43.7221 252.344 50.0247 252.344 57.9141H256.241C256.241 50.8403 258.346 45.7335 262.309 42.2662L259.743 39.3336ZM252.344 57.9141C252.344 63.6115 254.193 68.4979 257.928 72.4404L260.757 69.7605C257.759 66.5955 256.241 62.6909 256.241 57.9141H252.344ZM258.003 72.5149C261.737 76.0522 266.23 78.9747 271.457 81.2977L273.04 77.7369C268.166 75.5708 264.056 72.8822 260.683 69.6861L258.003 72.5149ZM271.536 81.3307C276.847 83.417 284.2 85.8664 293.572 88.678L294.692 84.9457C285.36 82.1461 278.125 79.7325 272.961 77.7039L271.536 81.3307ZM293.582 88.681C306.249 92.4064 316.529 96.1156 324.453 99.8009L326.096 96.2677C317.934 92.4713 307.453 88.6989 294.682 84.9427L293.582 88.681ZM324.453 99.8009C332.195 103.402 338.875 108.808 344.496 116.061L347.576 113.674C341.6 105.964 334.439 100.148 326.096 96.2677L324.453 99.8009ZM344.496 116.061C349.962 123.115 352.785 132.477 352.785 144.327H356.682C356.682 131.861 353.706 121.584 347.576 113.674L344.496 116.061ZM352.785 144.327C352.785 154.445 350.17 163.823 344.929 172.498L348.265 174.513C353.872 165.231 356.682 155.157 356.682 144.327H352.785ZM344.929 172.498C339.713 181.131 332.049 188.098 321.853 193.378L323.645 196.838C334.398 191.27 342.632 183.835 348.265 174.513L344.929 172.498ZM321.878 193.366C311.729 198.44 299.603 201.016 285.435 201.016V204.912C300.071 204.912 312.821 202.251 323.621 196.851L321.878 193.366Z" fill="black" fill-opacity="0.1"/>
</svg>
