<svg width="61" height="61" viewBox="0 0 61 61" fill="none" xmlns="http://www.w3.org/2000/svg">
<path d="M51.7568 17.25L54.4593 11.3275L60.3818 8.625L54.4593 5.9225L51.7568 0L49.0543 5.9225L43.1318 8.625L49.0543 11.3275L51.7568 17.25Z" fill="white"/>
<path d="M18.6943 17.25L21.3968 11.3275L27.3193 8.625L21.3968 5.9225L18.6943 0L15.9918 5.9225L10.0693 8.625L15.9918 11.3275L18.6943 17.25Z" fill="white"/>
<path d="M51.7568 33.0625L49.0543 38.985L43.1318 41.6875L49.0543 44.39L51.7568 50.3125L54.4593 44.39L60.3818 41.6875L54.4593 38.985L51.7568 33.0625Z" fill="white"/>
<path d="M45.1734 23.345L37.0372 15.2087C36.4622 14.6625 35.7434 14.375 34.9959 14.375C34.2484 14.375 33.5297 14.6625 32.9547 15.2087L0.840937 47.3225C-0.280312 48.4437 -0.280312 50.255 0.840937 51.3763L8.97719 59.5125C9.55219 60.0875 10.2709 60.375 11.0184 60.375C11.7659 60.375 12.4847 60.0875 13.0597 59.5412L45.1734 27.4275C46.2947 26.3062 46.2947 24.4662 45.1734 23.345ZM34.9959 21.3325L39.0497 25.3862L35.6859 28.75L31.6322 24.6963L34.9959 21.3325ZM11.0184 53.4463L6.96469 49.3925L27.5784 28.75L31.6322 32.8037L11.0184 53.4463Z" fill="white"/>
</svg>
