<svg width="64" height="64" viewBox="0 0 64 64" fill="none" xmlns="http://www.w3.org/2000/svg">
<path d="M31.6378 0C14.1563 0 0 14.1879 0 31.6695C0 49.1511 14.1563 63.339 31.6378 63.339C49.1511 63.339 63.339 49.1511 63.339 31.6695C63.339 14.1879 49.1511 0 31.6378 0ZM53.5848 19.0017H44.2423C43.2289 15.043 41.7721 11.2427 39.8719 7.72736C45.6991 9.72254 50.5445 13.7762 53.5848 19.0017ZM31.6695 6.46058C34.2981 10.2609 36.3566 14.473 37.7184 19.0017H25.6206C26.9824 14.473 29.0409 10.2609 31.6695 6.46058ZM7.15731 38.0034C6.6506 35.9766 6.3339 33.8547 6.3339 31.6695C6.3339 29.4843 6.6506 27.3625 7.15731 25.3356H17.8616C17.6082 27.4258 17.4182 29.516 17.4182 31.6695C17.4182 33.823 17.6082 35.9132 17.8616 38.0034H7.15731ZM9.75421 44.3373H19.0967C20.1101 48.296 21.5669 52.0963 23.4671 55.6116C17.6399 53.6165 12.7945 49.5944 9.75421 44.3373ZM19.0967 19.0017H9.75421C12.7945 13.7446 17.6399 9.72254 23.4671 7.72736C21.5669 11.2427 20.1101 15.043 19.0967 19.0017ZM31.6695 56.8784C29.0409 53.0781 26.9824 48.866 25.6206 44.3373H37.7184C36.3566 48.866 34.2981 53.0781 31.6695 56.8784ZM39.0802 38.0034H24.2588C23.9738 35.9132 23.7521 33.823 23.7521 31.6695C23.7521 29.516 23.9738 27.3941 24.2588 25.3356H39.0802C39.3652 27.3941 39.5869 29.516 39.5869 31.6695C39.5869 33.823 39.3652 35.9132 39.0802 38.0034ZM39.8719 55.6116C41.7721 52.0963 43.2289 48.296 44.2423 44.3373H53.5848C50.5445 49.5628 45.6991 53.6165 39.8719 55.6116ZM45.4774 38.0034C45.7308 35.9132 45.9208 33.823 45.9208 31.6695C45.9208 29.516 45.7308 27.4258 45.4774 25.3356H56.1817C56.6884 27.3625 57.0051 29.4843 57.0051 31.6695C57.0051 33.8547 56.6884 35.9766 56.1817 38.0034H45.4774Z" fill="#262626"/>
</svg>
