<?xml version="1.0" encoding="utf-8"?>
<!-- Generator: Adobe Illustrator 22.0.1, SVG Export Plug-In . SVG Version: 6.00 Build 0)  -->
<svg version="1.1" id="Layer_1" xmlns="http://www.w3.org/2000/svg" xmlns:xlink="http://www.w3.org/1999/xlink" x="0px" y="0px"
	 viewBox="0 0 187.7 40" style="enable-background:new 0 0 187.7 40;" xml:space="preserve">
<style type="text/css">
	.st0{fill:url(#SVGID_1_);}
	.st1{fill:#322D41;}
</style>
<linearGradient id="SVGID_1_" gradientUnits="userSpaceOnUse" x1="0.2301" y1="20.088" x2="28.8045" y2="20.088">
	<stop  offset="0" style="stop-color:#4E4ED6"/>
	<stop  offset="0.6463" style="stop-color:#8258DC"/>
	<stop  offset="1" style="stop-color:#AD3BFF"/>
</linearGradient>
<path class="st0" d="M26.6,10.3L17,4.4c-1.4-0.9-3.3-0.9-4.7,0L2.7,10c-1.5,0.9-2.4,2.5-2.4,4.2l0,3.5c0,0.2,0.2,0.4,0.4,0.4h3.7
	c0.2,0,0.4-0.2,0.4-0.4l0-1.4c0-1,0.5-1.8,1.4-2.3l7.4-4.2c0.7-0.4,1.5-0.4,2.2,0l7.5,4.4c0.5,0.3,0.5,1.1,0,1.3l-3.1,1.8
	c-0.3,0.2-0.7,0.2-0.9,0l-3.6-2.2c-0.5-0.3-1.2-0.3-1.8,0l-3,1.7c-0.8,0.4-1.3,1.3-1.3,2.1l-0.1,3.6c0,0.5,0.3,1.1,0.7,1.3l3,1.8
	c0.8,0.5,1.8,0.5,2.6,0l3.2-1.8c0.4-0.2,0.9-0.2,1.3,0l2.5,1.4c0.7,0.4,0.7,1.3,0,1.7l-6.1,3.4c-1.4,0.8-3.2,0.8-4.6,0l-6.5-3.8
	c-0.6-0.3-0.9-1-0.9-1.6l0-2.2c0-0.2-0.2-0.4-0.4-0.4H0.6c-0.2,0-0.4,0.2-0.4,0.4l0,4.4c0,0.9,0.4,1.7,1.2,2.2l10.1,6.2
	c1.8,1.1,4,1.1,5.8,0l10-5.9c0.9-0.5,1.4-1.5,1.4-2.5l0.1-13C28.8,12.7,28,11.2,26.6,10.3z M16.8,21.5c0,0.2-0.1,0.5-0.3,0.6
	L14.9,23c-0.2,0.1-0.5,0.1-0.7,0l-1.5-0.9c-0.2-0.1-0.3-0.4-0.3-0.6v-1.8c0-0.2,0.1-0.5,0.3-0.6l1.5-0.9c0.2-0.1,0.5-0.1,0.7,0
	l1.5,0.9c0.2,0.1,0.3,0.4,0.3,0.6V21.5z"/>
<g>
	<g>
		<path class="st1" d="M37.5,15.8c0.7-1.3,1.7-2.3,3-3c1.3-0.7,2.7-1.1,4.4-1.1c2,0,3.7,0.5,5.1,1.6s2.4,2.5,2.9,4.3h-4.5
			c-0.3-0.7-0.8-1.2-1.4-1.6c-0.6-0.4-1.3-0.6-2.1-0.6c-1.3,0-2.3,0.4-3.1,1.3c-0.8,0.9-1.2,2.1-1.2,3.5c0,1.5,0.4,2.6,1.2,3.5
			c0.8,0.9,1.8,1.3,3.1,1.3c0.8,0,1.5-0.2,2.1-0.6c0.6-0.4,1.1-0.9,1.4-1.6h4.5c-0.5,1.8-1.4,3.3-2.9,4.3s-3.1,1.6-5.1,1.6
			c-1.6,0-3.1-0.4-4.4-1.1c-1.3-0.7-2.3-1.7-3-3c-0.7-1.3-1.1-2.8-1.1-4.4S36.8,17.1,37.5,15.8z"/>
		<path class="st1" d="M64,28.7l-3.5-6.4h-1v6.4h-4.1V11.9h6.9c1.3,0,2.5,0.2,3.4,0.7c0.9,0.5,1.6,1.1,2.1,1.9
			c0.5,0.8,0.7,1.7,0.7,2.7c0,1.1-0.3,2.1-0.9,3c-0.6,0.9-1.6,1.5-2.8,1.9l3.9,6.7H64z M59.5,19.5H62c0.8,0,1.3-0.2,1.7-0.6
			c0.4-0.4,0.6-0.9,0.6-1.6c0-0.6-0.2-1.1-0.6-1.5s-0.9-0.6-1.7-0.6h-2.5V19.5z"/>
		<path class="st1" d="M75.1,15.2v3.4h5.5v3.2h-5.5v3.7h6.2v3.3H71V11.9h10.3v3.3H75.1z"/>
		<path class="st1" d="M94.5,25.7h-6.3l-1,3h-4.3L89,11.9h4.7l6.1,16.8h-4.3L94.5,25.7z M93.4,22.6l-2.1-6.2l-2.1,6.2H93.4z"/>
		<path class="st1" d="M113.8,11.9v3.3h-4.5v13.5h-4.1V15.2h-4.5v-3.3H113.8z"/>
		<path class="st1" d="M119.9,15.2v3.4h5.5v3.2h-5.5v3.7h6.2v3.3h-10.3V11.9h10.3v3.3H119.9z"/>
		<path class="st1" d="M141.3,21.5c0.6,0.8,0.9,1.6,0.9,2.6c0,1.4-0.5,2.5-1.5,3.3s-2.4,1.2-4.1,1.2h-7.8V11.9h7.6
			c1.7,0,3,0.4,4,1.2c1,0.8,1.5,1.8,1.5,3.2c0,1-0.3,1.8-0.8,2.5s-1.2,1.1-2.1,1.4C140,20.3,140.8,20.8,141.3,21.5z M132.9,18.7h2.7
			c0.7,0,1.2-0.1,1.5-0.4c0.4-0.3,0.5-0.7,0.5-1.3s-0.2-1-0.5-1.3c-0.4-0.3-0.9-0.5-1.5-0.5h-2.7V18.7z M137.5,24.9
			c0.4-0.3,0.6-0.8,0.6-1.4c0-0.6-0.2-1.1-0.6-1.4c-0.4-0.3-0.9-0.5-1.6-0.5h-3v3.7h3C136.6,25.4,137.1,25.3,137.5,24.9z"/>
		<path class="st1" d="M155.1,25.7h-6.3l-1,3h-4.3l6.1-16.8h4.7l6.1,16.8h-4.3L155.1,25.7z M154,22.6l-2.1-6.2l-2.1,6.2H154z"/>
		<path class="st1" d="M165,28.3c-1-0.4-1.8-1-2.3-1.8c-0.6-0.8-0.9-1.7-0.9-2.8h4.4c0.1,0.6,0.3,1.1,0.6,1.4
			c0.4,0.3,0.8,0.5,1.4,0.5c0.6,0,1.1-0.1,1.4-0.4c0.4-0.3,0.5-0.7,0.5-1.2c0-0.4-0.1-0.8-0.4-1c-0.3-0.3-0.6-0.5-1-0.7
			c-0.4-0.2-1-0.4-1.7-0.6c-1.1-0.3-2-0.7-2.7-1c-0.7-0.3-1.3-0.8-1.8-1.5s-0.7-1.5-0.7-2.6c0-1.6,0.6-2.8,1.7-3.7s2.6-1.3,4.4-1.3
			c1.9,0,3.3,0.4,4.5,1.3s1.7,2.1,1.8,3.7h-4.4c0-0.5-0.2-1-0.6-1.3c-0.4-0.3-0.8-0.5-1.4-0.5c-0.5,0-0.9,0.1-1.2,0.4
			s-0.5,0.6-0.5,1.1c0,0.5,0.3,1,0.8,1.3s1.3,0.6,2.4,1c1.1,0.4,2,0.7,2.6,1.1c0.7,0.3,1.3,0.8,1.8,1.5c0.5,0.6,0.7,1.5,0.7,2.5
			c0,1-0.2,1.8-0.7,2.6c-0.5,0.8-1.2,1.4-2.1,1.9c-0.9,0.5-2,0.7-3.3,0.7C167.1,28.9,166,28.7,165,28.3z"/>
		<path class="st1" d="M181.1,15.2v3.4h5.5v3.2h-5.5v3.7h6.2v3.3H177V11.9h10.3v3.3H181.1z"/>
	</g>
</g>
<g>
</g>
<g>
</g>
<g>
</g>
<g>
</g>
<g>
</g>
<g>
</g>
<g>
</g>
<g>
</g>
<g>
</g>
<g>
</g>
<g>
</g>
<g>
</g>
<g>
</g>
<g>
</g>
<g>
</g>
</svg>
