<svg id="Layer_1" data-name="Layer 1" xmlns="http://www.w3.org/2000/svg" xmlns:xlink="http://www.w3.org/1999/xlink" viewBox="0 0 425 88.85"><defs><style>.cls-1{fill:url(#linear-gradient);}.cls-2{font-size:53.9px;fill:#fff;font-family:Poppins-Bold, Poppins;font-weight:700;}</style><linearGradient id="linear-gradient" x1="-0.36" y1="45.31" x2="63.9" y2="45.31" gradientTransform="translate(-0.08 0.17) rotate(-0.41)" gradientUnits="userSpaceOnUse"><stop offset="0" stop-color="#4e4ed6"/><stop offset="0.65" stop-color="#8258dc"/><stop offset="1" stop-color="#ad3bff"/></linearGradient></defs><title>logo_full_white_text</title><path class="cls-1" d="M59.09,23.11,37.31,9.94a10.25,10.25,0,0,0-10.58,0L5.35,22.85A11.07,11.07,0,0,0,0,32.33v7.8A.87.87,0,0,0,.87,41l8.36-.06a.86.86,0,0,0,.86-.87V36.86a6,6,0,0,1,3-5.25L29.72,22a4.89,4.89,0,0,1,4.92,0l16.9,9.82a1.75,1.75,0,0,1,0,3l-7,4a2.11,2.11,0,0,1-2.13,0l-8.11-4.78a3.94,3.94,0,0,0-4,0l-6.71,3.81a5.66,5.66,0,0,0-2.85,4.86l-.09,8.1a3.4,3.4,0,0,0,1.7,3l6.87,4a5.75,5.75,0,0,0,5.76,0l7.27-4.15a2.91,2.91,0,0,1,2.87,0l5.73,3.22a2.18,2.18,0,0,1,0,3.79L37.3,68.59a10.3,10.3,0,0,1-10.3,0L12.3,60.14a4.29,4.29,0,0,1-2.14-3.68l0-4.88a.86.86,0,0,0-.87-.86l-8.41.06a.87.87,0,0,0-.86.87v9.91a5.66,5.66,0,0,0,2.67,4.83L25.54,80.22a12.55,12.55,0,0,0,13,0L60.94,66.69a6.55,6.55,0,0,0,3.11-5.64V31.91A10.28,10.28,0,0,0,59.09,23.11ZM37.21,48.48a1.55,1.55,0,0,1-.77,1.36l-3.44,2a1.55,1.55,0,0,1-1.56,0L28,49.9a1.55,1.55,0,0,1-.79-1.35l0-4a1.56,1.56,0,0,1,.77-1.36l3.44-2a1.58,1.58,0,0,1,1.56,0l3.47,2a1.55,1.55,0,0,1,.79,1.35Z" transform="translate(0 -8.47)"/><text class="cls-2" transform="translate(80.18 56.19)">CreateBase</text></svg>