<svg id="Layer_1" data-name="Layer 1" xmlns="http://www.w3.org/2000/svg" xmlns:xlink="http://www.w3.org/1999/xlink" viewBox="0 0 687.31 786.87"><defs><style>.cls-1{fill:#fff;}.cls-2{fill:url(#linear-gradient);}</style><linearGradient id="linear-gradient" x1="56.35" y1="400" x2="743.65" y2="400" gradientUnits="userSpaceOnUse"><stop offset="0" stop-color="#4e4ed6"/><stop offset="0.65" stop-color="#8258dc"/><stop offset="1" stop-color="#ad3bff"/></linearGradient></defs><title>logo solo</title><polygon class="cls-1" points="654.69 290.83 464.86 72.78 172.43 133.07 32.62 311.88 32.62 501.18 396.88 714.09 654.69 544.78 654.69 290.83"/><path class="cls-1" d="M600.81,526.18l-61.13-34.91a31.13,31.13,0,0,0-30.68-.11l-78.25,43.91a61.72,61.72,0,0,1-61.65-.71L295.82,491a36.57,36.57,0,0,1-17.94-32.11l1.52-86.75a60.49,60.49,0,0,1,31-51.75L382.52,280a42.31,42.31,0,0,1,42.43.63l86.49,51.84a22.67,22.67,0,0,0,22.81.27l75.17-42.67a18.78,18.78,0,0,0,.28-32.5L429.46,151.13a52.63,52.63,0,0,0-52.74-.46L198,252.13a64.53,64.53,0,0,0-32.67,55.94l-.6,209.85a45.75,45.75,0,0,0,22.64,39.61L344,649.18a110.54,110.54,0,0,0,110.38.72l146.34-83.07A23.39,23.39,0,0,0,600.81,526.18Z" transform="translate(-56.35 -6.56)"/><path class="cls-1" d="M453.7,441.72v-57a4.37,4.37,0,0,0-2.19-3.79l-49.37-28.5a4.35,4.35,0,0,0-4.36,0l-49.37,28.5a4.38,4.38,0,0,0-2.18,3.79v57a4.36,4.36,0,0,0,2.18,3.78L397.78,474a4.35,4.35,0,0,0,4.36,0l49.37-28.51A4.35,4.35,0,0,0,453.7,441.72Z" transform="translate(-56.35 -6.56)"/><rect class="cls-1" x="1.7" y="345.12" width="109.86" height="104.73"/><rect class="cls-1" x="1.7" y="324.71" width="109.03" height="152.74"/><path class="cls-2" d="M691.23,165.27,459.31,22.76a109.4,109.4,0,0,0-113.16-.85L116.52,158.33a118.53,118.53,0,0,0-58,101.07L58,342.8a9.27,9.27,0,0,0,9.27,9.34h89.41a9.27,9.27,0,0,0,9.27-9.24l.09-34.33a64.43,64.43,0,0,1,32.64-55.86L377.17,151.36a52.57,52.57,0,0,1,52.67.45l180,106.34a18.76,18.76,0,0,1-.28,32.46l-75.09,42.63a22.61,22.61,0,0,1-22.78-.27l-86.39-51.78a42.29,42.29,0,0,0-42.38-.64l-72.09,40.33A60.45,60.45,0,0,0,280,372.57l-1.51,86.65a36.52,36.52,0,0,0,17.92,32.08l73.2,43.31a61.68,61.68,0,0,0,61.58.71l78.15-43.87a31.1,31.1,0,0,1,30.64.12L601,526.43a23.37,23.37,0,0,1,0,40.61L454.78,650a110.41,110.41,0,0,1-110.26-.72L188,557.75a45.69,45.69,0,0,1-22.61-39.57l.15-52.13a9.28,9.28,0,0,0-9.28-9.3H66.36a9.27,9.27,0,0,0-9.27,9.2L56.35,572c-.15,21.31,10.57,41.08,28.13,51.87L328,773.55a134.33,134.33,0,0,0,139,1l240.78-143c20.68-12.29,33.52-35.18,33.7-60.07l2.17-311.71A110,110,0,0,0,691.23,165.27ZM455.33,435A16.68,16.68,0,0,1,447,449.41l-37,21.36a16.68,16.68,0,0,1-16.68,0l-37-21.36A16.68,16.68,0,0,1,348,435V392.24a16.68,16.68,0,0,1,8.33-14.44l37-21.36a16.68,16.68,0,0,1,16.68,0l37,21.36a16.68,16.68,0,0,1,8.33,14.44Z" transform="translate(-56.35 -6.56)"/></svg>