<svg id="Layer_1" data-name="Layer 1" xmlns="http://www.w3.org/2000/svg" viewBox="0 0 250.46 250.46"><defs><style>.cls-1{fill:#fff;}</style></defs><title>roundDiamondOutline</title><path class="cls-1" d="M125.5,241.21a39.71,39.71,0,0,1-28.28-11.65L21.93,154.27a40.14,40.14,0,0,1,0-56.57L97.22,22.41a40.12,40.12,0,0,1,56.56,0L229.07,97.7a40,40,0,0,1,0,56.57l-75.29,75.29A39.71,39.71,0,0,1,125.5,241.21Z" transform="translate(-0.27 -0.76)"/><path d="M125.5,20.76a29.74,29.74,0,0,1,21.21,8.72L222,104.77a30.14,30.14,0,0,1,0,42.43l-75.29,75.29a30.15,30.15,0,0,1-42.42,0L29,147.2a30.14,30.14,0,0,1,0-42.43l75.29-75.29a29.74,29.74,0,0,1,21.21-8.72m0-20A49.87,49.87,0,0,0,90.14,15.34L14.86,90.63a50.14,50.14,0,0,0,0,70.71l75.28,75.29a50.17,50.17,0,0,0,70.72,0l75.28-75.29a50.14,50.14,0,0,0,0-70.71L160.86,15.34A49.87,49.87,0,0,0,125.5.76Z" transform="translate(-0.27 -0.76)"/></svg>