<svg xmlns="http://www.w3.org/2000/svg" viewBox="0 0 154.5 113.75"><defs><style>.cls-1{fill:#fff;}.cls-2{fill:#eaeaea;}.cls-3{fill:#d6d6d6;}.cls-4{fill:#f9f9f9;}.cls-5{fill:#e0e0e0;}.cls-6{fill:#f4f4f4;}</style></defs><title>Asset 14</title><g id="Layer_2" data-name="Layer 2"><g id="Layer_1-2" data-name="Layer 1"><polygon class="cls-1" points="47 77.5 57 113.75 154.5 0 0 54.75 47 77.5"/><polygon class="cls-2" points="47 77.5 57 113.75 75.6 91.51 154.5 0 47 77.5"/><polygon class="cls-3" points="57 113.75 154.5 0 65.25 87.25 57 113.75"/><polygon class="cls-4" points="154.5 0 120.5 110 65.25 87.25 154.5 0"/><polygon class="cls-1" points="0 54.75 88.56 48.19 154.5 0 0 54.75"/><polygon class="cls-2" points="88.56 48.19 92.17 60.93 154.5 0 88.56 48.19"/><polygon class="cls-5" points="87.56 48.26 85.73 49.58 91.23 61.85 92.17 60.93 88.56 48.19 87.56 48.26"/><polygon class="cls-6" points="85.73 49.58 0 54.75 87.56 48.26 85.73 49.58"/><polygon class="cls-1" points="120.5 110 99 52.53 154.5 0 120.5 110"/><polygon class="cls-5" points="99 52.53 98.54 54.71 99.47 53.79 99 52.53"/></g></g></svg>