<svg width="96" height="99" viewBox="0 0 96 99" fill="none" xmlns="http://www.w3.org/2000/svg">
<path d="M18.0391 36.3851L22.227 29.2979H26.4149L22.227 36.3851H18.0391Z" fill="#42A8C1"/>
<path d="M11.6561 12.9573C11.6561 10.6379 13.5539 8.74011 15.8734 8.74011H24.3078V0.305664H15.8734C8.87276 0.305664 3.22168 5.95674 3.22168 12.9573V21.3918H11.6561V12.9573Z" fill="#42A8C1"/>
<path d="M11.6542 80.4364V72.002H3.21973V80.4364C3.21973 87.437 8.87081 93.0881 15.8714 93.0881H24.3058V84.6536H15.8714C13.5519 84.6536 11.6542 82.7559 11.6542 80.4364Z" fill="#42A8C1"/>
<path d="M83.3475 0.305664H74.9131V8.74011H83.3475C85.667 8.74011 87.5648 10.6379 87.5648 12.9573V21.3918H95.9992V12.9573C95.9992 5.95674 90.3481 0.305664 83.3475 0.305664Z" fill="#42A8C1"/>
<path d="M87.5648 80.4364C87.5648 82.7559 85.667 84.6536 83.3475 84.6536H74.9131V93.0881H83.3475C90.3481 93.0881 95.9992 87.437 95.9992 80.4364V72.002H87.5648V80.4364Z" fill="#42A8C1"/>
<path d="M79.129 58.7957V34.5888C79.129 31.5524 77.5265 28.7691 74.9118 27.293L53.8257 15.1474C52.5183 14.3883 51.0845 14.0088 49.6085 14.0088C48.1324 14.0088 46.6986 14.3883 45.3912 15.1474L24.3051 27.2509C21.6904 28.7691 20.0879 31.5524 20.0879 34.5888V58.7957C20.0879 61.8321 21.6904 64.6155 24.3051 66.0915L45.3912 78.2371C46.6986 78.9962 48.1324 79.3758 49.6085 79.3758C51.0845 79.3758 52.5183 78.9962 53.8257 78.2371L74.9118 66.0915C77.5265 64.6155 79.129 61.8321 79.129 58.7957ZM45.3912 68.4953L28.5223 58.7957V39.27L45.3912 49.0961V68.4953ZM49.6085 41.8003L32.9083 32.0585L49.6085 22.4432L66.3087 32.0585L49.6085 41.8003ZM70.6946 58.7957L53.8257 68.4953V49.0961L70.6946 39.27V58.7957Z" fill="#42A8C1"/>
<path d="M71.8379 89.5422L74.7372 84.71L77.3144 86.965L74.7372 90.5086L71.8379 89.5422Z" fill="#42A8C1"/>
<path d="M0 77.299L3.22148 72.1446L5.47651 74.3996L3.22148 78.2654L0 77.299Z" fill="#42A8C1"/>
<path d="M21.2617 98.2386L24.1611 93.0842V90.8292L21.2617 91.7956L19.3289 93.0842L21.2617 98.2386Z" fill="#42A8C1"/>
<path d="M8.37584 26.0775L11.5973 21.2453L7.08725 18.9902L5.47651 21.8896L8.37584 26.0775Z" fill="#42A8C1"/>
<path d="M21.2617 13.5137L24.1611 8.68151L20.2953 8.03721L17.396 9.9701L21.2617 13.5137Z" fill="#42A8C1"/>
<path d="M92.4564 26.0775L96 21.2453L93.745 18.9902L91.4899 21.8896L92.4564 26.0775Z" fill="#42A8C1"/>
<path d="M71.5168 6.10432L75.0604 0.305664L77.6376 3.52714L76.0268 6.10432H71.5168Z" fill="#42A8C1"/>
<path d="M84.7236 77.2989L87.623 72.1445H90.2001L91.1666 80.1982L84.7236 77.2989Z" fill="#42A8C1"/>
<path d="M8.4364 18.1116C8.4364 15.7922 10.3342 13.8944 12.6536 13.8944H21.0881V5.45996H12.6536C5.65303 5.45996 0.00195312 11.111 0.00195312 18.1116V26.5461H8.4364V18.1116Z" fill="white"/>
<path d="M8.43542 85.5907V77.1562H0.000976562V85.5907C0.000976562 92.5913 5.65206 98.2424 12.6526 98.2424H21.0871V89.8079H12.6526C10.3332 89.8079 8.43542 87.9102 8.43542 85.5907Z" fill="white"/>
<path d="M80.1288 5.46094H71.6943V13.8954H80.1288C82.4483 13.8954 84.346 15.7931 84.346 18.1126V26.5471H92.7805V18.1126C92.7805 11.112 87.1294 5.46094 80.1288 5.46094Z" fill="white"/>
<path d="M84.346 85.5907C84.346 87.9102 82.4483 89.8079 80.1288 89.8079H71.6943V98.2424H80.1288C87.1294 98.2424 92.7805 92.5913 92.7805 85.5907V77.1562H84.346V85.5907Z" fill="white"/>
<path d="M75.9103 63.952V39.7451C75.9103 36.7087 74.3077 33.9253 71.6931 32.4493L50.6069 20.3037C49.2996 19.5446 47.8657 19.165 46.3897 19.165C44.9137 19.165 43.4798 19.5446 42.1725 20.3037L21.0864 32.4071C18.4717 33.9253 16.8691 36.7087 16.8691 39.7451V63.952C16.8691 66.9884 18.4717 69.7717 21.0864 71.2478L42.1725 83.3934C43.4798 84.1525 44.9137 84.532 46.3897 84.532C47.8657 84.532 49.2996 84.1525 50.6069 83.3934L71.6931 71.2478C74.3077 69.7717 75.9103 66.9884 75.9103 63.952ZM42.1725 73.6516L25.3036 63.952V44.4262L42.1725 54.2523V73.6516ZM46.3897 46.9565L29.6895 37.2148L46.3897 27.5995L63.0899 37.2148L46.3897 46.9565ZM67.4758 63.952L50.6069 73.6516V54.2523L67.4758 44.4262V63.952Z" fill="white"/>
</svg>
