<svg width="108" height="93" viewBox="0 0 108 93" fill="none" xmlns="http://www.w3.org/2000/svg">
<path d="M55 0L2 28.6667L21.2727 39.0822V67.7489L55 86L88.7273 67.7489V39.0822L98.3636 33.8744V66.8889H108V28.6667L55 0ZM87.86 28.6667L55 46.44L22.14 28.6667L55 10.8933L87.86 28.6667ZM79.0909 62.0633L55 75.1067L30.9091 62.0633V44.29L55 57.3333L79.0909 44.29V62.0633Z" fill="#42A8C1"/>
<path d="M53 6L0 35L19.2727 45.5367V74.5367L53 93L86.7273 74.5367V45.5367L96.3636 40.2683V73.6667H106V35L53 6ZM85.86 35L53 52.98L20.14 35L53 17.02L85.86 35ZM77.0909 68.785L53 81.98L28.9091 68.785V50.805L53 64L77.0909 50.805V68.785Z" fill="white"/>
</svg>
