<svg width="66" height="45" viewBox="0 0 66 45" fill="none" xmlns="http://www.w3.org/2000/svg">
<path d="M50.7938 18.855C49.0088 9.79875 41.055 3 31.5 3C23.9137 3 17.3512 7.305 14.07 13.605C6.16875 14.445 0 21.1125 0 29.25C0 37.9388 7.06125 45 15.75 45H49.875C57.12 45 63 39.12 63 31.875C63 24.945 57.6188 19.3275 50.7938 18.855ZM49.875 39.75H15.75C9.94875 39.75 5.25 35.0513 5.25 29.25C5.25 23.4487 9.94875 18.75 15.75 18.75C21.5513 18.75 26.25 23.4487 26.25 29.25H31.5C31.5 22.005 26.6175 15.915 19.95 14.0775C22.6012 10.56 26.775 8.25 31.5 8.25C39.4538 8.25 45.9375 14.7338 45.9375 22.6875V24H49.875C54.2062 24 57.75 27.5438 57.75 31.875C57.75 36.2062 54.2062 39.75 49.875 39.75Z" fill="#209CE2"/>
<path d="M53.7938 15.855C52.0088 6.79875 44.055 0 34.5 0C26.9137 0 20.3512 4.305 17.07 10.605C9.16875 11.445 3 18.1125 3 26.25C3 34.9388 10.0613 42 18.75 42H52.875C60.12 42 66 36.12 66 28.875C66 21.945 60.6188 16.3275 53.7938 15.855ZM52.875 36.75H18.75C12.9487 36.75 8.25 32.0513 8.25 26.25C8.25 20.4487 12.9487 15.75 18.75 15.75C24.5513 15.75 29.25 20.4487 29.25 26.25H34.5C34.5 19.005 29.6175 12.915 22.95 11.0775C25.6012 7.56 29.775 5.25 34.5 5.25C42.4538 5.25 48.9375 11.7338 48.9375 19.6875V21H52.875C57.2062 21 60.75 24.5438 60.75 28.875C60.75 33.2062 57.2062 36.75 52.875 36.75Z" fill="white"/>
</svg>
