<svg width="70" height="65" viewBox="0 0 70 65" fill="none" xmlns="http://www.w3.org/2000/svg">
<path d="M69.7166 26.925V0.525879H46.6173V10.4255H26.818V0.525879H3.71875V26.925H26.818V17.0253H33.4178V50.0242H46.6173V59.9239H69.7166V33.5248H46.6173V43.4245H40.0175V17.0253H46.6173V26.925H69.7166ZM20.2182 20.3252H10.3185V7.12566H20.2182V20.3252ZM53.2171 40.1246H63.1168V53.3241H53.2171V40.1246ZM53.2171 7.12566H63.1168V20.3252H53.2171V7.12566Z" fill="#42A8C1"/>
<path d="M66.6853 31.5603V5.16113H43.5861V15.0608H23.7867V5.16113H0.6875V31.5603H23.7867V21.6606H30.3865V54.6595H43.5861V64.5592H66.6853V38.16H43.5861V48.0597H36.9863V21.6606H43.5861V31.5603H66.6853ZM17.187 24.9605H7.28728V11.7609H17.187V24.9605ZM50.1859 44.7598H60.0855V57.9594H50.1859V44.7598ZM50.1859 11.7609H60.0855V24.9605H50.1859V11.7609Z" fill="white"/>
</svg>
