<svg width="50" height="60" viewBox="0 0 50 60" fill="none" xmlns="http://www.w3.org/2000/svg">
<path d="M23.5 24.1601C29.2706 24.1601 33.9444 19.4255 33.9444 13.58C33.9444 7.73457 29.2706 3 23.5 3C17.7294 3 13.0556 7.73457 13.0556 13.58C13.0556 19.4255 17.7294 24.1601 23.5 24.1601ZM23.5 8.29002C26.3722 8.29002 28.7222 10.6705 28.7222 13.58C28.7222 16.4896 26.3722 18.8701 23.5 18.8701C20.6278 18.8701 18.2778 16.4896 18.2778 13.58C18.2778 10.6705 20.6278 8.29002 23.5 8.29002ZM23.5 30.9049C17.3378 25.0858 9.08667 21.5151 0 21.5151V50.6102C9.08667 50.6102 17.3378 54.181 23.5 60C29.6622 54.2074 37.9133 50.6102 47 50.6102V21.5151C37.9133 21.5151 29.6622 25.0858 23.5 30.9049ZM41.7778 45.664C35.1717 46.5633 28.905 49.1026 23.5 53.123C18.1211 49.1026 11.8283 46.5369 5.22222 45.6376V27.2548C10.7056 28.2599 15.7972 30.8255 19.9489 34.7401L23.5 38.1258L27.0511 34.7666C31.2028 30.852 36.2944 28.2863 41.7778 27.2812V45.664Z" fill="#209CE2"/>
<path d="M26.5 21.1601C32.2706 21.1601 36.9444 16.4255 36.9444 10.58C36.9444 4.73457 32.2706 0 26.5 0C20.7294 0 16.0556 4.73457 16.0556 10.58C16.0556 16.4255 20.7294 21.1601 26.5 21.1601ZM26.5 5.29002C29.3722 5.29002 31.7222 7.67053 31.7222 10.58C31.7222 13.4896 29.3722 15.8701 26.5 15.8701C23.6278 15.8701 21.2778 13.4896 21.2778 10.58C21.2778 7.67053 23.6278 5.29002 26.5 5.29002ZM26.5 27.9049C20.3378 22.0858 12.0867 18.5151 3 18.5151V47.6102C12.0867 47.6102 20.3378 51.181 26.5 57C32.6622 51.2074 40.9133 47.6102 50 47.6102V18.5151C40.9133 18.5151 32.6622 22.0858 26.5 27.9049ZM44.7778 42.664C38.1717 43.5633 31.905 46.1026 26.5 50.123C21.1211 46.1026 14.8283 43.5369 8.22222 42.6376V24.2548C13.7056 25.2599 18.7972 27.8255 22.9489 31.7401L26.5 35.1258L30.0511 31.7666C34.2028 27.852 39.2944 25.2863 44.7778 24.2812V42.664Z" fill="white"/>
</svg>
