<svg xmlns="http://www.w3.org/2000/svg" xmlns:xlink="http://www.w3.org/1999/xlink" viewBox="0 0 1978.29 1401.87"><defs><style>.cls-1{fill:#f1e2cb;}.cls-2{fill:#d3d3d3;}.cls-13,.cls-3{fill:#209ce2;}.cls-3{opacity:0.1;}.cls-3,.cls-4{isolation:isolate;}.cls-10,.cls-16,.cls-29,.cls-30,.cls-36,.cls-37,.cls-38,.cls-39,.cls-4,.cls-40,.cls-5,.cls-50,.cls-7{fill:none;}.cls-4,.cls-40{stroke:#209ce2;}.cls-4{stroke-width:2.67px;opacity:0.5;}.cls-5{stroke:#a933c1;stroke-width:4.32px;}.cls-10,.cls-30,.cls-36,.cls-38,.cls-39,.cls-40,.cls-5,.cls-50,.cls-7{stroke-miterlimit:10;}.cls-11,.cls-41,.cls-42,.cls-6,.cls-9{font-size:61.28px;font-family:Poppins-SemiBold, Poppins;font-weight:700;}.cls-18,.cls-6{fill:#1395ce;}.cls-7{stroke:#1395ce;stroke-width:4.4px;}.cls-41,.cls-8{fill:#15b78d;}.cls-52,.cls-9{fill:#7f21b3;}.cls-10{stroke:#d85d5d;stroke-width:4.76px;}.cls-11,.cls-21{fill:#d85d5d;}.cls-12{fill:#fa6f6f;}.cls-14{fill:#039add;}.cls-15{opacity:0.97;}.cls-17{fill:#fff;}.cls-19,.cls-42{fill:#eda248;}.cls-20{fill:#e56161;}.cls-22{fill:#444;opacity:0.2;}.cls-23{clip-path:url(#clip-path);}.cls-24{fill:#fcfcfc;}.cls-25{fill:#ceb2ae;}.cls-26{clip-path:url(#clip-path-2);}.cls-27{fill:#1a1039;}.cls-28{clip-path:url(#clip-path-3);}.cls-29,.cls-30{stroke:#1a1039;}.cls-29,.cls-30,.cls-36,.cls-37{stroke-linecap:round;stroke-width:0.88px;}.cls-29,.cls-37{stroke-linejoin:round;}.cls-31{fill:#36c4e8;}.cls-32{clip-path:url(#clip-path-4);}.cls-33{clip-path:url(#clip-path-5);}.cls-34{fill:#ededed;}.cls-35{fill:#d8d8d8;}.cls-36{stroke:#c4c4c4;}.cls-37{stroke:#fff;}.cls-38{stroke:#15b78d;stroke-width:4.27px;}.cls-39{stroke:#ffb649;stroke-width:4.38px;}.cls-40{stroke-width:4.55px;}.cls-43{fill:#32afcc;}.cls-44{fill:#9b33b5;}.cls-45{fill:#a933c1;}.cls-46{fill:#b835cf;}.cls-47{fill:#ffb649;}.cls-48{fill:#ea9949;}.cls-49{fill:#18dbac;}.cls-50{stroke:#8e40c1;stroke-width:4.89px;}.cls-51{fill:#30bf96;}.cls-53{fill:#8e40c1;}</style><clipPath id="clip-path" transform="translate(-15.7 -285)"><path id="_Clipping_Path_" data-name="&lt;Clipping Path&gt;" class="cls-1" d="M692.71,696.21c-2.75,1.83-12.15,17.54-71.47,64.13l-10.08-11a406.86,406.86,0,0,0,21.08-34.82C641.4,697.12,668,684.29,668,684.29Z"/></clipPath><clipPath id="clip-path-2" transform="translate(-15.7 -285)"><path id="_Clipping_Path_2" data-name="&lt;Clipping Path&gt;" class="cls-1" d="M794,634.75s8.82-4.75,16.75,20.9,12.48,49.86,16,75.51c0,0-12.42,7.71-15.13,1.45-6.17-14.25-26.3-52.59-29.08-64.61-2.65-11.4-7.06-16.15-7.06-16.15Z"/></clipPath><clipPath id="clip-path-3" transform="translate(-15.7 -285)"><path id="_Clipping_Path_3" data-name="&lt;Clipping Path&gt;" class="cls-1" d="M767.12,430A43.55,43.55,0,0,0,778,436.7c7.65,3.11,10.41,2.77,13.63.58,2.73-1.86,2.75-6.81,4.48-11.06l2.76-6.8s5.14-7.81,6.2-15.31,3.66-16.34,4.18-20.09-23,.58-23,.58l-14,10.16-15.75,14.41-13.72,19.19,18.57,15.31Z"/></clipPath><clipPath id="clip-path-4" transform="translate(-15.7 -285)"><path id="_Clipping_Path_4" data-name="&lt;Clipping Path&gt;" class="cls-1" d="M736.69,504.11l-12.57,22.65s-1.83.89-.12,10,32.8,59.41,32.8,59.41l16-6.34-20.61-57.27,13-24.39Z"/></clipPath><clipPath id="clip-path-5" transform="translate(-15.7 -285)"><path id="_Clipping_Path_5" data-name="&lt;Clipping Path&gt;" class="cls-2" d="M809.87,729.86s0,5-1.26,16.25a33.1,33.1,0,0,0,.61,12.19,2.61,2.61,0,0,0,2.09,1.79c6.81,1.06,36.32,5.11,55.13-1.49l5.21-2.07a2,2,0,0,0,1.25-1.63c.23-1.94.39-5.73-1.43-7.54-2.52-2.5-32.69-11.25-35.2-12.5-2.15-1.06-7.63-5.73-9.2-7.08a.6.6,0,0,0-.8,0C824.91,729.05,819.79,732.84,809.87,729.86Z"/></clipPath></defs><title>learn</title><g id="Layer_10" data-name="Layer 10"><path class="cls-3" d="M47.36,1316a132.87,132.87,0,0,0,122.4,136.49l1621.57,126.79c90.34,7.06,161.63-76.32,140.76-164.63L1689.26,387.38a132.78,132.78,0,0,0-167.39-96.76L157.05,698a134.35,134.35,0,0,0-95.77,124.9Z" transform="translate(-15.7 -285)"/><path class="cls-4" d="M17.1,1395a131.55,131.55,0,0,0,121.29,135.24l1711.42,132.19c89.39,6.91,159.88-75.61,139.22-163L1732.35,413.62a131.45,131.45,0,0,0-165.69-95.8L127.14,747.27A133,133,0,0,0,32.32,870.82Z" transform="translate(-15.7 -285)"/></g><g id="_7_Step" data-name="7 Step"><polyline class="cls-5" points="1493.3 837.26 1493.3 930.83 1855.3 930.83"/><text class="cls-6" transform="translate(1558.7 884.62)">7. Review</text><text class="cls-6" transform="translate(1201.7 1325.62)">1. Imagine</text><polyline class="cls-7" points="1201.44 1045.36 1201.44 1236 1532.3 1236"/><path class="cls-8" d="M385,1047l5,160c3,42-2,63,88,123l103-114.63Z" transform="translate(-15.7 -285)"/><text class="cls-9" transform="translate(664.3 1365.54)">2. Define</text><polyline class="cls-10" points="1398.99 356.99 1398.99 214.98 1747.3 214.98"/><text class="cls-11" transform="translate(1398.82 172.44)">6. Improve</text><path class="cls-12" d="M1338.29,1217.59" transform="translate(-15.7 -285)"/><path class="cls-12" d="M1338.29,1227.38" transform="translate(-15.7 -285)"/><path class="cls-13" d="M649.17,649.31c134.37-58.78,515.08-82.58,583.67-9.79l-79.78,159.56H838.13Z" transform="translate(-15.7 -285)"/><polygon class="cls-14" points="856.52 502.97 633.46 364.31 633.46 514.08 853.47 759.67 856.52 502.97"/><g class="cls-15"><polygon class="cls-16" points="1030.79 338.74 1041.01 443.46 752.81 445.33 798.62 338.72 1030.79 338.74"/><polygon class="cls-16" points="1030.79 338.74 1041.01 443.46 752.81 445.33 798.62 338.72 1030.79 338.74"/><path class="cls-17" d="M846.41,713.82l62.41-24.59-21.35-9.67L825.14,703.2c-7.87,3-9.59,7.81-3.69,10.76S838.65,716.88,846.41,713.82Z" transform="translate(-15.7 -285)"/><path class="cls-17" d="M941.8,696.69c-1.14,9.48,16.16,17.34,38.54,17.22a83.07,83.07,0,0,0,18.52-2.2l-30.22-13.25,17-7.19,30.16,12.88c2.76-2.37,4.48-5,4.39-7.8-.29-9.09-17.49-16.19-38.39-16.11a85.62,85.62,0,0,0-12.65,1l-19.26-8.18,19.62-7.73h0c4,1.65,10.65,1.64,14.84,0l7.53-3,22.3,9c12.16-5,11.79-13-.39-17.72l-28.54-11a22.82,22.82,0,0,0-14.13,0l-7.37,2.76.84-9.69c.06-.71-.57-1.38-1.91-1.86a16.11,16.11,0,0,0-9.86,0l-26.72,9.65c-3,1.09-3.32,2.81-.66,3.91a13.71,13.71,0,0,0,5,.82l25.88,0-7.45,2.8c-4.19,1.57-4.51,4.11-.66,5.7L928.55,664l-59.76-25.37c-5.25-2.24-14.79-2.23-21.39,0h0c-6.77,2.27-8.08,6-2.82,8.23l100.23,44.26A10.15,10.15,0,0,0,941.8,696.69Z" transform="translate(-15.7 -285)"/></g><path class="cls-18" d="M1004.69,1028.63c53.09,0,103,6.66,146.56,18.37.13-.53.28-1,.41-1.58l0-257.43c-59.08-31.58-243.57-16.9-280-.11l-2.79,256.36C909.86,1034.25,955.94,1028.63,1004.69,1028.63Z" transform="translate(-15.7 -285)"/><polygon class="cls-19" points="385.3 592 710.3 658 713.01 777.01 693.3 845 385.3 824 385.3 592"/><path class="cls-20" d="M1223,1117c3.06-42.56,74.28-460.7,21-494-12.62-7.89-201.34,17.71-201.34,17.71v380.71c.34,8.58.56,8.08.34,8.58C1099,1032,1214,1065.21,1223,1117Z" transform="translate(-15.7 -285)"/><path class="cls-12" d="M1209,698c-30-48-130-51.69-166.34-57.29l19.59-103.58C1215,528,1366,542,1446,604Z" transform="translate(-15.7 -285)"/><polygon class="cls-21" points="1207.3 839 1430.3 776 1430.3 319 1193.3 413 1207.3 839"/><path class="cls-17" d="M1185.46,611.14c-15.2-6.72-5.22-19.5-16.82-24.69l17.46-6.36c11.68,5.24,45.76,2.5,61.25,9.53,14.85,6.74,12.48,17-4.88,22.85h0C1225.43,618.2,1200,617.58,1185.46,611.14ZM1160.87,583l17.42-6.41-3.92-1.76c-4.32-1.94-11.8-2.07-16.58-.28h0c-4.76,1.78-5.12,4.8-.82,6.72Zm-1.11,40c-10.43-4.56-16.85-10-19.24-15.76-.89-2-5.36-3.61-10.61-3.73h0c-7-.15-12.74,2.31-11.48,5.08,3.21,7.28,11.47,14.26,24.91,20.09,17.5,7.6,40.83,12,65.12,13,6.38.27,12.07-1.52,12.54-3.93h0c.45-2.3-4-4.28-10.09-4.57C1191.83,632.44,1173.49,629,1159.76,623Zm90.37,17.74,45.16,1.29c5.22.15,8.5-2.1,5.2-3.58l-13.19-5.91h0c46-14.61,54.15-41.22,15.64-59.08-14.12-6.55-32.37-10.85-52.17-12.9-7.4-.78-15,1.59-15.58,4.68h0c-.45,2.3,3,4.34,8.39,4.91,29.91,3.12,55.26,12.88,60.76,28.79,3.52,10.49-9.64,20.86-31.88,27h0l-13.37-6c-3.37-1.51-9.84-.66-10.2,1.33l-3.82,17.2C1244.73,639.63,1247.08,640.66,1250.13,640.75Z" transform="translate(-15.7 -285)"/><path class="cls-22" d="M733.24,701.73s47.51-9.79,69.74,3.67c34.87,21.1-1.83,38.54-1.83,38.54Z" transform="translate(-15.7 -285)"/><path class="cls-22" d="M837.4,766.18s-2.78,30.14-12.39,24.56-8.46-36.93-8.46-36.93Z" transform="translate(-15.7 -285)"/><path class="cls-22" d="M867.22,756s0,9.3-29.82,10.23l-25.24-15,49.29-1.76Z" transform="translate(-15.7 -285)"/><path id="_Clipping_Path_6" data-name="&lt;Clipping Path&gt;" class="cls-1" d="M692.71,696.21c-2.75,1.83-12.15,17.54-71.47,64.13l-10.08-11a406.86,406.86,0,0,0,21.08-34.82C641.4,697.12,668,684.29,668,684.29Z" transform="translate(-15.7 -285)"/><g class="cls-23"><path class="cls-24" d="M612.18,744.27s10.5,1.75,18.38,13.13-28-7.88-28-7.88Z" transform="translate(-15.7 -285)"/><path class="cls-25" d="M651.57,690.87s14,14.88,39.39,13.13-5.25-22.76-5.25-22.76L656,679.49Z" transform="translate(-15.7 -285)"/></g><path class="cls-2" d="M589.57,763.62l23.86-16.42s18.32,11.74,14.33,15.28c-1.4,1.24-10.88,9.43-8,22.9,2.16,10.14,2.29,33.2-6.87,38.93C608.51,827,589.57,763.62,589.57,763.62Z" transform="translate(-15.7 -285)"/><path id="_Clipping_Path_7" data-name="&lt;Clipping Path&gt;" class="cls-1" d="M794,634.75s8.82-4.75,16.75,20.9,12.48,49.86,16,75.51c0,0-12.42,7.71-15.13,1.45-6.17-14.25-26.3-52.59-29.08-64.61-2.65-11.4-7.06-16.15-7.06-16.15Z" transform="translate(-15.7 -285)"/><g class="cls-26"><path class="cls-24" d="M807.24,725.09s10.25,2.28,19.48-2.29,0,10.29,0,10.29l-17.43,1.14Z" transform="translate(-15.7 -285)"/><path class="cls-25" d="M807.38,639s-2.57,20.38-28.32,26.65-12-31.35-12-31.35l20.6-4.71Z" transform="translate(-15.7 -285)"/></g><path class="cls-27" d="M705.71,639.33c4.59,7.34,62.72,27.16,69.74,24.78s22-18.36,26.62-21.11,5.5-8.26,5.5-8.26-29.36-22-58.73-28.44-46.8,1.83-46.8,1.83Z" transform="translate(-15.7 -285)"/><path class="cls-27" d="M665.34,607.21s-16.52,64.24-16.52,72.5,23.86,20.18,50.47,20.18c2.9,0,4.59-20.18,6.42-22.94S714,643,714,643l2.76-48.63Z" transform="translate(-15.7 -285)"/><path class="cls-1" d="M766,522.69l32.42,12-.91,16.52s-36.71-5.51-36.71-6.42S766,522.69,766,522.69Z" transform="translate(-15.7 -285)"/><path class="cls-1" d="M736.75,421.46l-6.55,16.16,10.33,16.07L758,456.8s7.24-21.32,9.54-29.3Z" transform="translate(-15.7 -285)"/><path id="_Clipping_Path_8" data-name="&lt;Clipping Path&gt;" class="cls-1" d="M767.12,430A43.55,43.55,0,0,0,778,436.7c7.65,3.11,10.41,2.77,13.63.58,2.73-1.86,2.75-6.81,4.48-11.06l2.76-6.8s5.14-7.81,6.2-15.31,3.66-16.34,4.18-20.09-23,.58-23,.58l-14,10.16-15.75,14.41-13.72,19.19,18.57,15.31Z" transform="translate(-15.7 -285)"/><g class="cls-28"><path class="cls-25" d="M767.12,431.76s-7.45-12.33-4.38-8.75c2.9,3.37,16.21,15.58,27.14,16.63,9.93.95-10.51,0-10.51,0Z" transform="translate(-15.7 -285)"/></g><path class="cls-1" d="M803.91,402.89s1.05,7,1.51,8.14c1.39,3.31,1.56,5.6-1.16,6.37-1.8.5-6.67.82-8.41,1.25-3.2.78,5.79-13.58,5.79-13.58Z" transform="translate(-15.7 -285)"/><path class="cls-27" d="M760.18,407.89s-3.22,9.64-6.47,13-19.91,5.62-23.11-2.47-4.77-48.44.33-60.92c5.28-12.92,15.75-18,20.91-16.89s55.89,17,55.89,17,7.25,2.94,7.87,6-.58,17.61-6.24,20-26,1.68-26,1.68Z" transform="translate(-15.7 -285)"/><path class="cls-1" d="M772.24,394.76s-1-12.28-10.34-11.13-12.37,20.73-2.35,27.77c6.93,4.86,10.25-5.75,10.25-5.75Z" transform="translate(-15.7 -285)"/><path class="cls-27" d="M772.05,393.41s-2.94,13.94,1.31,15.67,6.65.71,6.65.71.85.34,1.54-1.36,2.94-9.7,2.94-9.7,10.39,1.25,15.4-13.56-25.22-1.31-25.22-1.31Z" transform="translate(-15.7 -285)"/><path class="cls-27" d="M815.82,367.87s.23-12.78-4-19.45a24.35,24.35,0,0,0-10.18-9.08l1.83,7.68a77.84,77.84,0,0,0-6.62-5.65c-3.05-2.23-13.26-6.37-13.26-6.37a15.33,15.33,0,0,0,3.38,6.32s-29.09-10.49-47.13,4.31,44.1,25.16,44.1,25.16Z" transform="translate(-15.7 -285)"/><path class="cls-29" d="M766.35,393.62s-2.12-5.54-5.8-1.74,1.84,14.67,1.84,14.67,3.82-6.77.94-8.89" transform="translate(-15.7 -285)"/><ellipse class="cls-27" cx="800.39" cy="402.38" rx="2.52" ry="2.13" transform="translate(178.21 776.72) rotate(-74.08)"/><path class="cls-30" d="M806.17,397.27s-1.31-5.07-5.52-1.54" transform="translate(-15.7 -285)"/><path class="cls-29" d="M801.81,398.93c-1.11-.39-2.72,1.15-3,2.92" transform="translate(-15.7 -285)"/><path class="cls-30" d="M798.09,422.57c-2.39,1-8-2.25-7.44-2.18" transform="translate(-15.7 -285)"/><path class="cls-31" d="M731.41,433.78s9.17,11.93,32.12,6.43c0,0,29.36,19.27,19.27,47.71S769,524.63,769,524.63l-7.34,69.74-1.84,14.68a63.82,63.82,0,0,1-27.52,6.42c-15.6,0-74.33-3.67-74.33-11s.92-11,2.75-13.76,4.59-22,6.42-32.12,13.77-78.92,24.78-95.43S725,433.78,731.41,433.78Z" transform="translate(-15.7 -285)"/><path id="_Clipping_Path_9" data-name="&lt;Clipping Path&gt;" class="cls-1" d="M736.69,504.11l-12.57,22.65s-1.83.89-.12,10,32.8,59.41,32.8,59.41l16-6.34-20.61-57.27,13-24.39Z" transform="translate(-15.7 -285)"/><g class="cls-32"><path class="cls-25" d="M730.35,508.79,726,516.67s9.62,19.26,32.38,13.13,5.26-28,5.26-28l-33.27,2.62Z" transform="translate(-15.7 -285)"/></g><path class="cls-31" d="M770,445.71s18.35,15.6,14.68,36.71c0,0-15.6,40.37-22,44S725,516.37,725.9,509s15.6-28.45,15.6-28.45" transform="translate(-15.7 -285)"/><path class="cls-13" d="M770,445.71a47.48,47.48,0,0,1,7.06,7.52,45.14,45.14,0,0,1,5.36,8.87,38,38,0,0,1,3,10,33.19,33.19,0,0,1,0,10.48.65.65,0,0,1,0,.13h0c-3.79,9.74-7.78,19.39-12.28,28.84-1.12,2.36-2.3,4.71-3.58,7a46.52,46.52,0,0,1-4.33,6.69,10.15,10.15,0,0,1-1.49,1.52,4.33,4.33,0,0,1-1,.62,5.33,5.33,0,0,1-1.1.34,13.22,13.22,0,0,1-4.16,0,42.88,42.88,0,0,1-7.75-1.84,75.21,75.21,0,0,1-14.39-6.46,41.84,41.84,0,0,1-6.48-4.59,13.88,13.88,0,0,1-2.67-3.07,5.19,5.19,0,0,1-.74-2,3.42,3.42,0,0,1,.07-1.12,8.52,8.52,0,0,1,.23-1,39.53,39.53,0,0,1,3.15-7.26c1.24-2.31,2.58-4.56,4-6.78q4.14-6.65,8.73-13c-2.84,4.38-5.6,8.8-8.2,13.31-1.3,2.26-2.54,4.54-3.7,6.86a38.34,38.34,0,0,0-2.92,7.13,5.26,5.26,0,0,0-.23,1.73,3.92,3.92,0,0,0,.63,1.58,12.69,12.69,0,0,0,2.5,2.75,40.4,40.4,0,0,0,6.37,4.3,78.84,78.84,0,0,0,14.17,6.17,40.91,40.91,0,0,0,7.46,1.73,11.89,11.89,0,0,0,3.63,0,3,3,0,0,0,1.41-.65,8.94,8.94,0,0,0,1.23-1.29A46.32,46.32,0,0,0,768,517.7c1.23-2.27,2.4-4.59,3.55-6.92,4.53-9.35,8.58-19,12.42-28.63l0,.14a33.8,33.8,0,0,0,.27-10,37.09,37.09,0,0,0-2.67-9.77,50.16,50.16,0,0,0-4.92-8.93A52.64,52.64,0,0,0,770,445.71Z" transform="translate(-15.7 -285)"/><path class="cls-13" d="M730,508.57a38.38,38.38,0,0,0,3.38,2.88A43,43,0,0,0,737,514l1.89,1.15,1.93,1.07c1.33.64,2.65,1.29,4,1.8l1,.43,1,.36c.7.23,1.39.5,2.1.69,1.42.38,2.84.77,4.29,1a54.05,54.05,0,0,0,8.82.91c-.74,0-1.48.09-2.23.12a18.58,18.58,0,0,1-2.24,0,38.38,38.38,0,0,1-13.12-2.75,39.82,39.82,0,0,1-7.89-4.27A33.46,33.46,0,0,1,730,508.57Z" transform="translate(-15.7 -285)"/><path class="cls-1" d="M795.64,534.72s3.67-7.34,9.18-7.34,7.34,0,9.17,1.84.92,1.83.92,1.83,5.51-2.75,6.43,0,0,3.67,0,5.51,2.75,3.67.91,6.42-.91,4.59-.91,7.34.91,4.59-1.84,5.51-16.52.91-23.86-5.51-1.83-12.85-1.83-12.85Z" transform="translate(-15.7 -285)"/><path class="cls-1" d="M771.48,586.27a52.48,52.48,0,0,1,9.72,10.16c4.14,5.88,6.42,5.76,5,8.13s-.72.8-2.83,4-.63,3.94-3.56,4.78c-2.19.62-3.73,1.73-4.41,3.29s-2.16,2.41-5.12,4.1-11.88-4.56-12.85-11.52c-1.26-9.1-.66-12.18-.66-12.18l.55-3.85Z" transform="translate(-15.7 -285)"/><path class="cls-1" d="M773.92,591.07s8.21-.44,10,1.93.45,8.21.45,8.21L773,593.91Z" transform="translate(-15.7 -285)"/><path class="cls-13" d="M728.66,437.45a35.61,35.61,0,0,0,6.59,3.49,39.35,39.35,0,0,0,7,2.15c.6.14,1.21.22,1.81.33l.91.16.91.09,1.84.21,1.85.09.92,0h2.8c1.25,0,2.5-.14,3.78-.13-1.21.37-2.43.73-3.68,1a28.71,28.71,0,0,1-3.81.46,29.23,29.23,0,0,1-7.69-.52,27.53,27.53,0,0,1-7.25-2.64A19.52,19.52,0,0,1,728.66,437.45Z" transform="translate(-15.7 -285)"/><path id="_Clipping_Path_10" data-name="&lt;Clipping Path&gt;" class="cls-2" d="M809.87,729.86s0,5-1.26,16.25a33.1,33.1,0,0,0,.61,12.19,2.61,2.61,0,0,0,2.09,1.79c6.81,1.06,36.32,5.11,55.13-1.49l5.21-2.07a2,2,0,0,0,1.25-1.63c.23-1.94.39-5.73-1.43-7.54-2.52-2.5-32.69-11.25-35.2-12.5-2.15-1.06-7.63-5.73-9.2-7.08a.6.6,0,0,0-.8,0C824.91,729.05,819.79,732.84,809.87,729.86Z" transform="translate(-15.7 -285)"/><g class="cls-33"><path class="cls-34" d="M801.07,753.6s41.48,11.25,75.42-2.49l1.26,7.49-46.51,15-37.71-7.5Z" transform="translate(-15.7 -285)"/></g><path class="cls-34" d="M588.37,778.06s-4.21-15.79,7.08-16.18,14.27,21.84,14.27,21.84a74.49,74.49,0,0,0,5.66,20c4.56,10.07,2.82,18.41-1.28,19.8s-10.25,3.48-14.72-13.08-2.43-17.25-5-21.54S588.37,778.06,588.37,778.06Z" transform="translate(-15.7 -285)"/><path class="cls-35" d="M588.35,778.06s-4.39-15.72,5.14-15.51,13.21,22.2,13.21,22.2a89.52,89.52,0,0,0,5.83,20c4.39,10.14,3.36,18.24,0,19.39S604,827,599.36,810.49s-3-17.08-5.38-21.42S588.35,778.06,588.35,778.06Z" transform="translate(-15.7 -285)"/><polygon class="cls-22" points="784.53 561.71 785.44 458.94 717.54 416.73 717.54 517.67 784.53 561.71"/><line class="cls-36" x1="573.57" y1="483.75" x2="580.32" y2="481.82"/><line class="cls-36" x1="573.57" y1="488.33" x2="583.21" y2="485.92"/><line class="cls-36" x1="575.43" y1="492.18" x2="585.16" y2="489.63"/><line class="cls-36" x1="577.42" y1="496.05" x2="587.07" y2="493.64"/><line class="cls-36" x1="579.34" y1="500.11" x2="586.11" y2="498.26"/><line class="cls-36" x1="580.32" y1="504.46" x2="589" y2="502.08"/><line class="cls-36" x1="582.25" y1="508.83" x2="589" y2="506.9"/><line class="cls-36" x1="582.25" y1="513.41" x2="591.89" y2="511"/><line class="cls-36" x1="585.14" y1="517.51" x2="591.89" y2="515.58"/><line class="cls-36" x1="585.14" y1="522.09" x2="594.78" y2="519.68"/><line class="cls-36" x1="587.07" y1="525.22" x2="593.82" y2="523.29"/><line class="cls-36" x1="587.07" y1="529.8" x2="596.71" y2="527.39"/><line class="cls-36" x1="589.95" y1="533.87" x2="596.72" y2="532"/><path class="cls-37" d="M619.39,779.49c.22-1-2.15-3.9-2.15-3.9" transform="translate(-15.7 -285)"/><path class="cls-37" d="M621.23,771.86c.22-1-2.15-3.9-2.15-3.9" transform="translate(-15.7 -285)"/><path class="cls-37" d="M620.27,784.22c.22-1-2.16-3.9-2.16-3.9" transform="translate(-15.7 -285)"/><path class="cls-37" d="M620.36,789c.22-.95-2.16-3.89-2.16-3.89" transform="translate(-15.7 -285)"/><path class="cls-37" d="M620.27,775.63c.22-1-2.16-3.9-2.16-3.9" transform="translate(-15.7 -285)"/><path class="cls-37" d="M835.66,734.1a8.81,8.81,0,0,1-3.5,6.77" transform="translate(-15.7 -285)"/><path class="cls-37" d="M840.22,736.14s1,1.74-2.55,6.22" transform="translate(-15.7 -285)"/><path class="cls-37" d="M844.62,738a8.25,8.25,0,0,1-1.39,5.88" transform="translate(-15.7 -285)"/><path class="cls-37" d="M849.55,739.37a6.85,6.85,0,0,1-1.31,5.48" transform="translate(-15.7 -285)"/><path class="cls-37" d="M831.65,731.4a9.05,9.05,0,0,1-4.56,7" transform="translate(-15.7 -285)"/><polyline class="cls-38" points="425.12 1005.26 425.12 1098.83 71.3 1098.83"/><polyline class="cls-39" points="451.94 555.34 452.57 443.1 109.65 443.1"/><polyline class="cls-40" points="921.16 349 921.16 106.04 1228.3 106.04"/><text class="cls-41" transform="translate(71.59 1175.47)">3. Research</text><text class="cls-42" transform="translate(109.25 419.6)">4. Plan</text><text class="cls-6" transform="translate(913.7 73.62)">5. Create</text><path class="cls-43" d="M1221,1124l-24,39,241,107s82-150,8-209Z" transform="translate(-15.7 -285)"/><polygon class="cls-44" points="1422.3 985 1416.3 492 1181.3 417.66 1181.3 889.54 1422.3 985"/><path class="cls-45" d="M1420,773l5,477,13,20s65-76,77-171l12-410Z" transform="translate(-15.7 -285)"/><path class="cls-46" d="M1197,703s32-27,33-45l208-67s204,104-6,186Z" transform="translate(-15.7 -285)"/><path class="cls-47" d="M870.32,892.86,649.17,747.29S522,775,401,877l299,71Z" transform="translate(-15.7 -285)"/><g class="cls-15"><polygon class="cls-16" points="581.1 475.45 794.1 542.36 686 675.19 352.65 590.22 581.1 475.45"/><polygon class="cls-16" points="581.1 475.45 794.1 542.36 686 675.19 352.65 590.22 581.1 475.45"/><path class="cls-17" d="M520.45,864.37l-19.17,15,36.84-4.25,93.49-33.38c-6.25-3-10.46-6.54-12.55-10.34Z" transform="translate(-15.7 -285)"/><path class="cls-17" d="M677.78,848.58a99.2,99.2,0,0,1-24.6-.56l-20.61,52.57,8.31,15.77,19-14.14Z" transform="translate(-15.7 -285)"/><path class="cls-17" d="M692.23,838.25c11.1-6.12,9.42-14.66-.92-20.54l6-4.75c2.72-2.17.76-5.2-4.33-6.77h0c-5.12-1.58-11.65-1.15-14.53,1l-6.35,4.69c-13.66-1.74-28.5.26-36.53,5.79-11.93,8.2-3.88,20.3,18.66,24.51C667.94,844.71,683.43,843.08,692.23,838.25Zm-32-7c-5.65-1.67-7.55-5.07-4.25-7.51s10.34-3,15.8-1.34,7.41,4.93,4.36,7.36S665.87,832.93,660.24,831.26Z" transform="translate(-15.7 -285)"/></g><path class="cls-22" d="M733.24,802.67S570,814.08,595.6,843c48.63,55.06,204.63,3.67,204.63,3.67Z" transform="translate(-15.7 -285)"/><path class="cls-48" d="M702,1162c0-59.45,65.75-93.07,166.94-117.76l2-151.69C812,895,738,908,697,947l5,215c6.67-.88-22.64,17.68-15.88,16.89C684.84,1173.28,702,1167.78,702,1162Z" transform="translate(-15.7 -285)"/><path class="cls-49" d="M778,1136c-58-19-76-70.41-76-118L403,976s-71,136,71,213Z" transform="translate(-15.7 -285)"/><g class="cls-15"><path class="cls-16" d="M416.13,1056.41l188.17-21.07,92,70.89-184.5,56.48Z" transform="translate(-15.7 -285)"/><path class="cls-17" d="M663.93,1092.76l-153.71,39.07c-5.72,1.46-8.5,4.83-6,7.49s9.27,3.59,15,2l153.16-42c3.11-.85,3.72-3,1.41-4.81A12.82,12.82,0,0,0,663.93,1092.76Z" transform="translate(-15.7 -285)"/><path class="cls-17" d="M525.78,1122.31,648,1092.39c6.57-1.6,8.06-5.77,3.61-9.27L610,1050.34c-3.91-3.07-12.5-4.85-19.29-4L467,1062.46c-10.69,1.39-16.52,5.94-12.59,10.12l42.9,45.52C502,1123.06,515,1125,525.78,1122.31Zm.85-47.81c3.53-8.15,23-11.78,40-8.55,12.86,2.43,20.95,8.16,20.14,13.84l17,3.08c3.13.57,5.06,2.19,4.27,3.59s-4.1,2.13-7.3,1.56l-17.33-3.09c-7.67,6-26.37,8.2-42.58,3.48C530.07,1085.32,524.47,1079.62,526.63,1074.5Z" transform="translate(-15.7 -285)"/><path class="cls-17" d="M549.88,1070.49c8.41-1.37,18.45.5,22.68,4.18s1.21,8.08-7.17,9.7c-8.65,1.68-19.41-.2-23.74-4.19S541.2,1071.91,549.88,1070.49Z" transform="translate(-15.7 -285)"/></g><polyline class="cls-50" points="664.03 1091 664.03 1286.78 937.89 1286.78"/><polygon class="cls-51" points="763.3 1001 463.3 1037 458.3 904 762.3 851 763.3 1001"/><path class="cls-52" d="M959,1371l-4,68c-258-3-451-74-484-113v-56Z" transform="translate(-15.7 -285)"/><path class="cls-53" d="M959,1245l-4,139c-209,1-381-62-481-114l304-68S840,1230,959,1245Z" transform="translate(-15.7 -285)"/><g class="cls-15"><polygon class="cls-16" points="598.73 1016.87 726.81 948.33 869.32 977.07 874.07 1066.06 598.73 1016.87"/><polygon class="cls-16" points="598.73 1016.87 726.81 948.33 869.32 977.07 874.07 1066.06 598.73 1016.87"/><path class="cls-17" d="M753.32,1238.79,679,1297.11c-8.14,6.39-5.25,13.79,6.95,16l149,26.84c11.24,2,21.49-2.7,22.76-10l11.71-67.71c.52-3-4.48-6.48-11.12-7.83l-86.5-17.59C764.84,1235.4,756.57,1236.24,753.32,1238.79Zm76.19,57.28-5.72,15.12c-1.16,3.08-6.36,4.89-11.53,3.93s-8.2-4.31-6.72-7.34l7.27-14.9c1.2-2.47,5.82-3.72,10.29-2.86S830.45,1293.57,829.51,1296.07ZM796,1289.66l-8.85,14.68c-1.8,3-7.63,4.71-12.9,3.73s-7.83-4.27-5.7-7.21L779,1286.41c1.72-2.38,6.83-3.57,11.37-2.69S797.43,1287.23,796,1289.66Zm-34.13-6.52-12.09,14.21c-2.47,2.9-8.94,4.53-14.32,3.53s-7.44-4.22-4.64-7.07l13.76-14c2.27-2.31,7.87-3.42,12.5-2.53S763.84,1280.79,761.84,1283.14ZM804.09,1253,820,1266.74c2.12,1.83,1,4-2.51,4.76l-13.5,2.94c-3.9.86-8.79-.09-10.82-2.11s-.41-4.18,3.44-4.94l6.81-1.34-12-11.06c-1.78-1.65-.33-3.39,3.15-3.92h.09C798.1,1250.57,802.33,1251.42,804.09,1253Z" transform="translate(-15.7 -285)"/></g><path class="cls-43" d="M955,1384v55s119.06,4.24,212-19c88-22,156-55,156-55v-57l-137-34Z" transform="translate(-15.7 -285)"/><path class="cls-31" d="M955,1245s132,1,204-23l164,86s-44,24-163,54c-114.94,29-205,22-205,22Z" transform="translate(-15.7 -285)"/><path class="cls-17" d="M1052.83,1285.22c-19.24,7-22.2,18.92-5.59,28.55,13.18,7.65,35.25,11.82,56.49,11.51,15.8,7.48,43,9.83,63,5.18,21.44-5,26.59-16.16,11.49-24.91l-59.29-34.4c-12.59-7.3-37.31-9.86-55.19-5.7C1046.65,1269.43,1042.14,1278.07,1052.83,1285.22Z" transform="translate(-15.7 -285)"/><path class="cls-16" d="M1434.16,717.24,1311.9,703.5l16.94-91.74L1451.1,625.5Z" transform="translate(-15.7 -285)"/><path class="cls-17" d="M1320.27,701.87,1412,720.18c6.3,1.26,12.73-.57,14.28-4.08l25.42-57.37-28.57,8.17-80.22-16c-6.3-1.26-12.73.58-14.28,4.08l-16.94,38.24C1310.08,696.71,1314,700.61,1320.27,701.87Zm50.36-23.14,13.83-9.13,4.16,12.72,17.43,8.93-21.87,1.08-13.84,9.13-4.15-12.72-17.43-8.93Z" transform="translate(-15.7 -285)"/></g></svg>