<svg width="87" height="85" viewBox="0 0 87 85" fill="none" xmlns="http://www.w3.org/2000/svg">
<path d="M13.3737 16.5535H5.20703V73.7202C5.20703 78.2119 8.88203 81.8869 13.3737 81.8869H70.5404V73.7202H13.3737V16.5535ZM78.707 0.220215H29.707C25.2154 0.220215 21.5404 3.89521 21.5404 8.38688V57.3869C21.5404 61.8786 25.2154 65.5536 29.707 65.5536H78.707C83.1987 65.5536 86.8737 61.8786 86.8737 57.3869V8.38688C86.8737 3.89521 83.1987 0.220215 78.707 0.220215ZM78.707 57.3869H29.707V8.38688H78.707V57.3869ZM37.8737 28.8035H70.5404V36.9702H37.8737V28.8035ZM37.8737 41.0535H54.207V49.2202H37.8737V41.0535ZM37.8737 16.5535H70.5404V24.7202H37.8737V16.5535Z" fill="#42A8C1"/>
<path d="M8.17057 19.2201H0.00390625V76.3867C0.00390625 80.8784 3.67891 84.5534 8.17057 84.5534H65.3372V76.3867H8.17057V19.2201ZM73.5039 2.88672H24.5039C20.0122 2.88672 16.3372 6.56172 16.3372 11.0534V60.0534C16.3372 64.5451 20.0122 68.2201 24.5039 68.2201H73.5039C77.9956 68.2201 81.6706 64.5451 81.6706 60.0534V11.0534C81.6706 6.56172 77.9956 2.88672 73.5039 2.88672ZM73.5039 60.0534H24.5039V11.0534H73.5039V60.0534ZM32.6706 31.4701H65.3372V39.6367H32.6706V31.4701ZM32.6706 43.7201H49.0039V51.8867H32.6706V43.7201ZM32.6706 19.2201H65.3372V27.3867H32.6706V19.2201Z" fill="white"/>
</svg>
