<svg width="106" height="91" viewBox="0 0 106 91" fill="none" xmlns="http://www.w3.org/2000/svg">
<path d="M62.2857 0C38.1457 0 18.5714 19.4783 18.5714 43.5H4L22.8943 62.3017L23.2343 62.9783L42.8571 43.5H28.2857C28.2857 24.795 43.4886 9.66667 62.2857 9.66667C81.0829 9.66667 96.2857 24.795 96.2857 43.5C96.2857 62.205 81.0829 77.3333 62.2857 77.3333C52.9114 77.3333 44.4114 73.515 38.2914 67.3767L31.3943 74.24C39.3114 82.1183 50.1914 87 62.2857 87C86.4257 87 106 67.5217 106 43.5C106 19.4783 86.4257 0 62.2857 0ZM57.4286 24.1667V48.3333L78.2171 60.61L81.7143 54.7617L64.7143 44.7083V24.1667H57.4286Z" fill="#42A8C1"/>
<path d="M58.2857 4C34.1457 4 14.5714 23.4783 14.5714 47.5H0L18.8943 66.3017L19.2343 66.9783L38.8571 47.5H24.2857C24.2857 28.795 39.4886 13.6667 58.2857 13.6667C77.0829 13.6667 92.2857 28.795 92.2857 47.5C92.2857 66.205 77.0829 81.3333 58.2857 81.3333C48.9114 81.3333 40.4114 77.515 34.2914 71.3767L27.3943 78.24C35.3114 86.1183 46.1914 91 58.2857 91C82.4257 91 102 71.5217 102 47.5C102 23.4783 82.4257 4 58.2857 4ZM53.4286 28.1667V52.3333L74.2171 64.61L77.7143 58.7617L60.7143 48.7083V28.1667H53.4286Z" fill="white"/>
</svg>
