<svg width="112" height="96" viewBox="0 0 112 96" fill="none" xmlns="http://www.w3.org/2000/svg">
<path d="M97.2567 34.1476V24.4688C97.2567 19.1455 92.9012 14.7901 87.5779 14.7901H73.0598C73.0598 6.75673 66.5751 0.271973 58.5417 0.271973C50.5083 0.271973 44.0236 6.75673 44.0236 14.7901H29.5055C24.1821 14.7901 19.8267 19.1455 19.8267 24.4688V34.1476C11.7934 34.1476 5.30859 40.6323 5.30859 48.6657C5.30859 56.6991 11.7934 63.1838 19.8267 63.1838V82.5413C19.8267 87.8646 24.1821 92.2201 29.5055 92.2201H87.5779C92.9012 92.2201 97.2567 87.8646 97.2567 82.5413V63.1838C105.29 63.1838 111.775 56.6991 111.775 48.6657C111.775 40.6323 105.29 34.1476 97.2567 34.1476ZM87.5779 82.5413H29.5055V24.4688H87.5779V82.5413ZM44.0236 53.5051C40.0069 53.5051 36.7645 50.2627 36.7645 46.246C36.7645 42.2293 40.0069 38.987 44.0236 38.987C48.0403 38.987 51.2826 42.2293 51.2826 46.246C51.2826 50.2627 48.0403 53.5051 44.0236 53.5051ZM80.3189 46.246C80.3189 50.2627 77.0765 53.5051 73.0598 53.5051C69.0431 53.5051 65.8008 50.2627 65.8008 46.246C65.8008 42.2293 69.0431 38.987 73.0598 38.987C77.0765 38.987 80.3189 42.2293 80.3189 46.246ZM39.1842 63.1838H77.8992V72.8626H39.1842V63.1838Z" fill="#42A8C1"/>
<path d="M92.5926 37.8541V28.1754C92.5926 22.8521 88.2372 18.4966 82.9139 18.4966H68.3957C68.3957 10.4633 61.911 3.97852 53.8776 3.97852C45.8443 3.97852 39.3595 10.4633 39.3595 18.4966H24.8414C19.5181 18.4966 15.1626 22.8521 15.1626 28.1754V37.8541C7.12929 37.8541 0.644531 44.3389 0.644531 52.3722C0.644531 60.4056 7.12929 66.8904 15.1626 66.8904V86.2479C15.1626 91.5712 19.5181 95.9266 24.8414 95.9266H82.9139C88.2372 95.9266 92.5926 91.5712 92.5926 86.2479V66.8904C100.626 66.8904 107.111 60.4056 107.111 52.3722C107.111 44.3389 100.626 37.8541 92.5926 37.8541ZM82.9139 86.2479H24.8414V28.1754H82.9139V86.2479ZM39.3595 57.2116C35.3428 57.2116 32.1005 53.9692 32.1005 49.9526C32.1005 45.9359 35.3428 42.6935 39.3595 42.6935C43.3762 42.6935 46.6186 45.9359 46.6186 49.9526C46.6186 53.9692 43.3762 57.2116 39.3595 57.2116ZM75.6548 49.9526C75.6548 53.9692 72.4124 57.2116 68.3957 57.2116C64.3791 57.2116 61.1367 53.9692 61.1367 49.9526C61.1367 45.9359 64.3791 42.6935 68.3957 42.6935C72.4124 42.6935 75.6548 45.9359 75.6548 49.9526ZM34.5201 66.8904H73.2351V76.5691H34.5201V66.8904Z" fill="white"/>
</svg>
