<svg width="68" height="63" viewBox="0 0 68 63" fill="none" xmlns="http://www.w3.org/2000/svg">
<path d="M48.84 7.19683C48.44 8.55683 48 10.1568 48 13.2368L59.52 24.7568H62V35.9568L54.2 37.6768L49.44 54.7568H42V48.7568H24V54.7568H16.52C13.96 45.7968 10 30.5968 10 24.7568C10 18.1568 15.4 12.7568 22 12.7568H41.6C42.92 10.4768 45.32 8.15683 48.84 7.19683ZM52 0.756836C43.32 0.756836 38.6 6.75684 38.6 6.75684H22C12.2 6.75684 4 14.6368 4 24.7568C4 34.0768 12 60.7568 12 60.7568H30V54.7568H36V60.7568H54L59 42.7568L68 40.7568V18.7568H62L54 10.7568C54 9.31683 56 6.83684 56 4.75684C56 2.55684 54.2 0.756836 52 0.756836ZM40 22.7568H24V16.7568H40V22.7568ZM49 28.7568C47.36 28.7568 46 27.3968 46 25.7568C46 24.1168 47.36 22.7568 49 22.7568C50.64 22.7568 52 24.1168 52 25.7568C52 27.3968 50.64 28.7568 49 28.7568Z" fill="#42A8C1"/>
<path d="M45.5119 8.96588C45.1119 10.3259 44.6719 11.9259 44.6719 15.0059L56.1919 26.5259H58.6719V37.7259L50.8719 39.4459L46.1119 56.5259H38.6719V50.5259H20.6719V56.5259H13.1919C10.6319 47.5659 6.67188 32.3659 6.67188 26.5259C6.67188 19.9259 12.0719 14.5259 18.6719 14.5259H38.2719C39.5919 12.2459 41.9919 9.92588 45.5119 8.96588ZM48.6719 2.52588C39.9919 2.52588 35.2719 8.52588 35.2719 8.52588H18.6719C8.87187 8.52588 0.671875 16.4059 0.671875 26.5259C0.671875 35.8459 8.67188 62.5259 8.67188 62.5259H26.6719V56.5259H32.6719V62.5259H50.6719L55.6719 44.5259L64.6719 42.5259V20.5259H58.6719L50.6719 12.5259C50.6719 11.0859 52.6719 8.60588 52.6719 6.52588C52.6719 4.32588 50.8719 2.52588 48.6719 2.52588ZM36.6719 24.5259H20.6719V18.5259H36.6719V24.5259ZM45.6719 30.5259C44.0319 30.5259 42.6719 29.1659 42.6719 27.5259C42.6719 25.8859 44.0319 24.5259 45.6719 24.5259C47.3119 24.5259 48.6719 25.8859 48.6719 27.5259C48.6719 29.1659 47.3119 30.5259 45.6719 30.5259Z" fill="white"/>
</svg>
