<svg width="951" height="687" viewBox="0 0 951 687" fill="none" xmlns="http://www.w3.org/2000/svg">
<path opacity="0.1" d="M903.941 626.061L235.65 626.061C201.07 626.061 178.33 589.978 193.249 558.783L447.58 26.9755C455.389 10.6468 471.881 0.253174 489.981 0.253174L903.941 0.253174C929.899 0.253174 950.941 21.2958 950.941 47.2532L950.941 579.061C950.941 605.018 929.899 626.061 903.941 626.061Z" fill="#FA6F6F"/>
<path opacity="0.3" d="M742.91 685.773L74.6184 685.773C40.0392 685.773 17.2989 649.691 32.2178 618.496L286.549 86.6884C294.358 70.3597 310.85 59.9661 328.95 59.9661L742.91 59.9661C768.867 59.9661 789.91 81.0087 789.91 106.966L789.91 638.773C789.91 664.731 768.867 685.773 742.91 685.773Z" stroke="#FA6F6F"/>
</svg>
