<svg width="840" height="722" viewBox="0 0 840 722" fill="none" xmlns="http://www.w3.org/2000/svg">
<path opacity="0.1" d="M743.428 721.418H75.136C40.5568 721.418 17.8165 685.336 32.7353 654.14L287.066 122.333C294.875 106.004 311.367 95.6106 329.467 95.6106H743.428C769.385 95.6106 790.428 116.653 790.428 142.611V674.418C790.428 700.375 769.385 721.418 743.428 721.418Z" fill="#FDD135"/>
<path opacity="0.3" d="M791.867 626.807L123.575 626.807C88.9963 626.807 66.2559 590.724 81.1748 559.529L335.506 27.7216C343.315 11.3928 359.807 0.999213 377.906 0.99921L791.867 0.999138C817.824 0.999133 838.867 22.0418 838.867 47.9992L838.867 579.807C838.867 605.764 817.824 626.807 791.867 626.807Z" stroke="#DFB315"/>
</svg>
