<svg id="Layer_2" data-name="Layer 2" xmlns="http://www.w3.org/2000/svg" xmlns:xlink="http://www.w3.org/1999/xlink" viewBox="0 0 924.32 760.32"><defs><style>.cls-1{fill:#1b76aa;}.cls-2{fill:url(#linear-gradient);}.cls-3{fill:#b8d5e7;}.cls-4{fill:#fff;}.cls-12,.cls-5{fill:none;stroke-miterlimit:10;stroke-width:0.5px;}.cls-5{stroke:#b8d5e7;}.cls-6{fill:#e4ebf1;}.cls-7{fill:#b2b2b2;}.cls-8{fill:#222e3c;}.cls-9{fill:#313d4e;}.cls-10{fill:#dae1e5;}.cls-11{fill:#e4e8ea;}.cls-12{stroke:#a7b2b7;}</style><linearGradient id="linear-gradient" x1="1783.43" y1="438.03" x2="1991.29" y2="438.03" gradientTransform="matrix(-1, 0, 0, 1, 2263.23, 0)" gradientUnits="userSpaceOnUse"><stop offset="0" stop-color="#e4ebf1"/><stop offset="0.05" stop-color="#e8eef3"/><stop offset="0.23" stop-color="#f5f8fa"/><stop offset="0.48" stop-color="#fdfdfe"/><stop offset="1" stop-color="#fff"/></linearGradient></defs><title>arm</title><ellipse class="cls-1" cx="393.63" cy="474.82" rx="121.9" ry="65.65"/><path class="cls-2" d="M272.14,460.55V401l207.66-47.6V467.59h-.2c-3.23,30.75-48.42,55.13-103.73,55.13-57.4,0-103.93-26.26-103.93-58.65A34.44,34.44,0,0,1,272.14,460.55Z"/><ellipse class="cls-3" cx="375.35" cy="379.28" rx="102.05" ry="50.28" transform="translate(-109.29 155.97) rotate(-20.56)"/><path class="cls-4" d="M373.84,341.65c41.3-1.22,78.11,11.31,95.45,30.24l-11.05,16.68-25.69,20.62-37.07,13.6-28,11L324.39,438l-30-12.51c-8.93-7.65-14.51-16.61-15.48-26.31C275.93,369.06,318.42,343.29,373.84,341.65Z"/><ellipse class="cls-5" cx="374.06" cy="391.13" rx="66.65" ry="31.66"/><path class="cls-6" d="M273.93,414.23c11.66,28.17,66.71,35.61,123,16.62s92.39-57.22,80.72-85.39-66.71-35.61-123-16.62S262.26,386.06,273.93,414.23Zm83-76.58c50.46-17,99.16-12,108.77,11.21s-23.49,55.87-73.94,72.9-99.16,12-108.77-11.21S306.49,354.68,356.94,337.65Z"/><path class="cls-4" d="M395.7,308.24l-.12-.09-68.22-70.81c-6-6.21-8.06-18.74-4.64-28l7.62-20.63c3.42-9.25,11-11.72,17-5.51L415.58,254c.69.69,1.65,1.6,2.28,2.27.17.19.33.38.49.58,6.95,8.69,11.2,14.38,12.16,26.37,1.41,17.54-6.88,32.66-18.53,33.77C405.87,317.58,400.05,314.15,395.7,308.24Z"/><path class="cls-6" d="M392.91,299.46l-.12-.1-68.22-70.81c-6-6.21-8.06-18.74-4.64-28l7.62-20.64c3.41-9.25,11-11.72,17-5.51l68.22,70.81c.69.69,1.64,1.61,2.28,2.28a7.12,7.12,0,0,1,.49.58c6.94,8.68,11.2,14.37,12.16,26.37,1.41,17.54-6.88,32.65-18.53,33.76C403.07,308.79,397.26,305.36,392.91,299.46Z"/><path class="cls-4" d="M328.47,344.33c.06-.12.09-.24.15-.35l54.13-100.49a6.87,6.87,0,0,1,9.82-2.79l31.41,20a8.18,8.18,0,0,1,2.56,10.67L372.41,371.86a7.63,7.63,0,0,1-1.77,2.18c-3.09,9.74-10.6,17.09-20.05,18.32-13.58,1.78-26-9.73-27.78-25.69A32,32,0,0,1,328.47,344.33Z"/><path class="cls-3" d="M330.05,349.52c.06-.12.09-.24.15-.36l54.14-100.48a6.85,6.85,0,0,1,9.81-2.79l31.41,20a8.19,8.19,0,0,1,2.57,10.67L374,377.05a7.77,7.77,0,0,1-1.76,2.18c-3.1,9.73-10.6,17.09-20.06,18.32-13.58,1.77-26-9.73-27.78-25.69A32,32,0,0,1,330.05,349.52Z"/><line class="cls-7" x1="360.59" y1="372.98" x2="444.12" y2="415.02"/><polygon class="cls-4" points="397.77 279.73 366 246.76 327.98 226.69 353.39 260.68 397.77 279.73"/><path class="cls-8" d="M375.61,321.53l39.48,21.66a6.2,6.2,0,0,1,3.09,5.45v38a6.17,6.17,0,0,1-3.09,5.45L375.6,413.7a5.25,5.25,0,0,1-5,0l-39.49-21.6a6.17,6.17,0,0,1-3.09-5.45v-38a6.2,6.2,0,0,1,3.09-5.45l39.48-21.66A5.23,5.23,0,0,1,375.61,321.53Z"/><path class="cls-9" d="M371.45,321l-41.18,22.69a3.7,3.7,0,0,0,.14,6.42l41.18,20a3.34,3.34,0,0,0,2.94,0L416.1,350a3.69,3.69,0,0,0,.13-6.42L374.68,321A3.34,3.34,0,0,0,371.45,321Z"/><path class="cls-4" d="M365.59,365.29a1,1,0,0,1,.06-.16l45.86-95.29c4-8.35,13.51-11.58,21.2-7.21l17.13,9.75c7.69,4.37,10.66,14.69,6.64,23l-45.87,95.29c-.44,1-1,2.3-1.46,3.18-.12.24-.24.46-.38.69-5.82,9.75-9.68,15.73-18.9,17.42-13.48,2.47-26.41-8.37-28.87-24.22C359.71,379.45,361.75,372.94,365.59,365.29Z"/><path class="cls-10" d="M371.41,368c0-.05.39-.77.41-.82l45.86-95.29c4-8.36,13.51-11.59,21.2-7.21L456,274.38c7.68,4.37,10.65,14.68,6.63,23l-45.86,95.29c-.45,1-1,2.29-1.47,3.17a7.8,7.8,0,0,1-.38.7c-5.82,9.74-9.67,15.72-18.9,17.41-13.48,2.48-26.41-8.36-28.87-24.21C365.88,381.45,368,374.92,371.41,368Z"/><path class="cls-4" d="M367.91,323.44a68.87,68.87,0,0,0-20.65-8l-.56-.3L367,276.53c4.07,3.87,9.83,7.57,15.43,10.77a70.42,70.42,0,0,0,18.91,7.56l-19,39.15A75.5,75.5,0,0,0,367.91,323.44Z"/><path class="cls-4" d="M425.2,308.25l-1.57-1.61-66.77-69.3c-6-6.21-8.06-18.74-4.64-28l7.62-20.64c3.42-9.25,11-11.72,17-5.51L445.08,254c.7.69,1.65,1.61,2.28,2.28a7.2,7.2,0,0,1,.5.58c6.94,8.68,11.19,14.37,12.16,26.37,1.41,17.54-6.89,32.65-18.53,33.76C435.37,317.58,430.39,313.57,425.2,308.25Z"/><path class="cls-11" d="M429.26,308.25l-1.57-1.61-66.77-69.3c-6-6.21-8.06-18.74-4.64-28l7.62-20.64c3.42-9.25,11-11.72,17-5.51L449.14,254c.69.69,1.65,1.61,2.28,2.28a7.12,7.12,0,0,1,.49.58c6.95,8.68,11.2,14.37,12.16,26.37,1.42,17.54-6.88,32.65-18.52,33.76C439.43,317.58,434.45,313.57,429.26,308.25Z"/><ellipse class="cls-12" cx="394.77" cy="380.91" rx="18.12" ry="22.73"/><ellipse class="cls-12" cx="440.43" cy="283.27" rx="17.7" ry="20.75"/><path class="cls-6" d="M342.41,161.1l39.49,22.34a6.42,6.42,0,0,1,3.08,5.62v39.21a6.43,6.43,0,0,1-3.09,5.62l-39.48,22.27a5.06,5.06,0,0,1-5.05,0l-39.48-22.27a6.41,6.41,0,0,1-3.09-5.62V189.06a6.42,6.42,0,0,1,3.08-5.62l39.48-22.34A5.08,5.08,0,0,1,342.41,161.1Z"/><path class="cls-4" d="M297.88,187.11l22.51,13.42a37.71,37.71,0,0,0,39,0l22.51-13.42a6,6,0,0,0,1.38-1.18,7.24,7.24,0,0,1,1.71,4.75V232.1a6.88,6.88,0,0,1-3.09,5.94l-22.51,13.41a37.71,37.71,0,0,1-39,0L297.88,238a6.86,6.86,0,0,1-3.09-5.94V190.68a7.24,7.24,0,0,1,1.71-4.75A5.76,5.76,0,0,0,297.88,187.11Z"/><path class="cls-6" d="M305.26,229.23l10.86,5.68c3.08,1.61,6.66-.83,6.66-4.55v-10.7a5.12,5.12,0,0,0-2.63-4.55l-10.87-5.68c-3.08-1.61-6.65.83-6.65,4.55v10.7A5.1,5.1,0,0,0,305.26,229.23Z"/><path class="cls-4" d="M301.48,231.37,312.34,237c3.08,1.61,6.65-.83,6.65-4.55v-10.7a5.1,5.1,0,0,0-2.63-4.55l-10.86-5.67c-3.08-1.62-6.65.83-6.65,4.54v10.71A5.11,5.11,0,0,0,301.48,231.37Z"/><path class="cls-8" d="M304,229.76l7.17,3.74a3.08,3.08,0,0,0,4.39-3v-7.06a3.36,3.36,0,0,0-1.74-3l-7.16-3.75a3.08,3.08,0,0,0-4.39,3v7.07A3.37,3.37,0,0,0,304,229.76Z"/><polygon class="cls-8" points="313.6 233.59 311.19 234.96 309.97 233.84 313.6 231.64 313.6 233.59"/><polygon class="cls-8" points="304.09 216.64 301.35 218.18 301.91 219.54 303.88 219 304.09 216.64"/><path class="cls-9" d="M301.47,231.16l7.17,3.75a3.08,3.08,0,0,0,4.39-3v-7.06a3.36,3.36,0,0,0-1.73-3l-7.17-3.75a3.09,3.09,0,0,0-4.39,3v7.06A3.36,3.36,0,0,0,301.47,231.16Z"/><path class="cls-4" d="M257.43,232l-4.05-.26a21.74,21.74,0,0,0,.27,2.8,21.32,21.32,0,0,0,2.11,1.31l1.79-2.55Z"/><polygon class="cls-11" points="230.32 254.45 230.32 257.09 232.61 257.6 232.34 255.19 230.94 254.38 230.32 254.45"/><polygon class="cls-11" points="240.27 258.34 237.79 258.05 236.35 259.69 238.34 260.92 239.38 260.42 240.27 258.34"/><polygon class="cls-11" points="238.47 268.1 238.34 268.26 237.98 267.83 238.59 267.44 238.47 268.1"/><polygon class="cls-6" points="244.84 271.42 244.84 267.92 247.08 267.79 247.08 270.34 245.82 272.36 244.84 271.42"/><polygon class="cls-11" points="254.23 272.58 253.89 271.42 251 271.68 250.78 273.44 252.84 274.85 254.78 273.46 254.23 272.58"/><path class="cls-11" d="M254.6,281.45a4.86,4.86,0,0,1-3.83,0c-1.81-1,1.91-2.09,1.91-2.09Z"/><polygon class="cls-11" points="305.15 252.78 301.02 258.64 299.74 261.76 302.63 264.16 305.15 252.78"/><path class="cls-4" d="M307.38,222.79l-5.62-2.94a1.94,1.94,0,0,0-1.23-.19L250,229.09l5.71,3.57a1.94,1.94,0,0,0,1.21.15Z"/><polygon class="cls-6" points="307.38 222.79 304.8 230.66 256.28 240.81 256.28 232.94 307.38 222.79"/><polygon class="cls-11" points="256.28 232.94 238.47 260.04 238.47 268.1 256.28 240.81 256.28 232.94"/><path class="cls-6" d="M231.48,256.39l6.56,3.43a.81.81,0,0,1,.43.7v7.32a.8.8,0,0,1-1.16.7l-6.56-3.43a.8.8,0,0,1-.42-.7v-7.32A.78.78,0,0,1,231.48,256.39Z"/><path class="cls-4" d="M230.71,253.49l17.21-22.93a1.88,1.88,0,0,1,2.35-.56l4.07,2a1.91,1.91,0,0,1,.76,2.75L239.41,258.6a1.89,1.89,0,0,1-2.47.64l-5.6-2.93A1.89,1.89,0,0,1,230.71,253.49Z"/><path class="cls-6" d="M245.35,269.12l6.61,3.47a.37.37,0,0,1,.19.32v8.58a.35.35,0,0,1-.52.31l-6.6-3.47a.34.34,0,0,1-.19-.31v-8.58A.35.35,0,0,1,245.35,269.12Z"/><path class="cls-11" d="M253.28,272.46l47.27-12.34a1.5,1.5,0,0,1,1.89,1.45v5.37a1.51,1.51,0,0,1-1.1,1.45L254.06,281.6a1.51,1.51,0,0,1-1.91-1.45v-6.23A1.5,1.5,0,0,1,253.28,272.46Z"/><path class="cls-11" d="M302.44,263.58a29.64,29.64,0,0,1,1-7.78l8.12-29.94v4.55a19.94,19.94,0,0,1-.83,7l-8.36,29.77Z"/><path class="cls-4" d="M291.15,254.19,302,221.53a1.21,1.21,0,0,1,1.7-.68l7.27,3.81a1.21,1.21,0,0,1,.61,1.38L302.62,259a1.2,1.2,0,0,1-.85.85L252.6,272.63a1.16,1.16,0,0,1-.86-.09l-6.26-3.28a1.2,1.2,0,0,1,.25-2.22L290.33,255A1.19,1.19,0,0,0,291.15,254.19Z"/><path class="cls-4" d="M247.92,230.56s.33-1.14,2.6-1.56,1.36,1.94,1.36,1.94l-2.52.92Z"/><path class="cls-4" d="M252,229.94a37.93,37.93,0,0,1,3.84.88c0,.14-.41,1.89-.41,1.89l-3.5.48L250.33,232l.56-2.07Z"/></svg>