<svg id="Layer_2" data-name="Layer 2" xmlns="http://www.w3.org/2000/svg" xmlns:xlink="http://www.w3.org/1999/xlink" viewBox="0 0 848.32 709.32"><defs><style>.cls-1{fill:#7560e5;}.cls-2{fill:#a68fef;}.cls-3{fill:#4a47c0;}.cls-4{fill:#5148c1;}.cls-5{fill:url(#linear-gradient);}.cls-6{fill:url(#linear-gradient-2);}</style><linearGradient id="linear-gradient" x1="97.81" y1="178.02" x2="364.57" y2="178.02" gradientTransform="matrix(1, -0.18, 0.01, 1, -2.46, 77.94)" gradientUnits="userSpaceOnUse"><stop offset="0" stop-color="#4646c0"/><stop offset="0.65" stop-color="#754fc6"/><stop offset="1" stop-color="#9e36e9"/></linearGradient><linearGradient id="linear-gradient-2" x1="116.4" y1="190.65" x2="383.15" y2="190.65" gradientTransform="matrix(1, -0.18, 0.01, 1, -2.46, 77.94)" gradientUnits="userSpaceOnUse"><stop offset="0" stop-color="#4e4ed6"/><stop offset="0.65" stop-color="#8258dc"/><stop offset="1" stop-color="#ad3bff"/></linearGradient></defs><title>cb 3d svg test</title><rect class="cls-1" x="1" y="320.09" width="476.76" height="389.23"/><ellipse class="cls-2" cx="239.38" cy="321.66" rx="238.38" ry="116.66"/><polygon class="cls-3" points="116.72 227.33 98.16 218.32 100.44 213.03 122.02 211.13 116.72 227.33"/><path class="cls-4" d="M157.23,266.09s-16.88-9.63-19.39-10.28-14.08,10.05-14.08,10.05L139,284.5Z"/><path class="cls-5" d="M342.34,92.62,252,50.79c-13.49-6.25-30.4-3-43.9,8.35l-88.71,74.79c-13.79,11.62-22.22,29.37-22.22,46.78v35a3,3,0,0,0,3.62,3.19L135.45,212a4.76,4.76,0,0,0,3.57-4.59L139,193a34.06,34.06,0,0,1,12.51-25.9l69-56.17c6.33-5.15,14.12-6.63,20.44-3.86L311,137.77c4.84,2.12,4.83,9.67,0,13.62L282,175c-2.74,2.23-6.11,2.86-8.84,1.64l-33.66-15c-5.06-2.26-11.33-1.11-16.44,3L195.2,187a32,32,0,0,0-11.85,24l-.35,36.4c-.05,5.52,2.64,10.12,7.05,12L218.56,272c7.38,3.24,16.48,1.54,23.9-4.44l30.2-24.38c3.68-3,8.19-3.85,11.88-2.31l23.79,9.9c6.13,2.55,6.18,12,.09,17l-56.47,46c-13.24,10.77-29.54,13.89-42.78,8.18l-61-26.3c-5.48-2.36-8.86-8-8.89-14.82L139.22,259a3,3,0,0,0-3.62-3.18l-34.88,6.92a4.74,4.74,0,0,0-3.57,4.57v44.47c0,8.93,4.22,16.39,11.06,19.55l94.91,43.94C219.69,382.94,240.45,379,257,365l93-78.42A37.09,37.09,0,0,0,363,258.85l0-130.69C362.93,112,355.12,98.54,342.34,92.62ZM251.57,223.7a8.87,8.87,0,0,1-3.2,6.69l-14.29,11.79a6.37,6.37,0,0,1-6.47,1.28l-14.42-6.1a5.66,5.66,0,0,1-3.27-5.4l-.12-17.89a8.79,8.79,0,0,1,3.19-6.69l14.3-11.79a6.35,6.35,0,0,1,6.47-1.28l14.41,6.09a5.7,5.7,0,0,1,3.28,5.41Z"/><path class="cls-6" d="M361,101.82,270.64,60c-13.5-6.25-30.41-3-43.91,8.35L138,143.13c-13.79,11.62-22.22,29.37-22.21,46.78v35a3,3,0,0,0,3.63,3.19l34.68-6.87a4.76,4.76,0,0,0,3.57-4.59l-.06-14.38a34.09,34.09,0,0,1,12.51-25.9l69-56.17c6.32-5.15,14.12-6.63,20.43-3.86L329.71,147c4.83,2.12,4.82,9.67,0,13.62l-29,23.62c-2.74,2.23-6.12,2.86-8.85,1.64l-33.66-15c-5.06-2.26-11.33-1.11-16.44,3l-27.85,22.43a32,32,0,0,0-11.86,24l-.34,36.4c-.06,5.52,2.63,10.12,7,12l28.52,12.51c7.37,3.23,16.48,1.54,23.89-4.44l30.2-24.38c3.68-3,8.19-3.85,11.89-2.31L327,260c6.13,2.55,6.18,12.05.1,17l-56.48,46c-13.23,10.78-29.53,13.9-42.78,8.19l-61-26.3c-5.47-2.36-8.86-8-8.89-14.82l-.08-21.85a3,3,0,0,0-3.63-3.18l-34.88,6.92a4.75,4.75,0,0,0-3.57,4.57V321c0,8.93,4.21,16.39,11.06,19.55l94.9,43.94c16.58,7.67,37.34,3.72,53.92-10.26l93-78.42a37.09,37.09,0,0,0,12.91-27.74l0-130.69C381.61,121.22,373.79,107.74,361,101.82ZM270.24,232.9a8.8,8.8,0,0,1-3.2,6.69l-14.29,11.79a6.37,6.37,0,0,1-6.47,1.28l-14.41-6.1a5.68,5.68,0,0,1-3.28-5.4l-.12-17.89a8.8,8.8,0,0,1,3.2-6.69L246,204.79a6.33,6.33,0,0,1,6.47-1.28l14.42,6.09a5.68,5.68,0,0,1,3.27,5.41Z"/></svg>