<svg id="Layer_5" data-name="Layer 5" xmlns="http://www.w3.org/2000/svg" viewBox="0 0 924.32 760.32"><defs><style>.cls-1{fill:#1b76aa;}.cls-2{fill:#222e3c;}.cls-3{fill:#313d4e;}.cls-4{fill:#151d23;}.cls-5{fill:#0d1116;}</style></defs><title>motor</title><path class="cls-1" d="M191.2,472.63l-50.45,27.05a5.13,5.13,0,0,0-.05,9l41.89,22.95a5.11,5.11,0,0,0,4.89,0l50-26.82a5.13,5.13,0,0,0,.08-9l-41.47-23.18A5.14,5.14,0,0,0,191.2,472.63Z"/><path class="cls-2" d="M180.73,435.67l39,21.41a6.12,6.12,0,0,1,3.05,5.39V500a6.11,6.11,0,0,1-3.06,5.39l-39,21.35a5.15,5.15,0,0,1-5,0l-39-21.35a6.11,6.11,0,0,1-3-5.39V462.47a6.12,6.12,0,0,1,3-5.39l39-21.41A5.17,5.17,0,0,1,180.73,435.67Z"/><path class="cls-3" d="M176.62,435.17,135.91,457.6a3.65,3.65,0,0,0,.14,6.34l40.71,19.81a3.28,3.28,0,0,0,2.9,0l41.09-19.91a3.66,3.66,0,0,0,.13-6.36l-41.07-22.32A3.29,3.29,0,0,0,176.62,435.17Z"/><path class="cls-4" d="M212.76,501.38l-17.44,9.05a4.06,4.06,0,0,1-5.93-3.54l-.25-17.15a4,4,0,0,1,2.19-3.67L208.77,477a4.06,4.06,0,0,1,5.93,3.55l.26,17.15A4,4,0,0,1,212.76,501.38Z"/><path class="cls-2" d="M215.67,503l-17.44,9a4.06,4.06,0,0,1-5.93-3.55L192,491.35a4.07,4.07,0,0,1,2.19-3.66l17.44-9.05a4.06,4.06,0,0,1,5.93,3.54l.26,17.16A4.06,4.06,0,0,1,215.67,503Z"/><ellipse class="cls-5" cx="203.92" cy="495.34" rx="8.47" ry="6.75" transform="translate(-318.76 612.64) rotate(-80.27)"/><ellipse class="cls-2" cx="205.98" cy="496.52" rx="8.47" ry="6.75" transform="translate(-318.2 615.65) rotate(-80.27)"/><ellipse class="cls-5" cx="205.98" cy="496.52" rx="2" ry="1.59" transform="translate(-318.2 615.65) rotate(-80.27)"/></svg>