<svg id="Layer_4" data-name="Layer 4" xmlns="http://www.w3.org/2000/svg" viewBox="0 0 924.32 760.32"><defs><style>.cls-1,.cls-2,.cls-3,.cls-4,.cls-5,.cls-6,.cls-7,.cls-8{fill:none;stroke-width:3px;}.cls-1{stroke:#1b76aa;}.cls-1,.cls-8{stroke-miterlimit:10;}.cls-2{stroke:#e2ea83;}.cls-2,.cls-3,.cls-4,.cls-5,.cls-6,.cls-7{stroke-linecap:round;stroke-linejoin:round;}.cls-3{stroke:#0789d5;}.cls-4{stroke:#c2b6ba;}.cls-5{stroke:#e8e8e8;}.cls-6{stroke:#b26c32;}.cls-7{stroke:#212e38;}.cls-8{stroke:#030207;}</style></defs><title>wires</title><line class="cls-1" x1="581.21" y1="525.12" x2="438.28" y2="598.32"/><line class="cls-1" x1="575.6" y1="514.77" x2="432.66" y2="587.97"/><line class="cls-1" x1="586.31" y1="527.47" x2="443.38" y2="600.67"/><line class="cls-1" x1="578.93" y1="517.75" x2="435.99" y2="590.95"/><line class="cls-1" x1="581.21" y1="521.07" x2="438.28" y2="594.27"/><line class="cls-1" x1="572.23" y1="513.47" x2="429.29" y2="586.67"/><line class="cls-1" x1="581.21" y1="525.12" x2="438.28" y2="598.32"/><line class="cls-1" x1="575.6" y1="514.77" x2="432.66" y2="587.97"/><line class="cls-1" x1="586.31" y1="527.47" x2="443.38" y2="600.67"/><line class="cls-1" x1="578.93" y1="517.75" x2="435.99" y2="590.95"/><line class="cls-1" x1="581.21" y1="521.07" x2="438.28" y2="594.27"/><line class="cls-1" x1="572.23" y1="513.47" x2="429.29" y2="586.67"/><line class="cls-1" x1="601.29" y1="539.73" x2="458.35" y2="612.93"/><line class="cls-1" x1="595.67" y1="529.38" x2="452.73" y2="602.58"/><line class="cls-1" x1="606.39" y1="542.08" x2="463.45" y2="615.28"/><line class="cls-1" x1="599" y1="532.36" x2="456.06" y2="605.56"/><line class="cls-1" x1="601.29" y1="535.68" x2="458.35" y2="608.88"/><line class="cls-1" x1="592.3" y1="528.08" x2="449.36" y2="601.28"/><line class="cls-1" x1="601.29" y1="539.73" x2="458.35" y2="612.93"/><line class="cls-1" x1="596.08" y1="529.65" x2="453.14" y2="602.85"/><line class="cls-1" x1="606.39" y1="542.08" x2="463.45" y2="615.28"/><line class="cls-1" x1="599" y1="532.36" x2="456.06" y2="605.56"/><line class="cls-1" x1="601.29" y1="535.68" x2="458.35" y2="608.88"/><line class="cls-1" x1="592.3" y1="527.63" x2="449.36" y2="600.83"/><line class="cls-1" x1="615.73" y1="537.13" x2="605.57" y2="542.34"/><line class="cls-1" x1="611.47" y1="534.53" x2="601.3" y2="539.73"/><line class="cls-1" x1="608.57" y1="531.92" x2="598.41" y2="537.13"/><line class="cls-1" x1="605.3" y1="529.12" x2="595.13" y2="534.33"/><line class="cls-1" x1="600.81" y1="527.22" x2="590.65" y2="532.43"/><line class="cls-1" x1="596.85" y1="525.28" x2="586.68" y2="530.48"/><line class="cls-1" x1="591.07" y1="524.99" x2="580.91" y2="530.19"/><line class="cls-1" x1="586.3" y1="522.52" x2="576.13" y2="527.73"/><line class="cls-1" x1="584.63" y1="519.25" x2="574.47" y2="524.46"/><line class="cls-1" x1="582.39" y1="515.96" x2="572.23" y2="521.16"/><line class="cls-1" x1="578.56" y1="513.23" x2="568.39" y2="518.43"/><line class="cls-1" x1="575.6" y1="511.73" x2="565.43" y2="516.94"/><line class="cls-1" x1="470.94" y1="611.01" x2="460.77" y2="616.22"/><line class="cls-1" x1="466.68" y1="608.41" x2="456.51" y2="613.62"/><line class="cls-1" x1="463.78" y1="605.81" x2="453.61" y2="611.01"/><line class="cls-1" x1="460.5" y1="603.01" x2="450.34" y2="608.21"/><line class="cls-1" x1="456.02" y1="601.11" x2="445.85" y2="606.31"/><line class="cls-1" x1="452.05" y1="599.16" x2="441.89" y2="604.37"/><line class="cls-1" x1="446.28" y1="598.87" x2="436.11" y2="604.08"/><line class="cls-1" x1="441.5" y1="596.4" x2="431.34" y2="601.61"/><line class="cls-1" x1="439.84" y1="593.14" x2="429.67" y2="598.34"/><line class="cls-1" x1="437.6" y1="589.84" x2="427.43" y2="595.05"/><line class="cls-1" x1="433.77" y1="587.11" x2="423.6" y2="592.32"/><line class="cls-1" x1="430.81" y1="585.61" x2="420.64" y2="590.82"/><line class="cls-2" x1="580.19" y1="522.29" x2="433.42" y2="596.15"/><line class="cls-3" x1="574.42" y1="511.85" x2="427.66" y2="585.71"/><line class="cls-4" x1="585.42" y1="524.66" x2="438.66" y2="598.52"/><line class="cls-5" x1="577.84" y1="514.85" x2="431.07" y2="588.71"/><line class="cls-6" x1="580.19" y1="518.2" x2="433.42" y2="592.06"/><line class="cls-7" x1="570.96" y1="510.53" x2="424.2" y2="584.4"/><line class="cls-2" x1="580.19" y1="522.29" x2="433.42" y2="596.15"/><line class="cls-3" x1="574.42" y1="511.85" x2="427.66" y2="585.71"/><line class="cls-4" x1="585.42" y1="524.66" x2="438.66" y2="598.52"/><line class="cls-5" x1="577.84" y1="514.85" x2="431.07" y2="588.71"/><line class="cls-6" x1="580.19" y1="518.2" x2="433.42" y2="592.06"/><line class="cls-7" x1="570.96" y1="510.53" x2="424.2" y2="584.4"/><line class="cls-2" x1="600.79" y1="537.03" x2="454.03" y2="610.9"/><line class="cls-3" x1="595.03" y1="526.59" x2="448.27" y2="600.45"/><line class="cls-4" x1="606.03" y1="539.4" x2="459.27" y2="613.26"/><line class="cls-5" x1="598.44" y1="529.59" x2="451.68" y2="603.46"/><line class="cls-6" x1="600.79" y1="532.94" x2="454.03" y2="606.81"/><line class="cls-7" x1="591.57" y1="525.28" x2="444.81" y2="599.14"/><line class="cls-2" x1="600.79" y1="537.03" x2="454.03" y2="610.9"/><line class="cls-3" x1="595.45" y1="526.86" x2="448.69" y2="600.73"/><line class="cls-4" x1="606.03" y1="539.4" x2="459.27" y2="613.26"/><line class="cls-5" x1="598.44" y1="529.59" x2="451.68" y2="603.46"/><line class="cls-6" x1="600.79" y1="532.94" x2="454.03" y2="606.81"/><line class="cls-7" x1="591.57" y1="524.82" x2="444.81" y2="598.69"/><line class="cls-8" x1="615.63" y1="534.4" x2="605.19" y2="539.66"/><line class="cls-8" x1="611.25" y1="531.78" x2="600.81" y2="537.03"/><line class="cls-8" x1="608.28" y1="529.15" x2="597.84" y2="534.4"/><line class="cls-8" x1="604.91" y1="526.33" x2="594.47" y2="531.58"/><line class="cls-8" x1="600.31" y1="524.41" x2="589.87" y2="529.66"/><line class="cls-8" x1="596.24" y1="522.44" x2="585.8" y2="527.7"/><line class="cls-8" x1="590.31" y1="522.15" x2="579.87" y2="527.41"/><line class="cls-8" x1="585.4" y1="519.66" x2="574.97" y2="524.92"/><line class="cls-8" x1="583.69" y1="516.36" x2="573.26" y2="521.62"/><line class="cls-8" x1="581.4" y1="513.04" x2="570.96" y2="518.29"/><line class="cls-8" x1="577.46" y1="510.29" x2="567.02" y2="515.54"/><line class="cls-8" x1="574.42" y1="508.77" x2="563.98" y2="514.03"/><line class="cls-8" x1="466.96" y1="608.96" x2="456.52" y2="614.22"/><line class="cls-8" x1="462.58" y1="606.34" x2="452.15" y2="611.59"/><line class="cls-8" x1="459.61" y1="603.71" x2="449.17" y2="608.96"/><line class="cls-8" x1="456.24" y1="600.88" x2="445.81" y2="606.14"/><line class="cls-8" x1="451.64" y1="598.97" x2="441.2" y2="604.22"/><line class="cls-8" x1="447.57" y1="597" x2="437.13" y2="602.25"/><line class="cls-8" x1="441.64" y1="596.71" x2="431.2" y2="601.96"/><line class="cls-8" x1="436.74" y1="594.22" x2="426.3" y2="599.47"/><line class="cls-8" x1="435.03" y1="590.92" x2="424.59" y2="596.18"/><line class="cls-8" x1="432.73" y1="587.6" x2="422.29" y2="592.85"/><line class="cls-8" x1="428.79" y1="584.84" x2="418.35" y2="590.1"/><line class="cls-8" x1="425.75" y1="583.33" x2="415.32" y2="588.59"/></svg>