<svg id="Layer_3" data-name="Layer 3" xmlns="http://www.w3.org/2000/svg" xmlns:xlink="http://www.w3.org/1999/xlink" viewBox="0 0 924.32 760.32"><defs><style>.cls-1{fill:#1b76aa;}.cls-2{fill:#092738;}.cls-3{fill:#0d4260;}.cls-4{fill:#1a1a1a;}.cls-5{fill:#c1c2c4;}.cls-6{fill:#7f7f7f;}.cls-7{fill:#adadad;}.cls-8{fill:#9f9174;}.cls-9{fill:#515151;}.cls-10{fill:#212e38;}.cls-11{fill:#151d23;}.cls-12{fill:#1c272d;}.cls-13{fill:#0d1216;}.cls-14{fill:#141c21;}.cls-15{fill:#484949;}.cls-16{fill:#444;}.cls-17{fill:#676767;}.cls-18{fill:#ebfcff;}.cls-19{fill:url(#linear-gradient);}.cls-20{fill:url(#linear-gradient-2);}.cls-21{fill:#19222b;}.cls-22{fill:#686868;}.cls-23{fill:#209ce2;}</style><linearGradient id="linear-gradient" x1="1999" y1="575.88" x2="2010.71" y2="575.88" gradientTransform="matrix(-1, 0, 0, 1, 2265.03, 1.21)" gradientUnits="userSpaceOnUse"><stop offset="0" stop-color="#7f7f7f"/><stop offset="1" stop-color="#c1c2c4"/></linearGradient><linearGradient id="linear-gradient-2" x1="1986.29" y1="582.38" x2="1997.99" y2="582.38" xlink:href="#linear-gradient"/></defs><title>arduino</title><path class="cls-1" d="M266,552.11l-82.93,42.45a2.47,2.47,0,0,0,0,4.36l109.8,56.68a2.3,2.3,0,0,0,2.12,0l82.22-42.08a2.48,2.48,0,0,0,0-4.36l-109.08-57A2.31,2.31,0,0,0,266,552.11Z"/><polygon class="cls-2" points="169.97 590.29 169.96 594.57 173.84 595.42 171.92 588.5 169.97 590.29"/><path class="cls-2" d="M171.26,592.12l81.89-40.81a2.37,2.37,0,0,1,2.11,0l8.81,4.49a5.77,5.77,0,0,0-1.71,0c-1.82.3-2.87,1.36-2.33,2.37s2.46,1.58,4.28,1.28,2.85-1.34,2.34-2.34L363,606.19a2.34,2.34,0,0,1,0,4.19l-81.18,40.45a2.35,2.35,0,0,1-2.1,0L171.25,596.31A2.34,2.34,0,0,1,171.26,592.12Z"/><path class="cls-3" d="M171.27,592.44,279.7,647a2.35,2.35,0,0,0,2.1,0L363,606.51a2.35,2.35,0,0,0,0-4.19L255.27,547.46a2.34,2.34,0,0,0-2.11,0l-81.89,40.8A2.34,2.34,0,0,0,171.27,592.44Zm91.09-36.62c1.83-.3,3.74.27,4.28,1.28s-.5,2.07-2.33,2.37-3.74-.27-4.28-1.28S260.54,556.12,262.36,555.82Z"/><polygon class="cls-2" points="252.05 554.47 252.03 558.42 247.17 560.36 247.18 556.21 252.05 554.47"/><polygon class="cls-4" points="177.08 587.97 178.65 588.77 178.65 589.51 177.07 588.71 177.08 587.97"/><polygon class="cls-4" points="175.84 588.59 177.08 587.97 177.07 588.71 175.84 589.33 175.84 588.59"/><polygon class="cls-5" points="177.08 587.97 178.65 588.75 177.42 589.36 175.85 588.56 177.08 587.97"/><polygon class="cls-6" points="177.42 589.36 178.65 588.75 178.65 589.48 177.41 590.1 177.42 589.36"/><polygon class="cls-7" points="175.85 588.56 177.42 589.36 177.42 590.1 175.85 589.3 175.85 588.56"/><polygon class="cls-4" points="181.49 585.61 183.06 586.4 183.06 587.14 181.48 586.34 181.49 585.61"/><polygon class="cls-4" points="180.25 586.22 181.49 585.61 181.48 586.34 180.25 586.96 180.25 586.22"/><polygon class="cls-5" points="181.49 585.61 183.06 586.38 181.83 586.99 180.26 586.2 181.49 585.61"/><polygon class="cls-6" points="181.83 586.99 183.06 586.38 183.06 587.11 181.82 587.73 181.83 586.99"/><polygon class="cls-7" points="180.26 586.2 181.83 586.99 181.83 587.73 180.26 586.93 180.26 586.2"/><polygon class="cls-5" points="337.24 603.03 334.59 604.35 332.2 603.05 334.65 601.72 337.24 603.03"/><polygon class="cls-6" points="337.2 611.73 334.55 613.06 334.59 604.36 337.24 603.03 337.2 611.73"/><polygon class="cls-7" points="332.17 611.86 334.55 613.06 334.59 604.35 332.2 603.05 332.17 611.86"/><polygon class="cls-5" points="329.65 599.03 327 600.35 324.61 599.05 327.06 597.72 329.65 599.03"/><polygon class="cls-6" points="329.62 607.73 326.97 609.05 327 600.36 329.65 599.03 329.62 607.73"/><polygon class="cls-7" points="324.58 607.86 326.97 609.05 327 600.35 324.61 599.05 324.58 607.86"/><polygon class="cls-5" points="322.84 595.66 320.19 596.99 317.8 595.69 320.25 594.35 322.84 595.66"/><polygon class="cls-6" points="322.8 604.36 320.15 605.69 320.19 596.99 322.84 595.66 322.8 604.36"/><polygon class="cls-7" points="317.76 604.49 320.15 605.69 320.19 596.99 317.8 595.69 317.76 604.49"/><polygon class="cls-5" points="315.64 591.9 312.99 593.22 310.61 591.92 313.06 590.59 315.64 591.9"/><polygon class="cls-6" points="315.61 600.6 312.96 601.92 312.99 593.23 315.64 591.9 315.61 600.6"/><polygon class="cls-7" points="310.57 600.73 312.96 601.92 312.99 593.22 310.61 591.92 310.57 600.73"/><polygon class="cls-5" points="308.45 588.4 305.8 589.72 303.41 588.42 305.87 587.09 308.45 588.4"/><polygon class="cls-6" points="308.42 597.1 305.77 598.42 305.8 589.73 308.45 588.4 308.42 597.1"/><polygon class="cls-7" points="303.38 597.23 305.77 598.42 305.8 589.72 303.41 588.42 303.38 597.23"/><polygon class="cls-5" points="302.08 585.18 299.43 586.5 297.05 585.2 299.5 583.87 302.08 585.18"/><polygon class="cls-6" points="302.05 593.88 299.4 595.21 299.43 586.51 302.08 585.18 302.05 593.88"/><polygon class="cls-7" points="297.01 594.01 299.4 595.21 299.43 586.5 297.05 585.2 297.01 594.01"/><polygon class="cls-5" points="295.49 581.85 292.84 583.17 290.45 581.87 292.9 580.54 295.49 581.85"/><polygon class="cls-6" points="295.45 590.55 292.8 591.88 292.84 583.18 295.49 581.85 295.45 590.55"/><polygon class="cls-7" points="290.41 590.68 292.8 591.88 292.84 583.17 290.45 581.87 290.41 590.68"/><polygon class="cls-4" points="287.25 589.54 336 614.61 336.06 600.36 287.31 575.3 287.25 589.54"/><polygon class="cls-4" points="287.25 589.66 273.41 596.63 273.46 582.27 287.31 575.3 287.25 589.66"/><polygon class="cls-8" points="196.31 558.5 219.38 570.16 219.31 580.54 196.25 568.88 196.31 558.5"/><polygon class="cls-8" points="178.25 567.51 196.31 558.5 196.27 568.89 178.2 577.9 178.25 567.51"/><polygon class="cls-7" points="178.32 567.42 201.38 579.09 201.34 589.64 178.27 577.98 178.32 567.42"/><polygon class="cls-6" points="201.31 579.11 219.38 570.1 219.33 580.62 201.27 589.64 201.31 579.11"/><polygon class="cls-5" points="219.38 570.1 201.31 579.11 178.25 567.51 196.31 558.5 219.38 570.1"/><polygon class="cls-9" points="204.97 579.81 215.69 574.46 215.69 576.64 204.96 582 204.97 579.81"/><polygon class="cls-9" points="204.96 583.09 215.68 577.74 215.67 579.93 204.95 585.28 204.96 583.09"/><polygon class="cls-10" points="336.06 600.36 322.22 607.15 273.06 582.33 287.31 575.3 336.06 600.36"/><polygon class="cls-11" points="336.01 614.41 322.16 621.26 322.22 607.15 336.06 600.3 336.01 614.41"/><polygon class="cls-12" points="273.01 596.44 322.16 621.26 322.22 607.15 273.06 582.33 273.01 596.44"/><polygon class="cls-10" points="242.85 536.93 230.17 543.09 223.64 540.02 236.78 533.59 242.85 536.93"/><polygon class="cls-13" points="242.76 553.18 230.1 559.49 230.17 543.09 242.83 536.78 242.76 553.18"/><polygon class="cls-5" points="319.15 611.23 316.5 612.55 314.11 611.25 316.56 609.91 319.15 611.23"/><polygon class="cls-6" points="319.12 619.93 316.46 621.25 316.5 612.55 319.15 611.23 319.12 619.93"/><polygon class="cls-7" points="314.07 620.06 316.46 621.25 316.5 612.55 314.11 611.25 314.07 620.06"/><polygon class="cls-14" points="223.57 556.42 230.1 559.49 230.17 543.09 223.64 540.01 223.57 556.42"/><polygon class="cls-5" points="311.56 607.22 308.91 608.55 306.52 607.25 308.97 605.91 311.56 607.22"/><polygon class="cls-6" points="311.53 615.92 308.88 617.25 308.91 608.55 311.56 607.22 311.53 615.92"/><polygon class="cls-7" points="306.49 616.05 308.88 617.25 308.91 608.55 306.52 607.25 306.49 616.05"/><polygon class="cls-5" points="304.75 603.86 302.1 605.18 299.71 603.88 302.16 602.55 304.75 603.86"/><polygon class="cls-6" points="304.71 612.56 302.06 613.89 302.1 605.19 304.75 603.86 304.71 612.56"/><polygon class="cls-7" points="299.67 612.69 302.06 613.89 302.1 605.18 299.71 603.88 299.67 612.69"/><polygon class="cls-5" points="297.56 600.09 294.9 601.42 292.52 600.12 294.97 598.78 297.56 600.09"/><polygon class="cls-6" points="297.52 608.79 294.87 610.12 294.9 601.42 297.56 600.09 297.52 608.79"/><polygon class="cls-7" points="292.48 608.92 294.87 610.12 294.9 601.42 292.52 600.12 292.48 608.92"/><polygon class="cls-5" points="290.36 596.59 287.71 597.92 285.32 596.62 287.77 595.28 290.36 596.59"/><polygon class="cls-6" points="290.33 605.29 287.68 606.62 287.71 597.92 290.36 596.59 290.33 605.29"/><polygon class="cls-7" points="285.29 605.42 287.68 606.62 287.71 597.92 285.32 596.62 285.29 605.42"/><polygon class="cls-5" points="284 593.38 281.34 594.7 278.96 593.4 281.41 592.06 284 593.38"/><polygon class="cls-6" points="283.96 602.08 281.31 603.4 281.34 594.7 284 593.38 283.96 602.08"/><polygon class="cls-7" points="278.92 602.21 281.31 603.4 281.34 594.7 278.96 593.4 278.92 602.21"/><polygon class="cls-5" points="277.4 590.04 274.75 591.37 272.36 590.07 274.81 588.73 277.4 590.04"/><polygon class="cls-6" points="277.36 598.74 274.71 600.07 274.75 591.37 277.4 590.04 277.36 598.74"/><polygon class="cls-7" points="272.32 598.87 274.71 600.07 274.75 591.37 272.36 590.07 272.32 598.87"/><polygon class="cls-15" points="175.87 589.56 185.54 594.44 185.53 595.83 175.86 590.95 175.87 589.56"/><polygon class="cls-16" points="185.51 594.46 193.08 590.67 193.08 592.1 185.5 595.88 185.51 594.46"/><polygon class="cls-17" points="193.08 590.67 185.51 594.46 175.84 589.59 183.41 585.81 193.08 590.67"/><polygon class="cls-4" points="189.91 592.91 191.49 593.7 191.48 594.44 189.91 593.65 189.91 592.91"/><polygon class="cls-4" points="188.68 593.52 189.91 592.91 189.91 593.65 188.68 594.26 188.68 593.52"/><polygon class="cls-5" points="189.91 592.91 191.49 593.68 190.26 594.29 188.69 593.5 189.91 592.91"/><polygon class="cls-6" points="190.25 594.29 191.49 593.68 191.48 594.42 190.25 595.03 190.25 594.29"/><polygon class="cls-7" points="188.69 593.5 190.26 594.29 190.26 595.03 188.68 594.24 188.69 593.5"/><polyline class="cls-7" points="238.34 582.72 249.81 588.63 253.72 585.52 243.2 580 238.34 582.72 249.81 588.63 253.72 585.52 243.2 580"/><ellipse class="cls-7" cx="251.76" cy="587.07" rx="1.94" ry="3.51" transform="translate(-349.31 803.26) rotate(-86.57)"/><ellipse class="cls-7" cx="240.76" cy="581.35" rx="3.46" ry="1.91" transform="translate(-1.32 0.55) rotate(-0.13)"/><polyline class="cls-5" points="238.34 582.17 249.81 588.08 253.72 584.97 243.21 579.45 238.34 582.17 249.81 588.08 253.72 584.97 243.21 579.45"/><ellipse class="cls-5" cx="251.76" cy="586.52" rx="1.94" ry="3.51" transform="translate(-348.76 802.74) rotate(-86.57)"/><ellipse class="cls-5" cx="240.76" cy="580.8" rx="3.46" ry="1.91" transform="translate(-1.32 0.55) rotate(-0.13)"/><polyline class="cls-7" points="239.23 582.07 249.81 587.52 253.41 584.65 243.71 579.56 239.23 582.07 249.81 587.52 253.41 584.65 243.71 579.56"/><ellipse class="cls-7" cx="251.6" cy="586.08" rx="1.79" ry="3.24" transform="translate(-348.48 802.17) rotate(-86.57)"/><ellipse class="cls-7" cx="241.46" cy="580.81" rx="3.18" ry="1.76" transform="translate(-1.32 0.55) rotate(-0.13)"/><polygon class="cls-4" points="252.75 576.07 253.53 576.47 253.53 576.83 252.75 576.44 252.75 576.07"/><polygon class="cls-4" points="252.14 576.38 252.75 576.07 252.75 576.44 252.13 576.74 252.14 576.38"/><polygon class="cls-5" points="252.75 576.07 253.53 576.45 252.92 576.76 252.14 576.36 252.75 576.07"/><polygon class="cls-6" points="252.92 576.76 253.53 576.45 253.53 576.82 252.92 577.13 252.92 576.76"/><polygon class="cls-7" points="252.14 576.36 252.92 576.76 252.92 577.13 252.14 576.73 252.14 576.36"/><polygon class="cls-4" points="251.57 576.65 252.35 577.04 252.35 577.41 251.57 577.01 251.57 576.65"/><polygon class="cls-4" points="250.96 576.95 251.57 576.65 251.57 577.01 250.96 577.32 250.96 576.95"/><polygon class="cls-5" points="251.57 576.65 252.35 577.03 251.74 577.34 250.96 576.94 251.57 576.65"/><polygon class="cls-6" points="251.74 577.34 252.35 577.03 252.35 577.4 251.74 577.7 251.74 577.34"/><polygon class="cls-7" points="250.96 576.94 251.74 577.34 251.74 577.7 250.96 577.31 250.96 576.94"/><polygon class="cls-4" points="250.39 577.22 251.17 577.62 251.17 577.99 250.38 577.59 250.39 577.22"/><polygon class="cls-4" points="249.77 577.53 250.39 577.22 250.38 577.59 249.77 577.9 249.77 577.53"/><polygon class="cls-5" points="250.39 577.22 251.17 577.61 250.56 577.91 249.78 577.52 250.39 577.22"/><polygon class="cls-6" points="250.56 577.91 251.17 577.61 251.17 577.97 250.56 578.28 250.56 577.91"/><polygon class="cls-7" points="249.78 577.52 250.56 577.91 250.56 578.28 249.77 577.88 249.78 577.52"/><polygon class="cls-4" points="236.99 587.4 238.09 587.96 238.09 588.48 236.99 587.92 236.99 587.4"/><polygon class="cls-4" points="236.12 587.84 236.99 587.4 236.99 587.92 236.12 588.36 236.12 587.84"/><polygon class="cls-5" points="236.99 587.4 238.09 587.95 237.23 588.38 236.13 587.82 236.99 587.4"/><polygon class="cls-6" points="237.23 588.38 238.09 587.95 238.09 588.46 237.22 588.9 237.23 588.38"/><polygon class="cls-7" points="236.13 587.82 237.23 588.38 237.23 588.9 236.12 588.34 236.13 587.82"/><polygon class="cls-4" points="235.02 586.36 236.13 586.91 236.13 587.43 235.02 586.87 235.02 586.36"/><polygon class="cls-4" points="234.16 586.79 235.02 586.36 235.02 586.87 234.16 587.3 234.16 586.79"/><polygon class="cls-5" points="235.02 586.36 236.13 586.89 235.27 587.33 234.16 586.77 235.02 586.36"/><polygon class="cls-6" points="235.26 587.33 236.13 586.89 236.13 587.41 235.26 587.85 235.26 587.33"/><polygon class="cls-7" points="234.16 586.77 235.27 587.33 235.26 587.85 234.16 587.29 234.16 586.77"/><polygon class="cls-4" points="232.87 585.24 233.97 585.8 233.97 586.32 232.86 585.76 232.87 585.24"/><polygon class="cls-4" points="232 585.67 232.87 585.24 232.86 585.76 232 586.19 232 585.67"/><polygon class="cls-5" points="232.87 585.24 233.97 585.78 233.11 586.22 232 585.66 232.87 585.24"/><polygon class="cls-6" points="233.1 586.22 233.97 585.78 233.97 586.3 233.1 586.73 233.1 586.22"/><polygon class="cls-7" points="232 585.66 233.11 586.22 233.11 586.73 232 586.18 232 585.66"/><polygon class="cls-4" points="230.71 584.14 231.81 584.7 231.81 585.22 230.71 584.66 230.71 584.14"/><polygon class="cls-4" points="229.84 584.58 230.71 584.14 230.71 584.66 229.84 585.1 229.84 584.58"/><polygon class="cls-5" points="230.71 584.14 231.81 584.68 230.95 585.12 229.85 584.56 230.71 584.14"/><polygon class="cls-6" points="230.95 585.12 231.81 584.68 231.81 585.2 230.94 585.63 230.95 585.12"/><polygon class="cls-7" points="229.85 584.56 230.95 585.12 230.95 585.63 229.84 585.08 229.85 584.56"/><polygon class="cls-4" points="228.16 584.02 229.26 584.58 229.26 585.1 228.15 584.54 228.16 584.02"/><polygon class="cls-4" points="227.29 584.46 228.16 584.02 228.15 584.54 227.29 584.98 227.29 584.46"/><polygon class="cls-5" points="228.16 584.02 229.26 584.57 228.4 585 227.29 584.44 228.16 584.02"/><polygon class="cls-6" points="228.4 585 229.26 584.57 229.26 585.08 228.39 585.51 228.4 585"/><polygon class="cls-7" points="227.29 584.44 228.4 585 228.4 585.51 227.29 584.96 227.29 584.44"/><polygon class="cls-4" points="226.33 584.87 227.43 585.43 227.43 585.95 226.32 585.39 226.33 584.87"/><polygon class="cls-4" points="225.46 585.31 226.33 584.87 226.32 585.39 225.46 585.82 225.46 585.31"/><polygon class="cls-5" points="226.33 584.87 227.43 585.41 226.57 585.85 225.47 585.29 226.33 584.87"/><polygon class="cls-6" points="226.56 585.85 227.43 585.41 227.43 585.93 226.56 586.37 226.56 585.85"/><polygon class="cls-7" points="225.47 585.29 226.57 585.85 226.57 586.37 225.46 585.81 225.47 585.29"/><polygon class="cls-4" points="224.5 585.77 225.6 586.33 225.6 586.84 224.5 586.29 224.5 585.77"/><polygon class="cls-4" points="223.64 586.2 224.5 585.77 224.5 586.29 223.63 586.72 223.64 586.2"/><polygon class="cls-5" points="224.5 585.77 225.6 586.31 224.74 586.74 223.64 586.18 224.5 585.77"/><polygon class="cls-6" points="224.74 586.74 225.6 586.31 225.6 586.83 224.74 587.26 224.74 586.74"/><polygon class="cls-7" points="223.64 586.18 224.74 586.74 224.74 587.26 223.64 586.7 223.64 586.18"/><polygon class="cls-4" points="222.61 586.68 223.72 587.24 223.72 587.76 222.61 587.2 222.61 586.68"/><polygon class="cls-4" points="221.75 587.12 222.61 586.68 222.61 587.2 221.75 587.63 221.75 587.12"/><polygon class="cls-5" points="222.61 586.68 223.72 587.22 222.86 587.66 221.75 587.1 222.61 586.68"/><polygon class="cls-6" points="222.85 587.66 223.72 587.22 223.72 587.74 222.85 588.17 222.85 587.66"/><polygon class="cls-7" points="221.75 587.1 222.86 587.66 222.85 588.17 221.75 587.62 221.75 587.1"/><polygon class="cls-18" points="237.22 600.99 241.68 598.84 259.88 608.17 255.4 610.31 237.22 600.99"/><polygon class="cls-18" points="240.49 599.41 241.69 598.83 299.61 628.11 298.4 628.69 240.49 599.41"/><path class="cls-19" d="M252,565.29l11.7.24,0,3.92h0c0,1.39-1.65,2.67-4.18,3.09-3.1.51-6.36-.47-7.28-2.18a1.85,1.85,0,0,1-.21-1h0Z"/><path class="cls-20" d="M264.72,571.85l11.7.24,0,3.92h0c0,1.39-1.64,2.67-4.17,3.08-3.11.51-6.37-.46-7.28-2.18a1.94,1.94,0,0,1-.22-.95h0Z"/><polygon class="cls-13" points="233.35 606.01 241.34 602.26 241.28 618.31 233.29 622.07 233.35 606.01"/><polygon class="cls-12" points="190.34 584.49 233.35 606.01 233.29 622.07 190.28 600.54 190.34 584.49"/><polygon class="cls-10" points="190.34 584.49 233.35 606.01 241.34 602.26 197.65 580.86 190.34 584.49"/><polygon class="cls-13" points="232.49 599.44 228 601.6 233.74 604.5 238.24 602.35 232.49 599.44"/><polygon class="cls-13" points="225.75 596.03 221.26 598.19 227 601.1 231.5 598.94 225.75 596.03"/><polygon class="cls-13" points="218.69 592.63 214.2 594.79 219.94 597.7 224.44 595.54 218.69 592.63"/><polygon class="cls-13" points="211.69 589.21 207.21 591.37 212.94 594.28 217.44 592.12 211.69 589.21"/><polygon class="cls-13" points="205.01 585.87 200.52 588.02 206.26 590.93 210.76 588.77 205.01 585.87"/><polygon class="cls-13" points="198.11 582.35 193.63 584.51 199.36 587.42 203.87 585.26 198.11 582.35"/><polygon class="cls-11" points="279.12 628.75 287.11 625 287.05 641.05 279.06 644.81 279.12 628.75"/><polygon class="cls-12" points="236.11 607.23 279.12 628.75 279.06 644.81 236.05 623.28 236.11 607.23"/><polygon class="cls-10" points="236.11 607.23 279.12 628.75 287.11 625 243.42 603.6 236.11 607.23"/><polygon class="cls-13" points="278.26 622.18 273.77 624.33 279.51 627.24 284.01 625.09 278.26 622.18"/><polygon class="cls-13" points="271.52 618.77 267.03 620.93 272.77 623.84 277.27 621.68 271.52 618.77"/><polygon class="cls-13" points="264.46 615.37 259.97 617.53 265.7 620.44 270.21 618.28 264.46 615.37"/><polygon class="cls-13" points="257.46 611.95 252.97 614.11 258.71 617.02 263.21 614.86 257.46 611.95"/><polygon class="cls-13" points="250.78 608.61 246.29 610.76 252.03 613.67 256.53 611.51 250.78 608.61"/><polygon class="cls-13" points="243.88 605.09 239.4 607.25 245.13 610.16 249.63 608 243.88 605.09"/><polygon class="cls-13" points="315.59 572.6 322.65 569.28 322.59 583.48 315.53 586.79 315.59 572.6"/><polygon class="cls-12" points="284.14 556.63 315.59 572.6 315.53 586.79 284.09 570.82 284.14 556.63"/><polygon class="cls-10" points="284.14 556.63 315.59 572.6 322.65 569.28 290.61 553.42 284.14 556.63"/><polygon class="cls-13" points="314.82 566.79 310.86 568.7 315.93 571.26 319.91 569.36 314.82 566.79"/><polygon class="cls-13" points="308.86 563.78 304.9 565.69 309.97 568.26 313.95 566.35 308.86 563.78"/><polygon class="cls-13" points="302.62 560.77 298.65 562.68 303.73 565.25 307.71 563.34 302.62 560.77"/><polygon class="cls-13" points="296.44 557.75 292.47 559.65 297.54 562.23 301.52 560.32 296.44 557.75"/><polygon class="cls-13" points="290.53 554.79 286.56 556.7 291.63 559.27 295.62 557.36 290.53 554.79"/><polygon class="cls-11" points="350.03 589.86 357.09 586.54 357.04 600.74 349.97 604.05 350.03 589.86"/><polygon class="cls-12" points="318.59 573.89 350.03 589.86 349.97 604.05 318.53 588.08 318.59 573.89"/><polygon class="cls-21" points="318.59 573.89 350.03 589.86 357.09 586.54 325.05 570.68 318.59 573.89"/><polygon class="cls-13" points="349.27 584.05 345.3 585.96 350.37 588.53 354.35 586.62 349.27 584.05"/><polygon class="cls-13" points="343.31 581.04 339.34 582.95 344.41 585.52 348.39 583.61 343.31 581.04"/><polygon class="cls-13" points="337.06 578.03 333.1 579.94 338.17 582.51 342.15 580.6 337.06 578.03"/><polygon class="cls-13" points="330.88 575.01 326.91 576.91 331.98 579.49 335.97 577.58 330.88 575.01"/><polygon class="cls-13" points="324.97 572.05 321.01 573.96 326.08 576.53 330.06 574.62 324.97 572.05"/><ellipse class="cls-5" cx="270.56" cy="572.06" rx="5.86" ry="3.24" transform="translate(-1.3 0.61) rotate(-0.13)"/><ellipse class="cls-5" cx="257.86" cy="565.76" rx="5.86" ry="3.24" transform="translate(-1.28 0.59) rotate(-0.13)"/><path class="cls-22" d="M268.91,569c3.1-.51,6.36.46,7.28,2.18a2,2,0,0,1-.36,2.31l-8.21-4.18A9,9,0,0,1,268.91,569Z"/><path class="cls-22" d="M256.22,562.63c3.12-.51,6.4.47,7.32,2.18a2,2,0,0,1-.36,2.32L254.93,563A9,9,0,0,1,256.22,562.63Z"/><polygon class="cls-4" points="229.56 585.28 222.52 588.66 231.52 593.22 238.58 589.84 229.56 585.28"/><polygon class="cls-4" points="229.56 583.88 222.53 587.27 231.52 591.83 238.59 588.45 229.56 583.88"/><polygon class="cls-13" points="238.58 589.84 238.59 588.45 231.52 591.83 231.52 593.22 238.58 589.84"/><polygon class="cls-14" points="222.52 588.66 222.53 587.27 231.52 591.83 231.52 593.22 222.52 588.66"/><polygon class="cls-4" points="235.71 564.57 228.67 567.95 232.6 569.92 239.66 566.54 235.71 564.57"/><polygon class="cls-13" points="239.66 567.93 239.66 566.54 232.6 569.92 232.59 571.31 239.66 567.93"/><polygon class="cls-14" points="228.66 569.34 228.67 567.95 232.6 569.92 232.59 571.31 228.66 569.34"/><ellipse class="cls-5" cx="184.46" cy="589.75" rx="3.45" ry="1.91" transform="matrix(1, 0, 0, 1, -1.34, 0.42)"/><polygon class="cls-4" points="238.47 589.36 239.57 589.92 239.57 590.44 238.46 589.88 238.47 589.36"/><polygon class="cls-4" points="237.6 589.79 238.47 589.36 238.46 589.88 237.6 590.31 237.6 589.79"/><polygon class="cls-5" points="238.47 589.36 239.57 589.9 238.71 590.33 237.6 589.77 238.47 589.36"/><polygon class="cls-6" points="238.7 590.33 239.57 589.9 239.57 590.42 238.7 590.85 238.7 590.33"/><polygon class="cls-7" points="237.6 589.77 238.71 590.33 238.71 590.85 237.6 590.29 237.6 589.77"/><polygon class="cls-4" points="236.63 590.21 237.74 590.77 237.74 591.29 236.63 590.73 236.63 590.21"/><polygon class="cls-4" points="235.77 590.64 236.63 590.21 236.63 590.73 235.77 591.16 235.77 590.64"/><polygon class="cls-5" points="236.63 590.21 237.74 590.75 236.88 591.18 235.77 590.62 236.63 590.21"/><polygon class="cls-6" points="236.87 591.18 237.74 590.75 237.74 591.27 236.87 591.7 236.87 591.18"/><polygon class="cls-7" points="235.77 590.62 236.88 591.18 236.88 591.7 235.77 591.14 235.77 590.62"/><polygon class="cls-4" points="234.81 591.1 235.91 591.66 235.91 592.18 234.81 591.62 234.81 591.1"/><polygon class="cls-4" points="233.94 591.53 234.81 591.1 234.81 591.62 233.94 592.05 233.94 591.53"/><polygon class="cls-5" points="234.81 591.1 235.91 591.64 235.05 592.07 233.95 591.52 234.81 591.1"/><polygon class="cls-6" points="235.05 592.07 235.91 591.64 235.91 592.16 235.05 592.59 235.05 592.07"/><polygon class="cls-7" points="233.95 591.52 235.05 592.07 235.05 592.59 233.95 592.03 233.95 591.52"/><polygon class="cls-4" points="232.92 592.02 234.03 592.58 234.02 593.1 232.92 592.54 232.92 592.02"/><polygon class="cls-4" points="232.06 592.45 232.92 592.02 232.92 592.54 232.06 592.97 232.06 592.45"/><polygon class="cls-5" points="232.92 592.02 234.03 592.56 233.16 592.99 232.06 592.43 232.92 592.02"/><polygon class="cls-6" points="233.16 592.99 234.03 592.56 234.02 593.08 233.16 593.51 233.16 592.99"/><polygon class="cls-7" points="232.06 592.43 233.16 592.99 233.16 593.51 232.06 592.95 232.06 592.43"/><polygon class="cls-4" points="229.66 591.8 230.77 592.36 230.76 592.87 229.66 592.32 229.66 591.8"/><polygon class="cls-4" points="228.8 592.23 229.66 591.8 229.66 592.32 228.8 592.75 228.8 592.23"/><polygon class="cls-5" points="229.66 591.8 230.77 592.34 229.91 592.77 228.8 592.21 229.66 591.8"/><polygon class="cls-6" points="229.9 592.77 230.77 592.34 230.76 592.86 229.9 593.29 229.9 592.77"/><polygon class="cls-7" points="228.8 592.21 229.91 592.77 229.9 593.29 228.8 592.73 228.8 592.21"/><polygon class="cls-4" points="227.7 590.75 228.8 591.3 228.8 591.82 227.7 591.26 227.7 590.75"/><polygon class="cls-4" points="226.84 591.18 227.7 590.75 227.7 591.26 226.83 591.7 226.84 591.18"/><polygon class="cls-5" points="227.7 590.75 228.8 591.29 227.94 591.72 226.84 591.16 227.7 590.75"/><polygon class="cls-6" points="227.94 591.72 228.8 591.29 228.8 591.8 227.94 592.24 227.94 591.72"/><polygon class="cls-7" points="226.84 591.16 227.94 591.72 227.94 592.24 226.84 591.68 226.84 591.16"/><polygon class="cls-4" points="225.54 589.63 226.65 590.19 226.64 590.71 225.54 590.15 225.54 589.63"/><polygon class="cls-4" points="224.68 590.07 225.54 589.63 225.54 590.15 224.68 590.59 224.68 590.07"/><polygon class="cls-5" points="225.54 589.63 226.65 590.17 225.78 590.61 224.68 590.05 225.54 589.63"/><polygon class="cls-6" points="225.78 590.61 226.65 590.17 226.64 590.69 225.78 591.13 225.78 590.61"/><polygon class="cls-7" points="224.68 590.05 225.78 590.61 225.78 591.13 224.68 590.57 224.68 590.05"/><polygon class="cls-4" points="223.38 588.54 224.49 589.09 224.49 589.61 223.38 589.05 223.38 588.54"/><polygon class="cls-4" points="222.52 588.97 223.38 588.54 223.38 589.05 222.52 589.49 222.52 588.97"/><polygon class="cls-5" points="223.38 588.54 224.49 589.08 223.63 589.51 222.52 588.95 223.38 588.54"/><polygon class="cls-6" points="223.62 589.51 224.49 589.08 224.49 589.6 223.62 590.03 223.62 589.51"/><polygon class="cls-7" points="222.52 588.95 223.63 589.51 223.62 590.03 222.52 589.47 222.52 588.95"/><polygon class="cls-4" points="239.08 567.44 240.65 568.23 240.65 568.97 239.07 568.18 239.08 567.44"/><polygon class="cls-4" points="237.84 568.05 239.08 567.44 239.07 568.18 237.84 568.79 237.84 568.05"/><polygon class="cls-5" points="239.08 567.44 240.65 568.21 239.42 568.82 237.85 568.03 239.08 567.44"/><polygon class="cls-6" points="239.42 568.82 240.65 568.21 240.65 568.95 239.41 569.56 239.42 568.82"/><polygon class="cls-7" points="237.85 568.03 239.42 568.82 239.42 569.56 237.85 568.77 237.85 568.03"/><polygon class="cls-4" points="236.71 568.6 238.28 569.39 238.28 570.13 236.71 569.33 236.71 568.6"/><polygon class="cls-4" points="235.48 569.21 236.71 568.6 236.71 569.33 235.48 569.95 235.48 569.21"/><polygon class="cls-5" points="236.71 568.6 238.28 569.37 237.06 569.98 235.48 569.18 236.71 568.6"/><polygon class="cls-6" points="237.05 569.98 238.28 569.37 238.28 570.1 237.05 570.72 237.05 569.98"/><polygon class="cls-7" points="235.48 569.18 237.06 569.98 237.05 570.72 235.48 569.92 235.48 569.18"/><polygon class="cls-4" points="234.33 569.75 235.9 570.55 235.9 571.29 234.33 570.49 234.33 569.75"/><polygon class="cls-4" points="233.1 570.37 234.33 569.75 234.33 570.49 233.09 571.11 233.1 570.37"/><polygon class="cls-5" points="234.33 569.75 235.9 570.52 234.68 571.14 233.1 570.34 234.33 569.75"/><polygon class="cls-6" points="234.67 571.14 235.9 570.52 235.9 571.26 234.67 571.88 234.67 571.14"/><polygon class="cls-7" points="233.1 570.34 234.68 571.14 234.67 571.88 233.1 571.08 233.1 570.34"/><polygon class="cls-4" points="253.43 576.07 249.92 577.76 251.88 578.74 255.39 577.05 253.43 576.07"/><polygon class="cls-13" points="255.39 577.75 255.39 577.05 251.88 578.74 251.87 579.43 255.39 577.75"/><polygon class="cls-14" points="249.92 578.45 249.92 577.76 251.88 578.74 251.87 579.43 249.92 578.45"/><polygon class="cls-4" points="255.1 577.5 255.88 577.9 255.88 578.26 255.1 577.87 255.1 577.5"/><polygon class="cls-4" points="254.49 577.81 255.1 577.5 255.1 577.87 254.49 578.17 254.49 577.81"/><polygon class="cls-5" points="255.1 577.5 255.88 577.88 255.27 578.19 254.49 577.79 255.1 577.5"/><polygon class="cls-6" points="255.27 578.19 255.88 577.88 255.88 578.25 255.27 578.56 255.27 578.19"/><polygon class="cls-7" points="254.49 577.79 255.27 578.19 255.27 578.56 254.49 578.16 254.49 577.79"/><polygon class="cls-4" points="253.92 578.08 254.71 578.47 254.7 578.84 253.92 578.45 253.92 578.08"/><polygon class="cls-4" points="253.31 578.38 253.92 578.08 253.92 578.45 253.31 578.75 253.31 578.38"/><polygon class="cls-5" points="253.92 578.08 254.71 578.46 254.1 578.77 253.31 578.37 253.92 578.08"/><polygon class="cls-6" points="254.09 578.77 254.71 578.46 254.71 578.83 254.09 579.13 254.09 578.77"/><polygon class="cls-7" points="253.31 578.37 254.1 578.77 254.09 579.13 253.31 578.74 253.31 578.37"/><polygon class="cls-4" points="252.74 578.65 253.52 579.05 253.52 579.42 252.74 579.02 252.74 578.65"/><polygon class="cls-4" points="252.13 578.96 252.74 578.65 252.74 579.02 252.12 579.33 252.13 578.96"/><polygon class="cls-5" points="252.74 578.65 253.52 579.04 252.91 579.34 252.13 578.95 252.74 578.65"/><polygon class="cls-6" points="252.91 579.34 253.52 579.04 253.52 579.4 252.91 579.71 252.91 579.34"/><polygon class="cls-7" points="252.13 578.95 252.91 579.34 252.91 579.71 252.13 579.32 252.13 578.95"/><path class="cls-2" d="M262.28,556.73a3.08,3.08,0,0,0-2.27,1.52h0c-.55-1.06.51-2.17,2.35-2.49s3.79.29,4.33,1.35a1.17,1.17,0,0,1-.09,1.17C266.06,557.06,264.12,556.37,262.28,556.73Z"/><ellipse class="cls-23" cx="305.66" cy="624.02" rx="5.3" ry="2.93" transform="matrix(1, 0, 0, 1, -1.41, 0.69)"/><path class="cls-2" d="M304,622.62a4.74,4.74,0,0,0-3.5,2.33h0c-.83-1.63.79-3.34,3.63-3.83s5.81.44,6.65,2.07a1.79,1.79,0,0,1-.14,1.8C309.84,623.12,306.87,622.06,304,622.62Z"/><polygon class="cls-7" points="254.81 584.9 254.84 586.24 252.74 587.08 248.95 586.65 238.49 581 238.3 580.62 238.3 579.22 244.5 579.97 254.81 584.9"/><polyline class="cls-5" points="239.21 580.77 249.78 586.22 253.38 583.35 243.69 578.26 239.21 580.77 249.78 586.22 253.38 583.35 243.69 578.26"/><ellipse class="cls-5" cx="251.57" cy="584.77" rx="1.79" ry="3.24" transform="translate(-347.2 800.92) rotate(-86.57)"/><ellipse class="cls-5" cx="241.43" cy="579.5" rx="3.18" ry="1.76" transform="translate(-1.31 0.55) rotate(-0.13)"/><polygon class="cls-4" points="187.58 593.96 189.15 594.75 189.15 595.49 187.57 594.7 187.58 593.96"/><polygon class="cls-4" points="186.34 594.58 187.58 593.96 187.57 594.7 186.34 595.31 186.34 594.58"/><polygon class="cls-5" points="187.58 593.96 189.15 594.73 187.92 595.35 186.35 594.55 187.58 593.96"/><polygon class="cls-6" points="187.92 595.35 189.15 594.73 189.15 595.47 187.91 596.08 187.92 595.35"/><polygon class="cls-7" points="186.35 594.55 187.92 595.35 187.92 596.08 186.35 595.29 186.35 594.55"/><polygon class="cls-14" points="241.64 553.7 255.27 560.61 255.42 550.9 241.68 545.42 241.64 553.7"/><path class="cls-14" d="M237.85,540.87a3.14,3.14,0,0,1,4,3.22l0,8.9-7.83,3.63,0-8.91C233.9,541.85,235.51,541.55,237.85,540.87Z"/><polygon class="cls-14" points="233.92 557.7 247.54 564.62 247.71 551.61 234.14 546.21 233.92 557.7"/><polygon class="cls-14" points="239.74 540.74 253.38 546.92 247.28 550.7 234.12 545.54 239.74 540.74"/><path class="cls-13" d="M251.48,546.92c2.2-.72,4,1.3,3.94,3.61l0,10-7.84,4.08,0-10C247.52,548,249.14,547.68,251.48,546.92Z"/></svg>