<svg id="Layer_1" data-name="Layer 1" xmlns="http://www.w3.org/2000/svg" viewBox="0 0 850.32 709.66"><defs><style>.cls-1{fill:#38ae7c;}.cls-2{fill:#70d3a9;}.cls-3{fill:#04b263;}.cls-4{fill:#05ce78;}</style></defs><title>kickstarter svg</title><rect class="cls-1" x="375" y="465.72" width="473" height="243.93"/><ellipse class="cls-2" cx="611.5" cy="465.72" rx="236.5" ry="119.5"/><polygon class="cls-3" points="511.13 186.85 489.51 202.72 511.19 212.38 511.13 186.85"/><polygon class="cls-3" points="740.27 480.53 711.83 501.82 711.89 478.63 730.84 475.89 740.27 480.53"/><path class="cls-3" d="M622.48,455.11s41.59,61.38,98.66,37.44,29.15-87.45,19.43-101.61-34.3-38.54-34.3-38.54l30.35-26.22s27.93-23.61,15.49-66.48-53.43-58.3-53.43-58.3-46.15-18.76-75.9,16.07c0,0-24.59-37.43-60.41-41.32s-67.39,9.67-72.86,50V397.67s5.16,63.14,67.7,77.2C557.21,474.87,595.46,485.87,622.48,455.11Z"/><path class="cls-4" d="M601.08,470.82s41.59,61.37,98.67,37.44,29.14-87.46,19.43-101.62-34.31-38.53-34.31-38.53l30.36-26.22s27.93-23.61,15.48-66.48-53.43-58.3-53.43-58.3-46.14-18.76-75.89,16.06c0,0-24.59-37.42-60.41-41.31s-67.4,9.67-72.86,50V413.38s5.16,63.14,67.69,77.2C535.81,490.58,574.07,501.58,601.08,470.82Z"/></svg>