<svg width="85" height="82" viewBox="0 0 85 82" fill="none" xmlns="http://www.w3.org/2000/svg">
<path d="M46.8314 32.3909C46.8314 25.904 41.524 20.5965 35.037 20.5965C28.5501 20.5965 23.2426 25.904 23.2426 32.3909C23.2426 38.8779 28.5501 44.1853 35.037 44.1853C41.524 44.1853 46.8314 38.8779 46.8314 32.3909ZM35.037 36.3224C32.8747 36.3224 31.1056 34.5532 31.1056 32.3909C31.1056 30.2286 32.8747 28.4595 35.037 28.4595C37.1993 28.4595 38.9685 30.2286 38.9685 32.3909C38.9685 34.5532 37.1993 36.3224 35.037 36.3224ZM60.5916 44.1853C64.9555 44.1853 68.4545 40.6863 68.4545 36.3224C68.4545 31.9585 64.9555 28.4595 60.5916 28.4595C56.2276 28.4595 52.6893 31.9585 52.7286 36.3224C52.7286 40.6863 56.2276 44.1853 60.5916 44.1853ZM44.8264 0.978516C23.1247 0.978516 5.51172 18.5915 5.51172 40.2932C5.51172 61.9949 23.1247 79.6079 44.8264 79.6079C66.5281 79.6079 84.1411 61.9949 84.1411 40.2932C84.1411 18.5915 66.5281 0.978516 44.8264 0.978516V0.978516ZM20.6479 60.383C23.3213 58.26 29.5723 56.0191 35.037 56.0191C35.3122 56.0191 35.6268 56.0584 35.9413 56.0584C36.8848 53.5422 38.5754 50.9868 41.0522 48.7458C38.8506 48.3527 36.7669 48.1168 35.037 48.1168C29.9261 48.1168 21.7094 49.886 16.4412 53.7388C14.4755 49.6501 13.3747 45.0896 13.3747 40.2539C13.3747 22.9161 27.4886 8.80214 44.8264 8.80214C62.1642 8.80214 76.2781 22.9161 76.2781 40.2539C76.2781 44.9716 75.2166 49.4535 73.3295 53.5029C69.3981 51.1833 64.0513 50.0825 60.5916 50.0825C54.6157 50.0825 42.9 53.267 42.9 60.6975V71.627C33.9755 71.1159 26.034 66.8699 20.6479 60.383V60.383Z" fill="#42A8C1"/>
<path d="M41.6908 34.4915C41.6908 28.0046 36.3833 22.6971 29.8964 22.6971C23.4095 22.6971 18.102 28.0046 18.102 34.4915C18.102 40.9784 23.4095 46.2859 29.8964 46.2859C36.3833 46.2859 41.6908 40.9784 41.6908 34.4915ZM29.8964 38.423C27.7341 38.423 25.9649 36.6538 25.9649 34.4915C25.9649 32.3292 27.7341 30.5601 29.8964 30.5601C32.0587 30.5601 33.8279 32.3292 33.8279 34.4915C33.8279 36.6538 32.0587 38.423 29.8964 38.423ZM55.4509 46.2859C59.8149 46.2859 63.3139 42.7869 63.3139 38.423C63.3139 34.0591 59.8149 30.5601 55.4509 30.5601C51.087 30.5601 47.5487 34.0591 47.588 38.423C47.588 42.7869 51.087 46.2859 55.4509 46.2859ZM39.6858 3.0791C17.9841 3.0791 0.371094 20.6921 0.371094 42.3938C0.371094 64.0955 17.9841 81.7084 39.6858 81.7084C61.3875 81.7084 79.0004 64.0955 79.0004 42.3938C79.0004 20.6921 61.3875 3.0791 39.6858 3.0791V3.0791ZM15.5072 62.4836C18.1806 60.3606 24.4317 58.1196 29.8964 58.1196C30.1716 58.1196 30.4861 58.159 30.8006 58.159C31.7442 55.6428 33.4347 53.0874 35.9116 50.8464C33.7099 50.4533 31.6263 50.2174 29.8964 50.2174C24.7855 50.2174 16.5687 51.9866 11.3006 55.8394C9.33484 51.7507 8.23403 47.1902 8.23403 42.3545C8.23403 25.0167 22.348 10.9027 39.6858 10.9027C57.0235 10.9027 71.1375 25.0167 71.1375 42.3545C71.1375 47.0722 70.076 51.5541 68.1889 55.6035C64.2574 53.2839 58.9106 52.1831 55.4509 52.1831C49.4751 52.1831 37.7593 55.3676 37.7593 62.7981V73.7276C28.8349 73.2165 20.8934 68.9705 15.5072 62.4836V62.4836Z" fill="white"/>
</svg>
