<svg width="498" height="170" viewBox="0 0 498 170" fill="none" xmlns="http://www.w3.org/2000/svg">
<path opacity="0.1" d="M191.885 16.4688C300.648 3.93153 465.114 25.8502 490.35 72.5897C479.446 133.952 54.3205 144.514 20.4041 136.078C-63.8342 115.124 136.435 22.8607 191.885 16.4688Z" fill="#5FE394"/>
<path d="M199.593 35.3669C253.923 29.1041 322.183 31.447 380.007 41.1949C408.919 46.0688 435.203 52.7909 455.824 61.2039C476.379 69.5899 491.206 79.6159 497.476 91.0745C496.782 94.7064 494.573 98.1946 490.958 101.542C487.287 104.942 482.192 108.172 475.85 111.232C463.166 117.353 445.576 122.756 424.63 127.497C382.745 136.977 327.55 143.784 271.616 148.411C215.686 153.039 159.036 155.485 114.25 156.248C91.8571 156.629 72.4335 156.589 57.5513 156.191C42.6436 155.792 32.351 155.033 28.1751 153.995C17.6748 151.383 11.7734 147.694 9.40176 143.347C7.05603 139.048 8.07264 133.912 11.9287 128.127C15.7808 122.347 22.3955 116.039 30.9754 109.509C39.5484 102.985 50.0542 96.2625 61.6592 89.6484C84.869 76.4204 112.446 63.6434 137.684 53.7747C162.936 43.9009 185.798 36.957 199.593 35.3669Z" stroke="#5FE394"/>
</svg>
