<svg width="64" height="61" viewBox="0 0 64 61" fill="none" xmlns="http://www.w3.org/2000/svg">
<path d="M50.573 18.8549L53.2136 13.0681L59.0004 10.4275L53.2136 7.78686L50.573 2L47.9324 7.78686L42.1455 10.4275L47.9324 13.0681L50.573 18.8549Z" fill="#209CE2"/>
<path d="M18.2654 18.8549L20.906 13.0681L26.6928 10.4275L20.906 7.78686L18.2654 2L15.6247 7.78686L9.83789 10.4275L15.6247 13.0681L18.2654 18.8549Z" fill="#209CE2"/>
<path d="M50.573 34.3037L47.9324 40.0906L42.1455 42.7312L47.9324 45.3718L50.573 51.1586L53.2136 45.3718L59.0004 42.7312L53.2136 40.0906L50.573 34.3037Z" fill="#209CE2"/>
<path d="M44.1388 24.8114L36.1889 16.8615C35.6271 16.3278 34.9248 16.0469 34.1944 16.0469C33.4641 16.0469 32.7618 16.3278 32.1999 16.8615L0.821678 48.2398C-0.273893 49.3354 -0.273893 51.1051 0.821678 52.2007L8.77159 60.1506C9.33342 60.7124 10.0357 60.9934 10.7661 60.9934C11.4965 60.9934 12.1988 60.7124 12.7606 60.1787L44.1388 28.8004C45.2344 27.7049 45.2344 25.907 44.1388 24.8114ZM34.1944 22.845L38.1553 26.8059L34.8686 30.0927L30.9077 26.1317L34.1944 22.845ZM10.7661 54.2233L6.80518 50.2624L26.9468 30.0927L30.9077 34.0536L10.7661 54.2233Z" fill="#209CE2"/>
<path d="M55.573 16.8549L58.2136 11.0681L64.0004 8.42746L58.2136 5.78686L55.573 0L52.9324 5.78686L47.1455 8.42746L52.9324 11.0681L55.573 16.8549Z" fill="white"/>
<path d="M23.2654 16.8549L25.906 11.0681L31.6928 8.42746L25.906 5.78686L23.2654 0L20.6247 5.78686L14.8379 8.42746L20.6247 11.0681L23.2654 16.8549Z" fill="white"/>
<path d="M55.573 32.3037L52.9324 38.0906L47.1455 40.7312L52.9324 43.3718L55.573 49.1586L58.2136 43.3718L64.0004 40.7312L58.2136 38.0906L55.573 32.3037Z" fill="white"/>
<path d="M49.1388 22.8114L41.1889 14.8615C40.6271 14.3278 39.9248 14.0469 39.1944 14.0469C38.4641 14.0469 37.7618 14.3278 37.1999 14.8615L5.82168 46.2398C4.72611 47.3354 4.72611 49.1051 5.82168 50.2007L13.7716 58.1506C14.3334 58.7124 15.0357 58.9934 15.7661 58.9934C16.4965 58.9934 17.1988 58.7124 17.7606 58.1787L49.1388 26.8004C50.2344 25.7049 50.2344 23.907 49.1388 22.8114ZM39.1944 20.845L43.1553 24.8059L39.8686 28.0927L35.9077 24.1317L39.1944 20.845ZM15.7661 52.2233L11.8052 48.2624L31.9468 28.0927L35.9077 32.0536L15.7661 52.2233Z" fill="white"/>
</svg>
