<svg width="543" height="1156" viewBox="0 0 543 1156" fill="none" xmlns="http://www.w3.org/2000/svg">
<g clip-path="url(#clip0_26_2504)">
<path opacity="0.2" d="M44.6065 100.871L375.52 373.708C395.272 389.993 399.533 418.567 385.392 439.906L22.3247 987.794C-2.05125 1024.58 -58.6535 1014.05 -68.1765 970.965L-171.029 505.585C-173.133 496.069 -172.409 486.147 -168.948 477.037L-33.9415 121.691C-21.7857 89.6959 18.1989 79.0975 44.6065 100.871Z" stroke="#0A73DC"/>
<path opacity="0.1" d="M61.9361 181.846L392.85 454.684C412.602 470.969 416.863 499.542 402.722 520.882L39.6543 1068.77C15.2783 1105.56 -41.3239 1095.03 -50.8469 1051.94L-153.699 586.56C-155.803 577.044 -155.079 567.122 -151.618 558.012L-16.6119 202.666C-4.45608 170.671 35.5285 160.073 61.9361 181.846Z" fill="#0A73DC"/>
</g>
<defs>
<clipPath id="clip0_26_2504">
<rect width="543" height="1156" fill="white"/>
</clipPath>
</defs>
</svg>
