<svg width="431" height="1009" viewBox="0 0 431 1009" fill="none" xmlns="http://www.w3.org/2000/svg">
<g clip-path="url(#clip0_26_2506)">
<path opacity="0.3" d="M888.956 375.78L575.787 966.152C559.583 996.699 517.051 999.88 496.484 972.082L145.865 498.194C135.1 483.643 133.646 464.204 142.128 448.214L336.115 82.5198C348.279 59.589 376.729 50.8607 399.659 63.0246L869.46 312.235C892.391 324.399 901.12 352.849 888.956 375.78Z" stroke="#FDD135"/>
<path opacity="0.1" d="M914.559 434.517L601.39 1024.89C585.186 1055.44 542.654 1058.62 522.087 1030.82L171.468 556.931C160.703 542.38 159.249 522.941 167.731 506.951L361.718 141.256C373.882 118.326 402.332 109.597 425.262 121.761L895.063 370.972C917.994 383.136 926.723 411.586 914.559 434.517Z" fill="#FDD135"/>
</g>
<defs>
<clipPath id="clip0_26_2506">
<rect width="431" height="1009" fill="white"/>
</clipPath>
</defs>
</svg>
